<svg class="animated" id="freepik_stories-inbox-cleanup" xmlns="http://www.w3.org/2000/svg" viewBox="0 0 500 500" version="1.1" xmlns:xlink="http://www.w3.org/1999/xlink" xmlns:svgjs="http://svgjs.com/svgjs"><style>svg#freepik_stories-inbox-cleanup:not(.animated) .animable {opacity: 0;}svg#freepik_stories-inbox-cleanup.animated #freepik--Trash--inject-5 {animation: 1.5s Infinite  linear shake;animation-delay: 0s;}            @keyframes shake {                10%, 90% {                    transform: translate3d(-1px, 0, 0);                  }                  20%, 80% {                    transform: translate3d(2px, 0, 0);                  }                  30%, 50%, 70% {                    transform: translate3d(-4px, 0, 0);                  }                  40%, 60% {                    transform: translate3d(4px, 0, 0);                  }            }        .animator-hidden { display: none; }</style><g id="freepik--background-complete--inject-5" class="animable" style="transform-origin: 250px 227.39px;"><rect y="382.4" width="500" height="0.25" style="fill: rgb(235, 235, 235); transform-origin: 250px 382.525px;" id="elugcfumgfioq" class="animable"></rect><rect x="52.46" y="391.92" width="33.12" height="0.25" style="fill: rgb(235, 235, 235); transform-origin: 69.02px 392.045px;" id="elazgmc2w37vt" class="animable"></rect><rect x="171.14" y="389.21" width="42.53" height="0.25" style="fill: rgb(235, 235, 235); transform-origin: 192.405px 389.335px;" id="elixw75nijk3" class="animable"></rect><rect x="93.47" y="395.43" width="19.19" height="0.25" style="fill: rgb(235, 235, 235); transform-origin: 103.065px 395.555px;" id="elpx48gaukg8s" class="animable"></rect><rect x="434.67" y="399.53" width="15.23" height="0.25" style="fill: rgb(235, 235, 235); transform-origin: 442.285px 399.655px;" id="elcolpb3c6ef8" class="animable"></rect><rect x="391.47" y="399.53" width="34.29" height="0.25" style="fill: rgb(235, 235, 235); transform-origin: 408.615px 399.655px;" id="el1pmv2vlfa7xj" class="animable"></rect><rect x="308" y="392.33" width="23.83" height="0.25" style="fill: rgb(235, 235, 235); transform-origin: 319.915px 392.455px;" id="ellno5fcqohok" class="animable"></rect><path d="M237,337.8H43.92a5.71,5.71,0,0,1-5.71-5.71V60.66A5.71,5.71,0,0,1,43.92,55H237a5.71,5.71,0,0,1,5.71,5.71V332.09A5.71,5.71,0,0,1,237,337.8ZM43.92,55.2a5.47,5.47,0,0,0-5.46,5.46V332.09a5.47,5.47,0,0,0,5.46,5.46H237a5.47,5.47,0,0,0,5.46-5.46V60.66A5.47,5.47,0,0,0,237,55.2Z" style="fill: rgb(235, 235, 235); transform-origin: 140.46px 196.4px;" id="el7h3ra97pm3s" class="animable"></path><path d="M453.31,337.8H260.21a5.72,5.72,0,0,1-5.71-5.71V60.66A5.72,5.72,0,0,1,260.21,55h193.1A5.71,5.71,0,0,1,459,60.66V332.09A5.71,5.71,0,0,1,453.31,337.8ZM260.21,55.2a5.47,5.47,0,0,0-5.46,5.46V332.09a5.47,5.47,0,0,0,5.46,5.46h193.1a5.47,5.47,0,0,0,5.46-5.46V60.66a5.47,5.47,0,0,0-5.46-5.46Z" style="fill: rgb(235, 235, 235); transform-origin: 356.75px 196.4px;" id="eloivlbte2t5" class="animable"></path><g id="el7go2gfvi6iw"><rect x="307.5" y="88.22" width="107.87" height="108.16" style="fill: rgb(240, 240, 240); transform-origin: 361.435px 142.3px; transform: rotate(180deg);" class="animable"></rect></g><rect x="305.64" y="88.22" width="1.86" height="108.16" style="fill: rgb(224, 224, 224); transform-origin: 306.57px 142.3px;" id="eljzpqfzuba2p" class="animable"></rect><g id="elrrenk68y3f"><rect x="317.02" y="95.05" width="88.82" height="94.5" style="fill: rgb(250, 250, 250); transform-origin: 361.43px 142.3px; transform: rotate(180deg);" class="animable"></rect></g><path d="M352,169h28.13c6.1,0,10.18-4.94,9.11-11l-5.47-31.33a13.7,13.7,0,0,0-13-11H342.71c-6.1,0-10.18,4.94-9.11,11L339.07,158A13.69,13.69,0,0,0,352,169Z" style="fill: rgb(240, 240, 240); transform-origin: 361.42px 142.335px;" id="elxnwv7rpujer" class="animable"></path><rect x="80.97" y="229.22" width="24" height="148.05" style="fill: rgb(240, 240, 240); transform-origin: 92.97px 303.245px;" id="eldllmx71hbbi" class="animable"></rect><rect x="83.42" y="377.28" width="126.86" height="5.11" style="fill: rgb(240, 240, 240); transform-origin: 146.85px 379.835px;" id="elvle0fvufh38" class="animable"></rect><g id="el9aohk9u2sci"><rect x="104.96" y="229.22" width="107.42" height="148.05" style="fill: rgb(245, 245, 245); transform-origin: 158.67px 303.245px; transform: rotate(180deg);" class="animable"></rect></g><g id="el628xbrhe3wp"><rect x="109.28" y="306.32" width="98.78" height="26.44" style="fill: rgb(240, 240, 240); transform-origin: 158.67px 319.54px; transform: rotate(180deg);" class="animable"></rect></g><g id="elv9ioqve0yz"><rect x="109.28" y="340.92" width="98.78" height="26.44" style="fill: rgb(240, 240, 240); transform-origin: 158.67px 354.14px; transform: rotate(180deg);" class="animable"></rect></g><rect x="119.8" y="304.69" width="77.76" height="3.63" rx="1.18" style="fill: rgb(245, 245, 245); transform-origin: 158.68px 306.505px;" id="el70vxelpsc1j" class="animable"></rect><rect x="119.8" y="339.3" width="77.76" height="3.63" rx="1.18" style="fill: rgb(245, 245, 245); transform-origin: 158.68px 341.115px;" id="eldewe085owhv" class="animable"></rect><g id="elc98a04fzbii"><rect x="109.28" y="237.39" width="98.78" height="26.44" style="fill: rgb(240, 240, 240); transform-origin: 158.67px 250.61px; transform: rotate(180deg);" class="animable"></rect></g><g id="el54b9ulxlege"><rect x="109.28" y="271.71" width="98.78" height="26.44" style="fill: rgb(240, 240, 240); transform-origin: 158.67px 284.93px; transform: rotate(180deg);" class="animable"></rect></g><rect x="119.8" y="235.77" width="77.76" height="3.63" rx="1.18" style="fill: rgb(245, 245, 245); transform-origin: 158.68px 237.585px;" id="elx1dqh0spgko" class="animable"></rect><rect x="119.8" y="270.09" width="77.76" height="3.63" rx="1.18" style="fill: rgb(245, 245, 245); transform-origin: 158.68px 271.905px;" id="elxk4irykqc7" class="animable"></rect><rect x="73.79" y="80.06" width="134.71" height="118.26" style="fill: rgb(230, 230, 230); transform-origin: 141.145px 139.19px;" id="elmdr747u65q" class="animable"></rect><path d="M222.94,75.46H65.07a1.33,1.33,0,0,0-1.33,1.34h0a1.33,1.33,0,0,0,1.33,1.33H222.94a1.34,1.34,0,0,0,1.34-1.33h0A1.34,1.34,0,0,0,222.94,75.46Z" style="fill: rgb(230, 230, 230); transform-origin: 144.01px 76.795px;" id="elkw2wx0fipas" class="animable"></path><rect x="76.46" y="80.06" width="137.76" height="118.26" style="fill: rgb(240, 240, 240); transform-origin: 145.34px 139.19px;" id="elo14nb5g6uxj" class="animable"></rect><polygon points="208.5 198.32 73.79 198.32 73.79 202.11 212.44 202.11 208.5 198.32" style="fill: rgb(230, 230, 230); transform-origin: 143.115px 200.215px;" id="el9jzjpps72ee" class="animable"></polygon><polygon points="223.74 198.32 85.99 198.32 89.92 202.11 227.68 202.11 223.74 198.32" style="fill: rgb(240, 240, 240); transform-origin: 156.835px 200.215px;" id="elczer61jszov" class="animable"></polygon><g id="elk9q7rygl38e"><rect x="94.21" y="78.31" width="102.26" height="121.75" style="fill: rgb(250, 250, 250); transform-origin: 145.34px 139.185px; transform: rotate(90deg);" class="animable"></rect></g><polygon points="112.11 190.32 159.07 88.06 181.25 88.06 134.28 190.32 112.11 190.32" style="fill: rgb(255, 255, 255); transform-origin: 146.68px 139.19px;" id="el1tddb060328" class="animable"></polygon><polygon points="139.04 190.32 186.01 88.06 194.65 88.06 147.69 190.32 139.04 190.32" style="fill: rgb(255, 255, 255); transform-origin: 166.845px 139.19px;" id="eluu3hikpdwx" class="animable"></polygon><g id="elthshgdvsun"><rect x="154.58" y="138.68" width="102.26" height="1.02" style="fill: rgb(230, 230, 230); transform-origin: 205.71px 139.19px; transform: rotate(90deg);" class="animable"></rect></g><g id="el2svvvxp7cvx"><g style="opacity: 0.4; transform-origin: 91.445px 121.865px;" class="animable"><rect x="70.79" y="73.07" width="13.77" height="97.59" style="fill: rgb(240, 240, 240); transform-origin: 77.675px 121.865px;" id="elsp8a428357i" class="animable"></rect><rect x="79.2" y="73.07" width="10.73" height="97.59" style="fill: rgb(230, 230, 230); transform-origin: 84.565px 121.865px;" id="elupsxdzwlido" class="animable"></rect><rect x="84.56" y="73.07" width="13.77" height="97.59" style="fill: rgb(240, 240, 240); transform-origin: 91.445px 121.865px;" id="el1kmfe1wf3uv" class="animable"></rect><rect x="92.97" y="73.07" width="10.73" height="97.59" style="fill: rgb(230, 230, 230); transform-origin: 98.335px 121.865px;" id="ele49fokqbyvh" class="animable"></rect><rect x="98.33" y="73.07" width="13.77" height="97.59" style="fill: rgb(240, 240, 240); transform-origin: 105.215px 121.865px;" id="el2ol19z9b8xl" class="animable"></rect></g></g><g id="el9v1v0zx3zsi"><g style="opacity: 0.4; transform-origin: 205.065px 121.865px;" class="animable"><rect x="193.16" y="73.07" width="7.94" height="97.59" style="fill: rgb(240, 240, 240); transform-origin: 197.13px 121.865px;" id="elw7jlod5gxz" class="animable"></rect><rect x="198" y="73.07" width="6.18" height="97.59" style="fill: rgb(230, 230, 230); transform-origin: 201.09px 121.865px;" id="el72ccw6t21rs" class="animable"></rect><rect x="201.09" y="73.07" width="7.94" height="97.59" style="fill: rgb(240, 240, 240); transform-origin: 205.06px 121.865px;" id="elazh7efo155" class="animable"></rect><rect x="205.94" y="73.07" width="6.18" height="97.59" style="fill: rgb(230, 230, 230); transform-origin: 209.03px 121.865px;" id="elbekckj0hcb" class="animable"></rect><rect x="209.03" y="73.07" width="7.94" height="97.59" style="fill: rgb(240, 240, 240); transform-origin: 213px 121.865px;" id="el2501yuh6z55" class="animable"></rect></g></g><path d="M356.85,269.21a7.34,7.34,0,1,0,7.92-6.72A7.35,7.35,0,0,0,356.85,269.21Z" style="fill: rgb(224, 224, 224); transform-origin: 364.166px 269.805px;" id="elp8f8944o14" class="animable"></path><g id="elp78cgjqw84"><circle cx="376.17" cy="273.66" r="7.35" style="fill: rgb(224, 224, 224); transform-origin: 376.17px 273.66px; transform: rotate(-8.37deg);" class="animable"></circle></g><path d="M381.72,274.55a7.34,7.34,0,1,0,7.92-6.72A7.33,7.33,0,0,0,381.72,274.55Z" style="fill: rgb(224, 224, 224); transform-origin: 389.036px 275.145px;" id="elcjaeinqddvn" class="animable"></path><path d="M343.2,273.06a7.34,7.34,0,1,0,7.92-6.72A7.35,7.35,0,0,0,343.2,273.06Z" style="fill: rgb(224, 224, 224); transform-origin: 350.516px 273.655px;" id="el70m4846cozc" class="animable"></path><g id="eljtx4jbtfzcq"><circle cx="399.63" cy="273.66" r="7.35" style="fill: rgb(224, 224, 224); transform-origin: 399.63px 273.66px; transform: rotate(-8.37deg);" class="animable"></circle></g><g id="ell0cgszo8o4o"><circle cx="340.66" cy="269.27" r="7.35" style="fill: rgb(224, 224, 224); transform-origin: 340.66px 269.27px; transform: rotate(-40.5392deg);" class="animable"></circle></g><path d="M322.92,271.39a7.34,7.34,0,1,0,7.92-6.72A7.35,7.35,0,0,0,322.92,271.39Z" style="fill: rgb(224, 224, 224); transform-origin: 330.236px 271.985px;" id="eln6tbti76cv8" class="animable"></path><path d="M314.53,273.37s1.26,30.07,49.58,30.07,49.58-30.07,49.58-30.07Z" style="fill: rgb(240, 240, 240); transform-origin: 364.11px 288.405px;" id="elrud0yzgnrrp" class="animable"></path><rect x="432.07" y="303.44" width="9.19" height="78.95" style="fill: rgb(230, 230, 230); transform-origin: 436.665px 342.915px;" id="elssunj49w6jg" class="animable"></rect><rect x="438.3" y="303.44" width="5.41" height="78.95" style="fill: rgb(240, 240, 240); transform-origin: 441.005px 342.915px;" id="elti72m1d4ma" class="animable"></rect><rect x="392.97" y="303.44" width="9.19" height="78.95" style="fill: rgb(230, 230, 230); transform-origin: 397.565px 342.915px;" id="elroqrqlfsqk" class="animable"></rect><rect x="398.47" y="303.44" width="5.41" height="78.95" style="fill: rgb(240, 240, 240); transform-origin: 401.175px 342.915px;" id="elm3eayltld3" class="animable"></rect><g id="el1w4m1tx8sa3"><rect x="314.93" y="303.44" width="130.46" height="9.57" style="fill: rgb(240, 240, 240); transform-origin: 380.16px 308.225px; transform: rotate(180deg);" class="animable"></rect></g><rect x="265.87" y="303.44" width="9.19" height="78.95" style="fill: rgb(230, 230, 230); transform-origin: 270.465px 342.915px;" id="elni5phwde3is" class="animable"></rect><rect x="271.37" y="303.44" width="5.41" height="78.95" style="fill: rgb(240, 240, 240); transform-origin: 274.075px 342.915px;" id="elff8prp4pyj8" class="animable"></rect><g id="elb6828vx071l"><rect x="264.23" y="303.44" width="46.77" height="9.57" style="fill: rgb(230, 230, 230); transform-origin: 287.615px 308.225px; transform: rotate(180deg);" class="animable"></rect></g><rect x="304.96" y="303.44" width="9.19" height="78.95" style="fill: rgb(230, 230, 230); transform-origin: 309.555px 342.915px;" id="elrkj1dyr39cj" class="animable"></rect><rect x="311.2" y="303.44" width="5.41" height="78.95" style="fill: rgb(240, 240, 240); transform-origin: 313.905px 342.915px;" id="el9sg45735bkf" class="animable"></rect></g><g id="freepik--Shadow--inject-5" class="animable" style="transform-origin: 250px 416.24px;"><ellipse id="freepik--path--inject-5" cx="250" cy="416.24" rx="193.89" ry="11.32" style="fill: rgb(245, 245, 245); transform-origin: 250px 416.24px;" class="animable"></ellipse></g><g id="freepik--Trash--inject-5" class="animable animator-active" style="transform-origin: 311.805px 369.205px;"><path d="M355.48,406.31a8.44,8.44,0,0,1-7.05,8.33,220.3,220.3,0,0,1-73.3,0,8.43,8.43,0,0,1-7-8.33v-81h87.39Z" style="fill: rgb(196, 64, 255); transform-origin: 311.825px 371.51px;" id="el06nm12h0xt4y" class="animable"></path><g id="elryki8e0vwpj"><path d="M268.08,326.77v11.37c5.26,1.95,22.53,3.38,43.7,3.38s38.47-1.43,43.7-3.38V326.77Z" style="opacity: 0.3; transform-origin: 311.78px 334.145px;" class="animable"></path></g><path d="M357.12,335.44c0,2.57-19.84,4.65-45.34,4.65s-45.34-2.08-45.34-4.65l-.83-10.1H358Z" style="fill: rgb(196, 64, 255); transform-origin: 311.805px 332.715px;" id="el3nde7ci0iy" class="animable"></path><ellipse cx="311.78" cy="325.34" rx="46.17" ry="4.64" style="fill: rgb(196, 64, 255); transform-origin: 311.78px 325.34px;" id="elenf638d06um" class="animable"></ellipse><g id="elubz13j3j7q"><ellipse cx="311.78" cy="325.34" rx="46.17" ry="4.64" style="opacity: 0.3; transform-origin: 311.78px 325.34px;" class="animable"></ellipse></g><g id="elgqtxqdmdt1i"><path d="M279.8,400.61h0a3.4,3.4,0,0,1-3.39-3.39V350.78a3.4,3.4,0,0,1,3.39-3.39h0a3.41,3.41,0,0,1,3.39,3.39v46.44A3.41,3.41,0,0,1,279.8,400.61Z" style="opacity: 0.2; transform-origin: 279.8px 374px;" class="animable"></path></g><g id="elpsvpznu02"><path d="M343.77,400.61h0a3.4,3.4,0,0,1-3.39-3.39V350.78a3.4,3.4,0,0,1,3.39-3.39h0a3.41,3.41,0,0,1,3.39,3.39v46.44A3.41,3.41,0,0,1,343.77,400.61Z" style="opacity: 0.2; transform-origin: 343.77px 374px;" class="animable"></path></g><g id="elnbfwijusk5d"><path d="M322.44,400.61h0a3.41,3.41,0,0,1-3.39-3.39V350.78a3.41,3.41,0,0,1,3.39-3.39h0a3.4,3.4,0,0,1,3.39,3.39v46.44A3.4,3.4,0,0,1,322.44,400.61Z" style="opacity: 0.2; transform-origin: 322.44px 374px;" class="animable"></path></g><g id="eluhd3070nwfr"><path d="M301.12,400.61h0a3.41,3.41,0,0,1-3.39-3.39V350.78a3.41,3.41,0,0,1,3.39-3.39h0a3.4,3.4,0,0,1,3.39,3.39v46.44A3.4,3.4,0,0,1,301.12,400.61Z" style="opacity: 0.2; transform-origin: 301.12px 374px;" class="animable"></path></g></g><g id="freepik--Character--inject-5" class="animable" style="transform-origin: 193.238px 272.987px;"><path d="M192.88,139.16a4.64,4.64,0,1,1-4.64-4.64A4.64,4.64,0,0,1,192.88,139.16Z" style="fill: rgb(38, 50, 56); transform-origin: 188.24px 139.16px;" id="elxbhsg5klw7b" class="animable"></path><path d="M184.51,139.83a.24.24,0,0,1-.22-.13,4.88,4.88,0,0,1,8.58-4.67.26.26,0,0,1-.1.34.25.25,0,0,1-.34-.1,4.38,4.38,0,0,0-7.7,4.19.25.25,0,0,1-.1.34A.27.27,0,0,1,184.51,139.83Z" style="fill: rgb(38, 50, 56); transform-origin: 188.297px 136.155px;" id="el56yrpffb8sa" class="animable"></path><path d="M180,160.36a4.89,4.89,0,0,1-3.91-7.8,4.88,4.88,0,0,1,3.21-1.91.24.24,0,0,1,.28.21.25.25,0,0,1-.21.28,4.38,4.38,0,0,0,1.27,8.67.25.25,0,0,1,.08.5A5.81,5.81,0,0,1,180,160.36Z" style="fill: rgb(38, 50, 56); transform-origin: 178.032px 155.503px;" id="elineanrgz7t" class="animable"></path><path d="M205.21,167.92a4.83,4.83,0,0,1-2.64-.79.26.26,0,0,1-.08-.35.26.26,0,0,1,.35-.07,4.38,4.38,0,0,0,4.77-7.35.26.26,0,0,1-.08-.35.26.26,0,0,1,.35-.07,4.89,4.89,0,0,1,1.44,6.75,4.82,4.82,0,0,1-3.08,2.12A5.15,5.15,0,0,1,205.21,167.92Z" style="fill: rgb(38, 50, 56); transform-origin: 206.278px 163.41px;" id="el23vgfygkiv6" class="animable"></path><circle cx="185.64" cy="147.07" r="6.56" style="fill: rgb(38, 50, 56); transform-origin: 185.64px 147.07px;" id="elh8nhm38ymme" class="animable"></circle><g id="el4jdpvuaw0hn"><circle cx="185.64" cy="155.9" r="8.7" style="fill: rgb(38, 50, 56); transform-origin: 185.64px 155.9px; transform: rotate(-45deg);" class="animable"></circle></g><circle cx="186.56" cy="166.96" r="9.62" style="fill: rgb(38, 50, 56); transform-origin: 186.56px 166.96px;" id="elagij6b5d6vh" class="animable"></circle><g id="ele9trhjetepn"><circle cx="196.19" cy="167.63" r="9.62" style="fill: rgb(38, 50, 56); transform-origin: 196.19px 167.63px; transform: rotate(-76.72deg);" class="animable"></circle></g><path d="M228.09,187.46c0,.78,0,1.77.07,2.67s.07,1.86.13,2.79c.13,1.86.26,3.74.46,5.61q.54,5.63,1.51,11.21c.17.92.32,1.86.51,2.78l.44,2.27c.11.36,0,.29-.14.28s0,.18.59.18A12.58,12.58,0,0,0,236,214c.8-.36,1.62-.75,2.44-1.17s1.65-.9,2.4-1.32l2.92,3.37a28.1,28.1,0,0,1-2.22,2.27,25.67,25.67,0,0,1-2.44,2.05,22.09,22.09,0,0,1-2.83,1.81,13.55,13.55,0,0,1-3.58,1.34,9.12,9.12,0,0,1-2.35.2,7.64,7.64,0,0,1-2.78-.7,7.34,7.34,0,0,1-2.43-1.84,8.81,8.81,0,0,1-1.4-2.25,12.65,12.65,0,0,1-.66-1.93l-.39-1.46c-.28-1-.51-1.95-.75-2.93a111.47,111.47,0,0,1-2.16-11.92c-.25-2-.45-4-.57-6.05-.06-1-.11-2-.14-3.06s0-2,0-3.19Z" style="fill: rgb(255, 181, 115); transform-origin: 231.403px 204.89px;" id="elok0iouoonu" class="animable"></path><path d="M223.24,176.68c8.53,6.53,8.19,18.84,8.19,18.84l-15.26,3.65s-4.68-12.38-2.78-16.91C215.37,177.54,218.44,173,223.24,176.68Z" style="fill: rgb(196, 64, 255); transform-origin: 222.184px 187.252px;" id="elzh65py1h1s" class="animable"></path><g id="elg41i36yg18t"><path d="M223.24,176.68c8.53,6.53,8.19,18.84,8.19,18.84l-15.26,3.65s-4.68-12.38-2.78-16.91C215.37,177.54,218.44,173,223.24,176.68Z" style="fill: rgb(255, 255, 255); opacity: 0.7; transform-origin: 222.184px 187.252px;" class="animable"></path></g><path d="M240.27,212.66l2.52-4.24,6.32,6.76s-4.53,2.9-9.23.83Z" style="fill: rgb(255, 181, 115); transform-origin: 244.495px 212.588px;" id="eljspl6vvbcn" class="animable"></path><polygon points="245.9 206.39 254.01 211.17 249.11 215.18 242.79 208.42 245.9 206.39" style="fill: rgb(255, 181, 115); transform-origin: 248.4px 210.785px;" id="el6d7esuy0d1f" class="animable"></polygon><polygon points="175.49 408.86 184.21 409.7 189.63 389.27 180.9 388.43 175.49 408.86" style="fill: rgb(255, 181, 115); transform-origin: 182.56px 399.065px;" id="elci1on2s0vw9" class="animable"></polygon><polygon points="130.79 391.69 138.62 395.79 147.93 377.33 140.1 373.23 130.79 391.69" style="fill: rgb(255, 181, 115); transform-origin: 139.36px 384.51px;" id="eluvrtuguqpf" class="animable"></polygon><path d="M140.71,392.2l-7-7.11a.69.69,0,0,0-.92-.08l-6.43,4.73a1.43,1.43,0,0,0-.12,2.12c2.48,2.44,3.8,3.49,6.88,6.62,1.9,1.92,5.8,6.45,8.42,9.11s5.38.21,4.53-1.13c-3.82-6-4.46-9.77-4.7-12.82A2.31,2.31,0,0,0,140.71,392.2Z" style="fill: rgb(38, 50, 56); transform-origin: 136.027px 396.824px;" id="eld8r6uy4jrvu" class="animable"></path><path d="M185.57,407.05H175a.87.87,0,0,0-.83.64L171.91,416a1.31,1.31,0,0,0,1.29,1.67c3.71,0,5.47,0,10.1,0h14.17c3.85,0,4.66-3.89,3.06-4.25-7.14-1.58-11.26-3.76-13.46-5.84A2.21,2.21,0,0,0,185.57,407.05Z" style="fill: rgb(38, 50, 56); transform-origin: 186.582px 412.36px;" id="el59xg5ecj98c" class="animable"></path><g id="elzm9t8mi7xvm"><polygon points="189.62 389.28 186.83 399.81 177.88 399.81 180.89 388.44 189.62 389.28" style="opacity: 0.2; transform-origin: 183.75px 394.125px;" class="animable"></polygon></g><g id="elmshh80yoggr"><polygon points="140.09 373.23 147.93 377.34 143.13 386.85 135.29 382.74 140.09 373.23" style="opacity: 0.2; transform-origin: 141.61px 380.04px;" class="animable"></polygon></g><path d="M220.66,175.42s3.86,1.69-9.08,52.89l-35.94-3.11c1.87-14.57,2.66-23.59-1.73-54.22a107.55,107.55,0,0,1,15.44-.69,115.37,115.37,0,0,1,16.32,1.41A152.47,152.47,0,0,1,220.66,175.42Z" style="fill: rgb(196, 64, 255); transform-origin: 197.554px 199.28px;" id="el16rakhavppt" class="animable"></path><g id="el7qb1bwy23ew"><path d="M220.66,175.42s3.86,1.69-9.08,52.89l-35.94-3.11c1.87-14.57,2.66-23.59-1.73-54.22a107.55,107.55,0,0,1,15.44-.69,115.37,115.37,0,0,1,16.32,1.41A152.47,152.47,0,0,1,220.66,175.42Z" style="fill: rgb(255, 255, 255); opacity: 0.7; transform-origin: 197.554px 199.28px;" class="animable"></path></g><path d="M189.35,170s-2,0-4.45,0c-1.45,2.23,4.67,8.74,12.45,15.14,1.88-5.83,4.84-5.81,4.84-5.81Z" style="fill: rgb(255, 255, 255); transform-origin: 193.438px 177.57px;" id="elx8p77quo6ql" class="animable"></path><path d="M205.66,171.57s.91.13,3.09.63c1.44,2.23,2.25,7.81-2,12.67-1.67-6-4.55-5.46-4.55-5.46Z" style="fill: rgb(255, 255, 255); transform-origin: 206.054px 178.22px;" id="el9xs6pbsht6" class="animable"></path><path d="M192.55,152.05c.58,5.34.77,15-3.2,18.24,0,0,4.24,4.34,12.84,9.12,6.24-4.32,3.48-7.71,3.48-7.71-5.74-1.9-5.21-6.23-3.84-10.23Z" style="fill: rgb(255, 181, 115); transform-origin: 197.814px 165.73px;" id="elpa54eew5aib" class="animable"></path><g id="el37r4z88jx6g"><path d="M196.34,155.9l5.49,5.57a16.7,16.7,0,0,0-.76,2.85c-2.2-.51-5.4-2.81-5.44-5.17A9.25,9.25,0,0,1,196.34,155.9Z" style="opacity: 0.2; transform-origin: 198.73px 160.11px;" class="animable"></path></g><path d="M213.17,134.63c3.68,3.26,4.76,11.2,1.26,16.59A73,73,0,0,1,213.17,134.63Z" style="fill: rgb(38, 50, 56); transform-origin: 214.84px 142.925px;" id="elpc8vvc4xox" class="animable"></path><path d="M191.43,140.84c-.64,8.79-1.09,12.5,2.71,17.57,5.72,7.63,16.66,6.48,19.91-1.94,2.93-7.59,3.48-20.69-4.59-25.31A12,12,0,0,0,191.43,140.84Z" style="fill: rgb(255, 181, 115); transform-origin: 203.513px 146.519px;" id="el1cs7n4frrkij" class="animable"></path><path d="M190.26,147.92c6.5-.25,10.1-8.75,8.47-12.34,7.37,3.84,18.53,6.86,17.29,1.92-1.67-6.67-9.74-11.56-19.67-8C190.6,132,185.68,137.5,190.26,147.92Z" style="fill: rgb(38, 50, 56); transform-origin: 202.286px 138.112px;" id="elu2y6gjkzfrc" class="animable"></path><path d="M188.28,147.91a6.5,6.5,0,0,0,2.58,4.19c1.84,1.31,3.52-.15,3.65-2.28.12-1.93-.69-4.93-2.85-5.39A2.89,2.89,0,0,0,188.28,147.91Z" style="fill: rgb(255, 181, 115); transform-origin: 191.364px 148.486px;" id="el2vu3jbxpog2" class="animable"></path><path d="M211.58,228.31s8.13,53.05,3.6,87.13c-3.43,25.75-25.56,81.31-25.56,81.31l-14.37-.39s14.84-53.85,17.91-75c5.25-36.22-7.9-95.29-7.9-95.29Z" style="fill: rgb(38, 50, 56); transform-origin: 195.902px 311.41px;" id="elti3epg7jwr" class="animable"></path><g id="elv0tp44wdxe"><path d="M197.56,239.18l-7.67,12.09a370.91,370.91,0,0,1,4.39,43.3C205.06,275.27,200,249.39,197.56,239.18Z" style="opacity: 0.2; transform-origin: 195.395px 266.875px;" class="animable"></path></g><polygon points="191.86 397.55 173.8 397.06 174.9 391.25 193.56 391.36 191.86 397.55" style="fill: rgb(196, 64, 255); transform-origin: 183.68px 394.4px;" id="elgz7jiio7gkm" class="animable"></polygon><path d="M203.72,227.74s-6,58.74-19.71,90.7c-11.09,25.8-37.53,67.07-37.53,67.07l-10.56-6.18s17-45.89,25.39-63.09c20.47-42.17,1.43-76,14.33-91Z" style="fill: rgb(38, 50, 56); transform-origin: 169.82px 305.375px;" id="elzd6aws8lks" class="animable"></path><polygon points="147.63 386.41 134.16 379.02 136.35 373.26 150.7 381.36 147.63 386.41" style="fill: rgb(196, 64, 255); transform-origin: 142.43px 379.835px;" id="elzigcg9usufh" class="animable"></polygon><path d="M175.28,223.05l-1.9,3.08c-.14.23.13.52.55.55l37.69,3.26c.32,0,.61-.11.64-.31l.61-3.19c0-.22-.23-.43-.58-.46l-36.4-3.15A.68.68,0,0,0,175.28,223.05Z" style="fill: rgb(196, 64, 255); transform-origin: 193.106px 226.381px;" id="el736210xsyhf" class="animable"></path><path d="M179.82,227.54l-1-.08c-.19,0-.33-.13-.31-.25l.82-4.14c0-.13.21-.21.4-.19l1,.08c.2,0,.34.13.31.25l-.81,4.14C180.19,227.47,180,227.56,179.82,227.54Z" style="fill: rgb(38, 50, 56); transform-origin: 179.776px 225.21px;" id="elk8u10auji6" class="animable"></path><path d="M208.85,230.05l-1-.08c-.2,0-.34-.13-.31-.25l.82-4.14c0-.12.2-.21.39-.19l1,.08c.19,0,.33.13.31.25l-.82,4.14C209.22,230,209,230.07,208.85,230.05Z" style="fill: rgb(38, 50, 56); transform-origin: 208.799px 227.72px;" id="eldrwd1i4bpz6" class="animable"></path><path d="M194.33,228.8l-1-.09c-.19,0-.33-.13-.31-.25l.82-4.14c0-.12.2-.21.4-.19l1,.09c.19,0,.33.13.31.25l-.82,4.14C194.71,228.73,194.53,228.81,194.33,228.8Z" style="fill: rgb(38, 50, 56); transform-origin: 194.285px 226.464px;" id="elwo212vlt21e" class="animable"></path><path d="M205.2,145.21c-.1.71.2,1.34.66,1.4s.92-.46,1-1.17-.21-1.34-.67-1.4S205.29,144.5,205.2,145.21Z" style="fill: rgb(38, 50, 56); transform-origin: 206.027px 145.325px;" id="eljhubz2ld34g" class="animable"></path><path d="M213.22,146.29c-.09.71.21,1.34.67,1.4s.92-.46,1-1.17-.2-1.34-.66-1.4S213.32,145.58,213.22,146.29Z" style="fill: rgb(38, 50, 56); transform-origin: 214.054px 146.405px;" id="elcyvlpzoeiqu" class="animable"></path><path d="M214,145.13l1.78-.26S214.74,146.08,214,145.13Z" style="fill: rgb(38, 50, 56); transform-origin: 214.89px 145.182px;" id="el3oc90750x6j" class="animable"></path><path d="M210.07,147.07a19.38,19.38,0,0,0,1.92,4.87,3.08,3.08,0,0,1-2.59.14Z" style="fill: rgb(237, 137, 62); transform-origin: 210.695px 149.685px;" id="elpou9njoll7" class="animable"></path><path d="M205.24,154.2a5.83,5.83,0,0,1-3.3-2.73.18.18,0,0,1,.08-.23.18.18,0,0,1,.24.08,5.7,5.7,0,0,0,4.31,2.84.17.17,0,0,1,0,.34A6.1,6.1,0,0,1,205.24,154.2Z" style="fill: rgb(38, 50, 56); transform-origin: 204.332px 152.861px;" id="el8i5g0u3a1sc" class="animable"></path><path d="M201.55,141.1a.39.39,0,0,1-.15-.11.34.34,0,0,1,0-.49,4.06,4.06,0,0,1,3.66-.92.34.34,0,0,1,.23.43.35.35,0,0,1-.43.24,3.4,3.4,0,0,0-3,.78A.38.38,0,0,1,201.55,141.1Z" style="fill: rgb(38, 50, 56); transform-origin: 203.301px 140.287px;" id="eldx246ygk849" class="animable"></path><path d="M216.59,143.23a.42.42,0,0,1-.14-.09,3.44,3.44,0,0,0-2.87-1.2.33.33,0,0,1-.4-.29.35.35,0,0,1,.29-.4,4.11,4.11,0,0,1,3.49,1.42.35.35,0,0,1-.37.56Z" style="fill: rgb(38, 50, 56); transform-origin: 215.109px 142.239px;" id="elu89inj1c4cd" class="animable"></path><path d="M224.5,218.68a16.13,16.13,0,1,1,30.72,9.86L249,248l-30.72-9.87Z" style="fill: rgb(196, 64, 255); transform-origin: 237.136px 227.739px;" id="el3r5zwvq9dkq" class="animable"></path><g id="el5aly02s18xt"><path d="M224.5,218.68a16.13,16.13,0,1,1,30.72,9.86L249,248l-30.72-9.87Z" style="opacity: 0.3; transform-origin: 237.136px 227.739px;" class="animable"></path></g><path d="M194.19,208.94l-5.62,17.5a2,2,0,0,0,1.3,2.53l28.4,9.12,6.24-19.42a16.13,16.13,0,0,1,20.28-10.42l-30.31-9.74a16.15,16.15,0,0,0-20.29,10.43Z" style="fill: rgb(196, 64, 255); transform-origin: 216.63px 217.916px;" id="elk77h492s88" class="animable"></path><path d="M209.43,222.21l7.83-24.37a.64.64,0,0,0-.51-.82l-8-1.18-1,3.16,5.83,1.87-6.6,20.54Z" style="fill: rgb(38, 50, 56); transform-origin: 212.134px 209.025px;" id="elaxb6p00yljd" class="animable"></path><path d="M205.27,220.87a3,3,0,1,0,3.78-1.94A3,3,0,0,0,205.27,220.87Z" style="fill: rgb(38, 50, 56); transform-origin: 208.127px 221.785px;" id="elo7azap8b9n" class="animable"></path><path d="M219.75,241l39.4,12.65a1.14,1.14,0,0,0,1.44-.74h0a1.13,1.13,0,0,0-.74-1.44l-41.58-13.35h0A2.29,2.29,0,0,0,219.75,241Z" style="fill: rgb(196, 64, 255); transform-origin: 239.405px 245.913px;" id="ela1bnhjte344" class="animable"></path><g id="el8wsvw3ls3mb"><path d="M219.75,241l16.1,5.17a1.15,1.15,0,0,0,1.45-.74h0a1.15,1.15,0,0,0-.74-1.44l-18.29-5.87h0A2.29,2.29,0,0,0,219.75,241Z" style="opacity: 0.2; transform-origin: 227.757px 242.173px;" class="animable"></path></g><path d="M178.14,185.1l-.55.61-.62.71c-.42.48-.84,1-1.24,1.49-.82,1-1.6,2.07-2.33,3.15A53.61,53.61,0,0,0,166.34,205c-.4,1.24-.77,2.48-1.06,3.75-.1.37-.11.52-.16.69a4.2,4.2,0,0,0,0,.44,2.3,2.3,0,0,0,0,.47c0,.18.34.6,1.16,1a12.71,12.71,0,0,0,3.09.94,42.34,42.34,0,0,0,7.78.51c2.72,0,5.48-.24,8.24-.53s5.56-.65,8.27-1.06l1.09,4.33a91.59,91.59,0,0,1-17.15,3.81,43,43,0,0,1-9.25.2,19,19,0,0,1-5.14-1.22,11.51,11.51,0,0,1-2.76-1.58,9,9,0,0,1-2.4-2.87,10.2,10.2,0,0,1-.77-6.73c.24-1.53.59-3,1-4.54A52,52,0,0,1,161.4,194a59.39,59.39,0,0,1,4.51-8c.86-1.27,1.78-2.5,2.74-3.71.49-.6,1-1.19,1.5-1.78l.81-.87c.29-.31.52-.56.92-.94Z" style="fill: rgb(255, 181, 115); transform-origin: 175.887px 199.205px;" id="el2mnfu5hui1p" class="animable"></path><path d="M191.48,212.13l7-3.71.31,7.52s-5,2.07-7.86-.21Z" style="fill: rgb(255, 181, 115); transform-origin: 194.86px 212.61px;" id="el4yadf4vst9r" class="animable"></path><polygon points="204.25 207.85 203.2 214.78 198.8 215.94 198.49 208.42 204.25 207.85" style="fill: rgb(255, 181, 115); transform-origin: 201.37px 211.895px;" id="el8dtcdnz3tdv" class="animable"></polygon><path d="M173.91,171c-4.41.78-10.58,13.42-10.58,13.42l11.11,10s8.83-9.64,8.36-15.38C182.4,174.19,179.52,170,173.91,171Z" style="fill: rgb(196, 64, 255); transform-origin: 173.074px 182.636px;" id="el0w4arv62lt2" class="animable"></path><g id="elfp6klvo3dgc"><path d="M173.91,171c-4.41.78-10.58,13.42-10.58,13.42l11.11,10s8.83-9.64,8.36-15.38C182.4,174.19,179.52,170,173.91,171Z" style="fill: rgb(255, 255, 255); opacity: 0.7; transform-origin: 173.074px 182.636px;" class="animable"></path></g><path d="M144.15,396.06a1.34,1.34,0,0,1-.35,0c-1.11-.06-2.29-1.76-2.9-2.76a.17.17,0,0,1,0-.19.16.16,0,0,1,.18-.07c.36.07,3.47.77,3.86,1.82a.7.7,0,0,1-.12.68A1.32,1.32,0,0,1,144.15,396.06Zm-2.73-2.54c.89,1.37,1.77,2.19,2.4,2.23a.83.83,0,0,0,.72-.39.32.32,0,0,0,.07-.34C144.37,394.38,142.5,393.78,141.42,393.52Z" style="fill: rgb(196, 64, 255); transform-origin: 142.926px 394.553px;" id="el9r4uhxupfi" class="animable"></path><path d="M143.83,393.3a6.32,6.32,0,0,1-2.83.12.18.18,0,0,1-.12-.13.18.18,0,0,1,0-.17c.08-.07,1.9-1.85,3.17-1.76a1,1,0,0,1,.8.42.72.72,0,0,1,.08.88A2,2,0,0,1,143.83,393.3Zm-2.41-.16c1,.14,2.87-.11,3.26-.68.06-.09.11-.23-.07-.46a.67.67,0,0,0-.54-.29C143.2,391.65,141.94,392.67,141.42,393.14Z" style="fill: rgb(196, 64, 255); transform-origin: 142.951px 392.441px;" id="ellsme1i15dv" class="animable"></path><path d="M189.3,408.39a13.91,13.91,0,0,1-2.87-.37.17.17,0,0,1,0-.32c.43-.21,4.26-2,5.22-1.32a.58.58,0,0,1,.25.54,1.28,1.28,0,0,1-.52,1A3.49,3.49,0,0,1,189.3,408.39Zm-2.27-.6c1.13.21,3.23.49,4.1-.16a1,1,0,0,0,.38-.73.22.22,0,0,0-.1-.23C190.87,406.3,188.61,407.09,187,407.79Z" style="fill: rgb(196, 64, 255); transform-origin: 189.11px 407.315px;" id="eltukuyaizk3c" class="animable"></path><path d="M186.46,408a.21.21,0,0,1-.11,0,.2.2,0,0,1-.06-.18c0-.16.91-3.93,3-3.69.52.07.66.32.69.53.13,1-2.28,2.89-3.43,3.37Zm2.62-3.57c-1.32,0-2.09,2.2-2.35,3.08,1.25-.66,3-2.23,2.89-2.84,0-.05,0-.19-.39-.23Z" style="fill: rgb(196, 64, 255); transform-origin: 188.136px 406.075px;" id="elc2wz5ez3jrq" class="animable"></path><path d="M206,144.05l1.77-.26S206.72,145,206,144.05Z" style="fill: rgb(38, 50, 56); transform-origin: 206.885px 144.102px;" id="el2mly7if06ud" class="animable"></path></g><g id="freepik--E-mails--inject-5" class="animable animator-hidden" style="transform-origin: 281.057px 265.43px;"><path d="M267.53,227.71l-38.72,8a2.58,2.58,0,0,1-3-2L224,225.31l-.65-3.1,1.14-3.54a12.72,12.72,0,0,1,.57-1.49,1.07,1.07,0,0,1,.1-.22,15.43,15.43,0,0,1,2.55-4l2-.42,33.2-6.89a2.58,2.58,0,0,1,3,2l3.53,17A2.58,2.58,0,0,1,267.53,227.71Z" style="fill: rgb(196, 64, 255); transform-origin: 246.425px 220.68px;" id="elkvcb80wiiur" class="animable"></path><g id="elnfm6k9rl3j"><path d="M265.61,206.75l-18.68,19-4-1.62-15.56-6.31-2.19-.89a15.43,15.43,0,0,1,2.55-4l2-.42,33.2-6.89A2.59,2.59,0,0,1,265.61,206.75Z" style="opacity: 0.3; transform-origin: 245.395px 215.66px;" class="animable"></path></g><path d="M265.61,206.75l-22.68,17.41-1.48,1.14-14.25-7.07-2.12-1a1.07,1.07,0,0,1,.1-.22,15.43,15.43,0,0,1,2.55-4l2-.42,33.2-6.89A2.59,2.59,0,0,1,265.61,206.75Z" style="fill: rgb(196, 64, 255); transform-origin: 245.345px 215.47px;" id="el1t68ii8lsuz" class="animable"></path><g id="elhpzpqjbwr3"><path d="M265.61,206.75l-22.68,17.41-1.48,1.14-14.25-7.07-2.12-1a1.07,1.07,0,0,1,.1-.22,15.43,15.43,0,0,1,2.55-4l2-.42,33.2-6.89A2.59,2.59,0,0,1,265.61,206.75Z" style="fill: rgb(255, 255, 255); opacity: 0.2; transform-origin: 245.345px 215.47px;" class="animable"></path></g><path d="M314.8,262.78,303,275.5a2.58,2.58,0,0,1-3.63.13l-28.94-26.95a2.57,2.57,0,0,1-.13-3.63l11.84-12.72a2.56,2.56,0,0,1,3.64-.13l28.93,26.95a2.57,2.57,0,0,1,.65,2.8A2.36,2.36,0,0,1,314.8,262.78Z" style="fill: rgb(196, 64, 255); transform-origin: 292.571px 253.908px;" id="elenk3kg4tpft" class="animable"></path><g id="elwbivqwjppd"><path d="M315.32,262,289,257.71l-6.11-26a2.6,2.6,0,0,1,2.85.45l28.93,26.95A2.57,2.57,0,0,1,315.32,262Z" style="opacity: 0.3; transform-origin: 299.203px 246.736px;" class="animable"></path></g><path d="M315.32,262l-25.63-7.64-6.8-22.56a2.6,2.6,0,0,1,2.85.45l28.93,26.95A2.57,2.57,0,0,1,315.32,262Z" style="fill: rgb(196, 64, 255); transform-origin: 299.19px 246.781px;" id="elbv2v8sz81o" class="animable"></path><g id="elyq3sdbmq09"><path d="M315.32,262l-25.63-7.64-6.8-22.56a2.6,2.6,0,0,1,2.85.45l28.93,26.95A2.57,2.57,0,0,1,315.32,262Z" style="fill: rgb(255, 255, 255); opacity: 0.2; transform-origin: 299.19px 246.781px;" class="animable"></path></g><path d="M325.09,283.73l13,15.18a2.81,2.81,0,0,1-.43,4.06l-28.24,22a2.23,2.23,0,0,1-2.94-.58l-10.17-11.6a3.08,3.08,0,0,1-.47-.74,2.15,2.15,0,0,1,.23-2.32l25-26.11a2.69,2.69,0,0,1,3.14-.6A3,3,0,0,1,325.09,283.73Z" style="fill: rgb(196, 64, 255); transform-origin: 317.184px 304.022px;" id="els94l1oxo2yj" class="animable"></path><g id="el94ze6lhi45g"><path d="M324.21,283.05,318,310.67l-22.12,1.41a2.15,2.15,0,0,1,.23-2.32l25-26.11A2.69,2.69,0,0,1,324.21,283.05Z" style="opacity: 0.3; transform-origin: 309.926px 297.439px;" class="animable"></path></g><path d="M324.21,283.05,313.8,312.36l-17.94-.28a2.15,2.15,0,0,1,.23-2.32l25-26.11A2.69,2.69,0,0,1,324.21,283.05Z" style="fill: rgb(196, 64, 255); transform-origin: 309.916px 297.576px;" id="eluf8nludm5gr" class="animable"></path><g id="elgzh5sdgkjxe"><path d="M324.21,283.05,313.8,312.36l-17.94-.28a2.15,2.15,0,0,1,.23-2.32l25-26.11A2.69,2.69,0,0,1,324.21,283.05Z" style="fill: rgb(255, 255, 255); opacity: 0.2; transform-origin: 309.916px 297.576px;" class="animable"></path></g></g><defs>     <filter id="active" height="200%">         <feMorphology in="SourceAlpha" result="DILATED" operator="dilate" radius="2"></feMorphology>                <feFlood flood-color="#32DFEC" flood-opacity="1" result="PINK"></feFlood>        <feComposite in="PINK" in2="DILATED" operator="in" result="OUTLINE"></feComposite>        <feMerge>            <feMergeNode in="OUTLINE"></feMergeNode>            <feMergeNode in="SourceGraphic"></feMergeNode>        </feMerge>    </filter>    <filter id="hover" height="200%">        <feMorphology in="SourceAlpha" result="DILATED" operator="dilate" radius="2"></feMorphology>                <feFlood flood-color="#ff0000" flood-opacity="0.5" result="PINK"></feFlood>        <feComposite in="PINK" in2="DILATED" operator="in" result="OUTLINE"></feComposite>        <feMerge>            <feMergeNode in="OUTLINE"></feMergeNode>            <feMergeNode in="SourceGraphic"></feMergeNode>        </feMerge>            <feColorMatrix type="matrix" values="0   0   0   0   0                0   1   0   0   0                0   0   0   0   0                0   0   0   1   0 "></feColorMatrix>    </filter></defs></svg>