<svg xmlns="http://www.w3.org/2000/svg" viewBox="0 0 500 500"><g id="freepik--Floor--inject-20"><ellipse id="freepik--floor--inject-20" cx="250" cy="345.63" rx="240.18" ry="138.67" style="fill:#f0f0f0"></ellipse></g><g id="freepik--Shadows--inject-20"><ellipse id="freepik--Shadow--inject-20" cx="412.24" cy="303.84" rx="41.46" ry="23.93" style="fill:#e0e0e0"></ellipse><path id="freepik--shadow--inject-20" d="M272.6,396.76l80.71-46.6c2.39-1.38,2.39-3.62,0-5l-19.78-11.42a9.57,9.57,0,0,0-8.66,0l-80.7,46.6c-2.4,1.38-2.4,3.62,0,5l9.88,5.71L152.77,449.52c-2.39,1.38-1.39,1.86-.27,2.5s1.94,1.23,4.33-.15l101.28-58.48,5.83,3.37A9.57,9.57,0,0,0,272.6,396.76Z" style="fill:#e0e0e0"></path><path id="freepik--shadow--inject-20" d="M264.35,303.18l28.15,16.26a4.79,4.79,0,0,0,4.33,0L373.74,275a1.32,1.32,0,0,0,0-2.5l-28.15-16.25a4.79,4.79,0,0,0-4.33,0l-76.91,44.4A1.32,1.32,0,0,0,264.35,303.18Z" style="fill:#e0e0e0"></path><path id="freepik--shadow--inject-20" d="M175,291.13l52.55,30.34a4.79,4.79,0,0,0,4.33,0l85-49.09a1.32,1.32,0,0,0,0-2.5l-52.55-30.34a4.79,4.79,0,0,0-4.33,0l-85,49.09A1.32,1.32,0,0,0,175,291.13Z" style="fill:#e0e0e0"></path><path id="freepik--shadow--inject-20" d="M95.37,416.69,26.85,377.13c-2.39-1.38-2.39-3.62,0-5l133.51-77.08a9.57,9.57,0,0,1,8.66,0l68.52,39.56c2.39,1.38,2.39,3.62,0,5L104,416.69A9.57,9.57,0,0,1,95.37,416.69Z" style="fill:#e0e0e0"></path><path id="freepik--shadow--inject-20" d="M318.06,426.17c-6.82,0-13.24-1.56-18.08-4.39-.56-.33-1.09-.67-1.61-1l-3-2.1,25.39-3.72,2.3-4.8-6.85-4L292,409.64l.8-2.26c1.09-3.09,3.66-5.85,7.43-8A36.65,36.65,0,0,1,318,395.16a42.61,42.61,0,0,1,8.13.77l82.8-47.8a9.9,9.9,0,0,1-.68-6.67c.86-3.44,3.52-6.51,7.69-8.88a36.58,36.58,0,0,1,17.79-4.23c6.83,0,13.25,1.56,18.08,4.39.58.34,1.1.67,1.62,1l3,2.1-25.39,3.72-2.3,4.8,6.85,4,24.21-3.54-.8,2.27c-1.09,3.09-3.66,5.85-7.44,8a36.59,36.59,0,0,1-17.77,4.22,42.61,42.61,0,0,1-8.13-.77l-82.8,47.8a9.9,9.9,0,0,1,.68,6.67c-.86,3.44-3.52,6.51-7.69,8.88A36.6,36.6,0,0,1,318.06,426.17Z" style="fill:#e0e0e0"></path></g><g id="freepik--Plants--inject-20"><g id="freepik--plants--inject-20"><path d="M96.66,355S96,334.4,87.22,317.73,65.29,290,52.38,287.92s-24.41,9-11.19,18.34,37.24,19.82,46.05,51.48Z" style="fill:#BA68C8"></path><g style="opacity:0.15"><path d="M96.66,355S96,334.4,87.22,317.73,65.29,290,52.38,287.92s-24.41,9-11.19,18.34,37.24,19.82,46.05,51.48Z"></path></g><path d="M93.29,349.36a.35.35,0,0,0,.14,0,.69.69,0,0,0,.46-.87C83,313.53,58.05,297.25,46.38,293.52a.69.69,0,1,0-.42,1.32c11.42,3.66,35.87,19.65,46.6,54A.69.69,0,0,0,93.29,349.36Z" style="fill:#fff"></path><path d="M29.61,337.72c.87,2.6,3.48,4.16,5.93,5.42s5.09,2.62,6.24,5.12c2.32,5-2.85,11.32-.32,16.25A8.6,8.6,0,0,0,47,368.45a57.53,57.53,0,0,0,5.69,1.05,23,23,0,0,0,2.75,0c2.67-.13,5.54,0,7.82,1.59,3.6,2.49,4.31,7.39,6.27,11.3a18.14,18.14,0,0,0,12,9.23c4.25,1,10.79.61,12.08-1.19,1-1.37-1.13-6-1-7.65a69,69,0,0,0-.43-12.93,24.69,24.69,0,0,1-.27-5.88q.33-3.3.62-6.6c.21-2.39.94-4.2.31-6.68a24.67,24.67,0,0,0-3.13-6.6c-1.26-2-2.53-4.08-3.83-6.1a34.26,34.26,0,0,0-5.16-6.73,18.14,18.14,0,0,0-13.51-4.79c-4.07.29-8.2,2.17-12.31,1.6S47.08,326.1,43,326c-4.31-.1-8.85,1.3-11.64,4.75C29.74,332.69,28.82,335.35,29.61,337.72Z" style="fill:#BA68C8"></path><path d="M91.1,379.46h.05a.62.62,0,0,0,.5-.72C85.2,340.4,46.29,331.28,37,331.08a.64.64,0,0,0-.64.61.63.63,0,0,0,.61.63c9.08.2,47.14,9.11,53.46,46.63A.61.61,0,0,0,91.1,379.46Z" style="fill:#fff"></path><path d="M49.08,356.39a.64.64,0,0,0,.35-.14c.1-.09,11.09-9.06,27.53-5a.62.62,0,1,0,.29-1.2c-17.07-4.17-28.5,5.2-28.62,5.29a.62.62,0,0,0,.45,1.09Z" style="fill:#fff"></path></g></g><g id="freepik--Gears--inject-20"><path d="M310,84.6h0a1.21,1.21,0,0,0-1.13,0l-1.76-4.07,3.58-4.14,2.94-5.94a2,2,0,0,0-.77-2.58l-14.5-8.36h0L288.8,54h0c-.2-.11-.44,0-.67-.09a2.09,2.09,0,0,0-.74-.09,2,2,0,0,0-.86.59c-.1.09-.25.1-.33.22l-.14.21-7.65,11.5h0l-9.84-5.69h0l-.17-.1-3-1.75-4.08-2.35h-.07a.84.84,0,0,0-.39-.1h0a1.5,1.5,0,0,0-.7.2l-14.81,8.55,0,0a3.52,3.52,0,0,0-1,1c-.08.12-.13.21-.2.33a3.67,3.67,0,0,0-.27.46l.08,0a3.7,3.7,0,0,0-.32.87L242,84.33a5.49,5.49,0,0,1-1.54,3.08,88.54,88.54,0,0,0-8.23,8.7,2.84,2.84,0,0,1-2.91.83l-9.5-3.32a2,2,0,0,0-.69,0l-.2-.11a1.79,1.79,0,0,0-.39.13,1.69,1.69,0,0,0-.36.12,2.08,2.08,0,0,0-1,.84l-10.88,18.85a2.2,2.2,0,0,0-.24,1.45h0a2.19,2.19,0,0,0,.72,1.35l7.62,6.58a2.82,2.82,0,0,1,.74,2.93,90.27,90.27,0,0,0-3.43,11.47,5.45,5.45,0,0,1-1.89,2.87l-13.52,9.52a3.54,3.54,0,0,0-.93,1.08l0,0a3.7,3.7,0,0,0-.6,1.81v17.1a1.21,1.21,0,0,0,.52,1.1h0l17.14,9.89-6.25,12.61a2,2,0,0,0,.78,2.58l23.3,13.5a2,2,0,0,0,2.62-.62l10.59-10.82a1.23,1.23,0,0,0,.57,1l21.71,12.52.57-17s-4.59-5.93-4.49-6.94l23.66-25.77a2.3,2.3,0,0,0,2.66-1L299,141.88a2.33,2.33,0,0,0-.48-2.81L309,105.7a4,4,0,0,0,1.51-2.91l-.09-3.09c2.31.83,4.51,1.68,4.76,2.48a1.56,1.56,0,0,0,2.19,1l13.18-5.93a1.75,1.75,0,0,1,1.18-.12Zm-57.35,72c-6.36,3.67-11.6,4.45-15.42,2.67-4.48-2.08,31.86-64.38,35.67-61,3.09,2.76,4.76,7.86,4.76,15C277.64,129.18,266.44,148.57,252.63,156.55Z" style="fill:#BA68C8"></path><path d="M310,84.6h0a1.21,1.21,0,0,0-1.13,0l-1.76-4.07,3.58-4.14,2.94-5.94a2,2,0,0,0-.77-2.58l-14.5-8.36h0L288.8,54h0c-.2-.11-.44,0-.67-.09a2.09,2.09,0,0,0-.74-.09,2,2,0,0,0-.86.59c-.1.09-.25.1-.33.22l-.14.21-7.65,11.5h0l-9.84-5.69h0l-.17-.1-3-1.75-4.08-2.35h-.07a.84.84,0,0,0-.39-.1h0a1.5,1.5,0,0,0-.7.2l-14.81,8.55,0,0a3.52,3.52,0,0,0-1,1c-.08.12-.13.21-.2.33a3.67,3.67,0,0,0-.27.46l.08,0a3.7,3.7,0,0,0-.32.87L242,84.33a5.49,5.49,0,0,1-1.54,3.08,88.54,88.54,0,0,0-8.23,8.7,2.84,2.84,0,0,1-2.91.83l-9.5-3.32a2,2,0,0,0-.69,0l-.2-.11a1.79,1.79,0,0,0-.39.13,1.69,1.69,0,0,0-.36.12,2.08,2.08,0,0,0-1,.84l-10.88,18.85a2.2,2.2,0,0,0-.24,1.45h0a2.19,2.19,0,0,0,.72,1.35l7.62,6.58a2.82,2.82,0,0,1,.74,2.93,90.27,90.27,0,0,0-3.43,11.47,5.45,5.45,0,0,1-1.89,2.87l-13.52,9.52a3.54,3.54,0,0,0-.93,1.08l0,0a3.7,3.7,0,0,0-.6,1.81v17.1a1.21,1.21,0,0,0,.52,1.1h0l17.14,9.89-6.25,12.61a2,2,0,0,0,.78,2.58l23.3,13.5a2,2,0,0,0,2.62-.62l10.59-10.82a1.23,1.23,0,0,0,.57,1l21.71,12.52.57-17s-4.59-5.93-4.49-6.94l23.66-25.77a2.3,2.3,0,0,0,2.66-1L299,141.88a2.33,2.33,0,0,0-.48-2.81L309,105.7a4,4,0,0,0,1.51-2.91l-.09-3.09c2.31.83,4.51,1.68,4.76,2.48a1.56,1.56,0,0,0,2.19,1l13.18-5.93a1.75,1.75,0,0,1,1.18-.12Zm-57.35,72c-6.36,3.67-11.6,4.45-15.42,2.67-4.48-2.08,31.86-64.38,35.67-61,3.09,2.76,4.76,7.86,4.76,15C277.64,129.18,266.44,148.57,252.63,156.55Z" style="opacity:0.1"></path><path d="M268.84,101.17c.34-.4.65-.75,1-1.07V72.51l-20-10.08-4.62,2.66,0,0a3.52,3.52,0,0,0-1,1c-.08.12-.13.21-.2.33a3.67,3.67,0,0,0-.27.46l.08,0a3.7,3.7,0,0,0-.32.87L242,84.33a4.53,4.53,0,0,1-.36,1.12Z" style="opacity:0.15"></path><path d="M254,110.2,231,96.88a2.59,2.59,0,0,1-1.67.06l-9.5-3.32a2,2,0,0,0-.69,0l-.2-.11a1.79,1.79,0,0,0-.39.13,1.69,1.69,0,0,0-.36.12,2.08,2.08,0,0,0-1,.84l-4.47,7.75,1.11,5.4,29.93,8.8Z" style="opacity:0.15"></path><path d="M239.81,139l-5.17-16.78-26.72-11.65-1.67,2.9a2.2,2.2,0,0,0-.24,1.45h0a2.19,2.19,0,0,0,.72,1.35l7.62,6.58a2.66,2.66,0,0,1,.78,1.89Z" style="opacity:0.15"></path><path d="M241,189.73l-17.14-9.89L217,183.29l-4.6-2.66-6.25,12.61a2,2,0,0,0,.78,2.58l20.79,12Z" style="opacity:0.15"></path><path d="M307,109.07l-30.55-6.62-.57.48a27.39,27.39,0,0,1,1.74,10.3c0,16-11.2,35.34-25,43.32-4.29,2.47-8,3.53-11.2,3.48l4.5,31.86-1.43,7.28,21.22,12.24.57-17s-4.59-5.93-4.49-6.94l23.66-25.77a2.3,2.3,0,0,0,2.66-1L299,141.88a2.33,2.33,0,0,0-.48-2.81l8.5-27C307,110.2,307,109.07,307,109.07Z" style="opacity:0.15"></path><path d="M331.74,97.14h0a1.75,1.75,0,0,0-1.18.12l-13.18,5.93a1.56,1.56,0,0,1-2.19-1c-.52-1.66-9.54-3.57-10.28-5L310,84.6Z" style="opacity:0.15"></path><path d="M313.6,70.46l-2.94,5.94L301.2,87.32l-11.15-6.44-15.61-9a2.64,2.64,0,0,0,.79-.77l10.94-16.45a2,2,0,0,1,2.6-.63l9.56,5.52,14.5,8.36A2,2,0,0,1,313.6,70.46Z" style="opacity:0.15"></path><path d="M210.77,139.06a4.39,4.39,0,0,1-1,1.05l-13.52,9.52a3.41,3.41,0,0,0-.93,1.08l22.74,13.16L236,153.66Z" style="opacity:0.15"></path><path d="M218.91,93.52a2.31,2.31,0,0,0-1.78,1.09l-10.88,18.85a2.2,2.2,0,0,0-.24,1.45l23.83,13.79,14.9-20.15Z" style="fill:#BA68C8"></path><path d="M218.91,93.52a2.31,2.31,0,0,0-1.78,1.09l-10.88,18.85a2.2,2.2,0,0,0-.24,1.45l23.83,13.79,14.9-20.15Z" style="fill:#fff;opacity:0.7000000000000001"></path><path d="M283,69v5.42L269.81,82,243.7,67a4,4,0,0,1,1.52-1.85L260,56.55a1.49,1.49,0,0,1,.74-.22.94.94,0,0,1,.45.11l7.13,4.1.19.11,9.84,5.69Z" style="fill:#BA68C8"></path><path d="M283,69v5.42L269.81,82,243.7,67a4,4,0,0,1,1.52-1.85L260,56.55a1.49,1.49,0,0,1,.74-.22.94.94,0,0,1,.45.11l7.13,4.1.19.11,9.84,5.69Z" style="fill:#fff;opacity:0.7000000000000001"></path><path d="M332.28,115.35V98.26a1.1,1.1,0,0,0-1.68-1.09l-13.18,5.94a1.56,1.56,0,0,1-2.19-1,29.81,29.81,0,0,0-2.94-6.53,3.66,3.66,0,0,1-.2-3.19l8.78-17.71a2,2,0,0,0-.78-2.58l-9.53-5.51a2,2,0,0,0-2.62.62L297,83.65a3.61,3.61,0,0,1-2.86,1.42,29.34,29.34,0,0,0-7.13.73,1.57,1.57,0,0,1-2-1.4L283.58,70a1.11,1.11,0,0,0-1.79-.91L267,77.65a4,4,0,0,0-1.77,2.77l-1.48,16.47A5.49,5.49,0,0,1,262.2,100a88.45,88.45,0,0,0-8.22,8.7,2.84,2.84,0,0,1-2.91.83l-9.51-3.32a2.3,2.3,0,0,0-2.66,1L228,126a2.33,2.33,0,0,0,.48,2.81l7.62,6.57a2.8,2.8,0,0,1,.74,2.93,88.6,88.6,0,0,0-3.42,11.47,5.47,5.47,0,0,1-1.9,2.87L218,162.19a4,4,0,0,0-1.51,2.92V182.2a1.1,1.1,0,0,0,1.68,1.09l13.18-5.94a1.57,1.57,0,0,1,2.2,1,29.33,29.33,0,0,0,2.93,6.53,3.59,3.59,0,0,1,.2,3.19l-8.78,17.71a2,2,0,0,0,.78,2.58l9.53,5.5a2,2,0,0,0,2.62-.61l10.95-16.46a3.63,3.63,0,0,1,2.87-1.42,29.81,29.81,0,0,0,7.12-.73,1.57,1.57,0,0,1,2,1.39l1.44,14.39a1.11,1.11,0,0,0,1.79.91l14.8-8.55a4,4,0,0,0,1.77-2.76L285,183.57a5.49,5.49,0,0,1,1.54-3.08,89.59,89.59,0,0,0,8.22-8.7,2.84,2.84,0,0,1,2.91-.83l9.51,3.32a2.32,2.32,0,0,0,2.67-1l10.88-18.85a2.32,2.32,0,0,0-.48-2.81l-7.62-6.57a2.8,2.8,0,0,1-.74-2.93,88.27,88.27,0,0,0,3.42-11.48,5.55,5.55,0,0,1,1.9-2.87l13.52-9.52A4,4,0,0,0,332.28,115.35Zm-57.89,53.76c-13.81,8-25,1.51-25-14.44s11.2-35.35,25-43.32,25-1.51,25,14.44S288.2,161.13,274.39,169.11Z" style="fill:#BA68C8"></path><path d="M350.67,228.05l23.12-5.19-.05,0-9.88-5.72-9.17-5.31a1.34,1.34,0,0,0-.65-.19l-8.11-.45a1.32,1.32,0,0,1-1.37-1.32,44.52,44.52,0,0,0,0-7.83,3.87,3.87,0,0,1,.89-2.39l13-1.06c.55-.67,11.17-10.92,11.17-10.92l-.05,0-19.08-11.05a.71.71,0,0,0-.36-.08l-15.35-8.89a1.5,1.5,0,0,0-.93-.17l-9.47.93a2.62,2.62,0,0,0-2.06,1.44l-5.13,13.76a4.52,4.52,0,0,1-2.07,2c-1,.47-2,1-3,1.58l-9.93-5.74c-.4-.26-1-.1-1.54.45l-10.39,11a2.77,2.77,0,0,0-.8,2.29l2.89,9.79a3.28,3.28,0,0,1-.53,2.36,79.12,79.12,0,0,0-4.78,8.3,3.72,3.72,0,0,1-2.25,1.67l-8.89,2.14a2.92,2.92,0,0,0-2,1.68l-4.48,15.06a1,1,0,0,0,.34,1.09c.2.16,10.07,5.84,10.07,5.84,0,1.38.05,2.72.17,4a3.9,3.9,0,0,1-.88,2.4l-9.07,11a2.47,2.47,0,0,0-.54,2.25l4.3,9.52a.75.75,0,0,0,.27.31l19.1,11.05h0s0-.05.06-.08a2.09,2.09,0,0,1,.28.17h0l15.36,8.88,0,0c.27-.72,8.06-33,8.4-32.5l4.85,7.41a.57.57,0,0,0,.15.16l9.23,5.37,10,5.77v0l-7.21-22.5C340.67,258.46,355.18,231.09,350.67,228.05Zm-56,15L329.83,206a18.48,18.48,0,0,1,1.45,7.71,21.59,21.59,0,0,1,2.39-1.22c.07.82.11,1.68.11,2.59,0,12.13-8.51,26.86-19,32.92-.77.44-1.52.83-2.24,1.17a19.1,19.1,0,0,1-.15-2.75C304.88,250.81,297.76,249.81,294.71,243.08Z" style="fill:#BA68C8"></path><g style="opacity:0.1"><path d="M350.67,228.05l23.12-5.19-.05,0-9.88-5.72-9.17-5.31a1.34,1.34,0,0,0-.65-.19l-8.11-.45a1.32,1.32,0,0,1-1.37-1.32,44.52,44.52,0,0,0,0-7.83,3.87,3.87,0,0,1,.89-2.39l13-1.06c.55-.67,11.17-10.92,11.17-10.92l-.05,0-19.08-11.05a.71.71,0,0,0-.36-.08l-15.35-8.89a1.5,1.5,0,0,0-.93-.17l-9.47.93a2.62,2.62,0,0,0-2.06,1.44l-5.13,13.76a4.52,4.52,0,0,1-2.07,2c-1,.47-2,1-3,1.58l-9.93-5.74c-.4-.26-1-.1-1.54.45l-10.39,11a2.77,2.77,0,0,0-.8,2.29l2.89,9.79a3.28,3.28,0,0,1-.53,2.36,79.12,79.12,0,0,0-4.78,8.3,3.72,3.72,0,0,1-2.25,1.67l-8.89,2.14a2.92,2.92,0,0,0-2,1.68l-4.48,15.06a1,1,0,0,0,.34,1.09c.2.16,10.07,5.84,10.07,5.84,0,1.38.05,2.72.17,4a3.9,3.9,0,0,1-.88,2.4l-9.07,11a2.47,2.47,0,0,0-.54,2.25l4.3,9.52a.75.75,0,0,0,.27.31l19.1,11.05h0s0-.05.06-.08a2.09,2.09,0,0,1,.28.17h0l15.36,8.88,0,0c.27-.72,8.06-33,8.4-32.5l4.85,7.41a.57.57,0,0,0,.15.16l9.23,5.37,10,5.77v0l-7.21-22.5C340.67,258.46,355.18,231.09,350.67,228.05Zm-56,15L329.83,206a18.48,18.48,0,0,1,1.45,7.71,21.59,21.59,0,0,1,2.39-1.22c.07.82.11,1.68.11,2.59,0,12.13-8.51,26.86-19,32.92-.77.44-1.52.83-2.24,1.17a19.1,19.1,0,0,1-.15-2.75C304.88,250.81,297.76,249.81,294.71,243.08Z"></path></g><path d="M356.26,222.82l-5.55-11.38-4.78-.27a1.32,1.32,0,0,1-1.37-1.32c.12-1.43.18-2.82.18-4.19l-13.36,1.8-.75.89a20.48,20.48,0,0,1,.65,5.37,21.59,21.59,0,0,1,2.39-1.22c.07.82.11,1.68.11,2.59,0,12.13-8.51,26.86-19,32.92-.77.44-1.52.83-2.24,1.17a19.1,19.1,0,0,1-.15-2.75,19.09,19.09,0,0,1-6.82,2.52l-.18.49,9.75,18,.08,0c1.14-4.41,2-7.58,2.11-7.42l4.85,7.41a.57.57,0,0,0,.15.16l9.23,5.37,10,5.77v0l-7.21-22.5c6.37,2.2,20.88-25.17,16.37-28.21l4.47-1Z" style="opacity:0.15"></path><path d="M305.38,266.42s-7.62,9-13.4,16.47l1.17.67h0s0-.05.06-.08a2.09,2.09,0,0,1,.28.17h0l15.36,8.88,0,0c.16-.42,2.94-11.87,5.27-21.06Z" style="opacity:0.1"></path><path d="M279.66,248.47a4,4,0,0,1-.57,1l-9.07,11a2.47,2.47,0,0,0-.54,2.25l4.3,9.52a.75.75,0,0,0,.27.31l5.57,3.22,9.77,3.41,12.7-17.72Z" style="opacity:0.1"></path><path d="M294.71,243.08l1.65-1.75c-7.89-1.88-18.76-4.44-18.76-4.44l-1,4.3,3.2,1.84c0,1.38.05,2.72.17,4a3.09,3.09,0,0,1-.31,1.41l22.43,13s6.39-11.27,6.08-11.79c-.07-.13-.33-.54-.69-1.1C301.92,250.07,297.08,248.31,294.71,243.08Z" style="opacity:0.05"></path><path d="M307.8,229.26,286,216.66a3.84,3.84,0,0,1-1.2.56l-8.89,2.14a2.92,2.92,0,0,0-2,1.68l-3.27,11,20.86,8.79,12.36-7.35Z" style="opacity:0.1"></path><path d="M313.49,218.43l5.85-11-4-14.26-22.11-3.57-3,3.19a2.77,2.77,0,0,0-.8,2.29l2.89,9.79a2.49,2.49,0,0,1-.07,1.28Z" style="opacity:0.1"></path><path d="M316.16,184.86l23.94,13.82s4.49-16.54,6.57-24.18c-5.33-3.08-11.72-6.78-11.9-6.9a1.5,1.5,0,0,0-.93-.17l-9.47.93a2.62,2.62,0,0,0-2.06,1.44l-5.13,13.76A3.66,3.66,0,0,1,316.16,184.86Z" style="opacity:0.1"></path><path d="M293.17,283.58l-.91-8.85-22.8-13.16a1.76,1.76,0,0,0,0,1.12l4.3,9.51a.66.66,0,0,0,.28.31h0l0,0Z" style="fill:#BA68C8"></path><path d="M296.06,233l-21.87-12.58a1.8,1.8,0,0,0-.32.59l-4.48,15.06a1,1,0,0,0,.34,1.1l.16.1,9.86,5.7.05,0h0l9.16,5.31Z" style="fill:#BA68C8"></path><path d="M289.51,194.12l19.12,11,12.62-12.65-19.09-11.06h0c-.39-.25-1-.08-1.53.46l-10.39,11A3.12,3.12,0,0,0,289.51,194.12Z" style="fill:#BA68C8"></path><path d="M334.77,167.61a1.43,1.43,0,0,0-.93-.18l-9.47.93a2.88,2.88,0,0,0-1.58.75l24.88,14.37,6.35-3.67-.18-1.16S335.08,167.8,334.77,167.61Z" style="fill:#BA68C8"></path><path d="M293.17,283.58l-.91-8.85-22.8-13.16a1.76,1.76,0,0,0,0,1.12l4.3,9.51a.66.66,0,0,0,.28.31h0l0,0Z" style="fill:#fff;opacity:0.30000000000000004"></path><path d="M296.06,233l-21.87-12.58a1.8,1.8,0,0,0-.32.59l-4.48,15.06a1,1,0,0,0,.34,1.1l.16.1,9.86,5.7.05,0h0l9.16,5.31Z" style="fill:#fff;opacity:0.30000000000000004"></path><path d="M289.51,194.12l19.12,11,12.62-12.65-19.09-11.06h0c-.39-.25-1-.08-1.53.46l-10.39,11A3.12,3.12,0,0,0,289.51,194.12Z" style="fill:#fff;opacity:0.7000000000000001"></path><path d="M334.77,167.61a1.43,1.43,0,0,0-.93-.18l-9.47.93a2.88,2.88,0,0,0-1.58.75l24.88,14.37,6.35-3.67-.18-1.16S335.08,167.8,334.77,167.61Z" style="fill:#fff;opacity:0.7000000000000001"></path><path d="M373.79,222.86l-.05,0a1.35,1.35,0,0,0-.59-.15l-8.11-.46a1.32,1.32,0,0,1-1.37-1.32c.11-1.28.18-2.56.19-3.79a38.15,38.15,0,0,0-.18-4,3.91,3.91,0,0,1,.89-2.39l9.06-11a2.48,2.48,0,0,0,.55-2.25L369.87,188a.59.59,0,0,0-.26-.3l-.05,0a1.32,1.32,0,0,0-1.39.43l-9.68,8.84a1.71,1.71,0,0,1-2.11.35,14.93,14.93,0,0,0-4.14-2.4,1.56,1.56,0,0,1-1-1.7l3-13.54a.84.84,0,0,0-.42-.95,1.55,1.55,0,0,0-.89-.16l-9.47.94a2.6,2.6,0,0,0-2.06,1.44l-5.13,13.76a4.41,4.41,0,0,1-2.07,2,42.91,42.91,0,0,0-5.86,3.4c-.79.53-1.68.57-2,0l-4.84-7.4c-.34-.52-1.12-.41-1.75.24l-10.39,11a2.73,2.73,0,0,0-.8,2.27l2.89,9.8a3.33,3.33,0,0,1-.52,2.36,79.08,79.08,0,0,0-4.79,8.29,3.73,3.73,0,0,1-2.25,1.68L295,230.43a3,3,0,0,0-2,1.67l-4.48,15.07a1.06,1.06,0,0,0,1.11,1.35l8.12.46a1.33,1.33,0,0,1,1.37,1.32,41.83,41.83,0,0,0,0,7.83,3.85,3.85,0,0,1-.88,2.39l-9.06,11a2.47,2.47,0,0,0-.55,2.25l4.3,9.51a.6.6,0,0,0,.26.3h0a.73.73,0,0,0,.35.09h0a1.68,1.68,0,0,0,1.06-.5l9.66-8.84a1.73,1.73,0,0,1,2.12-.36,15.35,15.35,0,0,0,4.13,2.41,1.53,1.53,0,0,1,1,1.69l-3,13.55a.85.85,0,0,0,.4.93l0,0a1.48,1.48,0,0,0,.89.15l9.46-.93a2.66,2.66,0,0,0,2.07-1.44l5.14-13.76a4.47,4.47,0,0,1,2.07-2c1-.47,2-1,3-1.58s1.9-1.16,2.86-1.81c.78-.54,1.68-.58,2-.06l4.85,7.41a.66.66,0,0,0,.23.21c.39.24,1,.08,1.51-.46l10.39-11a2.75,2.75,0,0,0,.8-2.28l-2.89-9.79a3.32,3.32,0,0,1,.53-2.36,75.65,75.65,0,0,0,4.77-8.3,3.76,3.76,0,0,1,2.27-1.67l8.88-2.14a2.92,2.92,0,0,0,2-1.68l4.48-15.06A1,1,0,0,0,373.79,222.86Zm-47.44,36.8-.53.13-.37.09-.84.14-1,.09-.6,0h-.29a9.49,9.49,0,0,1-8.91-6,16,16,0,0,1-1.3-5,19.1,19.1,0,0,1-.15-2.75c.05-8.58,4.46-19.21,11.73-26.9a32.68,32.68,0,0,1,7.17-5.81,21.59,21.59,0,0,1,2.39-1.22,15.26,15.26,0,0,1,6.71-1.42h.07l.34,0,.35,0,.36,0a9.5,9.5,0,0,1,7.44,5.88c4,8.88-.59,24.38-10.28,34.61C334.59,256,330.28,258.65,326.35,259.66Z" style="fill:#BA68C8"></path></g><g id="freepik--Device--inject-20"><g id="freepik--device--inject-20"><path d="M231.15,38.92,103.33,112.7a10.35,10.35,0,0,0-4.64,8.06V409c0,3,2.09,4.16,4.64,2.68l127.82-73.79a10.31,10.31,0,0,0,4.65-8.06V41.6C235.8,38.64,233.71,37.43,231.15,38.92Zm-2,264.37c0,2.54-1.78,4.15-4,5.42L108.9,375.81c-2.19,1.27-4,.24-4-2.3V147.7a8.86,8.86,0,0,1,4-6.91L225.12,73.71c2.21-1.28,4-.25,4,2.29Z" style="fill:#37474f"></path><path d="M102.76,412A10.43,10.43,0,0,1,94,411.7l-5.31-3.07a10.26,10.26,0,0,1-4.66-8.06V112.34a8.71,8.71,0,0,1,.8-3.48c.16-.38.35-.75.55-1.12h0l14.63,8.45h0a13.1,13.1,0,0,0-.8,1.7,8.42,8.42,0,0,0-.57,2.88V409C98.69,411.75,100.47,413,102.76,412Z" style="fill:#263238"></path><path d="M165.07,367.93a4.32,4.32,0,0,1-2.16-.56c-1.55-.9-2.4-2.74-2.4-5.19A16.8,16.8,0,0,1,168.1,349c2.12-1.23,4.14-1.41,5.69-.51s2.4,2.73,2.4,5.18a16.8,16.8,0,0,1-7.59,13.14A7.24,7.24,0,0,1,165.07,367.93Zm6.55-19a6.2,6.2,0,0,0-3,.93,15.7,15.7,0,0,0-7.09,12.28c0,2.08.68,3.61,1.9,4.32s2.89.52,4.69-.51a15.7,15.7,0,0,0,7.09-12.28c0-2.08-.68-3.61-1.9-4.32A3.31,3.31,0,0,0,171.62,349Z" style="fill:#e6e6e6"></path><path d="M167.24,82c1.73-1,3.12-.19,3.12,1.8a6.86,6.86,0,0,1-3.12,5.39c-1.72,1-3.11.19-3.11-1.8A6.88,6.88,0,0,1,167.24,82Z"></path><path d="M155.22,101l24.05-13.89c1.44-.83,2.6-.24,2.6,1.31a5.56,5.56,0,0,1-2.6,4.32l-24.06,13.89c-1.43.83-2.59.24-2.59-1.31A5.56,5.56,0,0,1,155.22,101Z"></path><path d="M229.11,303.06c0,2.53-1.78,4.15-4,5.41L108.9,375.57c-2.19,1.27-4,.25-4-2.3V147.46a8.83,8.83,0,0,1,4-6.9L225.12,73.47c2.21-1.28,4-.24,4,2.29Z" style="fill:#fff"></path><path d="M235.75,40.86c-.33-2.42-2.26-3.29-4.59-2L103.33,112.7a9.51,9.51,0,0,0-3.28,3.48l-14.63-8.45a9.54,9.54,0,0,1,3.3-3.45l127.8-73.8a10.23,10.23,0,0,1,9.3,0l5.34,3.06A10.41,10.41,0,0,1,235.75,40.86Z" style="fill:#455a64"></path><path d="M126.57,144.94a.42.42,0,0,1,0-.21v-1l-1.61.93c-.09.05-.13,0-.13-.14v-.37a1.28,1.28,0,0,1,0-.21,1.3,1.3,0,0,1,.06-.19l1.71-4.69a1.78,1.78,0,0,1,.08-.18.36.36,0,0,1,.11-.1l.23-.13q.11-.06.15,0a.37.37,0,0,1,0,.22v3.61l.36-.21c.07,0,.11,0,.14,0a.41.41,0,0,1,0,.23v.24a.62.62,0,0,1,0,.26.31.31,0,0,1-.14.16l-.36.2v1a.62.62,0,0,1,0,.26.33.33,0,0,1-.15.16l-.27.16C126.65,145,126.6,145,126.57,144.94Zm.07-2.18v-2.57l-1.17,3.25Z" style="fill:#455a64"></path><path d="M128.49,143.21a3.37,3.37,0,0,1-.47-2.11,6.86,6.86,0,0,1,.47-2.65,3.27,3.27,0,0,1,1.34-1.6,1.73,1.73,0,0,1,.64-.25.73.73,0,0,1,.5.07.11.11,0,0,1,.05.09.74.74,0,0,1,0,.12l-.15.54q0,.11-.06.12h-.07a1,1,0,0,0-.82.13,2.27,2.27,0,0,0-.91,1.11,5,5,0,0,0-.33,2,2.65,2.65,0,0,0,.32,1.59c.21.26.51.29.88.07a2.52,2.52,0,0,0,.4-.29,2,2,0,0,0,.31-.35v-1.67l-.67.39c-.07,0-.12,0-.14,0a.37.37,0,0,1,0-.22V140a.62.62,0,0,1,0-.26.29.29,0,0,1,.14-.15L131,139c.08,0,.13,0,.16,0a.46.46,0,0,1,.05.27v2.39a1.22,1.22,0,0,1,0,.21.71.71,0,0,1-.07.16,3.49,3.49,0,0,1-1.27,1.26C129.25,143.6,128.8,143.58,128.49,143.21Z" style="fill:#455a64"></path><path d="M222.29,82.21a.45.45,0,0,0-.64-.21l-6.43,3.7a2.43,2.43,0,0,0-.74,2v3.61a2.08,2.08,0,0,0,.28,1.15.54.54,0,0,0,.26.24.43.43,0,0,0,.38,0l6.42-3.7a2.43,2.43,0,0,0,.75-2V83.36A2.08,2.08,0,0,0,222.29,82.21ZM214.93,92a1.12,1.12,0,0,1-.1-.53V87.81a1.93,1.93,0,0,1,.57-1.49l6.42-3.7a.23.23,0,0,1,.21,0,.18.18,0,0,1,.08.07,1,1,0,0,1,.1.53v3.61a2,2,0,0,1-.56,1.49L215.22,92A.2.2,0,0,1,214.93,92Z" style="fill:#455a64"></path><path d="M221.52,83.72V86.8a1.58,1.58,0,0,1-.8,1.38l-5.23,3a.13.13,0,0,1-.19-.11V87.89a1.49,1.49,0,0,1,.42-1.11l5.57-3.2A.16.16,0,0,1,221.52,83.72Z" style="fill:#455a64"></path><path d="M222.81,83.24c.18-.1.32.41.32,1.16v.67a2.65,2.65,0,0,1-.33,1.56l-.32.22V83.43Z" style="fill:#455a64"></path><path d="M137.72,137.14a2.46,2.46,0,0,1-.94,2c-.51.3-.93-.1-.93-.9a2.48,2.48,0,0,1,.93-2C137.3,135.94,137.72,136.34,137.72,137.14Z" style="fill:#455a64"></path><path d="M136.78,133.88a5.64,5.64,0,0,0-2.17,3.27.61.61,0,0,0,.1.66h0c.17.11.44-.12.54-.49a4,4,0,0,1,1.53-2.31,1,1,0,0,1,1.54.54c.1.25.36.18.54-.14h0a.92.92,0,0,0,.1-.76A1.41,1.41,0,0,0,136.78,133.88Z" style="fill:#455a64"></path><path d="M136.78,131.57a8.78,8.78,0,0,0-3.34,4.76c-.1.31-.07.62.08.72h0c.17.11.42-.1.54-.46a7.18,7.18,0,0,1,2.72-3.89,1.81,1.81,0,0,1,2.73.74c.12.22.37.15.54-.16h0a.93.93,0,0,0,.08-.8A2.22,2.22,0,0,0,136.78,131.57Z" style="fill:#455a64"></path><path d="M161.73,119.37a.29.29,0,0,1,0-.17.48.48,0,0,1,.07-.21l1.34-2.41.1-.17a.68.68,0,0,1,.12-.12l.48-.28a.1.1,0,0,1,.12,0,.22.22,0,0,1,.05.16v6.15a.54.54,0,0,1-.05.21.31.31,0,0,1-.12.15l-.5.29a.1.1,0,0,1-.12,0,.21.21,0,0,1-.05-.15v-4.71l-.88,1.56a.22.22,0,0,1-.12.13.1.1,0,0,1-.11,0Z" style="fill:#455a64"></path><path d="M164.86,117.56a.23.23,0,0,1,0-.17.37.37,0,0,1,.06-.21l1.35-2.41.1-.17a.43.43,0,0,1,.11-.12l.48-.27s.09,0,.12,0a.21.21,0,0,1,0,.16v6.15a.38.38,0,0,1,0,.21.31.31,0,0,1-.12.15l-.5.29a.08.08,0,0,1-.11,0,.17.17,0,0,1,0-.15V116.3l-.88,1.56a.31.31,0,0,1-.12.13.11.11,0,0,1-.12,0Z" style="fill:#455a64"></path><path d="M169,114.92c.05,0,.09,0,.12,0a.21.21,0,0,1,0,.15V116a.54.54,0,0,1,0,.21.31.31,0,0,1-.12.15l-.57.33a.1.1,0,0,1-.12,0,.21.21,0,0,1-.05-.15v-.94a.54.54,0,0,1,.05-.21.28.28,0,0,1,.12-.14Zm0,3.33a.1.1,0,0,1,.12,0,.21.21,0,0,1,0,.15v.94a.54.54,0,0,1,0,.21.24.24,0,0,1-.12.14l-.57.34a.1.1,0,0,1-.12,0,.23.23,0,0,1-.05-.15v-.94a.54.54,0,0,1,.05-.21.24.24,0,0,1,.12-.14Z" style="fill:#455a64"></path><path d="M172.28,117.79q-.08,0-.12,0a.25.25,0,0,1,0-.16v-1.15l-1.92,1.11a.11.11,0,0,1-.12,0,.21.21,0,0,1,0-.15v-.68a1.17,1.17,0,0,1,0-.26l.1-.27,1.9-4.73a.74.74,0,0,1,.25-.39l.47-.27a.09.09,0,0,1,.12,0,.21.21,0,0,1,0,.15v3.82l.53-.31a.08.08,0,0,1,.12,0,.21.21,0,0,1,.05.15v.68a.58.58,0,0,1-.05.21.42.42,0,0,1-.12.14L173,116v1.15a.54.54,0,0,1,0,.21c0,.07-.07.12-.12.14Zm-.17-2.5v-2l-1.06,2.65Z" style="fill:#455a64"></path><path d="M174.77,109.94a.41.41,0,0,1,0-.21.27.27,0,0,1,.11-.14l2.33-1.35a.1.1,0,0,1,.12,0,.21.21,0,0,1,.05.15v.68a.54.54,0,0,1-.05.21.31.31,0,0,1-.12.15l-1.74,1-.07,1.26a2.45,2.45,0,0,1,.34-.32l.27-.17a1.66,1.66,0,0,1,.64-.23.68.68,0,0,1,.51.13,1,1,0,0,1,.34.49,2.42,2.42,0,0,1,.13.87,4.36,4.36,0,0,1-.13,1.12,3.59,3.59,0,0,1-.35.92,3.1,3.1,0,0,1-1.14,1.2,2,2,0,0,1-.74.27.72.72,0,0,1-.51-.12.93.93,0,0,1-.3-.43,1.79,1.79,0,0,1-.11-.64.36.36,0,0,1,0-.21.49.49,0,0,1,.12-.15l.5-.28a.11.11,0,0,1,.12,0,.23.23,0,0,1,.06.13.72.72,0,0,0,.12.29.31.31,0,0,0,.19.11.37.37,0,0,0,.23,0,2.28,2.28,0,0,0,.28-.13,1.51,1.51,0,0,0,.56-.63,1.93,1.93,0,0,0,.22-.93.66.66,0,0,0-.22-.59.48.48,0,0,0-.56,0,1.29,1.29,0,0,0-.3.21,1.68,1.68,0,0,0-.18.21l-.12.17a.41.41,0,0,1-.14.12l-.57.33a.09.09,0,0,1-.12,0,.21.21,0,0,1,0-.15Z" style="fill:#455a64"></path><polygon points="111.16 153.93 111.16 151.94 112.88 150.95 112.88 152.94 111.16 153.93" style="fill:#455a64"></polygon><polygon points="113.74 152.44 113.74 148.46 115.46 147.47 115.46 151.44 113.74 152.44" style="fill:#455a64"></polygon><polygon points="116.33 150.95 116.33 144.99 118.05 143.99 118.05 149.95 116.33 150.95" style="fill:#455a64"></polygon><polygon points="118.91 149.46 118.91 141.51 120.63 140.51 120.63 148.46 118.91 149.46" style="fill:#455a64"></polygon></g><g id="freepik--Apps--inject-20"><path d="M185,159l-.48-2.81L182,157.86a3.45,3.45,0,0,0-1-1.16l1.2-3.25-2.23-.5-1.65,3.15a6.16,6.16,0,0,0-1.72.56l-.72-2.37-2.68,2.1.18,2.8a14.38,14.38,0,0,0-1.48,2l-2.21-.11-1.55,3.47,1.9.81a11,11,0,0,0-.38,2.21l-2.41,2.22.48,2.81,2.51-1.65a3.41,3.41,0,0,0,1,1.15l-1.2,3.25,2.23.5,2.36-2.3c.55-.09.42-1.11,1-1.4l.72,2.37,2.67-2.11-.06-1.1c.54-.6,2.58-1.93,3-2.62l.55-.92,1.55-3.48-.72-1.31-.8-1.7Zm-8.18,9.27c-2,1.61-2.68,2-3-.19a8.36,8.36,0,0,1,2.88-7.06c2.06-1.62,2.85-1.74,3.22.42S178.91,166.67,176.85,168.29Z" style="fill:#e0e0e0"></path><polygon points="180.05 152.96 182.97 154.64 181.32 157.79 178.4 156.1 180.05 152.96" style="fill:#f5f5f5"></polygon><polygon points="187.47 157.9 184.96 159.55 182.04 157.86 184.54 156.21 187.47 157.9" style="fill:#f5f5f5"></polygon><polygon points="187.07 165.94 185.17 165.13 182.24 163.44 184.14 164.25 187.07 165.94" style="fill:#e0e0e0"></polygon><polygon points="170.07 175.31 173 177 174.2 173.75 171.28 172.06 170.07 175.31" style="fill:#e0e0e0"></polygon><polygon points="179.32 176.16 176.4 174.48 175.68 172.1 178.61 173.79 179.32 176.16" style="fill:#e0e0e0"></polygon><path d="M188,160.71l-.48-2.81L185,159.55a3.43,3.43,0,0,0-1-1.16l1.2-3.25-2.24-.5-1.65,3.15a5.94,5.94,0,0,0-1.72.56l-.71-2.37-2.68,2.1.17,2.8a15.86,15.86,0,0,0-1.48,2l-2.21-.11-1.55,3.48,1.9.81a11.8,11.8,0,0,0-.38,2.2l-2.41,2.22.49,2.81,2.51-1.65a3.43,3.43,0,0,0,.95,1.16L173,177l2.24.5,1.65-3.15a6,6,0,0,0,1.72-.56l.71,2.37,2.68-2.1-.18-2.8a14.09,14.09,0,0,0,1.48-1.95l2.22.11,1.55-3.48-1.9-.81a11,11,0,0,0,.37-2.2ZM179.78,170c-2.06,1.61-4,1.17-4.39-1s1-5.21,3-6.83,4-1.17,4.39,1S181.83,168.36,179.78,170Z" style="fill:#ebebeb"></path><polygon points="178.89 155.98 175.96 154.29 173.28 156.4 176.21 158.08 178.89 155.98" style="fill:#f5f5f5"></polygon><polygon points="173.28 156.4 173.46 159.19 176.38 160.88 176.21 158.08 173.28 156.4" style="fill:#e0e0e0"></polygon><polygon points="174.9 162.83 171.98 161.15 169.77 161.04 172.69 162.72 174.9 162.83" style="fill:#f5f5f5"></polygon><polygon points="169.77 161.04 168.22 164.51 171.14 166.2 172.69 162.72 169.77 161.04" style="fill:#e0e0e0"></polygon><polygon points="172.66 169.22 169.74 167.53 167.33 169.75 170.25 171.43 172.66 169.22" style="fill:#f5f5f5"></polygon><polygon points="170.74 174.24 167.81 172.56 167.33 169.75 170.25 171.43 170.74 174.24" style="fill:#e0e0e0"></polygon><polygon points="182.97 154.64 180.05 152.96 182.28 153.46 185.21 155.14 182.97 154.64" style="fill:#f5f5f5"></polygon><path d="M189.34,132.44v-4.2L186,129.75a5.78,5.78,0,0,0-.9-2l2.11-4.24L184.63,122,182,126a5.93,5.93,0,0,0-2.17.21l-.37-3.65-3.64,2.1-.36,4.07a17.66,17.66,0,0,0-2.18,2.3l-2.62-.92-2.57,4.46,2.1,1.81a18.42,18.42,0,0,0-.9,3L166,141.75V146l3.34-1.51a6,6,0,0,0,.9,2l-2.1,4.25,2.57,1.48,2.62-3.95a6,6,0,0,0,2.18-.21l.36,3.65,3.64-2.1.37-4.07a6.75,6.75,0,0,0,2.91-2l1.89.67,2.57-4.46-1.58-1.36a9.27,9.27,0,0,0,.37-3.48Zm-11.7,10.49c-2.79,1.61-4.52.47-4.52-2.75a11.25,11.25,0,0,1,5.09-8.78c2.79-1.62,4.48-.44,4.48,2.78A11.17,11.17,0,0,1,177.64,142.93Z" style="fill:#e0e0e0"></path><polygon points="187.55 123.72 184.63 122.03 182 125.98 184.93 127.66 187.55 123.72" style="fill:#f5f5f5"></polygon><polygon points="192.26 129.93 189.34 128.24 185.99 129.75 188.92 131.44 192.26 129.93" style="fill:#f5f5f5"></polygon><polygon points="178.75 153.34 175.82 151.65 175.46 148 178.38 149.69 178.75 153.34" style="fill:#e0e0e0"></polygon><polygon points="168.09 150.68 171.01 152.36 173.12 148.12 170.19 146.43 168.09 150.68" style="fill:#e0e0e0"></polygon><path d="M192.26,134.13v-4.2l-3.34,1.51a6,6,0,0,0-.9-2l2.1-4.25-2.57-1.48-2.62,3.94a6,6,0,0,0-2.18.22l-.36-3.65-3.64,2.1-.37,4.07a17.63,17.63,0,0,0-2.17,2.3l-2.63-.92L171,136.24l2.11,1.81a18.08,18.08,0,0,0-.91,3l-3.34,2.35v4.2l3.34-1.5a6.08,6.08,0,0,0,.91,2L171,152.36l2.57,1.49,2.63-3.95a5.93,5.93,0,0,0,2.17-.21l.37,3.65,3.64-2.1.36-4.07a19.12,19.12,0,0,0,2.18-2.3l2.62.91,2.57-4.45-2.1-1.82a18,18,0,0,0,.9-3Zm-11.69,10.49c-2.79,1.61-5.06.3-5.06-2.92a11.18,11.18,0,0,1,5.06-8.75c2.79-1.61,5.05-.31,5.05,2.92A11.17,11.17,0,0,1,180.57,144.62Z" style="fill:#ebebeb"></path><polygon points="173.28 131.01 176.21 132.7 173.58 131.78 170.66 130.09 173.28 131.01" style="fill:#f5f5f5"></polygon><rect x="168.26" y="131.48" width="5.14" height="3.38" transform="translate(-29.87 214.63) rotate(-60.03)" style="fill:#f5f5f5"></rect><polygon points="168.09 134.55 171.01 136.24 173.12 138.05 170.19 136.36 168.09 134.55" style="fill:#e0e0e0"></polygon><polygon points="169.29 139.4 172.21 141.08 168.87 143.43 165.95 141.75 169.29 139.4" style="fill:#f5f5f5"></polygon><polygon points="165.95 141.75 168.87 143.43 168.87 147.63 165.95 145.95 165.95 141.75" style="fill:#e0e0e0"></polygon><polygon points="182.38 124.23 179.46 122.54 175.82 124.64 178.75 126.33 182.38 124.23" style="fill:#f5f5f5"></polygon><path d="M185,290.08l-.48-2.81L182,288.92a3.45,3.45,0,0,0-1-1.16l1.2-3.24-2.23-.5-1.65,3.14a6.16,6.16,0,0,0-1.72.56l-.72-2.37-2.68,2.11.18,2.79a14.38,14.38,0,0,0-1.48,2l-2.21-.11-1.55,3.47,1.9.82a10.8,10.8,0,0,0-.38,2.2l-2.41,2.22.48,2.81,2.51-1.65a3.55,3.55,0,0,0,1,1.16l-1.2,3.24,2.23.5,2.36-2.3c.55-.09.42-1.11,1-1.4l.72,2.37,2.67-2.11-.06-1.1c.54-.6,2.58-1.93,3-2.62l.55-.92,1.55-3.48-.72-1.31-.8-1.7Zm-8.18,9.27c-2,1.61-2.68,2-3-.19a8.36,8.36,0,0,1,2.88-7.06c2.06-1.62,2.85-1.74,3.22.42S178.91,297.74,176.85,299.35Z" style="fill:#e0e0e0"></path><polygon points="180.05 284.01 182.97 285.7 181.32 288.85 178.4 287.16 180.05 284.01" style="fill:#f5f5f5"></polygon><polygon points="187.47 288.96 184.96 290.61 182.04 288.92 184.54 287.27 187.47 288.96" style="fill:#f5f5f5"></polygon><polygon points="187.07 297 185.17 296.19 182.24 294.5 184.14 295.31 187.07 297" style="fill:#e0e0e0"></polygon><polygon points="170.07 306.37 173 308.06 174.2 304.81 171.28 303.13 170.07 306.37" style="fill:#e0e0e0"></polygon><polygon points="179.32 307.22 176.4 305.54 175.68 303.17 178.61 304.85 179.32 307.22" style="fill:#e0e0e0"></polygon><path d="M188,291.77l-.48-2.81L185,290.61a3.43,3.43,0,0,0-1-1.16l1.2-3.25-2.24-.5-1.65,3.15a5.94,5.94,0,0,0-1.72.56l-.71-2.37-2.68,2.1.17,2.8a15.86,15.86,0,0,0-1.48,1.95l-2.21-.11-1.55,3.48,1.9.81a11.8,11.8,0,0,0-.38,2.2l-2.41,2.22.49,2.81,2.51-1.65a3.43,3.43,0,0,0,.95,1.16l-1.2,3.25,2.24.5,1.65-3.15a6,6,0,0,0,1.72-.56l.71,2.37,2.68-2.1-.18-2.8a14.09,14.09,0,0,0,1.48-1.95l2.22.11,1.55-3.48-1.9-.81a11,11,0,0,0,.37-2.2ZM179.78,301c-2.06,1.61-4,1.17-4.39-1s1-5.21,3-6.83,4-1.17,4.39,1S181.83,299.42,179.78,301Z" style="fill:#ebebeb"></path><polygon points="178.89 287.04 175.96 285.35 173.28 287.45 176.21 289.14 178.89 287.04" style="fill:#f5f5f5"></polygon><polygon points="173.28 287.45 173.46 290.25 176.38 291.94 176.21 289.14 173.28 287.45" style="fill:#e0e0e0"></polygon><polygon points="174.9 293.89 171.98 292.21 169.77 292.1 172.69 293.79 174.9 293.89" style="fill:#f5f5f5"></polygon><polygon points="169.77 292.1 168.22 295.57 171.14 297.26 172.69 293.79 169.77 292.1" style="fill:#e0e0e0"></polygon><polygon points="172.66 300.27 169.74 298.59 167.33 300.81 170.25 302.49 172.66 300.27" style="fill:#f5f5f5"></polygon><polygon points="170.74 305.3 167.81 303.62 167.33 300.81 170.25 302.49 170.74 305.3" style="fill:#e0e0e0"></polygon><polygon points="182.97 285.7 180.05 284.01 182.28 284.51 185.21 286.2 182.97 285.7" style="fill:#f5f5f5"></polygon><path d="M189.34,263.5v-4.2L186,260.81a5.87,5.87,0,0,0-.9-2l2.11-4.24-2.57-1.49L182,257a5.93,5.93,0,0,0-2.17.21l-.37-3.65-3.64,2.1-.36,4.07a17.66,17.66,0,0,0-2.18,2.3l-2.62-.92-2.57,4.46,2.1,1.81a18.42,18.42,0,0,0-.9,3L166,272.81V277l3.34-1.51a6,6,0,0,0,.9,2l-2.1,4.25,2.57,1.48,2.62-4a5.79,5.79,0,0,0,2.18-.21l.36,3.65,3.64-2.1.37-4.07a6.75,6.75,0,0,0,2.91-2.05l1.89.67,2.57-4.46-1.58-1.36a9.27,9.27,0,0,0,.37-3.48ZM177.64,274c-2.79,1.61-4.52.47-4.52-2.75a11.25,11.25,0,0,1,5.09-8.78c2.79-1.61,4.48-.44,4.48,2.78A11.17,11.17,0,0,1,177.64,274Z" style="fill:#e0e0e0"></path><polygon points="187.55 254.78 184.63 253.09 182 257.04 184.93 258.72 187.55 254.78" style="fill:#f5f5f5"></polygon><polygon points="192.26 260.99 189.34 259.3 185.99 260.81 188.92 262.5 192.26 260.99" style="fill:#f5f5f5"></polygon><polygon points="178.75 284.4 175.82 282.71 175.46 279.06 178.38 280.75 178.75 284.4" style="fill:#e0e0e0"></polygon><polygon points="168.09 281.74 171.01 283.42 173.12 279.18 170.19 277.49 168.09 281.74" style="fill:#e0e0e0"></polygon><path d="M192.26,265.19V261l-3.34,1.51a6,6,0,0,0-.9-2l2.1-4.25-2.57-1.48-2.62,3.94a6,6,0,0,0-2.18.22l-.36-3.65-3.64,2.1-.37,4.07a17.63,17.63,0,0,0-2.17,2.3l-2.63-.92L171,267.3l2.11,1.81a18.08,18.08,0,0,0-.91,3l-3.34,2.35v4.2l3.34-1.5a6.08,6.08,0,0,0,.91,2L171,283.42l2.57,1.49,2.63-4a5.93,5.93,0,0,0,2.17-.21l.37,3.65,3.64-2.1.36-4.07a19.12,19.12,0,0,0,2.18-2.3l2.62.91,2.57-4.45-2.1-1.81a18.42,18.42,0,0,0,.9-3Zm-11.69,10.49c-2.79,1.61-5.06.3-5.06-2.92a11.18,11.18,0,0,1,5.06-8.75c2.79-1.61,5.05-.31,5.05,2.92A11.17,11.17,0,0,1,180.57,275.68Z" style="fill:#ebebeb"></path><polygon points="173.28 262.07 176.21 263.76 173.58 262.84 170.66 261.15 173.28 262.07" style="fill:#f5f5f5"></polygon><rect x="168.26" y="262.54" width="5.14" height="3.38" transform="translate(-143.4 280.22) rotate(-60.03)" style="fill:#f5f5f5"></rect><polygon points="168.09 265.61 171.01 267.3 173.12 269.11 170.19 267.42 168.09 265.61" style="fill:#e0e0e0"></polygon><polygon points="169.29 270.45 172.21 272.14 168.87 274.5 165.95 272.81 169.29 270.45" style="fill:#f5f5f5"></polygon><polygon points="165.95 272.81 168.87 274.5 168.87 278.69 165.95 277.01 165.95 272.81" style="fill:#e0e0e0"></polygon><polygon points="182.38 255.29 179.46 253.6 175.82 255.7 178.75 257.39 182.38 255.29" style="fill:#f5f5f5"></polygon><path d="M128.35,259.12l-.49-2.82-2.5,1.66a3.47,3.47,0,0,0-1-1.16l1.2-3.25-2.23-.5-1.65,3.15a5.85,5.85,0,0,0-1.72.56l-.72-2.38-2.68,2.11.18,2.8a14.93,14.93,0,0,0-1.48,1.95l-2.21-.11-1.55,3.48,1.89.81a11.76,11.76,0,0,0-.37,2.2l-2.41,2.22.48,2.81,2.51-1.65a3.45,3.45,0,0,0,1,1.16l-1.2,3.25,2.23.5L118,273.6c.55-.08.42-1.11,1-1.4l.72,2.37,2.67-2.1-.06-1.1c.54-.61,2.58-1.94,3-2.63l.55-.92,1.55-3.47-.72-1.31-.8-1.71Zm-8.18,9.26c-2,1.62-2.68,2-3-.19a8.38,8.38,0,0,1,2.88-7.06c2.06-1.61,2.85-1.73,3.22.42S122.23,266.77,120.17,268.38Z" style="fill:#e0e0e0"></path><polygon points="123.37 253.05 126.29 254.74 124.64 257.88 121.72 256.2 123.37 253.05" style="fill:#f5f5f5"></polygon><polygon points="130.79 257.99 128.28 259.64 125.36 257.95 127.86 256.3 130.79 257.99" style="fill:#f5f5f5"></polygon><polygon points="130.39 266.03 128.49 265.22 125.56 263.54 127.46 264.35 130.39 266.03" style="fill:#e0e0e0"></polygon><polygon points="113.39 275.41 116.32 277.09 117.52 273.85 114.6 272.16 113.39 275.41" style="fill:#e0e0e0"></polygon><polygon points="122.64 276.26 119.72 274.57 119 272.2 121.93 273.89 122.64 276.26" style="fill:#e0e0e0"></polygon><path d="M131.27,260.8l-.48-2.81-2.51,1.65a3.53,3.53,0,0,0-1-1.16l1.2-3.24-2.24-.5-1.65,3.14a6.26,6.26,0,0,0-1.72.56l-.71-2.37-2.68,2.11.17,2.79a15.25,15.25,0,0,0-1.48,2l-2.21-.11-1.55,3.48,1.9.81a11.67,11.67,0,0,0-.38,2.2l-2.41,2.22.49,2.81,2.51-1.65a3.53,3.53,0,0,0,1,1.16l-1.2,3.24,2.24.5,1.65-3.14a6.37,6.37,0,0,0,1.72-.56l.71,2.37,2.68-2.11-.18-2.79a14.18,14.18,0,0,0,1.48-2l2.22.11,1.55-3.48-1.9-.81a10.88,10.88,0,0,0,.37-2.2Zm-8.17,9.27c-2.06,1.62-4,1.18-4.4-1s1-5.22,3-6.83,4-1.18,4.39,1S125.15,268.46,123.1,270.07Z" style="fill:#ebebeb"></path><polygon points="122.2 256.07 119.28 254.38 116.6 256.49 119.53 258.18 122.2 256.07" style="fill:#f5f5f5"></polygon><polygon points="116.6 256.49 116.78 259.29 119.7 260.97 119.53 258.18 116.6 256.49" style="fill:#e0e0e0"></polygon><polygon points="118.22 262.93 115.3 261.24 113.09 261.13 116.01 262.82 118.22 262.93" style="fill:#f5f5f5"></polygon><polygon points="113.09 261.13 111.53 264.61 114.46 266.3 116.01 262.82 113.09 261.13" style="fill:#e0e0e0"></polygon><polygon points="115.98 269.31 113.06 267.62 110.65 269.84 113.57 271.53 115.98 269.31" style="fill:#f5f5f5"></polygon><polygon points="114.06 274.34 111.13 272.65 110.65 269.84 113.57 271.53 114.06 274.34" style="fill:#e0e0e0"></polygon><polygon points="126.29 254.74 123.37 253.05 125.6 253.55 128.53 255.24 126.29 254.74" style="fill:#f5f5f5"></polygon><path d="M132.66,232.54v-4.2l-3.35,1.51a5.88,5.88,0,0,0-.9-2l2.11-4.25-2.58-1.49-2.62,3.95a5.93,5.93,0,0,0-2.17.21l-.37-3.64-3.64,2.1-.36,4.07a17,17,0,0,0-2.18,2.3l-2.62-.92-2.57,4.45,2.1,1.82a18,18,0,0,0-.9,3l-3.34,2.35V246l3.34-1.5a5.92,5.92,0,0,0,.9,2l-2.1,4.25,2.57,1.49,2.62-3.95a6,6,0,0,0,2.18-.21l.36,3.64,3.64-2.1.37-4.07a6.82,6.82,0,0,0,2.91-2l1.88.66,2.58-4.45-1.58-1.36a9.53,9.53,0,0,0,.37-3.49ZM121,243c-2.79,1.62-4.52.47-4.52-2.75a11.26,11.26,0,0,1,5.09-8.78c2.79-1.61,4.48-.44,4.48,2.78A11.15,11.15,0,0,1,121,243Z" style="fill:#e0e0e0"></path><polygon points="130.87 223.81 127.94 222.13 125.32 226.07 128.25 227.76 130.87 223.81" style="fill:#f5f5f5"></polygon><polygon points="135.58 230.03 132.66 228.34 129.31 229.84 132.24 231.53 135.58 230.03" style="fill:#f5f5f5"></polygon><polygon points="122.07 253.43 119.14 251.74 118.78 248.1 121.7 249.78 122.07 253.43" style="fill:#e0e0e0"></polygon><polygon points="111.41 250.77 114.33 252.46 116.44 248.21 113.51 246.53 111.41 250.77" style="fill:#e0e0e0"></polygon><path d="M135.58,234.22V230l-3.34,1.5a6.07,6.07,0,0,0-.9-2l2.1-4.24-2.57-1.49-2.62,3.95a6,6,0,0,0-2.18.21l-.37-3.65-3.63,2.1-.37,4.07a18.29,18.29,0,0,0-2.17,2.3l-2.63-.91-2.57,4.45,2.11,1.81a18.47,18.47,0,0,0-.91,3l-3.34,2.35v4.2l3.34-1.51a6,6,0,0,0,.91,2l-2.11,4.25,2.57,1.48,2.63-3.94a6,6,0,0,0,2.17-.22l.37,3.65,3.63-2.1.37-4.07a18.4,18.4,0,0,0,2.18-2.3l2.62.92,2.57-4.46-2.1-1.81a18,18,0,0,0,.9-3Zm-11.69,10.49c-2.79,1.61-5.06.31-5.06-2.92a11.18,11.18,0,0,1,5.06-8.75c2.79-1.61,5-.3,5,2.92A11.17,11.17,0,0,1,123.89,244.71Z" style="fill:#ebebeb"></path><polygon points="116.6 231.1 119.53 232.79 116.9 231.88 113.98 230.19 116.6 231.1" style="fill:#f5f5f5"></polygon><rect x="111.58" y="231.57" width="5.14" height="3.38" transform="translate(-144.94 215.62) rotate(-60.03)" style="fill:#f5f5f5"></rect><polygon points="111.41 234.64 114.33 236.33 116.44 238.15 113.51 236.46 111.41 234.64" style="fill:#e0e0e0"></polygon><polygon points="112.61 239.49 115.53 241.18 112.19 243.53 109.27 241.84 112.61 239.49" style="fill:#f5f5f5"></polygon><polygon points="109.27 241.84 112.19 243.53 112.19 247.73 109.27 246.04 109.27 241.84" style="fill:#e0e0e0"></polygon><polygon points="125.7 224.32 122.78 222.64 119.14 224.74 122.07 226.42 125.7 224.32" style="fill:#f5f5f5"></polygon><path d="M166.53,150.56a3.62,3.62,0,0,0-1.72-2.89l-.47-.27a3.8,3.8,0,0,0-3.46,0l-37.07,21.41a3.82,3.82,0,0,0-1.73,3v42.77a3.83,3.83,0,0,0,1.73,3l.47.27a3.8,3.8,0,0,0,3,.2,1.73,1.73,0,0,0,.51-.2l37.07-21.41a3.8,3.8,0,0,0,1.73-3Z" style="fill:#BA68C8"></path><path d="M166.53,150.56a1.08,1.08,0,0,0-1.72-.89l-37.06,21.41a3.68,3.68,0,0,0-1.24,1.27l-3.91-2.25a3.33,3.33,0,0,1,1.21-1.28l37.07-21.42a3.92,3.92,0,0,1,3.47,0l.46.28A3.6,3.6,0,0,1,166.53,150.56Z" style="fill:#fff;opacity:0.7000000000000001"></path><path d="M127.35,218a3.77,3.77,0,0,1-3.06-.18l-.48-.26a3.86,3.86,0,0,1-1.73-3V171.81a3.47,3.47,0,0,1,.52-1.71l3.91,2.25a3.69,3.69,0,0,0-.5,1.72v42.77C126,217.8,126.57,218.26,127.35,218Z" style="opacity:0.2"></path><path d="M146.28,177.49c-3.45,2-6.25,7.34-6.25,11.93s2.8,6.71,6.25,4.72,6.24-7.34,6.24-11.93S149.72,175.5,146.28,177.49Z" style="fill:#fff"></path><polygon points="134.39 178.41 137.2 176.79 137.2 178.21 134.39 179.83 134.39 178.41" style="fill:#fff"></polygon><path d="M159.29,166.61,154,169.68c-1,.59-1.83,0-1.83-1.38s-.81-2-1.82-1.38l-8.09,4.67a4.38,4.38,0,0,0-1.82,3.49,4.36,4.36,0,0,1-1.83,3.49l-5.32,3.07a4.4,4.4,0,0,0-1.83,3.5v20.28c0,1.35.82,2,1.83,1.38l26-15a4.36,4.36,0,0,0,1.83-3.49V168C161.12,166.65,160.3,166,159.29,166.61Zm-13,29.56c-4.29,2.48-7.78-.16-7.78-5.87s3.49-12.37,7.78-14.85,7.77.16,7.77,5.88S150.56,193.7,146.28,196.17Zm8-21.27c-.55.31-1,0-1-.76a2.41,2.41,0,0,1,1-1.91c.55-.32,1,0,1,.76A2.41,2.41,0,0,1,154.28,174.9Z" style="fill:#fff"></path><path d="M223.22,183.42a3.83,3.83,0,0,0-1.73-3l-.48-.27a3.83,3.83,0,0,0-3.46,0l-37.06,21.42a3.85,3.85,0,0,0-1.74,3v42.77a3.81,3.81,0,0,0,1.74,3l.47.27a3.78,3.78,0,0,0,2.94.2,2,2,0,0,0,.52-.2l37.07-21.41a3.83,3.83,0,0,0,1.73-3Z" style="fill:#BA68C8"></path><path d="M221.48,182.42l-37.06,21.41a3.85,3.85,0,0,0-1.74,3V249.6c0,1.1.77,1.55,1.73,1l37.07-21.41a3.83,3.83,0,0,0,1.73-3V183.42C223.22,182.32,222.44,181.87,221.48,182.42Z" style="fill:#fff;opacity:0.6000000000000001"></path><path d="M223.19,183.11c-.09-.87-.85-1.19-1.71-.69l-37.06,21.41a3.81,3.81,0,0,0-1.24,1.28l-3.91-2.25a3.31,3.31,0,0,1,1.22-1.29l37.06-21.42a3.92,3.92,0,0,1,3.47,0l.46.28A3.8,3.8,0,0,1,223.19,183.11Z" style="fill:#fff;opacity:0.8"></path><path d="M184,250.78a3.83,3.83,0,0,1-3.05-.18l-.48-.26a3.85,3.85,0,0,1-1.74-3V204.57a3.44,3.44,0,0,1,.52-1.71l3.91,2.25a3.69,3.69,0,0,0-.5,1.72V249.6C182.69,250.56,183.24,251,184,250.78Z" style="fill:#fff;opacity:0.30000000000000004"></path><path d="M189,214.81l13.27,7.73c.43.25,1-.09,1.44-.83l13.27-23.06v20.94a3.14,3.14,0,0,1-1.19,2.52l-25.6,14.78c-.66.38-1.19-.13-1.19-1.14Z" style="fill:#fff"></path><path d="M202.25,219.43,189,212.16l28-16.15-13.29,22.61C203.23,219.33,202.67,219.66,202.25,219.43Z" style="fill:#fff"></path><path d="M166.45,281.54a3.6,3.6,0,0,0-1.72-2.88l-.47-.28a3.83,3.83,0,0,0-3.46,0L123.73,299.8a3.83,3.83,0,0,0-1.73,3v42.77a3.8,3.8,0,0,0,1.73,3l.47.27a3.89,3.89,0,0,0,3,.2,2.06,2.06,0,0,0,.51-.2l37.07-21.41a3.81,3.81,0,0,0,1.73-3Z" style="fill:#BA68C8"></path><path d="M166.45,281.54a1.09,1.09,0,0,0-1.73-.89l-37.06,21.41a3.78,3.78,0,0,0-1.23,1.28l-3.91-2.26a3.26,3.26,0,0,1,1.21-1.28l37.07-21.42a3.92,3.92,0,0,1,3.47,0l.45.28A3.59,3.59,0,0,1,166.45,281.54Z" style="fill:#fff;opacity:0.7000000000000001"></path><path d="M127.27,349a3.77,3.77,0,0,1-3.06-.18l-.48-.26a3.83,3.83,0,0,1-1.73-3V302.8a3.5,3.5,0,0,1,.52-1.72l3.91,2.26a3.69,3.69,0,0,0-.5,1.72v42.77C125.93,348.79,126.49,349.24,127.27,349Z" style="opacity:0.2"></path><path d="M138,303.88v23.4a10.08,10.08,0,0,0-2.07.9,9.45,9.45,0,0,0-4.28,7.43c0,2.73,1.92,3.84,4.28,2.47s5.21-5.25,5.21-8V308.65l13.75-7.84v16.8a9.63,9.63,0,0,0-2.08.9c-2.36,1.36-3.49,4.2-3.49,6.93s1.92,3.84,4.28,2.48a9.47,9.47,0,0,0,4.29-7.42h0V292.44Z" style="fill:#fff"></path><path d="M166.51,215.79v0h0a1.08,1.08,0,0,0-.09-.32,1,1,0,0,0-.36-.45.72.72,0,0,1,.36.45.18.18,0,0,1,.05.12.34.34,0,0,0,0-.14v0a2.84,2.84,0,0,0-.13-.38,2,2,0,0,0-.14-.34l-.06-.12-.18-.3a2.62,2.62,0,0,0-.24-.34,2.73,2.73,0,0,0-.27-.31,2.91,2.91,0,0,0-.27-.24l0,0a3.62,3.62,0,0,0-.32-.22l-.47-.27a3.46,3.46,0,0,0-1.25-.39,3.87,3.87,0,0,0-2.21.39l-18,10.41-19.05,11a1,1,0,0,0-.2.13c-.07,0-.13.1-.19.14a4,4,0,0,0-.36.35,1.74,1.74,0,0,0-.22.27h0c-.08.1-.25.38-.25.38a2.21,2.21,0,0,0-.18.34c0,.1-.09.19-.12.29a1.93,1.93,0,0,0-.11.34,1.49,1.49,0,0,0-.08.41,1.93,1.93,0,0,0,0,.33V280a3.45,3.45,0,0,0,.51,1.7c.08.13.17.26.26.38s0,0,0,0,.19.23.29.34h0a2.92,2.92,0,0,0,.5.43,1.08,1.08,0,0,0,.18.11l.3.17.18.1a1.91,1.91,0,0,0,.38.18,3.1,3.1,0,0,0,.86.21,3.71,3.71,0,0,0,.47,0,4.51,4.51,0,0,0,.65-.05,3,3,0,0,0,.6-.17h.13a2.26,2.26,0,0,0,.35-.17l37.07-21.41a3.81,3.81,0,0,0,1.74-3V216.11A1.82,1.82,0,0,0,166.51,215.79Z" style="fill:#BA68C8"></path><path d="M158.53,235.34a15.93,15.93,0,0,0-.14-1.74,9.12,9.12,0,0,0-.43-1.93,4.22,4.22,0,0,0-1.42-2.08,3,3,0,0,0-2.19-.64,7.34,7.34,0,0,0-3,1c-1.23.63-1.68.87-4.43,2.46l-.66.38c-3.35,1.94-3.77,2.2-5.09,3a14.2,14.2,0,0,0-3,2.48,14.94,14.94,0,0,0-2.19,3.17,16.7,16.7,0,0,0-1.42,3.73,20.24,20.24,0,0,0-.57,4.33c-.06,1.79-.08,2.36-.08,6.82s0,5,.08,6.74a12.23,12.23,0,0,0,.57,3.66,4.3,4.3,0,0,0,1.42,2.09,3.09,3.09,0,0,0,2.19.63,7.23,7.23,0,0,0,3-1c1.32-.68,1.74-.9,5.09-2.84s3.77-2.19,5.09-3a14.47,14.47,0,0,0,5.18-5.66,16.52,16.52,0,0,0,1.42-3.73,20.23,20.23,0,0,0,.57-4.32c.06-1.79.07-2.36.07-6.83S158.59,237.05,158.53,235.34Zm-2.22,14.71a15.45,15.45,0,0,1-.42,3.3,10.62,10.62,0,0,1-.93,2.42,8.72,8.72,0,0,1-1.42,2,10.53,10.53,0,0,1-2.28,1.89c-1.3.84-1.69,1.08-5,3s-3.68,2.1-5,2.78a5.13,5.13,0,0,1-2.28.75,2,2,0,0,1-1.42-.4,2.7,2.7,0,0,1-.93-1.36,9,9,0,0,1-.42-2.81c-.06-1.7-.07-2.22-.07-6.6s0-4.92.07-6.69a14.72,14.72,0,0,1,.42-3.3,10.25,10.25,0,0,1,.93-2.43,9,9,0,0,1,1.42-2.05,10.57,10.57,0,0,1,2.28-1.88c1.31-.83,1.69-1.08,5-3l.66-.39c2.7-1.56,3.12-1.77,4.33-2.4a5.66,5.66,0,0,1,2.28-.76,2,2,0,0,1,1.42.42,2.68,2.68,0,0,1,.93,1.35,8.82,8.82,0,0,1,.41,2.48c0,.11,0,.22,0,.34.06,1.7.07,2.21.07,6.6S156.37,248.27,156.31,250.05Z" style="fill:#fff"></path><path d="M146.93,240.42a6.77,6.77,0,0,0-.66.33c-3.5,2-6.33,7.44-6.33,12.1s2.83,6.81,6.33,4.79,6.33-7.44,6.33-12.1a7.93,7.93,0,0,0-.62-3.3A3.53,3.53,0,0,0,146.93,240.42Zm-.66,14.26c-2.27,1.31-4.11-.09-4.11-3.11s1.84-6.54,4.11-7.85a3.27,3.27,0,0,1,.66-.31,2.29,2.29,0,0,1,3.12,1.44,5.41,5.41,0,0,1,.33,2C150.38,249.85,148.54,253.37,146.27,254.68Z" style="fill:#fff"></path><path d="M152.86,234.64a3.53,3.53,0,0,0-1.49,2.83c0,1.09.66,1.59,1.49,1.12a3.54,3.54,0,0,0,1.47-2.83C154.33,234.68,153.67,234.17,152.86,234.64Z" style="fill:#fff"></path><g style="opacity:0.6000000000000001"><path d="M127.34,283.46a3.75,3.75,0,0,1-3-.18l-.48-.26a3.85,3.85,0,0,1-1.74-3V237.25a3.47,3.47,0,0,1,.52-1.71l3.92,2.26a3.79,3.79,0,0,0-.51,1.71v42.78C126,283.24,126.56,283.7,127.34,283.46Z" style="opacity:0.2"></path><path d="M127.34,283.46a3.75,3.75,0,0,1-3-.18l-.48-.26a3.85,3.85,0,0,1-1.74-3V237.25a3.47,3.47,0,0,1,.52-1.71l3.92,2.26a3.79,3.79,0,0,0-.51,1.71v42.78C126,283.24,126.56,283.7,127.34,283.46Z" style="opacity:0.6"></path><path d="M146.92,225.44l-19.19,11.08a3.83,3.83,0,0,0-1.73,3v42.77c0,1.11.78,1.56,1.73,1l37.08-21.42a3.82,3.82,0,0,0,1.72-3V222.62L146.92,249Z" style="opacity:0.4"></path><path d="M127.73,236.52l19.19-11.08-4.06-2.19-19.06,11a3.26,3.26,0,0,0-1.21,1.28l3.92,2.26A3.86,3.86,0,0,1,127.73,236.52Z" style="opacity:0.2"></path></g><path d="M166.46,215.56a.18.18,0,0,0-.05-.12.72.72,0,0,0-.36-.45l-.13-.05a.35.35,0,0,0-.13-.05h-.39l-.19.05a2.05,2.05,0,0,0-.41.18l-17.87,10.33-4.07-2.19,18-10.41a3.87,3.87,0,0,1,2.21-.39,3.46,3.46,0,0,1,1.25.39l.47.27a3.62,3.62,0,0,1,.32.22l0,0a2.91,2.91,0,0,1,.27.24,2.73,2.73,0,0,1,.27.31,2.62,2.62,0,0,1,.24.34l.18.3.06.12a3.45,3.45,0,0,1,.14.34,2.84,2.84,0,0,1,.13.38v0A.34.34,0,0,1,166.46,215.56Z" style="fill:#fff;opacity:0.6"></path><path d="M223.19,248.67v0h0a1.15,1.15,0,0,0-.09-.33,1,1,0,0,0-.36-.44.73.73,0,0,1,.36.44.38.38,0,0,1,.06.13.35.35,0,0,0,0-.14v0a2.84,2.84,0,0,0-.13-.38,1.73,1.73,0,0,0-.14-.34,1.34,1.34,0,0,0-.06-.12c-.06-.1-.11-.2-.18-.3a2.62,2.62,0,0,0-.24-.34,2.73,2.73,0,0,0-.27-.31l-.27-.24s0,0,0,0a2.27,2.27,0,0,0-.32-.22l-.47-.27a3.46,3.46,0,0,0-1.25-.39,3.87,3.87,0,0,0-2.21.39l-18,10.41-19,11a1,1,0,0,0-.2.13l-.19.14a4,4,0,0,0-.36.35,1.44,1.44,0,0,0-.22.27h0c-.08.11-.25.39-.25.39a2.21,2.21,0,0,0-.18.34c0,.1-.09.19-.12.29a1.93,1.93,0,0,0-.11.34,1.49,1.49,0,0,0-.08.41,1.84,1.84,0,0,0,0,.33v42.78a3.48,3.48,0,0,0,.51,1.7c.08.13.17.26.26.38s0,0,0,0,.19.23.29.34h0a2.92,2.92,0,0,0,.5.43,1.08,1.08,0,0,0,.18.11l.3.17.18.1a1.91,1.91,0,0,0,.38.18,3.1,3.1,0,0,0,.86.21,3.71,3.71,0,0,0,.47,0,3.6,3.6,0,0,0,.66-.06,3,3,0,0,0,.59-.16h.13a1.89,1.89,0,0,0,.35-.17l37.07-21.41a3.81,3.81,0,0,0,1.74-3V249A1.71,1.71,0,0,0,223.19,248.67Z" style="fill:#BA68C8"></path><path d="M214.45,273.86c.7-1.32.31-2.68-.66-2.31l-3.53,1.35h0l-1.14.44-1.44.55-.08,0a.65.65,0,0,1-.66-.14.66.66,0,0,1-.15-.23l-2.74-5.8a.81.81,0,0,0-.19-.27.6.6,0,0,0-.24-.12h0c-.56-.12-1.35.55-1.68,1.62l-2.73,9a2.88,2.88,0,0,1-.89,1.37L192.19,284c-1,.75-1.35,2.56-.65,3.07l4.42,3.19a1.26,1.26,0,0,1,.34,1.2l-1,8.72c-.17,1.39.85,1.78,1.71.67l5.47-7a1.37,1.37,0,0,1,1.1-.64l5.47.68c.87.1,1.88-1.47,1.72-2.66l-1-7.51a2.82,2.82,0,0,1,.34-1.6Z" style="fill:#fff"></path><g style="opacity:0.6000000000000001"><path d="M184,316.34a3.75,3.75,0,0,1-3.05-.18l-.48-.26a3.85,3.85,0,0,1-1.74-3V270.13a3.47,3.47,0,0,1,.52-1.71l3.92,2.26a3.79,3.79,0,0,0-.51,1.71v42.77C182.68,316.12,183.24,316.58,184,316.34Z" style="opacity:0.2"></path><path d="M184,316.34a3.75,3.75,0,0,1-3.05-.18l-.48-.26a3.85,3.85,0,0,1-1.74-3V270.13a3.47,3.47,0,0,1,.52-1.71l3.92,2.26a3.79,3.79,0,0,0-.51,1.71v42.77C182.68,316.12,183.24,316.58,184,316.34Z" style="opacity:0.6"></path><path d="M203.6,258.31,184.42,269.4a3.81,3.81,0,0,0-1.74,3v42.77c0,1.11.78,1.56,1.73,1l37.08-21.41a3.82,3.82,0,0,0,1.72-3V255.5L203.6,281.92Z" style="opacity:0.4"></path><path d="M184.42,269.4l19.18-11.09-4.06-2.18-19.06,11a3.33,3.33,0,0,0-1.21,1.28l3.92,2.26A3.78,3.78,0,0,1,184.42,269.4Z" style="opacity:0.2"></path></g><path d="M223.15,248.44a.38.38,0,0,0-.06-.13.73.73,0,0,0-.36-.44.29.29,0,0,0-.13-.05.35.35,0,0,0-.13,0,.17.17,0,0,0-.1,0h-.29l-.19.05a1.6,1.6,0,0,0-.41.18l-17.87,10.32-4.07-2.18,18-10.41a3.87,3.87,0,0,1,2.21-.39,3.46,3.46,0,0,1,1.25.39l.47.27a2.27,2.27,0,0,1,.32.22s0,0,0,0l.27.24a2.73,2.73,0,0,1,.27.31,2.62,2.62,0,0,1,.24.34c.07.1.12.2.18.3a1.34,1.34,0,0,1,.06.12,1.73,1.73,0,0,1,.14.34,2.84,2.84,0,0,1,.13.38v0A.35.35,0,0,1,223.15,248.44Z" style="fill:#fff;opacity:0.6"></path><path d="M223.19,117.61v0h0a1.15,1.15,0,0,0-.09-.33,1,1,0,0,0-.36-.44.73.73,0,0,1,.36.44.38.38,0,0,1,.06.13.35.35,0,0,0,0-.14v0a2.84,2.84,0,0,0-.13-.38,1.73,1.73,0,0,0-.14-.34,1.34,1.34,0,0,0-.06-.12c-.06-.1-.11-.2-.18-.3a2.08,2.08,0,0,0-.24-.34,2.73,2.73,0,0,0-.27-.31l-.27-.25,0,0a2.27,2.27,0,0,0-.32-.22l-.47-.27a3.28,3.28,0,0,0-1.25-.39,3.87,3.87,0,0,0-2.21.39l-18,10.41-19,11a.69.69,0,0,0-.2.13l-.19.14a4,4,0,0,0-.36.35,1.78,1.78,0,0,0-.22.26h0c-.08.11-.25.39-.25.39a2.21,2.21,0,0,0-.18.34c0,.1-.09.19-.12.29a1.93,1.93,0,0,0-.11.34,1.49,1.49,0,0,0-.08.41,1.84,1.84,0,0,0,0,.33v42.78a3.48,3.48,0,0,0,.51,1.7c.08.13.17.26.26.38s0,0,0,0,.19.23.29.34h0a2.92,2.92,0,0,0,.5.43l.18.11.3.17.18.1a1.91,1.91,0,0,0,.38.18,3.49,3.49,0,0,0,.86.21,3.71,3.71,0,0,0,.47,0,3.6,3.6,0,0,0,.66-.06,3,3,0,0,0,.59-.16H184l0,0a1.39,1.39,0,0,0,.35-.16l37.07-21.41a3.81,3.81,0,0,0,1.74-3V117.92A1.71,1.71,0,0,0,223.19,117.61Z" style="fill:#BA68C8"></path><path d="M215.21,137.15a15.94,15.94,0,0,0-.14-1.73,9.12,9.12,0,0,0-.43-1.93,4.3,4.3,0,0,0-1.42-2.09,3.09,3.09,0,0,0-2.19-.63,7.34,7.34,0,0,0-3,1c-1.23.63-1.68.87-4.43,2.46l-.66.38c-3.35,1.93-3.77,2.2-5.08,3a13.74,13.74,0,0,0-3,2.48,14.94,14.94,0,0,0-2.19,3.17,16.7,16.7,0,0,0-1.42,3.73,20.14,20.14,0,0,0-.57,4.32c-.06,1.79-.08,2.36-.08,6.83s0,5,.08,6.74a12.29,12.29,0,0,0,.57,3.66,4.3,4.3,0,0,0,1.42,2.09,3.14,3.14,0,0,0,2.19.63,7.47,7.47,0,0,0,3-1c1.31-.68,1.73-.9,5.08-2.84s3.77-2.2,5.09-3a14.17,14.17,0,0,0,3-2.49,14.6,14.6,0,0,0,2.19-3.16,16.7,16.7,0,0,0,1.42-3.73,20.23,20.23,0,0,0,.57-4.32c.06-1.79.07-2.36.07-6.83S215.27,138.87,215.21,137.15ZM213,151.87a15.45,15.45,0,0,1-.42,3.3,10.62,10.62,0,0,1-.93,2.42,8.72,8.72,0,0,1-1.42,2,10.53,10.53,0,0,1-2.28,1.89c-1.3.83-1.69,1.08-5,3s-3.68,2.1-5,2.78a5.27,5.27,0,0,1-2.28.75,1.91,1.91,0,0,1-1.42-.41,2.55,2.55,0,0,1-.92-1.35,8.59,8.59,0,0,1-.43-2.81c-.06-1.7-.07-2.22-.07-6.6s0-4.92.07-6.69a13.91,13.91,0,0,1,.43-3.3,9.66,9.66,0,0,1,.92-2.43,9,9,0,0,1,1.42-2.05,10.57,10.57,0,0,1,2.28-1.88c1.31-.83,1.7-1.08,5-3l.66-.38c2.7-1.56,3.12-1.78,4.33-2.4a5.66,5.66,0,0,1,2.28-.76,2,2,0,0,1,1.42.42,2.68,2.68,0,0,1,.93,1.35,8.74,8.74,0,0,1,.41,2.48c0,.11,0,.22,0,.33.06,1.7.07,2.22.07,6.6S213.05,150.09,213,151.87Z" style="fill:#fff"></path><path d="M203.61,142.24a5.08,5.08,0,0,0-.66.33c-3.5,2-6.33,7.44-6.33,12.1s2.83,6.81,6.33,4.79,6.33-7.44,6.33-12.1a8,8,0,0,0-.62-3.31A3.54,3.54,0,0,0,203.61,142.24ZM203,156.49c-2.27,1.32-4.11-.08-4.11-3.11s1.84-6.53,4.11-7.84a3.27,3.27,0,0,1,.66-.31,2.28,2.28,0,0,1,3.12,1.44,5.41,5.41,0,0,1,.33,2C207.06,151.67,205.22,155.18,203,156.49Z" style="fill:#fff"></path><path d="M209.54,136.46a3.55,3.55,0,0,0-1.49,2.83c0,1.09.67,1.59,1.49,1.12a3.56,3.56,0,0,0,1.47-2.83C211,136.49,210.35,136,209.54,136.46Z" style="fill:#fff"></path><g style="opacity:0.6000000000000001"><path d="M184,185.28a3.75,3.75,0,0,1-3.05-.18l-.48-.26a3.85,3.85,0,0,1-1.74-3V139.07a3.47,3.47,0,0,1,.52-1.71l3.92,2.26a3.79,3.79,0,0,0-.51,1.71V184.1C182.68,185.06,183.24,185.52,184,185.28Z" style="opacity:0.2"></path><path d="M184,185.28a3.75,3.75,0,0,1-3.05-.18l-.48-.26a3.85,3.85,0,0,1-1.74-3V139.07a3.47,3.47,0,0,1,.52-1.71l3.92,2.26a3.79,3.79,0,0,0-.51,1.71V184.1C182.68,185.06,183.24,185.52,184,185.28Z" style="opacity:0.6"></path><path d="M203.6,127.25l-19.18,11.09a3.81,3.81,0,0,0-1.74,3V184.1c0,1.11.78,1.55,1.73,1l37.08-21.41a3.82,3.82,0,0,0,1.72-3V124.44L203.6,150.86Z" style="opacity:0.4"></path><path d="M184.42,138.34l19.18-11.09-4.06-2.18-19.06,11a3.33,3.33,0,0,0-1.21,1.28l3.92,2.26A3.78,3.78,0,0,1,184.42,138.34Z" style="opacity:0.2"></path></g><path d="M223.15,117.38a.38.38,0,0,0-.06-.13.73.73,0,0,0-.36-.44.29.29,0,0,0-.13,0,.35.35,0,0,0-.13-.05.17.17,0,0,0-.1,0,.71.71,0,0,0-.29,0l-.19,0a1.6,1.6,0,0,0-.41.18l-17.87,10.32-4.07-2.18,18-10.41a3.87,3.87,0,0,1,2.21-.39,3.28,3.28,0,0,1,1.25.39l.47.27a2.27,2.27,0,0,1,.32.22l0,0,.27.25a2.73,2.73,0,0,1,.27.31,2.08,2.08,0,0,1,.24.34c.07.1.12.2.18.3a1.34,1.34,0,0,1,.06.12,1.73,1.73,0,0,1,.14.34,2.84,2.84,0,0,1,.13.38v0A.35.35,0,0,1,223.15,117.38Z" style="fill:#fff;opacity:0.6"></path></g></g><g id="freepik--Wrench--inject-20"><g id="freepik--wrench--inject-20"><path d="M301.33,398.3c-1.91,1.09-5.48,1-6.62,2.35v4.69l21.78-3.18,8.23,4.82-3.13,6.54-22-1.46v4.69c.46.32.95.63,1.47.94,9.2,5.39,24.23,5.46,33.57.15,4.71-2.68,7.06-6.21,7.06-9.74h0v-4.68l-1.29.21-.15-.26,82.4-47.57c8.35,1.76,18.06.73,24.81-3.11,3.5-2,5.7-4.44,6.61-7V341l-21.78,7.87L424.08,344l3.13-6.55,22-3.22v-4.69s-25.7-1.71-35,3.6a15.32,15.32,0,0,0-5.82,5.38l-1.24-.45v4.65h0a8.78,8.78,0,0,0,1.44,4.9L326.13,395.2C317.79,393.44,308.08,394.46,301.33,398.3Z" style="fill:#37474f"></path><polygon points="422.68 355.8 422.68 351.11 340.27 398.68 340.27 403.37 422.68 355.8" style="fill:#37474f"></polygon><path d="M408.54,342.94l-82.41,47.57c-8.34-1.75-18.05-.73-24.8,3.11-3.51,2-5.7,4.44-6.62,7l21.78-3.18,8.24,4.82-3.13,6.55-22,3.22c.46.32.95.64,1.47.94,9.2,5.4,24.23,5.46,33.57.15,6.84-3.89,8.71-9.58,5.62-14.47l82.41-47.57c8.34,1.76,18.05.74,24.8-3.1,3.51-2,5.7-4.45,6.62-7l-21.78,3.18-8.24-4.82,3.13-6.54,22-3.23c-.46-.32-.95-.63-1.47-.94-9.2-5.39-24.23-5.46-33.57-.15C407.32,332.36,405.45,338.05,408.54,342.94Z" style="fill:#455a64"></path><polygon points="425.84 340.35 424.08 339.33 427.21 332.79 449.2 329.56 449.2 334.25 427.21 337.47 425.84 340.35" style="fill:#263238"></polygon><polygon points="322.97 405.96 324.73 402.3 316.49 397.47 294.71 400.65 294.71 405.34 316.49 402.16 322.97 405.96" style="fill:#263238"></polygon></g></g><g id="freepik--Screwdriver--inject-20"><g id="freepik--screwdriver--inject-20"><path d="M275.85,348.7l17.22,29.82L351.17,345c2.39-1.19,3.89-4,3.89-8,0-7.77-5.45-17.22-12.18-21.11-3.37-1.95-6.42-2.13-8.63-.85h0Z" style="fill:#BA68C8"></path><path d="M272.39,354.88h0c-.25,4.54-6.68,5.52-6.68,5.52l12.18,21.11s4.07-5,8.13-3v0c6,2.6,10.66-.62,10.66-7.79,0-7.77-5.46-17.22-12.19-21.11C278.26,346,273.14,348.38,272.39,354.88Z" style="fill:#BA68C8"></path><path d="M272.39,354.88h0c-.25,4.54-6.68,5.52-6.68,5.52l12.18,21.11s4.07-5,8.13-3v0c6,2.6,10.66-.62,10.66-7.79,0-7.77-5.46-17.22-12.19-21.11C278.26,346,273.14,348.38,272.39,354.88Z" style="opacity:0.05"></path><path d="M268.62,359.48a12.66,12.66,0,0,1-2.92.91l12.18,21.11a12.54,12.54,0,0,1,2.25-2.05C279.81,372.08,274.84,363.45,268.62,359.48Z" style="opacity:0.05"></path><path d="M253,361.88l1,1.76a12.78,12.78,0,0,0-.53,3.78c0,7.78,5.46,17.23,12.19,21.11a13,13,0,0,0,3.53,1.44l1,1.76,4.06-2.34h0c2.21-1.28,3.57-4,3.57-7.89,0-7.78-5.45-17.23-12.18-21.11-3.37-1.94-6.41-2.13-8.62-.85h0Z" style="fill:#BA68C8"></path><path d="M273.82,383.84c0-7.77-5.45-17.22-12.18-21.11s-12.19-.73-12.19,7,5.46,17.22,12.19,21.11S273.82,391.61,273.82,383.84Z" style="fill:#BA68C8"></path><path d="M273.82,383.84c0-7.77-5.45-17.22-12.18-21.11s-12.19-.73-12.19,7,5.46,17.22,12.19,21.11S273.82,391.61,273.82,383.84Z" style="opacity:0.15"></path><path d="M256.89,387a22.3,22.3,0,0,0,3,2.69l2.86-8.13-3.45-2.53Z" style="opacity:0.15"></path><path d="M345.15,328.58h0a3.36,3.36,0,0,1-1.23,4.59l-41.5,24a3.35,3.35,0,0,1-4.59-1.23h0a3.36,3.36,0,0,1,1.23-4.59l41.5-24A3.36,3.36,0,0,1,345.15,328.58Z" style="opacity:0.2"></path><path d="M337.66,319.65h0c1.31,1.1,1.24,2.64-.15,3.45l-42.28,24.41a4.61,4.61,0,0,1-4.89-.54h0c-1.31-1.09-1.25-2.64.15-3.44l42.28-24.41A4.58,4.58,0,0,1,337.66,319.65Z" style="opacity:0.2"></path><path d="M349.13,339.53h0c-.29-1.69-1.66-2.4-3.05-1.6l-42.29,24.41a4.63,4.63,0,0,0-2,4.51h0c.3,1.68,1.67,2.4,3.06,1.59L347.15,344A4.59,4.59,0,0,0,349.13,339.53Z" style="opacity:0.2"></path><path d="M154.77,433.06v8.13l20.31-6.6s4.07-7.47,8.13-9.82l77.18-44.56,2.38-6.74-2.38-1.38-77.18,44.56c-4.06,2.34-8.13-.43-8.13-.43Z" style="fill:#455a64"></path><path d="M157.15,434.44v8.13L177.46,436s4.06-7.47,8.13-9.81l77.18-44.56v-8.12L185.59,418c-4.07,2.34-8.13-.44-8.13-.44Z" style="fill:#37474f"></path><polygon points="157.15 442.57 154.77 441.19 154.77 433.06 157.15 434.44 157.15 442.57" style="fill:#263238"></polygon><polygon points="154.77 433.06 157.15 434.44 177.46 417.59 175.08 416.22 154.77 433.06" style="fill:#455a64"></polygon></g></g><g id="freepik--Character--inject-20"><g id="freepik--character--inject-20"><path d="M433.62,145.56h-36.9V101.25a17.44,17.44,0,0,1,17.44-17.44h2a17.43,17.43,0,0,1,17.43,17.44Z" style="fill:#455a64"></path><polygon points="393.36 298.85 401.2 298.85 402.25 284.95 393.36 286.34 393.36 298.85" style="fill:#ffa8a7"></polygon><polygon points="420.52 291.07 429.12 291.36 429.25 276.59 419.27 276 420.52 291.07" style="fill:#ffa8a7"></polygon><path d="M410.74,313.46a3.65,3.65,0,0,1-.1,2.38c-.31.49-2.09,2-5.31,2.23s-5.82-.19-7.63-1.34a5.32,5.32,0,0,1-2.85-4.16c-.17-1.75,0-3.44-.81-4.79s-2-2.65-2.26-3.32a6.73,6.73,0,0,1,0-3.57Z" style="fill:#37474f"></path><path d="M402.33,298.16a6.84,6.84,0,0,0,.35,1.95,18.14,18.14,0,0,0,1.88,3.86,16.11,16.11,0,0,0,1.29,1.81c.93,1.1,2.08,2,3.07,3.07a6.26,6.26,0,0,1,1.89,3.78c.14,2.41-2.48,3.23-4.5,3.59a14.94,14.94,0,0,1-6.55-.33,6,6,0,0,1-4.41-4.81c-.11-.67-.07-1.35-.15-2a9.49,9.49,0,0,0-1.87-4.22,12.75,12.75,0,0,1-1.44-2.29c-.63-1.5-.13-3.17.28-4.66.34-1.29.74-2.74,1.19-2.62,0,.67,0,.74.47,1.19s.63,1.43,1.27,1.93a8.74,8.74,0,0,1-.45-1.71,1,1,0,0,1,.14-.69,1.8,1.8,0,0,1,.74-.39,15.37,15.37,0,0,1,2.93-.67,8.85,8.85,0,0,1,2.86,0,1.3,1.3,0,0,1,.72.42,1.4,1.4,0,0,1,.25.82C402.34,296.53,402.31,297.52,402.33,298.16Z" style="fill:#BA68C8"></path><path d="M402.33,298.16a6.84,6.84,0,0,0,.35,1.95,18.14,18.14,0,0,0,1.88,3.86,16.11,16.11,0,0,0,1.29,1.81c.93,1.1,2.08,2,3.07,3.07a6.26,6.26,0,0,1,1.89,3.78c.14,2.41-2.48,3.23-4.5,3.59a14.94,14.94,0,0,1-6.55-.33,6,6,0,0,1-4.41-4.81c-.11-.67-.07-1.35-.15-2a9.49,9.49,0,0,0-1.87-4.22,12.75,12.75,0,0,1-1.44-2.29c-.63-1.5-.13-3.17.28-4.66.34-1.29.74-2.74,1.19-2.62,0,.67,0,.74.47,1.19s.63,1.43,1.27,1.93a8.74,8.74,0,0,1-.45-1.71,1,1,0,0,1,.14-.69,1.8,1.8,0,0,1,.74-.39,15.37,15.37,0,0,1,2.93-.67,8.85,8.85,0,0,1,2.86,0,1.3,1.3,0,0,1,.72.42,1.4,1.4,0,0,1,.25.82C402.34,296.53,402.31,297.52,402.33,298.16Z" style="opacity:0.4"></path><path d="M404.89,304.47c-.9-.67-2.91-.68-4-.56a6.65,6.65,0,0,0-3.13,1.1.71.71,0,0,1-.92-.08h0a.66.66,0,0,1,.07-1,6.74,6.74,0,0,1,3.52-1.31c2.7-.19,3.5.28,3.5.28S405.15,303.67,404.89,304.47Z" style="fill:#f5f5f5"></path><path d="M407,306.94c-1.13-.66-3.34-.57-4.44-.45a6.23,6.23,0,0,0-3,1.16.71.71,0,0,1-.92-.08h0a.66.66,0,0,1,.07-1,7,7,0,0,1,3.59-1.41c2.71-.19,3.42.36,3.42.36A2.24,2.24,0,0,1,407,306.94Z" style="fill:#f5f5f5"></path><path d="M399.34,300a6.72,6.72,0,0,1,3.4.29c.48.27.79,1,.49,1.21a6.33,6.33,0,0,0-3-.41,9,9,0,0,0-2.93.8c-.23.1-.5.25-.74.38a.65.65,0,0,1-.9-.28h0a.6.6,0,0,1,.24-.77A8.66,8.66,0,0,1,399.34,300Z" style="fill:#f5f5f5"></path><path d="M446,301.4a2.94,2.94,0,0,1-.12,2.15c-.3.63-3.58,2.48-8,2.18a18.44,18.44,0,0,1-9.15-3.2,10.51,10.51,0,0,0-5.64-1.45c-2.19-.13-5.06-1.22-5.54-2.24a4.77,4.77,0,0,1,.07-2.79Z" style="fill:#37474f"></path><path d="M428.13,287.59l.35-.07a1.27,1.27,0,0,1,.58,0,1.08,1.08,0,0,1,.55.37,11.1,11.1,0,0,1,1.13,1.77c.93,1.51,2.87,2.77,5,3.91,1.45.78,2.86,1.38,4.36,2s3.54,1.1,4.73,1.91a3.19,3.19,0,0,1,0,5.27c-1.7,1-6.19,2.09-10.9.75-2.57-.72-5.42-3.47-8.79-3.73-2.14-.17-6.19-.77-7.57-2.39-.51-.73.17-3,.73-5,.61-2.15,1.19-5.51,1.91-5.32a1,1,0,0,0,.37.8,10.35,10.35,0,0,0,.91.69,5.81,5.81,0,0,1,1.18,1.71,1.27,1.27,0,0,0,.61.66c.36.13.63-.09.95-.24a1.82,1.82,0,0,1,1.28-.09,7.87,7.87,0,0,0-.23-1.27.78.78,0,0,1,0-.4.63.63,0,0,1,.27-.31A6.8,6.8,0,0,1,428.13,287.59Z" style="fill:#BA68C8"></path><path d="M428.13,287.59l.35-.07a1.27,1.27,0,0,1,.58,0,1.08,1.08,0,0,1,.55.37,11.1,11.1,0,0,1,1.13,1.77c.93,1.51,2.87,2.77,5,3.91,1.45.78,2.86,1.38,4.36,2s3.54,1.1,4.73,1.91a3.19,3.19,0,0,1,0,5.27c-1.7,1-6.19,2.09-10.9.75-2.57-.72-5.42-3.47-8.79-3.73-2.14-.17-6.19-.77-7.57-2.39-.51-.73.17-3,.73-5,.61-2.15,1.19-5.51,1.91-5.32a1,1,0,0,0,.37.8,10.35,10.35,0,0,0,.91.69,5.81,5.81,0,0,1,1.18,1.71,1.27,1.27,0,0,0,.61.66c.36.13.63-.09.95-.24a1.82,1.82,0,0,1,1.28-.09,7.87,7.87,0,0,0-.23-1.27.78.78,0,0,1,0-.4.63.63,0,0,1,.27-.31A6.8,6.8,0,0,1,428.13,287.59Z" style="opacity:0.4"></path><path d="M433.74,292.38a2,2,0,0,0-1.58-1.06,5.71,5.71,0,0,0-3.77,1.41.8.8,0,0,0,.12,1.32h0a.77.77,0,0,0,.91-.1A6.08,6.08,0,0,1,433.74,292.38Z" style="fill:#f5f5f5"></path><path d="M436.76,294.07a2.28,2.28,0,0,0-1.87-1,7.1,7.1,0,0,0-4.12,1.54.79.79,0,0,0,.1,1.28h0a.77.77,0,0,0,.88-.1A6.1,6.1,0,0,1,436.76,294.07Z" style="fill:#f5f5f5"></path><path d="M440.1,295.59a2.58,2.58,0,0,0-2-.87,6.87,6.87,0,0,0-3.95,1.56.78.78,0,0,0,.11,1.27h0a.75.75,0,0,0,.88-.1A5.88,5.88,0,0,1,440.1,295.59Z" style="fill:#f5f5f5"></path><path d="M395.71,174.49c-6.31,14.35-.84,58.66-.84,58.66-.2,2.32-2.84,8.87-3.83,19.06-1.17,12,2.15,39,2.15,39a10.55,10.55,0,0,0,8.61-.28s7.61-43.69,9.12-55.66c1.32-10.44,5-33.14,5-33.14l.91,33s-1.31,8.3-1.74,12.76c-.68,7,4.2,35.83,4.2,35.83s5.63,1.8,10.19-.05c0,0,3.35-40.4,4-48.88.85-11.36,2.75-44.56.15-60.49Z" style="fill:#455a64"></path><path d="M415.92,202.18l1.55-10.64s9-1.2,13-5a14.73,14.73,0,0,1-10.58,6.68l-1.59,9.62-1.62,28.79Z" style="fill:#263238;opacity:0.6000000000000001"></path><path d="M446.3,166.36a52.69,52.69,0,0,0,.45-9c-.7-2.83-2.29-4.9-4.37-8.34-3.57-5.91-8.33-16.56-11.83-20.86-2.8-3.44-6-4-9.23-3.84-2.25.13.2,10.22,2.42,16.63l12.66,18.19a2.68,2.68,0,0,1,.5,1.86l-.77,11.57,3.78,5.07S445.65,172.75,446.3,166.36Z" style="fill:#ffa8a7"></path><path d="M408.62,124.69l-8.63.67a8.29,8.29,0,0,0-2.65,2.4c-1.5,2.86-1.59,3.72-1.63,7.07a29.68,29.68,0,0,0,2.4,11.79L401,158.14c.57,3.23-4.74,10.44-6.28,18.64,10.76,6,25.45,4.94,33,1.69a14.81,14.81,0,0,0,5.88-4.16c-1.25-6.59-1.51-11.09-3.44-17.19,0,0,.55-3.8.66-6.9,4.1-3.9,4.16-10.53,1.65-14.07-5.51-7.78-10.65-11.73-11.69-11.77Z" style="fill:#BA68C8"></path><g style="opacity:0.7000000000000001"><path d="M408.62,124.69l-8.63.67a8.29,8.29,0,0,0-2.65,2.4c-1.5,2.86-1.59,3.72-1.63,7.07a29.68,29.68,0,0,0,2.4,11.79L401,158.14c.57,3.23-4.74,10.44-6.28,18.64,10.76,6,25.45,4.94,33,1.69a14.81,14.81,0,0,0,5.88-4.16c-1.25-6.59-1.51-11.09-3.44-17.19,0,0,.55-3.8.66-6.9,4.1-3.9,4.16-10.53,1.65-14.07-5.51-7.78-10.65-11.73-11.69-11.77Z" style="fill:#fff"></path></g><path d="M426.69,91.65c1.95,1.16,4.36,6.06,4.12,16.33-.2,8.71-3,10.86-4.44,11.48s-4.15.25-6.81-.2v5.23s2.85,2.27,2.62,4.67-6,2.78-9.41.43-4.15-4.9-4.15-4.9V112.33s-1.45,1.54-4-.23a4.75,4.75,0,0,1-1.21-6.89,3.51,3.51,0,0,1,5.33.64s3.57-.32,9.21-3.42A18.15,18.15,0,0,0,426.69,91.65Z" style="fill:#ffa8a7"></path><path d="M419.62,105.8a1.1,1.1,0,1,1-1.15-1.09A1.12,1.12,0,0,1,419.62,105.8Z" style="fill:#263238"></path><path d="M420.19,113.18l2.55.81a1.31,1.31,0,0,1-1.66.91A1.39,1.39,0,0,1,420.19,113.18Z" style="fill:#f28f8f"></path><path d="M429.33,102.43l-2.22-1.53a1.29,1.29,0,0,1,1.84-.38A1.42,1.42,0,0,1,429.33,102.43Z" style="fill:#263238"></path><path d="M428.82,105a1.1,1.1,0,1,1-1.15-1.08A1.11,1.11,0,0,1,428.82,105Z" style="fill:#263238"></path><polygon points="422.74 104.38 422.91 110.97 426.38 109.89 422.74 104.38" style="fill:#f28f8f"></polygon><path d="M419.56,119.26c-2.8-.36-8.56-2-9.46-4.3a5.93,5.93,0,0,0,2,2.91c1.72,1.48,7.44,3.14,7.44,3.14Z" style="fill:#f28f8f"></path><path d="M445.11,160.24h0l-.75-.65h0a.84.84,0,0,0-.77-.08l-8.15,2.21a3,3,0,0,0-1.83,1.71l-5.86,16.92a.76.76,0,0,0,.1.86h0l.77.67h0a.86.86,0,0,0,.78.1l8.15-2.22a3,3,0,0,0,1.83-1.71l5.86-16.92A.73.73,0,0,0,445.11,160.24Z" style="fill:#455a64"></path><path d="M428.51,181l5.86-16.92a3,3,0,0,1,1.83-1.71l8.15-2.21c.75-.21,1.16.22.9,1l-5.86,16.92a3,3,0,0,1-1.83,1.71L429.41,182C428.66,182.18,428.25,181.75,428.51,181Z" style="fill:#BA68C8"></path><path d="M435.32,162.85a3,3,0,0,0-.95,1.25L428.51,181a.79.79,0,0,0,.08.84l-.73-.62h0a.76.76,0,0,1-.12-.86l5.87-16.92a2.92,2.92,0,0,1,.87-1.18Z" style="fill:#37474f"></path><path d="M442.87,168c-.58,1.72-2.62,2.87-6,3.67s-5.23,4.37-4.68,5.46,6,2.09,8.15,1.78,4.37-3.45,5-4.42,1.43-7.77.73-8.7a2.63,2.63,0,0,0-2.17-.79Z" style="fill:#ffa8a7"></path><path d="M406.2,147.05a8.63,8.63,0,0,0,7.61,4.35,9.61,9.61,0,0,0,8.57-4.11s0,5.52-8.09,5.52C407.28,152.81,406.2,147.05,406.2,147.05Z" style="opacity:0.1"></path><path d="M385.06,188c.31,3.11.81,7.28,1.29,9.7,1.75,8.82,4.67,11.6,8.34,11.84,5.86.39,6.12-2.62,3.5-6.4a18.78,18.78,0,0,1-2.62-5.39,14.2,14.2,0,0,0,2.82,1.82,2,2,0,0,0,2.63-.72c.2-.39-.82-.79-1.94-2.16-1.43-1.75-2-3-4-4.45a3.48,3.48,0,0,1-1-2.66c0-1.61,1.26-22.26,1.26-26.61l5.28-17.74c3.53-5.19,5.54-17-.69-19.91-8.24.9-9.9,8.91-15.95,33C383,162.53,384.4,181.61,385.06,188Z" style="fill:#ffa8a7"></path></g></g></svg>
