<svg class="animated" id="freepik_stories-broadcast" xmlns="http://www.w3.org/2000/svg" xmlns:xlink="http://www.w3.org/1999/xlink" viewBox="0 0 500 500" version="1.1" xmlns:svgjs="http://svgjs.com/svgjs"><style>svg#freepik_stories-broadcast:not(.animated) .animable {opacity: 0;}svg#freepik_stories-broadcast.animated #freepik--background-simple--inject-47 {animation: 1s 1 forwards cubic-bezier(.36,-0.01,.5,1.38) fadeIn;animation-delay: 0s;}            @keyframes fadeIn {                0% {                    opacity: 0;                }                100% {                    opacity: 1;                }            }        </style><g id="freepik--background-simple--inject-47" class="animable animator-active" style="transform-origin: 252.117px 236.164px;"><path d="M412.93,152.37C390.19,119,351,97.84,311.47,89.6V362h-3.08V89c-5.57-1.06-11.14-1.88-16.66-2.44a231.39,231.39,0,0,0-84.79,7.52V362h-3.08V95c-29.07,8.8-52.82,23.2-64.08,41-15.19,24-24,50.66-37.37,75.6V356.77c27.43,19.14,66.83,26.76,96.4,29.06,49.91,3.89,99.92-4.08,149-12.42,24-4.07,48.31-10.75,65.13-28.73Z" style="fill: rgb(186, 104, 200); transform-origin: 257.675px 236.164px;" id="eldhus5p77ywe" class="animable"></path><path d="M99.33,217.25c-13,23.56-27,47.66-28.88,75.05-.92,13.59,1.43,27.61,8.21,39.42a76.8,76.8,0,0,0,20.67,22.82Z" style="fill: rgb(186, 104, 200); transform-origin: 84.7945px 285.895px;" id="elwnho79biwk" class="animable"></path><path d="M433.16,242.92c-.74-28.91-1.43-60-16.92-85.44l-.24-.38V341.16q1.47-1.8,2.85-3.73c.68-1,1.34-1.95,2-3C437.38,307.9,433.91,272.74,433.16,242.92Z" style="fill: rgb(186, 104, 200); transform-origin: 424.988px 249.13px;" id="elkxur5oc4fo" class="animable"></path><g id="el15xjs8a5rig"><g style="opacity: 0.8; transform-origin: 252.117px 236.164px;" class="animable"><path d="M412.93,152.37C390.19,119,351,97.84,311.47,89.6V362h-3.08V89c-5.57-1.06-11.14-1.88-16.66-2.44a231.39,231.39,0,0,0-84.79,7.52V362h-3.08V95c-29.07,8.8-52.82,23.2-64.08,41-15.19,24-24,50.66-37.37,75.6V356.77c27.43,19.14,66.83,26.76,96.4,29.06,49.91,3.89,99.92-4.08,149-12.42,24-4.07,48.31-10.75,65.13-28.73Z" style="fill: rgb(255, 255, 255); transform-origin: 257.675px 236.164px;" id="elo2ehhkvxrnk" class="animable"></path><path d="M99.33,217.25c-13,23.56-27,47.66-28.88,75.05-.92,13.59,1.43,27.61,8.21,39.42a76.8,76.8,0,0,0,20.67,22.82Z" style="fill: rgb(255, 255, 255); transform-origin: 84.7945px 285.895px;" id="elx2gk6onpbl" class="animable"></path><path d="M433.16,242.92c-.74-28.91-1.43-60-16.92-85.44l-.24-.38V341.16q1.47-1.8,2.85-3.73c.68-1,1.34-1.95,2-3C437.38,307.9,433.91,272.74,433.16,242.92Z" style="fill: rgb(255, 255, 255); transform-origin: 424.988px 249.13px;" id="el8kocp5mu794" class="animable"></path></g></g></g><g id="freepik--tv-screen--inject-47" class="animable" style="transform-origin: 315.618px 245.07px;"><rect x="189.36" y="148.97" width="238.22" height="144.21" style="fill: rgb(38, 50, 56); stroke: rgb(38, 50, 56); stroke-linecap: round; stroke-linejoin: round; transform-origin: 308.47px 221.075px;" id="el1hf5nrapkr" class="animable"></rect><rect x="193.68" y="153.13" width="229.57" height="135.89" style="fill: rgb(255, 255, 255); transform-origin: 308.465px 221.075px;" id="elb3ycx3tbvht" class="animable"></rect><g style="clip-path: url(&quot;#freepik--clip-path--inject-47&quot;); transform-origin: 315.618px 245.07px;" id="elteqjavqipyr" class="animable"><g id="elz69utr4a54"><circle cx="362.53" cy="245.07" r="82.22" style="fill: rgb(186, 104, 200); transform-origin: 362.53px 245.07px; transform: rotate(-45deg);" class="animable"></circle></g><g style="clip-path: url(&quot;#freepik--clip-path-2--inject-47&quot;); transform-origin: 362.53px 245.07px;" id="elhxyc9wrbmvw" class="animable"><g id="ele3u3p0sr3cd"><circle cx="362.53" cy="245.07" r="82.22" style="fill: rgb(255, 255, 255); opacity: 0.5; transform-origin: 362.53px 245.07px; transform: rotate(-45deg);" class="animable"></circle></g></g><polygon points="358.49 208.98 360.78 212.03 365.93 213.94 367.08 217.95 363.83 219.29 363.83 220.05 369.56 222.34 372.23 221.77 373.56 219.67 373.18 216.04 369.75 214.71 367.65 211.27 360.02 207.84 358.49 208.98" style="fill: rgb(255, 255, 255); transform-origin: 366.025px 215.09px;" id="el73h5vbtnq74" class="animable"></polygon><path d="M408.1,296l-6.1-2.48-7.44-2.68h-5.92l-5.53-1.14L377,291l-3.43.19h-2.1l-4,2.29L363.64,295l-5.15-3.24,1.34-5.34-3.25-1.34h-3.81l-.58-1.72.38-3.43-1.33-1.91-2.67.38-.77,1.91-3.24.19-2.86-3.43-1.15-4.58,2.87-5.35,5.53.38,1.53,1.34h2.29l2.86-1.72,2.48.77,3.43,5.91,1.34-.19-.38-4.39L361.35,267l.38-3.62,7.06-3.06,1-7.06,3.05-2.48,2.48-4.39,1.91-.38,4.39-2.86.19-1.53-3,.19-.58-1.52h-2.09l-3.25.76,1.53-2.48,6.68-1.91,1.52-1.72,2.68,4.2,1.71,1.72,2.67-.76-1.14-2.48-4-2.87-4.58-5.15-4.77-3.24-4.58-.77-2.29-2.29-3.05-.76-.38.76-.38,5.54.76,1.91-1.72,6.1-3.81-3.05.57-2.67-4-1.91-1.72-2.1,1-4.77,5.53-4,.38-4.58-2.1.19-1.33-1.71-.57-2.87-1.34-.19-.76,3.06-2.1.38-1-6.68-1.52-1L348,203.83l-3.05,1.53,3.82,3.62.76,3.25-6.87-5.16-4.77-5.15-.38-5.15-5-1.53-3.82,2.48a29.33,29.33,0,0,1-2.86,1.53,31.94,31.94,0,0,1-4.58.76l-.76,3.25-4.39.19.38,2.1,7.06,1.14,3.63,4v6.68l-2.1,5.91.38,6.3-5.35,9.35L319,252.87l1.72,8,2.48,6.1,2.86.38-.95-3.05L323.57,262l-.95-4.2,1.71-.38,2.67,6.87,1.91,6.11v5l3.63,4.39,6.49,4.77,9.92,2.67,3.05,2.86,2.29,3.05,3.44,2.1,4.19,1.15,4.2-.19s-.19,1.91-.19,2.86-2.67,4.2-2.67,4.2l-2.1,3.82,1.53,4.19,4.2,1.72,5.91,6.11,2.67,1.14v2.86l.34,1.34a80.15,80.15,0,0,0,40-18.84l.1-1.39,5.15-9.35-2.48-1.72Z" style="fill: rgb(255, 255, 255); transform-origin: 368.58px 259.84px;" id="elxnpqjjrp3dj" class="animable"></path><path d="M428,220.62l-2.1-3.62-2.67-4.2-.76-5.73,3.43.58.19-1.91-2.48-.19,2.1-1,2.29-1.33v-1.91l-2.29-3-.49-4.11a80.45,80.45,0,0,0-94.36-22.86l4.4,3.11-2.67,3.44-3.63.76-.38,5.15-1.53.58-1.9,2.09.19,3.44,3.24.38-1.33,3.25h3.24l5.53-7.07.58-3.05,5.34-.38,1.33-2.29,5.54-.57.57-3.25,4-.19a20.14,20.14,0,0,1,3.43-1.52,23.16,23.16,0,0,1,3.25.95l2.86,2.29h4l3.43-2.1,4.39.38a4.72,4.72,0,0,0,2.1.77,17,17,0,0,0,3.82-1.34l5.53,3.44,2.29,1.71v2.86l2.86.39,1-1.72,2.48,1.14-.19,1.53L388.83,187l3.25,4.2,6.86,3.81,2.87,3.82,4.2.38.95-1.91,1.53-.38-5-3.82-3-.38L403,192l-2.29-3.25,3.25-.19,4.19,2.29,1,4.58,2.1,2.48,1.71,5.54,4.2,3.05v6.3l4.39,2.86-.19,2.1-.57,2.48,1.14,3.44.39,1.71,3.24.58,1.53-3.25Z" style="fill: rgb(255, 255, 255); transform-origin: 376.575px 195.32px;" id="el6bblgzu2wj3" class="animable"></path><path d="M430.43,201.4v1.09l-.95,3.06.57,2.67,2.1.76v3.63l-2.29-1L429.29,222l-2.29,4.2,1.52,5.34,2.48,2.29v10.3l2.48,8,2.68,6.1,4.38,1.15,1.53-3.82.62-.48a80.53,80.53,0,0,0-12.26-53.66Z" style="fill: rgb(255, 255, 255); transform-origin: 435.155px 230.39px;" id="el7rmhiy2okr3" class="animable"></path><polygon points="386.35 200.2 373.76 194.67 368.22 194.86 366.89 198.49 364.6 196.01 360.4 196.96 360.02 203.26 363.45 205.74 365.93 202.11 368.8 204.97 374.71 210.13 375.86 215.66 380.82 221.96 388.83 220.62 388.64 217.76 386.92 214.52 386.54 206.88 388.45 203.64 386.35 200.2" style="fill: rgb(255, 255, 255); transform-origin: 374.425px 208.315px;" id="elnvoyz74sn6c" class="animable"></polygon><polygon points="396.65 204.4 393.79 203.64 391.31 205.74 392.65 211.27 395.13 211.27 396.65 204.4" style="fill: rgb(255, 255, 255); transform-origin: 393.98px 207.455px;" id="el7stu87j0xgo" class="animable"></polygon><polygon points="414.4 208.03 407.91 204.59 406.58 202.3 405.05 202.88 406.39 206.69 407.53 211.65 410.39 212.8 410.97 212.03 409.25 209.17 414.21 211.08 414.4 208.03" style="fill: rgb(255, 255, 255); transform-origin: 409.725px 207.55px;" id="el4wqti0b57" class="animable"></polygon><polygon points="358.68 276.92 357.92 277.68 363.64 279.4 365.93 282.07 369.56 282.45 370.89 280.35 366.5 279.59 358.68 276.92" style="fill: rgb(255, 255, 255); transform-origin: 364.405px 279.685px;" id="elnnwu7nhdqzp" class="animable"></polygon><polygon points="375.66 280.54 371.66 281.69 372.23 283.21 377.19 283.21 378.14 281.69 376.43 281.88 375.66 280.54" style="fill: rgb(255, 255, 255); transform-origin: 374.9px 281.875px;" id="elogqq1bo6tde" class="animable"></polygon><path d="M206.23,287.05h38.86c6.94-77,63.84-122.12,63.84-122.12C236.76,187.13,206.23,287.05,206.23,287.05Z" style="fill: rgb(186, 104, 200); transform-origin: 257.58px 225.99px;" id="el8glavigpg9h" class="animable"></path><path d="M152.43,237.66Z" style="fill: rgb(186, 104, 200); transform-origin: 152.43px 237.66px;" id="eltmkwi5378z" class="animable"></path><path d="M292,160.23c-75.34-5-139.52,77.43-139.52,77.43l36.3,13.86C222.7,182.05,292,160.23,292,160.23Z" style="fill: rgb(186, 104, 200); transform-origin: 222.24px 205.766px;" id="elcopmbv5gzol" class="animable"></path><g id="elm5n7yg3gneb"><g style="opacity: 0.5; transform-origin: 230.68px 223.531px;" class="animable"><path d="M206.23,287.05h38.86c6.94-77,63.84-122.12,63.84-122.12C236.76,187.13,206.23,287.05,206.23,287.05Z" style="fill: rgb(255, 255, 255); transform-origin: 257.58px 225.99px;" id="elzgsw6nymdy" class="animable"></path><path d="M152.43,237.66Z" style="fill: rgb(255, 255, 255); transform-origin: 152.43px 237.66px;" id="eltywot7vm9k7" class="animable"></path><path d="M292,160.23c-75.34-5-139.52,77.43-139.52,77.43l36.3,13.86C222.7,182.05,292,160.23,292,160.23Z" style="fill: rgb(255, 255, 255); transform-origin: 222.24px 205.766px;" id="elhp59785qt7w" class="animable"></path></g></g><polygon points="346.23 284.64 402.55 284.64 402.55 277.51 338.21 277.51 346.23 284.64" style="fill: rgb(38, 50, 56); transform-origin: 370.38px 281.075px;" id="elke3e3ak0l9q" class="animable"></polygon><polygon points="315.63 277.51 323.65 284.64 339.99 284.64 331.96 277.51 315.63 277.51" style="fill: rgb(38, 50, 56); transform-origin: 327.81px 281.075px;" id="el11atwoehqg8o" class="animable"></polygon><polygon points="294.65 277.51 302.67 284.64 319.01 284.64 310.98 277.51 294.65 277.51" style="fill: rgb(38, 50, 56); transform-origin: 306.83px 281.075px;" id="eldelxsu15hla" class="animable"></polygon></g><rect x="193.68" y="153.13" width="229.57" height="135.89" style="fill: none; stroke: rgb(38, 50, 56); stroke-linecap: round; stroke-linejoin: round; transform-origin: 308.465px 221.075px;" id="el2ua8kkqzycf" class="animable"></rect></g><g id="freepik--Plants--inject-47" class="animable" style="transform-origin: 126.238px 291.11px;"><path d="M97.15,252.75c3.84-4.18,7.69-7.88,8.38-13.82.55-4.69-.8-10.35-6.53-10.3-7.76.07-10.11,11.11-9.64,17.24.29,3.76,1,8.8,1.44,11.89-1.3-3.1-2.28-5.72-2.88-7.45l0,0,0,0c-.3-.84-.51-1.48-.63-1.84a50.77,50.77,0,0,1,.18-7.9c.25-5.68.82-11-2.46-16-2.6-4-7.27-7.41-11.63-3.69-5.9,5-.6,15,3.7,19.4,3,3.09,7.56,7.14,9.69,9,.58,1.71,1.91,5.5,3.94,10.15-2.22-1.29-5.38-4.45-6.25-5.22-4.26-3.76-8-7.53-14-8.11-4.71-.46-10.33,1-10.17,6.73.22,7.76,11.29,9.89,17.41,9.3,4.44-.42,10.65-1.46,13.33-1.92a112.35,112.35,0,0,0,7.22,13.85c.16.26.33.53.51.79-2.46-.68-6.37-3-7.42-3.54-5-2.6-9.64-5.33-15.54-4.42-4.68.71-9.77,3.52-8.21,9,2.13,7.46,13.39,6.8,19.18,4.72,4.18-1.5,9.94-4,12.43-5.14,1.48,2.16,3.37,4.54,5.52,7.23s4.54,5.7,6.94,9v0c-1.62.72-7.73-2.95-9.07-3.64-5-2.59-9.64-5.32-15.55-4.42-4.67.72-9.76,3.52-8.2,9,2.12,7.46,13.39,6.8,19.17,4.73,5.4-1.94,13.43-5.59,13.65-5.69v.27a1.11,1.11,0,0,1,0-.25,101.71,101.71,0,0,1,7.6,12.16c-2.14.49-7.79-1.1-9.11-1.38-5.56-1.18-10.7-2.61-16.17-.18-4.32,1.91-8.5,5.95-5.54,10.86,4,6.65,14.7,3.05,19.74-.47,4-2.79,9.49-7.27,11.17-8.65a73.49,73.49,0,0,1,6.1,15.7c-2.35.28-7.53-1.17-8.79-1.44-5.55-1.18-10.7-2.61-16.16-.19-4.32,1.92-8.5,6-5.55,10.87,4,6.64,14.7,3.05,19.74-.47,3.77-2.63,8.87-6.76,10.85-8.39a69.08,69.08,0,0,1,1.79,23l.76.07a69.88,69.88,0,0,0-1.77-23.12c1.36-1.45,7.75-2.39,9.14-2.69,5.56-1.2,10.83-2,14.83-6.44,3.16-3.52,5.32-8.92.61-12.19-6.37-4.42-14.66,3.23-17.82,8.51-2.62,4.38-6,11.14-6.78,12.72,0-.13-.07-.26-.1-.39l.18-.15a1.6,1.6,0,0,1-.19.11,74.08,74.08,0,0,0-6.19-15.92c1.39-1.65,7-3.66,8.29-4.2,5.22-2.25,10.24-4.06,13.3-9.2,2.41-4.06,3.49-9.77-1.76-12.07-7.11-3.1-13.76,6-15.84,11.8-1.63,4.54-3.5,11.29-4.09,13.46a104,104,0,0,0-7.85-12.48c1.37-2,5.66-4.93,6.66-5.72,4.47-3.51,8.86-6.54,10.5-12.28,1.3-4.55.88-10.35-4.78-11.22-7.67-1.19-11.76,9.32-12.29,15.45-.37,4.3-.48,10.34-.51,13.19-2.21-3-4.39-5.75-6.37-8.23s-3.95-5-5.4-7.07l.52-.23a1.49,1.49,0,0,1-.63.08l-.07-.11c1.05-1.87,6.23-4.9,7.37-5.66,4.71-3.18,9.31-5.88,11.37-11.49,1.63-4.44,1.63-10.26-4-11.54-7.56-1.74-12.41,8.44-13.38,14.51-.76,4.76-1.36,11.72-1.54,14-.24-.36-.47-.71-.69-1.06a112.47,112.47,0,0,1-7.1-13.59l.55-.09a1.56,1.56,0,0,1-.62-.07c-.08-.17-.15-.34-.22-.51C92.59,257.24,96.3,253.68,97.15,252.75Z" style="fill: rgb(186, 104, 200); transform-origin: 106.96px 281.235px;" id="elybk6lqbp84" class="animable"></path><g id="el4erg9mdjjvl"><path d="M97.15,252.75c3.84-4.18,7.69-7.88,8.38-13.82.55-4.69-.8-10.35-6.53-10.3-7.76.07-10.11,11.11-9.64,17.24.29,3.76,1,8.8,1.44,11.89-1.3-3.1-2.28-5.72-2.88-7.45l0,0,0,0c-.3-.84-.51-1.48-.63-1.84a50.77,50.77,0,0,1,.18-7.9c.25-5.68.82-11-2.46-16-2.6-4-7.27-7.41-11.63-3.69-5.9,5-.6,15,3.7,19.4,3,3.09,7.56,7.14,9.69,9,.58,1.71,1.91,5.5,3.94,10.15-2.22-1.29-5.38-4.45-6.25-5.22-4.26-3.76-8-7.53-14-8.11-4.71-.46-10.33,1-10.17,6.73.22,7.76,11.29,9.89,17.41,9.3,4.44-.42,10.65-1.46,13.33-1.92a112.35,112.35,0,0,0,7.22,13.85c.16.26.33.53.51.79-2.46-.68-6.37-3-7.42-3.54-5-2.6-9.64-5.33-15.54-4.42-4.68.71-9.77,3.52-8.21,9,2.13,7.46,13.39,6.8,19.18,4.72,4.18-1.5,9.94-4,12.43-5.14,1.48,2.16,3.37,4.54,5.52,7.23s4.54,5.7,6.94,9v0c-1.62.72-7.73-2.95-9.07-3.64-5-2.59-9.64-5.32-15.55-4.42-4.67.72-9.76,3.52-8.2,9,2.12,7.46,13.39,6.8,19.17,4.73,5.4-1.94,13.43-5.59,13.65-5.69v.27a1.11,1.11,0,0,1,0-.25,101.71,101.71,0,0,1,7.6,12.16c-2.14.49-7.79-1.1-9.11-1.38-5.56-1.18-10.7-2.61-16.17-.18-4.32,1.91-8.5,5.95-5.54,10.86,4,6.65,14.7,3.05,19.74-.47,4-2.79,9.49-7.27,11.17-8.65a73.49,73.49,0,0,1,6.1,15.7c-2.35.28-7.53-1.17-8.79-1.44-5.55-1.18-10.7-2.61-16.16-.19-4.32,1.92-8.5,6-5.55,10.87,4,6.64,14.7,3.05,19.74-.47,3.77-2.63,8.87-6.76,10.85-8.39a69.08,69.08,0,0,1,1.79,23l.76.07a69.88,69.88,0,0,0-1.77-23.12c1.36-1.45,7.75-2.39,9.14-2.69,5.56-1.2,10.83-2,14.83-6.44,3.16-3.52,5.32-8.92.61-12.19-6.37-4.42-14.66,3.23-17.82,8.51-2.62,4.38-6,11.14-6.78,12.72,0-.13-.07-.26-.1-.39l.18-.15a1.6,1.6,0,0,1-.19.11,74.08,74.08,0,0,0-6.19-15.92c1.39-1.65,7-3.66,8.29-4.2,5.22-2.25,10.24-4.06,13.3-9.2,2.41-4.06,3.49-9.77-1.76-12.07-7.11-3.1-13.76,6-15.84,11.8-1.63,4.54-3.5,11.29-4.09,13.46a104,104,0,0,0-7.85-12.48c1.37-2,5.66-4.93,6.66-5.72,4.47-3.51,8.86-6.54,10.5-12.28,1.3-4.55.88-10.35-4.78-11.22-7.67-1.19-11.76,9.32-12.29,15.45-.37,4.3-.48,10.34-.51,13.19-2.21-3-4.39-5.75-6.37-8.23s-3.95-5-5.4-7.07l.52-.23a1.49,1.49,0,0,1-.63.08l-.07-.11c1.05-1.87,6.23-4.9,7.37-5.66,4.71-3.18,9.31-5.88,11.37-11.49,1.63-4.44,1.63-10.26-4-11.54-7.56-1.74-12.41,8.44-13.38,14.51-.76,4.76-1.36,11.72-1.54,14-.24-.36-.47-.71-.69-1.06a112.47,112.47,0,0,1-7.1-13.59l.55-.09a1.56,1.56,0,0,1-.62-.07c-.08-.17-.15-.34-.22-.51C92.59,257.24,96.3,253.68,97.15,252.75Z" style="fill: rgb(255, 255, 255); opacity: 0.5; transform-origin: 106.96px 281.235px;" class="animable"></path></g><path d="M148,270.35c-5.52-1.34-10.77-2.28-14.65-6.83-3.06-3.6-5.08-9-.29-12.2,6.49-4.25,14.57,3.62,17.59,9,1.85,3.29,4.07,7.87,5.41,10.69-.64-3.3-1.28-6-1.74-7.79v0a.09.09,0,0,0,0-.05c-.22-.86-.4-1.5-.5-1.88a50.8,50.8,0,0,0-4.54-6.47c-3.36-4.57-6.78-8.67-6.83-14.65,0-4.72,1.93-10.2,7.62-9.52,7.7.91,8.83,12.13,7.7,18.17-.79,4.26-2.32,10.14-3.05,12.88.47,1.75,1.46,5.64,2.37,10.63,1.12-2.3,2-6.69,2.29-7.81,1.45-5.49,2.5-10.73,7.12-14.51,3.66-3,9.15-4.91,12.2-.06,4.12,6.57-3.9,14.5-9.32,17.41-3.92,2.11-9.66,4.71-12.14,5.81a113.05,113.05,0,0,1,1.69,15.53c0,.3,0,.62,0,.94,1.67-1.94,3.63-6,4.2-7.07,2.76-5,5.06-9.78,10.47-12.31,4.28-2,10.08-2.51,11.84,2.95,2.38,7.38-7.35,13.09-13.32,14.58-4.31,1.07-10.5,2.17-13.19,2.63,0,2.62-.28,5.65-.57,9.07s-.61,7.27-.76,11.38l0,0c1.74-.3,4.78-6.75,5.52-8.07,2.75-5,5.05-9.78,10.47-12.31,4.28-2,10.07-2.5,11.83,3,2.39,7.38-7.35,13.09-13.31,14.58-5.56,1.39-14.27,2.82-14.51,2.86l.15.22a1,1,0,0,0-.18-.18,100.52,100.52,0,0,0,.44,14.34c2-.79,5.87-5.25,6.81-6.22,4-4.06,7.45-8.11,13.34-9.13,4.66-.81,10.38.23,10.65,5.95.36,7.75-10.53,10.7-16.68,10.58-4.87-.1-11.93-.77-14.1-1a74.08,74.08,0,0,0,3.66,16.44c2.11-1.07,5.61-5.15,6.51-6.07,4-4.07,7.44-8.12,13.33-9.14,4.66-.81,10.38.23,10.65,6,.36,7.75-10.53,10.71-16.67,10.58-4.6-.1-11.13-.7-13.69-.95a68.92,68.92,0,0,0,11.3,20.11l-.6.48a70,70,0,0,1-11.38-20.21c-1.93-.44-7.77,2.32-9.09,2.85-5.29,2.09-10.12,4.36-15.91,2.88-4.58-1.17-9.38-4.46-7.28-9.79,2.84-7.22,14-5.46,19.54-2.83,4.62,2.18,11.18,5.93,12.71,6.81,0-.13-.09-.25-.13-.38l-.24,0,.22,0a74.67,74.67,0,0,1-3.7-16.67c-2.07-.6-7.88.86-9.23,1.11-5.58,1-10.76,2.31-16.16-.26-4.27-2-8.33-6.19-5.24-11,4.18-6.53,14.77-2.65,19.71,1,3.88,2.87,9.2,7.44,10.89,8.91a104.39,104.39,0,0,1-.41-14.73c-2.24-.89-7.45-1-8.71-1-5.67-.44-11-.52-15.56-4.38-3.61-3.06-6.48-8.12-2.26-12,5.72-5.25,15,1.22,18.81,6,2.69,3.36,6.14,8.33,7.75,10.68.16-3.73.45-7.22.72-10.38.28-3.35.53-6.32.56-8.88l-.56.09a1.34,1.34,0,0,0,.57-.27v-.13c-1.92-1-7.91-.61-9.28-.62-5.68,0-11,.29-15.84-3.23-3.81-2.79-7-7.62-3.12-11.8,5.32-5.64,15,.13,19.2,4.64,3.27,3.53,7.64,9,9,10.76,0-.43,0-.86,0-1.26a112.73,112.73,0,0,0-1.65-15.24l-.51.22a1.55,1.55,0,0,0,.48-.4c0-.19-.07-.37-.1-.55C154.26,271.55,149.2,270.65,148,270.35Z" style="fill: rgb(186, 104, 200); transform-origin: 158.866px 296.766px;" id="elveq2up1b9jh" class="animable"></path><g id="el6kz86nik309"><path d="M148,270.35c-5.52-1.34-10.77-2.28-14.65-6.83-3.06-3.6-5.08-9-.29-12.2,6.49-4.25,14.57,3.62,17.59,9,1.85,3.29,4.07,7.87,5.41,10.69-.64-3.3-1.28-6-1.74-7.79v0a.09.09,0,0,0,0-.05c-.22-.86-.4-1.5-.5-1.88a50.8,50.8,0,0,0-4.54-6.47c-3.36-4.57-6.78-8.67-6.83-14.65,0-4.72,1.93-10.2,7.62-9.52,7.7.91,8.83,12.13,7.7,18.17-.79,4.26-2.32,10.14-3.05,12.88.47,1.75,1.46,5.64,2.37,10.63,1.12-2.3,2-6.69,2.29-7.81,1.45-5.49,2.5-10.73,7.12-14.51,3.66-3,9.15-4.91,12.2-.06,4.12,6.57-3.9,14.5-9.32,17.41-3.92,2.11-9.66,4.71-12.14,5.81a113.05,113.05,0,0,1,1.69,15.53c0,.3,0,.62,0,.94,1.67-1.94,3.63-6,4.2-7.07,2.76-5,5.06-9.78,10.47-12.31,4.28-2,10.08-2.51,11.84,2.95,2.38,7.38-7.35,13.09-13.32,14.58-4.31,1.07-10.5,2.17-13.19,2.63,0,2.62-.28,5.65-.57,9.07s-.61,7.27-.76,11.38l0,0c1.74-.3,4.78-6.75,5.52-8.07,2.75-5,5.05-9.78,10.47-12.31,4.28-2,10.07-2.5,11.83,3,2.39,7.38-7.35,13.09-13.31,14.58-5.56,1.39-14.27,2.82-14.51,2.86l.15.22a1,1,0,0,0-.18-.18,100.52,100.52,0,0,0,.44,14.34c2-.79,5.87-5.25,6.81-6.22,4-4.06,7.45-8.11,13.34-9.13,4.66-.81,10.38.23,10.65,5.95.36,7.75-10.53,10.7-16.68,10.58-4.87-.1-11.93-.77-14.1-1a74.08,74.08,0,0,0,3.66,16.44c2.11-1.07,5.61-5.15,6.51-6.07,4-4.07,7.44-8.12,13.33-9.14,4.66-.81,10.38.23,10.65,6,.36,7.75-10.53,10.71-16.67,10.58-4.6-.1-11.13-.7-13.69-.95a68.92,68.92,0,0,0,11.3,20.11l-.6.48a70,70,0,0,1-11.38-20.21c-1.93-.44-7.77,2.32-9.09,2.85-5.29,2.09-10.12,4.36-15.91,2.88-4.58-1.17-9.38-4.46-7.28-9.79,2.84-7.22,14-5.46,19.54-2.83,4.62,2.18,11.18,5.93,12.71,6.81,0-.13-.09-.25-.13-.38l-.24,0,.22,0a74.67,74.67,0,0,1-3.7-16.67c-2.07-.6-7.88.86-9.23,1.11-5.58,1-10.76,2.31-16.16-.26-4.27-2-8.33-6.19-5.24-11,4.18-6.53,14.77-2.65,19.71,1,3.88,2.87,9.2,7.44,10.89,8.91a104.39,104.39,0,0,1-.41-14.73c-2.24-.89-7.45-1-8.71-1-5.67-.44-11-.52-15.56-4.38-3.61-3.06-6.48-8.12-2.26-12,5.72-5.25,15,1.22,18.81,6,2.69,3.36,6.14,8.33,7.75,10.68.16-3.73.45-7.22.72-10.38.28-3.35.53-6.32.56-8.88l-.56.09a1.34,1.34,0,0,0,.57-.27v-.13c-1.92-1-7.91-.61-9.28-.62-5.68,0-11,.29-15.84-3.23-3.81-2.79-7-7.62-3.12-11.8,5.32-5.64,15,.13,19.2,4.64,3.27,3.53,7.64,9,9,10.76,0-.43,0-.86,0-1.26a112.73,112.73,0,0,0-1.65-15.24l-.51.22a1.55,1.55,0,0,0,.48-.4c0-.19-.07-.37-.1-.55C154.26,271.55,149.2,270.65,148,270.35Z" style="fill: rgb(255, 255, 255); opacity: 0.5; transform-origin: 158.866px 296.766px;" class="animable"></path></g></g><g id="freepik--Character--inject-47" class="animable" style="transform-origin: 255.37px 284.25px;"><rect x="70.5" y="356" width="369.74" height="44" rx="9.75" style="fill: rgb(38, 50, 56); transform-origin: 255.37px 378px;" id="elc7ar2dlr9c" class="animable"></rect><g style="clip-path: url(&quot;#freepik--clip-path-3--inject-47&quot;); transform-origin: 251.85px 378px;" id="elreb2nr4cp1k" class="animable"><g id="elao4yohjc21h"><path d="M98,356,70.5,385v5.29a9.71,9.71,0,0,0,2.64,6.65L112,356Z" style="fill: rgb(255, 255, 255); opacity: 0.25; transform-origin: 91.25px 376.47px;" class="animable"></path></g><g id="el2384nz12ymf"><polygon points="402.88 356 397.6 356 355.78 400 361.1 400 402.88 356" style="fill: rgb(255, 255, 255); opacity: 0.25; transform-origin: 379.33px 378px;" class="animable"></polygon></g><g id="elq4ocesd1xq"><path d="M433.2,356.39a9.7,9.7,0,0,0-2.71-.39H419.62L377.8,400h14Z" style="fill: rgb(255, 255, 255); opacity: 0.25; transform-origin: 405.5px 378px;" class="animable"></path></g><g id="elr7igo9x6n4d"><polygon points="111.58 400 116.91 400 158.68 356 153.41 356 111.58 400" style="fill: rgb(255, 255, 255); opacity: 0.25; transform-origin: 135.13px 378px;" class="animable"></polygon></g></g><rect x="70.5" y="356" width="369.74" height="44" rx="9.75" style="fill: none; stroke: rgb(38, 50, 56); stroke-linecap: round; stroke-linejoin: round; transform-origin: 255.37px 378px;" id="elc7zf1ut7tw" class="animable"></rect><polygon points="287.8 363.31 235.62 366.87 275.76 381.59 331.95 378.92 287.8 363.31" style="fill: rgb(255, 255, 255); stroke: rgb(38, 50, 56); stroke-linecap: round; stroke-linejoin: round; transform-origin: 283.785px 372.45px;" id="elar89dzzfzor" class="animable"></polygon><polygon points="328.83 363.75 277.09 370 322.59 386.5 373.43 380.7 328.83 363.75" style="fill: rgb(255, 255, 255); stroke: rgb(38, 50, 56); stroke-linecap: round; stroke-linejoin: round; transform-origin: 325.26px 375.125px;" id="elwjivg5javm" class="animable"></polygon><path d="M292.14,328.86c-.84-5.25-7.36-27.54-12.2-47.1-4.1-16.58-20-27.31-35.59-32.18-6.73-2.1-12.2-5-18.51-4.83,0,0-23.27,8.93-31.05,11.45s-18.88,10.08-18.67,20.59,7.3,81.52,7.3,81.52h75.07s-5.05-18.93-2.52-25.24c2.13-5.34,7.48-12.13,10-19.19,1.59,5.82,3.92,14.83,5.79,18.14,3.17,5.61,6.94,8.83,10.94,8S293,334.12,292.14,328.86Z" style="fill: rgb(186, 104, 200); stroke: rgb(38, 50, 56); stroke-linecap: round; stroke-linejoin: round; transform-origin: 234.168px 301.526px;" id="el8to1nswhd4t" class="animable"></path><path d="M266,313.88s3.05-9.21-.28-16.55-2-21-2-21" style="fill: rgb(186, 104, 200); stroke: rgb(38, 50, 56); stroke-linecap: round; stroke-linejoin: round; transform-origin: 265.367px 295.105px;" id="elvod3596s3sj" class="animable"></path><path d="M225.84,244.75s-9.74,3.83-19.31,7.49c2.87,4.92,9.09,12.71,20.14,13.65,10.46.88,16.93-8.59,20.23-15.48l-2.55-.83C237.62,247.48,232.15,244.54,225.84,244.75Z" style="fill: rgb(255, 255, 255); stroke: rgb(38, 50, 56); stroke-linecap: round; stroke-linejoin: round; transform-origin: 226.715px 255.343px;" id="eltvg4f6j490p" class="animable"></path><path d="M191.55,318.36a20.09,20.09,0,0,0,13.26,9.4" style="fill: none; stroke: rgb(38, 50, 56); stroke-linecap: round; stroke-linejoin: round; transform-origin: 198.18px 323.06px;" id="elzi3q74116v" class="animable"></path><path d="M233.85,268.37a21.26,21.26,0,0,1-9.39.28s-6.91,13.81-6.91,17.68,6.35,9.94,13.54,8.28,7.73-7.46,7.73-11.32S233.85,268.37,233.85,268.37Z" style="fill: rgb(255, 255, 255); stroke: rgb(38, 50, 56); stroke-linecap: round; stroke-linejoin: round; transform-origin: 228.185px 281.631px;" id="elyomg4erxp4" class="animable"></path><path d="M260.69,321.18s-4.86,7.29-21.38,8.75" style="fill: none; stroke: rgb(38, 50, 56); stroke-linecap: round; stroke-linejoin: round; transform-origin: 250px 325.555px;" id="el85tbijjiaii" class="animable"></path><path d="M229.59,290.57A27.92,27.92,0,0,1,233,311" style="fill: none; stroke: rgb(38, 50, 56); stroke-linecap: round; stroke-linejoin: round; transform-origin: 231.615px 300.785px;" id="elbmk7jo92rp" class="animable"></path><path d="M185.18,261.69s-3.66,1.14-8.07,7-6.31,21.66-6.31,30.7,1.47,40.07,1.47,45.32S178.86,357,184.11,356s7.09-14.79,7.09-24.46-.42-38.6-.63-45.33-2.74-7.15-2.74-7.15" style="fill: rgb(186, 104, 200); stroke: rgb(38, 50, 56); stroke-linecap: round; stroke-linejoin: round; transform-origin: 181px 308.893px;" id="el0ak5pw155qzi" class="animable"></path><path d="M175.94,341s8-6.91,17.05-3.43S216.4,348,225.11,350.41s20.81.78,23.33.93,8.86,7,11.08,8.65,2.85,5.43,2.8,6.27-1.12,1.2-1.94.73-2.11-3.49-2.11-3.49L255.88,361s1.49,3.46.57,4.67A4.33,4.33,0,0,1,253,367.4c-1-.06-5.08.55-7.18.43a12.77,12.77,0,0,1-4.55-1.53s-6.47-1-9.35-2.23-4.57-4.69-4.57-4.69-13.66-.58-28.74-2.09-23.73.85-25.79-10.85" style="fill: rgb(186, 104, 200); stroke: rgb(38, 50, 56); stroke-linecap: round; stroke-linejoin: round; transform-origin: 217.571px 352.218px;" id="eldq4cpitdao" class="animable"></path><path d="M259.52,360c-2.22-1.61-8.56-8.51-11.08-8.65s-14.62,1.47-23.33-.93c-7.35-2-18.7-7.28-27.51-11a48.9,48.9,0,0,0-6.94,2c-8.63,3.24-9.36,9.85-8.85,14,4.15,1.07,9.72,1.14,16.78,1.84,15.08,1.51,28.74,2.09,28.74,2.09s1.69,3.47,4.57,4.69,9.35,2.23,9.35,2.23a12.77,12.77,0,0,0,4.55,1.53c2.1.12,6.13-.49,7.18-.43a4.33,4.33,0,0,0,3.47-1.69c.92-1.21-.57-4.67-.57-4.67l2.39,2.46s1.3,3,2.11,3.49,1.89.11,1.94-.73S261.75,361.59,259.52,360Z" style="fill: rgb(255, 255, 255); stroke: rgb(38, 50, 56); stroke-linecap: round; stroke-linejoin: round; transform-origin: 222.005px 353.618px;" id="el9goit4elxc9" class="animable"></path><path d="M240.69,361.42s4.09,2.13,5.73,2.86S247.9,368,247.9,368" style="fill: rgb(255, 255, 255); stroke: rgb(38, 50, 56); stroke-linecap: round; stroke-linejoin: round; transform-origin: 244.297px 364.71px;" id="el0o0g4o3ckl8" class="animable"></path><path d="M245.07,358.52s6.27,4.57,7.45,5.91a2.9,2.9,0,0,1,.46,3" style="fill: rgb(255, 255, 255); stroke: rgb(38, 50, 56); stroke-linecap: round; stroke-linejoin: round; transform-origin: 249.139px 362.975px;" id="elc7wj16m0dp" class="animable"></path><path d="M255.88,361s-6-6.24-6.78-6.5" style="fill: rgb(255, 255, 255); stroke: rgb(38, 50, 56); stroke-linecap: round; stroke-linejoin: round; transform-origin: 252.49px 357.75px;" id="el9mt7d0quzt5" class="animable"></path><path d="M274.5,336s3.28,6.36,21.13,15.39a272.34,272.34,0,0,0,36.11,14.88,39.4,39.4,0,0,0,10.94,1.89c4.41,0,13,.85,13.25-.42s-4.21-2.31-5.47-2.52a29.21,29.21,0,0,1-4.21-1.47s9.26,1.26,12,3.15,7.15,3.37,8.2,2.95-2.52-5.26-5.26-8.2S354,355.33,350,355.33s-19.27,1.18-21.59,1.18-3.23-1.6-13.74-11.9S297.4,324,289.83,320.66" style="fill: rgb(186, 104, 200); stroke: rgb(38, 50, 56); stroke-linecap: round; stroke-linejoin: round; transform-origin: 320.569px 345.291px;" id="el262rr005sqm" class="animable"></path><path d="M350,355.33c-4,0-19.27,1.18-21.59,1.18s-3.23-1.6-13.74-11.9c-5.45-5.35-9.9-10.67-14-15-12.49,2.25-15.45,10.67-16.09,15.49a106.81,106.81,0,0,0,11,6.32,272.34,272.34,0,0,0,36.11,14.88,39.4,39.4,0,0,0,10.94,1.89c4.41,0,13,.85,13.25-.42s-4.21-2.31-5.47-2.52a29.21,29.21,0,0,1-4.21-1.47s9.26,1.26,12,3.15,7.15,3.37,8.2,2.95-2.52-5.26-5.26-8.2S354,355.33,350,355.33Z" style="fill: rgb(255, 255, 255); stroke: rgb(38, 50, 56); stroke-linecap: round; stroke-linejoin: round; transform-origin: 325.584px 349.781px;" id="elujhp9tpuce" class="animable"></path><path d="M351.51,361a27.75,27.75,0,0,1,6.94,2.53,19.14,19.14,0,0,1,6.1,5.89" style="fill: rgb(255, 255, 255); stroke: rgb(38, 50, 56); stroke-linecap: round; stroke-linejoin: round; transform-origin: 358.03px 365.21px;" id="elz2ahd39yt7" class="animable"></path><path d="M354.45,358.69s6.94,2.1,10.94,7.78" style="fill: rgb(255, 255, 255); stroke: rgb(38, 50, 56); stroke-linecap: round; stroke-linejoin: round; transform-origin: 359.92px 362.58px;" id="elc6poz15ufs" class="animable"></path><path d="M237.32,290.61a3.62,3.62,0,1,1,3.61-3.62A3.62,3.62,0,0,1,237.32,290.61Zm0-6.23a2.62,2.62,0,1,0,2.61,2.61A2.61,2.61,0,0,0,237.32,284.38Z" style="fill: rgb(38, 50, 56); transform-origin: 237.31px 286.99px;" id="ell43gwdy7lfb" class="animable"></path><path d="M239,291.43a1.51,1.51,0,0,1-1.44-1.06l-1.95-6.29a1.5,1.5,0,0,1,2.87-.89l2,6.29a1.51,1.51,0,0,1-1,1.88A1.39,1.39,0,0,1,239,291.43Z" style="fill: rgb(38, 50, 56); transform-origin: 238.044px 286.783px;" id="elz21n0gr9dcn" class="animable"></path><path d="M217.64,256.1s.84-13.46-.84-24.39h21s-2.11,14.51,0,22.92" style="fill: rgb(255, 255, 255); stroke: rgb(38, 50, 56); stroke-linecap: round; stroke-linejoin: round; transform-origin: 227.3px 243.905px;" id="elpzcezlci2ae" class="animable"></path><path d="M224.8,170.72s-12.76-4.26-20.24,6.55c-4.07,5.88-5.7,15.65-9.53,26a25.07,25.07,0,0,0,6.66,27.23c6.93,6.37,17.69,5.94,17.69,5.94s-8.61-14.22-8.13-24.83,15.07-15.92,16.26-24.62A30.54,30.54,0,0,0,224.8,170.72Z" style="fill: rgb(38, 50, 56); stroke: rgb(38, 50, 56); stroke-linecap: round; stroke-linejoin: round; transform-origin: 210.585px 203.169px;" id="eliitn9lj2m0a" class="animable"></path><path d="M199.26,224.27a26.67,26.67,0,0,0,1.7,4" style="fill: none; stroke: rgb(255, 255, 255); stroke-linecap: round; stroke-linejoin: round; transform-origin: 200.11px 226.27px;" id="elbl11v5qxrk" class="animable"></path><path d="M216.51,180.32s-1.77,4.88-11.55,16a28,28,0,0,0-6.73,23.92" style="fill: none; stroke: rgb(255, 255, 255); stroke-linecap: round; stroke-linejoin: round; transform-origin: 207.13px 200.28px;" id="elegeyul1r1rj" class="animable"></path><path d="M208.81,205.85s-3.16-3.57-4.21.42-.42,8.62.84,10.73a4.25,4.25,0,0,0,3.79,1.89Z" style="fill: rgb(255, 255, 255); stroke: rgb(38, 50, 56); stroke-linecap: round; stroke-linejoin: round; transform-origin: 206.65px 211.639px;" id="el8gnx55rthzo" class="animable"></path><path d="M220,187.55s-11.77,10.93-11.77,14.09-.64,17,1.47,21.66,11.56,16.82,16.82,17.87,16.61-13,17.67-16.4,1.47-18.51.42-22.29S223.32,186.07,220,187.55Z" style="fill: rgb(255, 255, 255); stroke: rgb(38, 50, 56); stroke-linecap: round; stroke-linejoin: round; transform-origin: 226.68px 214.328px;" id="el1iz60v12hmw" class="animable"></path><path d="M220.79,210.26c0,1.27-.47,2.31-1,2.31s-1.05-1-1.05-2.31.47-2.32,1.05-2.32S220.79,209,220.79,210.26Z" style="fill: rgb(38, 50, 56); transform-origin: 219.765px 210.255px;" id="el4wjd9l8qb4n" class="animable"></path><ellipse cx="234.25" cy="210.26" rx="1.05" ry="2.31" style="fill: rgb(38, 50, 56); transform-origin: 234.25px 210.26px;" id="elf220la0jvyo" class="animable"></ellipse><path d="M214.06,204.58s1.9-3.58,8.21-2.52" style="fill: none; stroke: rgb(38, 50, 56); stroke-linecap: round; stroke-linejoin: round; transform-origin: 218.165px 203.222px;" id="elyqzhy8fssi9" class="animable"></path><path d="M239.3,204.58s-1.89-3.58-8.2-2.52" style="fill: none; stroke: rgb(38, 50, 56); stroke-linecap: round; stroke-linejoin: round; transform-origin: 235.2px 203.222px;" id="eldwyrvih9t89" class="animable"></path><path d="M227.1,220.35a3,3,0,0,0,3.16-2.1s-2.39-7.25-.32-13.21" style="fill: none; stroke: rgb(38, 50, 56); stroke-linecap: round; stroke-linejoin: round; transform-origin: 228.68px 212.702px;" id="elhcpiqogt7hm" class="animable"></path><path d="M221.42,224.56s5.47,3.15,13.25,0c0,0-3.36,5-6.94,5S221.42,224.56,221.42,224.56Z" style="fill: rgb(38, 50, 56); stroke: rgb(38, 50, 56); stroke-linecap: round; stroke-linejoin: round; transform-origin: 228.045px 227.06px;" id="el6sbrrszdr1g" class="animable"></path><path d="M221.42,224.56s.15.26.4.64a10.29,10.29,0,0,0,5.79,2,9.86,9.86,0,0,0,6.9-2.4l.16-.23C226.89,227.71,221.42,224.56,221.42,224.56Z" style="fill: rgb(255, 255, 255); stroke: rgb(38, 50, 56); stroke-linecap: round; stroke-linejoin: round; stroke-width: 0.5px; transform-origin: 228.045px 225.885px;" id="elew78enw25pk" class="animable"></path><path d="M227.73,229.6a5.84,5.84,0,0,0,3.29-1.23,28.23,28.23,0,0,1-6.71-.24A5.41,5.41,0,0,0,227.73,229.6Z" style="fill: rgb(255, 255, 255); stroke: rgb(38, 50, 56); stroke-linecap: round; stroke-linejoin: round; stroke-width: 0.5px; transform-origin: 227.665px 228.865px;" id="elq7ckwcuxn3a" class="animable"></path><path d="M219.93,185.92a89,89,0,0,0,13.69,15.68c7.93,7,10.25,16.54,8.12,25.91-1.15,5.09-8.8,9.51-6.81,10.86s17.34-.18,26.27-7.73,9.65-17.86,7.47-30.64S248.89,168.5,239,168.5,217,171.21,219.93,185.92Z" style="fill: rgb(38, 50, 56); stroke: rgb(38, 50, 56); stroke-linecap: round; stroke-linejoin: round; transform-origin: 244.595px 203.655px;" id="el6rmiw4l1l2t" class="animable"></path><path d="M244,236.16a17.3,17.3,0,0,1-4.84,1" style="fill: none; stroke: rgb(255, 255, 255); stroke-linecap: round; stroke-linejoin: round; transform-origin: 241.58px 236.66px;" id="elfg3z9hh403r" class="animable"></path><path d="M227.85,186.75a48.27,48.27,0,0,0,8.65,7.78c10.67,7.55,20,17.33,17.33,28.44a21.54,21.54,0,0,1-4.58,9.6" style="fill: none; stroke: rgb(255, 255, 255); stroke-linecap: round; stroke-linejoin: round; transform-origin: 241.071px 209.66px;" id="elzyu5mlbzlwg" class="animable"></path><path d="M222.73,179a22.6,22.6,0,0,0,2.1,3.79" style="fill: none; stroke: rgb(255, 255, 255); stroke-linecap: round; stroke-linejoin: round; transform-origin: 223.78px 180.895px;" id="el5xmumbbzzeh" class="animable"></path><path d="M233,179s25.32,15.11,31.1,27.55.89,20.88-5.33,24.88" style="fill: none; stroke: rgb(255, 255, 255); stroke-linecap: round; stroke-linejoin: round; transform-origin: 249.839px 205.215px;" id="el90hzuisache" class="animable"></path></g><g id="freepik--Device--inject-47" class="animable" style="transform-origin: 134.458px 345.885px;"><polygon points="168.93 375.64 194.5 368.05 194.5 366.4 115.87 368.05 86.51 375.64 168.93 375.64" style="fill: rgb(255, 255, 255); stroke: rgb(38, 50, 56); stroke-linecap: round; stroke-linejoin: round; transform-origin: 140.505px 371.02px;" id="ely3s7lspwxhn" class="animable"></polygon><polygon points="168.93 373.99 194.5 366.4 115.87 366.4 86.51 373.99 168.93 373.99" style="fill: rgb(255, 255, 255); stroke: rgb(38, 50, 56); stroke-linecap: round; stroke-linejoin: round; transform-origin: 140.505px 370.195px;" id="elwkmbbgjosko" class="animable"></polygon><path d="M153.12,316.13H77.61A3.19,3.19,0,0,0,74.49,320l12,55.64h82l-12.31-57A3.18,3.18,0,0,0,153.12,316.13Z" style="fill: rgb(255, 255, 255); transform-origin: 121.453px 345.885px;" id="elmr8o1rcpo9" class="animable"></path><g style="clip-path: url(&quot;#freepik--clip-path-4--inject-47&quot;); transform-origin: 126.69px 354.658px;" id="el6stvd7jznct" class="animable"><path d="M159.51,333.8c-14.3-.58-37.94,1.13-48.32,17.09C102.33,364.5,92,367.74,84.87,368l1.64,7.61h82Z" style="fill: rgb(186, 104, 200); transform-origin: 126.69px 354.658px;" id="elnj3zadsgb4s" class="animable"></path></g><path d="M153.12,316.13H77.61A3.19,3.19,0,0,0,74.49,320l12,55.64h82l-12.31-57A3.18,3.18,0,0,0,153.12,316.13Z" style="fill: none; stroke: rgb(38, 50, 56); stroke-linecap: round; stroke-linejoin: round; transform-origin: 121.453px 345.885px;" id="elo61f7iucr3" class="animable"></path><path d="M126,345.09c0,2.9-3,5.24-6.69,5.24s-6.69-2.34-6.69-5.24,3-5.24,6.69-5.24S126,342.2,126,345.09Z" style="fill: rgb(38, 50, 56); transform-origin: 119.31px 345.09px;" id="elgyogxsi2zzv" class="animable"></path></g><defs>     <filter id="active" height="200%">         <feMorphology in="SourceAlpha" result="DILATED" operator="dilate" radius="2"></feMorphology>                <feFlood flood-color="#32DFEC" flood-opacity="1" result="PINK"></feFlood>        <feComposite in="PINK" in2="DILATED" operator="in" result="OUTLINE"></feComposite>        <feMerge>            <feMergeNode in="OUTLINE"></feMergeNode>            <feMergeNode in="SourceGraphic"></feMergeNode>        </feMerge>    </filter>    <filter id="hover" height="200%">        <feMorphology in="SourceAlpha" result="DILATED" operator="dilate" radius="2"></feMorphology>                <feFlood flood-color="#ff0000" flood-opacity="0.5" result="PINK"></feFlood>        <feComposite in="PINK" in2="DILATED" operator="in" result="OUTLINE"></feComposite>        <feMerge>            <feMergeNode in="OUTLINE"></feMergeNode>            <feMergeNode in="SourceGraphic"></feMergeNode>        </feMerge>            <feColorMatrix type="matrix" values="0   0   0   0   0                0   1   0   0   0                0   0   0   0   0                0   0   0   1   0 "></feColorMatrix>    </filter></defs><defs><clipPath id="freepik--clip-path--inject-47"><rect x="193.68" y="153.13" width="229.57" height="135.89" style="fill:#fff;stroke:#263238;stroke-linecap:round;stroke-linejoin:round"></rect></clipPath><clipPath id="freepik--clip-path-2--inject-47"><circle cx="362.53" cy="245.07" r="82.22" transform="translate(-67.11 328.13) rotate(-45)" style="fill:#BA68C8"></circle></clipPath><clipPath id="freepik--clip-path-3--inject-47"><rect x="70.5" y="356" width="369.74" height="44" rx="9.75" style="fill:#263238;stroke:#263238;stroke-linecap:round;stroke-linejoin:round"></rect></clipPath><clipPath id="freepik--clip-path-4--inject-47"><path d="M153.12,316.13H77.61A3.19,3.19,0,0,0,74.49,320l12,55.64h82l-12.31-57A3.18,3.18,0,0,0,153.12,316.13Z" style="fill:#fff;stroke:#263238;stroke-linecap:round;stroke-linejoin:round"></path></clipPath></defs></svg>