<svg class="animated" id="freepik_stories-front-car" xmlns="http://www.w3.org/2000/svg" viewBox="0 0 500 500" version="1.1" xmlns:xlink="http://www.w3.org/1999/xlink" xmlns:svgjs="http://svgjs.com/svgjs"><style>svg#freepik_stories-front-car:not(.animated) .animable {opacity: 0;}svg#freepik_stories-front-car.animated #freepik--Screen--inject-23 {animation: 1.5s Infinite  linear shake;animation-delay: 0s;}svg#freepik_stories-front-car.animated #freepik--front-car--inject-23 {animation: 1.5s Infinite  linear shake;animation-delay: 0s;}            @keyframes shake {                10%, 90% {                    transform: translate3d(-1px, 0, 0);                  }                  20%, 80% {                    transform: translate3d(2px, 0, 0);                  }                  30%, 50%, 70% {                    transform: translate3d(-4px, 0, 0);                  }                  40%, 60% {                    transform: translate3d(4px, 0, 0);                  }            }        </style><g id="freepik--City--inject-23" class="animable" style="transform-origin: 250px 214.375px;"><polygon id="freepik--city--inject-23" points="482.22 370.24 482.22 156.27 447.18 136.03 420.89 151.21 420.89 203.71 407.74 196.12 407.74 175.88 394.6 168.29 394.6 91.28 355.16 68.51 337.64 78.63 337.64 102.27 320.11 92.15 302.58 102.27 302.58 146.12 285.06 156.21 285.06 114.16 267.53 104.04 245.62 116.69 245.62 167.28 223.72 154.64 223.72 73.69 197.43 58.51 166.75 76.22 166.75 141.89 153.61 149.48 153.61 176.07 136.08 186.19 136.08 95.23 114.18 82.58 87.89 97.76 87.89 119.36 74.74 126.95 74.74 185.31 57.22 195.43 57.22 155.94 30.93 140.76 17.78 148.35 17.78 370.24 482.22 370.24" style="fill: rgb(245, 245, 245); transform-origin: 250px 214.375px;" class="animable"></polygon></g><g id="freepik--Floor--inject-23" class="animable" style="transform-origin: 249.995px 337.79px;"><path id="freepik--floor--inject-23" d="M77.66,238.29c-95.18,55-95.17,144,0,199s249.49,54.95,344.67,0,95.17-144,0-199S172.84,183.34,77.66,238.29Z" style="fill: rgb(250, 250, 250); transform-origin: 249.995px 337.79px;" class="animable"></path></g><g id="freepik--Clouds--inject-23" class="animable" style="transform-origin: 260.06px 66.6753px;"><g id="freepik--clouds--inject-23" class="animable" style="transform-origin: 260.06px 66.6753px;"><path d="M389.59,51l3.73,1.43V44.17c0-6.51,5.19-8.07,10.83-4.82h0c5.63,3.26,10.2,11.17,10.2,17.68v1.19a5.46,5.46,0,0,1,4.74.74h0a16.2,16.2,0,0,1,7.34,12.72v.54l5.2,3a10.69,10.69,0,0,1,4.84,8.38c0,3.08-2.17,4.33-4.84,2.79l-42-24.27a10.72,10.72,0,0,1-4.84-8.38C384.75,50.65,386.92,49.4,389.59,51Z" style="fill: rgb(245, 245, 245); transform-origin: 410.63px 62.3788px;" id="el7wtx8sx3bsa" class="animable"></path><path d="M49.22,81.32l4.51-3.48V67.9c0-7.88,6.29-17,13.12-21h0c6.82-3.94,12.36-.74,12.36,7.14V55.5a17.7,17.7,0,0,1,5.73-5.73h0c4.92-2.84,8.9-.54,8.9,5.13v.66l6.29-3.64c3.23-1.86,5.86-.35,5.86,3.38a13,13,0,0,1-5.86,10.15L49.22,94.84c-3.23,1.87-5.86.36-5.86-3.38A13,13,0,0,1,49.22,81.32Z" style="fill: rgb(245, 245, 245); transform-origin: 74.675px 70.4279px;" id="elrd5ial06bme" class="animable"></path><path d="M473.75,81.22,467,77.32a5.49,5.49,0,0,0,.06-.83v-2a12.09,12.09,0,0,0-5.46-9.46,4.24,4.24,0,0,0-3.26-.63c-.49-4.95-3.93-10.55-8.1-13-4.52-2.61-8.18-.49-8.18,4.72v2.93a14.29,14.29,0,0,0,.69,4.19l-5.61-3.24c-1.67-1-3-.18-3,1.75a6.72,6.72,0,0,0,3,5.25l36.62,21.14c1.67,1,3,.18,3-1.75A6.72,6.72,0,0,0,473.75,81.22Z" style="fill: rgb(245, 245, 245); transform-origin: 455.45px 69.4254px;" id="el34s4fuomy7p" class="animable"></path></g></g><g id="freepik--Shadow--inject-23" class="animable" style="transform-origin: 306.994px 360.056px;"><path id="freepik--shadow--inject-23" d="M379.8,270l78.12,45.2c12.5,7.19,11,19.72-3.33,28L296.75,446.07C225,487.58,105.33,401.36,162.66,369.22l175-101.35C352,259.6,367.29,262.8,379.8,270Z" style="fill: rgb(224, 224, 224); transform-origin: 306.994px 360.056px;" class="animable"></path></g><g id="freepik--Screen--inject-23" class="animable" style="transform-origin: 162.14px 193.55px;"><g id="freepik--screen--inject-23" class="animable" style="transform-origin: 162.14px 193.55px;"><g id="elklt1dhong7q"><g style="opacity: 0.2; transform-origin: 159.295px 192.053px;" class="animable"><path d="M42.25,156.16,276.34,20.89c.75-.44,1.37-.08,1.37.79V225.57a3.05,3.05,0,0,1-1.37,2.38L42.25,363.22c-.76.43-1.37.08-1.37-.8V158.53A3,3,0,0,1,42.25,156.16Z" id="el6h584mbvn3s" class="animable" style="transform-origin: 159.295px 192.053px;"></path></g></g><g id="freepik--speach-bubble--inject-23" class="animable" style="transform-origin: 164.7px 196.014px;"><path d="M275.93,26,47.55,158A3.33,3.33,0,0,0,46,160.57V361.81a3.29,3.29,0,0,0,1.52,2.6l2.88,1.64a3.4,3.4,0,0,0,3,0l228.38-132a3.31,3.31,0,0,0,1.51-2.61V30.22a3.28,3.28,0,0,0-1.52-2.6L279,26A3.37,3.37,0,0,0,275.93,26Z" style="fill: rgb(186, 104, 200); transform-origin: 164.645px 196.014px;" id="elz92ahblh3kg" class="animable"></path><g id="eleag5blzv0k9"><path d="M53.47,366a3.49,3.49,0,0,1-3,0l-2.87-1.64a3.29,3.29,0,0,1-1.52-2.6V160.57a3,3,0,0,1,.48-1.54l5.88,3.4a3,3,0,0,0-.44,1.49V365.15C52,366,52.58,366.55,53.47,366Z" style="opacity: 0.2; transform-origin: 49.775px 262.684px;" class="animable"></path></g><g id="elr0vvyvxkzrn"><g style="opacity: 0.2; transform-origin: 164.925px 94.0406px;" class="animable"><path d="M283.34,29.94c-.12-.76-.74-1-1.49-.6L53.47,161.3a3.24,3.24,0,0,0-1.07,1.13L46.51,159a3,3,0,0,1,1-1.08L275.94,26a3.4,3.4,0,0,1,3,0l2.87,1.63A3.33,3.33,0,0,1,283.34,29.94Z" style="fill: rgb(255, 255, 255); transform-origin: 164.925px 94.0406px;" id="el8zdhemkz9yv" class="animable"></path></g></g><path d="M281.85,29.35,53.47,161.3A3.33,3.33,0,0,0,52,163.92V365.16c0,1,.67,1.35,1.51.87l228.38-132a3.31,3.31,0,0,0,1.51-2.61V30.22C283.36,29.25,282.69,28.86,281.85,29.35Z" style="fill: rgb(255, 255, 255); transform-origin: 167.7px 197.691px;" id="el7s0f22mohjt" class="animable"></path><path d="M282.15,30.57V231.46a2.2,2.2,0,0,1-.9,1.57L53.17,364.81V163.92a2.18,2.18,0,0,1,.9-1.57L282.15,30.57m.38-1.43a1.37,1.37,0,0,0-.68.21L53.47,161.3A3.33,3.33,0,0,0,52,163.92V365.16c0,.68.34,1.08.83,1.08a1.37,1.37,0,0,0,.68-.21l228.38-132a3.31,3.31,0,0,0,1.51-2.61V30.22c0-.69-.34-1.08-.83-1.08Z" style="fill: rgb(186, 104, 200); transform-origin: 167.7px 197.69px;" id="elwa6lzcvk59" class="animable"></path></g></g></g><g id="freepik--front-car--inject-23" class="animable animator-active" style="transform-origin: 167.667px 209.457px;"><path d="M258,154.84c-.79,7.57-2.57,23.81-4.35,33.88q-85.4,53.49-172,99.33c-1.79-8-3.57-22.19-4.36-28.85a5.22,5.22,0,0,1,.29-2.21c0-.1.07-.19.1-.28a4.88,4.88,0,0,1,2.11-2.57c6.07-3,21.13-10.5,39.76-20.31a1,1,0,0,1,1.54.41,1,1,0,0,0,1.54.41c31.06-16,60.12-32.74,90.83-52.44A4.27,4.27,0,0,0,215,180h0a4.08,4.08,0,0,1,1.55-2.21c18.27-11.5,33-21.17,39-25.13a1.44,1.44,0,0,1,2.09.13c0,.06.07.12.11.17A3.06,3.06,0,0,1,258,154.84Z" style="fill: rgb(186, 104, 200); transform-origin: 167.661px 220.161px;" id="ele2w8hieb3ye" class="animable"></path><path d="M148,172.71l-13.69,55.86v7.24c8.08-4.39,15.67-8.57,22.37-12.38v-7.05l4.86-51.66ZM187.35,150l-13.54,7.65,4.86,46v7.06c6.71-3.94,14.29-8.52,22.38-13.47V190Z" style="fill: rgb(230, 230, 230); transform-origin: 167.68px 192.905px;" id="elx1zhip2dobb" class="animable"></path><path d="M254.85,158.77c-.66,6.3-1.56,14.69-2.94,23.37q-84.25,52.94-168.6,97.34c-1.37-7.1-2.2-14.48-2.85-20a2.56,2.56,0,0,1,1.15-2.33c6.59-3.27,19-9.51,34.2-17.45,1.24-.65,2.22.15,2.22,1.8h0c0,1.66,1,2.46,2.23,1.8q47.53-25,94.8-54.73a5.62,5.62,0,0,0,2.22-4.37h0a5.63,5.63,0,0,1,2.23-4.37c15.15-9.56,27.58-17.69,34.19-22C254.4,157.3,255,157.79,254.85,158.77Z" style="fill: rgb(55, 71, 79); transform-origin: 167.663px 218.547px;" id="el34jgtneqkeb" class="animable"></path><path d="M258.4,190.16,257.21,200a7.91,7.91,0,0,1-3.14,5.43c-9.4,5.83-42.79,26.39-86.41,51.58s-77,43.18-86.42,48.2c-1.56.84-2.86.07-3.14-1.81l-1.18-8.45a6.68,6.68,0,0,1,.27-2.79q90.63-47.46,180.94-104.46A4.68,4.68,0,0,1,258.4,190.16Z" style="fill: rgb(224, 224, 224); transform-origin: 167.667px 246.624px;" id="elp5r3fd2wto9" class="animable"></path><path d="M258.13,187.69q-90.33,57-180.94,104.46a9.23,9.23,0,0,1,.61-1.55l1.71-3.29A6.31,6.31,0,0,1,82,284.59c7.56-4.06,44-23.69,85.71-47.77s78.15-46.52,85.7-51.2a2.06,2.06,0,0,1,2.45-.1l1.7,1.33A2.28,2.28,0,0,1,258.13,187.69Z" style="fill: rgb(245, 245, 245); transform-origin: 167.66px 238.657px;" id="el7mob7qxdbxq" class="animable"></path><g id="elo5ow387q9wp"><g style="opacity: 0.2; transform-origin: 167.624px 250.446px;" class="animable"><path d="M188.13,242.62l.24-4.54a21,21,0,0,0,.09-2.19c-.08-.57-.52-.78-1-.5-11,6.67-22.12,13.17-33.06,19.27l-6.61,3.63a2.66,2.66,0,0,0-.95,2.65c.12,1.75.23,3.55.32,5.32-.23-1.67-.43-3.4-.63-5.09a6.21,6.21,0,0,1-.07-1.12,3.42,3.42,0,0,1,1.32-2.38l6.62-4c10.94-6.54,22.12-12.94,33.08-18.91.67-.35,1.24.05,1.31.86a21.22,21.22,0,0,1-.19,2.36l-.5,4.65Z" id="elyrikgjkwf0r" class="animable" style="transform-origin: 167.624px 250.446px;"></path></g></g><path d="M248.17,181.47l-28.26,17.32c-.38.23-.69,0-.69-.5l.69-14.92a1.63,1.63,0,0,1,.63-1.26l29.12-18.56c.42-.26.75,0,.69.61l-1.53,16.17A1.61,1.61,0,0,1,248.17,181.47Z" style="fill: rgb(224, 224, 224); transform-origin: 234.789px 181.165px;" id="el5ra3a0im4z" class="animable"></path><g id="elphkuc1g1cba"><path d="M243.07,182.84l-16.84,10.47c2.68-1.55,4.85-5.71,4.85-9.29s-2.17-5.23-4.85-3.67l16.84-10.7c-2.73,1.57-4.94,5.81-4.94,9.46S240.34,184.42,243.07,182.84Z" style="opacity: 0.2; transform-origin: 234.65px 181.48px;" class="animable"></path></g><path d="M248,173.39c0,3.65-2.22,7.87-5,9.45s-4.94-.09-4.94-3.73,2.21-7.89,4.94-9.46S248,169.74,248,173.39Z" style="fill: rgb(255, 255, 255); transform-origin: 243.03px 176.247px;" id="eltov4ng1p3w" class="animable"></path><g id="el8vx73xda08s"><ellipse cx="243.93" cy="176.85" rx="3.64" ry="2.06" style="fill: rgb(235, 235, 235); transform-origin: 243.93px 176.85px; transform: rotate(-66.95deg);" class="animable"></ellipse></g><path d="M242.62,173.29a2.57,2.57,0,0,1-1.06,2c-.59.34-1.06,0-1.06-.8a2.54,2.54,0,0,1,1.06-2C242.14,172.15,242.62,172.51,242.62,173.29Z" style="fill: rgb(235, 235, 235); transform-origin: 241.56px 173.891px;" id="elprmt7wq6sxj" class="animable"></path><path d="M231.08,184c0,3.58-2.17,7.74-4.85,9.29s-4.86-.1-4.86-3.68,2.17-7.73,4.86-9.28S231.08,180.45,231.08,184Z" style="fill: rgb(255, 255, 255); transform-origin: 226.225px 186.811px;" id="el42zul1d511t" class="animable"></path><path d="M229.45,186.49a5.69,5.69,0,0,1-2.37,4.54c-1.31.76-2.38-.05-2.38-1.8a5.68,5.68,0,0,1,2.38-4.53C228.39,183.94,229.45,184.74,229.45,186.49Z" style="fill: rgb(235, 235, 235); transform-origin: 227.075px 187.864px;" id="el95nqgf3abxb" class="animable"></path><path d="M225.76,184.31a2.52,2.52,0,0,1-1.06,2c-.58.34-1.06,0-1.06-.8a2.57,2.57,0,0,1,1.06-2C225.29,183.17,225.76,183.52,225.76,184.31Z" style="fill: rgb(235, 235, 235); transform-origin: 224.7px 184.911px;" id="el6aybfk1glkh" class="animable"></path><path d="M87.14,274.44l28.27-15.32a1.58,1.58,0,0,0,.68-1.28l-.68-14.14c0-.47-.28-.7-.64-.52L85.65,258.24a1.6,1.6,0,0,0-.69,1.4L86.5,274C86.54,274.45,86.81,274.62,87.14,274.44Z" style="fill: rgb(224, 224, 224); transform-origin: 100.524px 258.815px;" id="eltjncpr40a9r" class="animable"></path><g id="eleriweavo5ne"><path d="M92.24,269.93l16.85-9c-2.69,1.55-4.86-.1-4.86-3.68s2.17-7.73,4.86-9.28l-16.85,8.75c2.73-1.58,4.94.1,4.94,3.75S95,268.35,92.24,269.93Z" style="opacity: 0.2; transform-origin: 100.665px 258.95px;" class="animable"></path></g><path d="M87.29,266.2c0,3.64,2.21,5.31,4.95,3.73s4.94-5.8,4.94-9.45-2.21-5.33-4.94-3.75S87.29,262.55,87.29,266.2Z" style="fill: rgb(255, 255, 255); transform-origin: 92.235px 263.331px;" id="eld3ys7sxitg" class="animable"></path><path d="M89,266.29c0,1.75,1.06,2.56,2.37,1.8a5.68,5.68,0,0,0,2.38-4.54c0-1.75-1.06-2.55-2.38-1.79A5.68,5.68,0,0,0,89,266.29Z" style="fill: rgb(235, 235, 235); transform-origin: 91.375px 264.924px;" id="elfy4a9ckzoy4" class="animable"></path><path d="M92.7,259.85c0,.78.47,1.14,1.06.8a2.57,2.57,0,0,0,1.06-2c0-.78-.48-1.14-1.06-.8A2.54,2.54,0,0,0,92.7,259.85Z" style="fill: rgb(235, 235, 235); transform-origin: 93.76px 259.25px;" id="el8bl0j0ru02t" class="animable"></path><path d="M104.23,257.26c0,3.58,2.17,5.23,4.86,3.68s4.85-5.71,4.85-9.29-2.17-5.22-4.85-3.67S104.23,253.69,104.23,257.26Z" style="fill: rgb(255, 255, 255); transform-origin: 109.085px 254.459px;" id="el460y5zqwlw5" class="animable"></path><path d="M105.86,257.85c0,1.75,1.07,2.55,2.38,1.79a5.69,5.69,0,0,0,2.37-4.53c0-1.75-1.06-2.56-2.37-1.8A5.7,5.7,0,0,0,105.86,257.85Z" style="fill: rgb(235, 235, 235); transform-origin: 108.235px 256.476px;" id="elrwi1om5who" class="animable"></path><path d="M109.55,251.4c0,.78.48,1.14,1.06.8a2.52,2.52,0,0,0,1.06-2c0-.78-.47-1.14-1.06-.8A2.53,2.53,0,0,0,109.55,251.4Z" style="fill: rgb(235, 235, 235); transform-origin: 110.61px 250.8px;" id="el6c3e7dakaa2" class="animable"></path><path d="M168.63,224a4.27,4.27,0,0,1,1.77-3.38c15-8.69,45-28.11,45-28.5,0-.2-23.86,14.31-47.72,28.08s-47.72,26.76-47.72,27c0,.52,30.08-14.9,45-23.45,1-.56,1.76,0,1.76,1.35V227c-15.45,8.89-46.74,25.46-46.74,26.05s29.74-14.69,44.47-23.15c1.26-.72,2.27,0,2.27,1.73v1.83l1.95-1.13v-1.83a5.46,5.46,0,0,1,2.28-4.35c14.8-8.6,44.47-27.77,44.47-28.19s-31.21,18.93-46.75,27.91Z" style="fill: rgb(224, 224, 224); transform-origin: 167.69px 222.592px;" id="els6hpxtjcihi" class="animable"></path><path d="M257.63,152.79a1.44,1.44,0,0,0-2.09-.13c-6,4-20.73,13.63-39,25.13A4.08,4.08,0,0,0,215,180h0a4.27,4.27,0,0,1-1.54,2.2c-30.71,19.7-59.77,36.45-90.83,52.44a1,1,0,0,1-1.54-.41,1,1,0,0,0-1.54-.41c-18.63,9.81-33.69,17.31-39.76,20.31a4.88,4.88,0,0,0-2.11,2.57C85.24,235.65,108,197.16,108,197.16s27.34-17.35,59.66-36,59.65-32.87,59.65-32.87S250.06,140.47,257.63,152.79Z" style="fill: rgb(186, 104, 200); transform-origin: 167.655px 192.495px;" id="ela61ke3c5t9a" class="animable"></path><g id="elfk05cz4io5c"><path d="M257.63,152.79a1.44,1.44,0,0,0-2.09-.13c-6,4-20.73,13.63-39,25.13A4.08,4.08,0,0,0,215,180h0a4.27,4.27,0,0,1-1.54,2.2c-30.71,19.7-59.77,36.45-90.83,52.44a1,1,0,0,1-1.54-.41,1,1,0,0,0-1.54-.41c-18.63,9.81-33.69,17.31-39.76,20.31a4.88,4.88,0,0,0-2.11,2.57C85.24,235.65,108,197.16,108,197.16s27.34-17.35,59.66-36,59.65-32.87,59.65-32.87S250.06,140.47,257.63,152.79Z" style="fill: rgb(255, 255, 255); opacity: 0.15; transform-origin: 167.655px 192.495px;" class="animable"></path></g><g id="elo4qbk4xfqf"><path d="M216,178.2h0a4.53,4.53,0,0,0-1,1.79h0a5,5,0,0,1-.84,1.56c-1-4.54-5.08-13.21-8.64-25C209.84,165.52,216,178.2,216,178.2Z" style="opacity: 0.2; transform-origin: 210.76px 169.05px;" class="animable"></path></g><g id="elonwa5ags8v"><path d="M120,233.62v0a.94.94,0,0,1,1,.58h0a1,1,0,0,0,.84.59c.94-5.63,5.08-19.07,8.64-35C126.22,213.79,120,233.62,120,233.62Z" style="opacity: 0.2; transform-origin: 125.24px 217.29px;" class="animable"></path></g><path d="M227.31,128.28S200,142.5,167.66,161.15s-59.66,36-59.66,36l11.31-39.28a13.29,13.29,0,0,1,4.55-7c27.25-19.48,60.34-38.59,87.59-50.57a3.17,3.17,0,0,1,4.55,1.74Z" style="fill: rgb(38, 50, 56); transform-origin: 167.655px 148.523px;" id="elt9fw7mejso8" class="animable"></path><path d="M167.66,161.15C193,146.53,216.35,134,224,130l-10.68-24.77a1.55,1.55,0,0,0-2.2-.85,484.17,484.17,0,0,0-43.49,22.32c-13.47,7.78-30,18.28-43.5,27.91A6.51,6.51,0,0,0,122,158l-10.67,37.1C119,190.21,142.36,175.75,167.66,161.15Z" style="fill: rgb(55, 71, 79); transform-origin: 167.665px 149.647px;" id="el1tn0u5acznb" class="animable"></path><path d="M236.68,216.1c-2.22,5.51-5.87,10.42-10,13q-59,36.09-118,68.11c-4.16,2.25-7.81,1.55-10-1.4,15.92-8.7,40.24-22.18,69-38.79S220.76,225.78,236.68,216.1Z" style="fill: rgb(69, 90, 100); transform-origin: 167.68px 257.319px;" id="elyhdwsw012ka" class="animable"></path><path d="M250.35,207.72V217.8c0,4.83-2.93,10.43-6.55,12.52l-21.22,12.26c-3.61,2.08-6.55-.13-6.55-5v-2.07l10.62-6.47c4.16-2.56,7.81-7.47,10-13C242.37,212.63,247,209.79,250.35,207.72Z" style="fill: rgb(38, 50, 56); transform-origin: 233.19px 225.541px;" id="elqta2mrznta" class="animable"></path><path d="M85,303.21V313.3c0,4.82,2.93,7,6.55,4.95L112.73,306c3.61-2.08,6.55-7.68,6.55-12.51V291.4q-5.3,2.91-10.62,5.8c-4.16,2.24-7.81,1.55-10-1.4C92.94,298.9,88.31,301.41,85,303.21Z" style="fill: rgb(38, 50, 56); transform-origin: 102.14px 305.21px;" id="el5l499j3y1d4" class="animable"></path><path d="M178.67,203.66h0q11.13-6.6,22.38-13.62v0l-13.7-40-12.84,7.26-.7.39Z" style="fill: rgb(250, 250, 250); transform-origin: 187.43px 176.85px;" id="elycbn95q3yd" class="animable"></path><path d="M160.81,165.13,148,172.71l-13.69,55.86q11.29-6,22.37-12.2l4.86-51.65Z" style="fill: rgb(250, 250, 250); transform-origin: 147.925px 196.645px;" id="elguhl1sgbegw" class="animable"></path><path d="M222.48,129.5c-2.46,1.29-7.16,3.79-13.88,7.44-9.82-8.07-22.79-11.76-37.75-10.78,13.66-7.75,28.46-15.28,40.2-20.45a1,1,0,0,1,1.42.55Z" style="fill: rgb(69, 90, 100); transform-origin: 196.665px 121.265px;" id="el89jh9om8u4" class="animable"></path></g><g id="freepik--Car--inject-23" class="animable" style="transform-origin: 312.874px 337.087px;"><g id="freepik--Vehicle--inject-23" class="animable" style="transform-origin: 312.874px 337.087px;"><polygon points="434.13 322.89 412.43 310.47 427.82 301.58 435.26 305.88 434.13 322.89" id="elm21dtyvv5ib" class="animable" style="transform-origin: 423.845px 312.235px;"></polygon><polygon points="297.58 406.86 267.81 389.67 267.81 372.48 297.58 389.67 297.58 406.86" id="eluyp2vnhflof" class="animable" style="transform-origin: 282.695px 389.67px;"></polygon><path d="M283.55,399.65l4.81-9.56-11.45-6.62h0c-3.64-2.09-8.48-1.85-13.81,1.22-11.3,6.52-20.46,23.36-20.47,37.6,0,7.45,2.52,12.71,6.54,15.1h0l.17.09h0l11.73,6.78,5.07-10.08C275.76,426.85,283.18,412.35,283.55,399.65Z" style="fill: rgb(55, 71, 79); transform-origin: 265.495px 413.183px;" id="el9voyj5swxot" class="animable"></path><path d="M283.55,399.65l4.81-9.56-11.45-6.62h0c-3.64-2.09-8.48-1.85-13.81,1.22-11.3,6.52-20.46,23.36-20.47,37.6,0,7.45,2.52,12.71,6.54,15.1h0l.17.09h0l11.73,6.78,5.07-10.08C275.76,426.85,283.18,412.35,283.55,399.65Z" style="fill: rgb(38, 50, 56); transform-origin: 265.495px 413.183px;" id="el3igvrjt34ch" class="animable"></path><path d="M295.48,405.53c0,12.27-6.82,26.48-15.94,34.34,0,0,0,0,0,0a29.47,29.47,0,0,1-4.49,3.21c-11.3,6.54-20.47.28-20.46-14,0-10.75,5.23-23,12.66-31.16a.33.33,0,0,0,.06-.06,33.13,33.13,0,0,1,7.74-6.38C286.32,385,295.48,391.29,295.48,405.53Z" style="fill: rgb(55, 71, 79); transform-origin: 275.035px 417.301px;" id="elkjc0ny3j9k9" class="animable"></path><path d="M275,400.16c7.2-4.16,13,.17,13,9.66s-5.83,20.56-13,24.71-13-.17-13-9.66S267.82,404.31,275,400.16Z" style="fill: rgb(69, 90, 100); transform-origin: 275px 417.343px;" id="el3sd31eg73fp" class="animable"></path><path d="M280.9,414.72c-.5,4.72-3.54,9.72-6.78,11.17a3.17,3.17,0,0,1-3.55-.3c-1.14-1-1.72-3-1.44-5.62.49-4.72,3.52-9.73,6.78-11.17a3.64,3.64,0,0,1,2.38-.32h0C280.17,409,281.26,411.28,280.9,414.72Z" style="fill: rgb(250, 250, 250); transform-origin: 275.014px 417.351px;" id="el04ha1z084414" class="animable"></path><path d="M279.74,414.11c-.5,4.72-3.54,9.72-6.79,11.17a3.62,3.62,0,0,1-2.38.31c-1.14-1-1.72-3-1.44-5.62.49-4.72,3.52-9.73,6.78-11.17a3.64,3.64,0,0,1,2.38-.32h0C279.43,409.47,280,411.47,279.74,414.11Z" style="fill: rgb(224, 224, 224); transform-origin: 274.431px 417.037px;" id="elhqj0mskldyj" class="animable"></path><path d="M295.48,405.53c0,12.27-6.82,26.48-15.94,34.34a58.09,58.09,0,0,0,13-25.12c1.73-8.21,1.08-20-6-23s-16.35,3.3-19.29,6.16a33.13,33.13,0,0,1,7.74-6.38C286.32,385,295.48,391.29,295.48,405.53Z" style="fill: rgb(69, 90, 100); transform-origin: 281.365px 414.409px;" id="elfup40kvpcv9" class="animable"></path><path d="M422,315l4.3-8.55-10.24-5.92h0c-3.25-1.87-7.59-1.66-12.35,1.09-10.1,5.83-18.3,20.89-18.3,33.62,0,6.67,2.25,11.37,5.84,13.51h0l.14.09h0l10.5,6.06,4.53-9C415,339.35,421.66,326.38,422,315Z" style="fill: rgb(55, 71, 79); transform-origin: 405.855px 327.104px;" id="eldis7fjlszk6" class="animable"></path><path d="M422,315l4.3-8.55-10.24-5.92h0c-3.25-1.87-7.59-1.66-12.35,1.09-10.1,5.83-18.3,20.89-18.3,33.62,0,6.67,2.25,11.37,5.84,13.51h0l.14.09h0l10.5,6.06,4.53-9C415,339.35,421.66,326.38,422,315Z" style="fill: rgb(38, 50, 56); transform-origin: 405.855px 327.104px;" id="elmngqbre5pv" class="animable"></path><path d="M432.66,320.28c0,11-6.1,23.69-14.26,30.72,0,0,0,0,0,0a27.35,27.35,0,0,1-4,2.88c-10.11,5.84-18.31.24-18.3-12.49,0-9.62,4.68-20.57,11.32-27.86l.06-.06a29.19,29.19,0,0,1,6.92-5.7C424.46,302,432.66,307.55,432.66,320.28Z" style="fill: rgb(55, 71, 79); transform-origin: 414.38px 330.842px;" id="ellla9ukusnu" class="animable"></path><path d="M414.35,315.48c6.44-3.71,11.65.16,11.65,8.65s-5.21,18.38-11.65,22.09-11.64-.15-11.64-8.64S407.92,319.19,414.35,315.48Z" style="fill: rgb(69, 90, 100); transform-origin: 414.355px 330.851px;" id="elkwcf23mtcbb" class="animable"></path><path d="M419.62,328.5c-.45,4.22-3.16,8.7-6.07,10a2.83,2.83,0,0,1-3.17-.26c-1-.88-1.54-2.66-1.29-5,.44-4.22,3.15-8.7,6.06-10a3.2,3.2,0,0,1,2.13-.28h0C419,323.34,419.94,325.43,419.62,328.5Z" style="fill: rgb(250, 250, 250); transform-origin: 414.356px 330.878px;" id="elsrbyq4te9q" class="animable"></path><path d="M418.58,328c-.44,4.22-3.16,8.69-6.07,10a3.37,3.37,0,0,1-2.13.28c-1-.88-1.54-2.66-1.29-5,.44-4.22,3.15-8.7,6.06-10a3.2,3.2,0,0,1,2.13-.28h0C418.3,323.81,418.83,325.59,418.58,328Z" style="fill: rgb(224, 224, 224); transform-origin: 413.835px 330.636px;" id="elia9vdziaiyr" class="animable"></path><path d="M432.66,320.28c0,11-6.1,23.69-14.26,30.72A51.85,51.85,0,0,0,430,328.53c1.55-7.34,1-17.88-5.33-20.54s-14.62,2.95-17.25,5.51a29.19,29.19,0,0,1,6.92-5.7C424.46,302,432.66,307.55,432.66,320.28Z" style="fill: rgb(69, 90, 100); transform-origin: 420.04px 328.251px;" id="el7bewqhg2dba" class="animable"></path><path d="M320,341.75l-76.84,65.11v23.4L161.27,383l-6.05-17.44a6.34,6.34,0,0,1,.1-3.84c1.89-6,5.54-9.29,14-15.91,14-10.95,53.39-39.16,60.51-44.32,0,0,11.87,7.79,36.34,19.7S320,341.75,320,341.75Z" style="fill: rgb(186, 104, 200); transform-origin: 237.485px 365.875px;" id="elcl8jhw07i59" class="animable"></path><g id="elws5fyph72d"><path d="M320,341.75l-76.84,65.11v23.4L161.27,383l-6.05-17.44a6.34,6.34,0,0,1,.1-3.84c1.89-6,5.54-9.29,14-15.91,14-10.95,53.39-39.16,60.51-44.32,0,0,11.87,7.79,36.34,19.7S320,341.75,320,341.75Z" style="fill: rgb(255, 255, 255); opacity: 0.15; transform-origin: 237.485px 365.875px;" class="animable"></path></g><path d="M252.7,433.33l-10.91,6.3a5.25,5.25,0,0,1-4.76,0c-29.8-14.24-55.76-29-77.1-44.52a5.22,5.22,0,0,1-2.38-4.12v-3.1a4.77,4.77,0,0,1,1.86-3.82l1.86-1.07a805.05,805.05,0,0,0,81.86,47.26l11.28-6.88Z" style="fill: rgb(224, 224, 224); transform-origin: 205.98px 411.6px;" id="el4j52dp1c3na" class="animable"></path><g id="ell3gyexdlkjl"><path d="M252.7,433.33l-10.91,6.3a5.25,5.25,0,0,1-4.76,0c-29.8-14.24-55.76-29-77.1-44.52a5.22,5.22,0,0,1-2.38-4.12v-3.1a4.77,4.77,0,0,1,1.86-3.82l1.86-1.07a805.05,805.05,0,0,0,81.86,47.26l11.28-6.88Z" style="opacity: 0.1; transform-origin: 205.98px 411.6px;" class="animable"></path></g><path d="M159.93,386.52A759.69,759.69,0,0,0,237,431a4.77,4.77,0,0,0,4.24.3l1.86-1.08A804.41,804.41,0,0,1,161.27,383l-1.86,1.07C158.38,384.67,158.61,385.76,159.93,386.52Z" style="fill: rgb(245, 245, 245); transform-origin: 200.933px 407.33px;" id="el1nqoh1vcb1z" class="animable"></path><path d="M243.14,430.26A804.52,804.52,0,0,1,161.27,383l-6.05-17.44q10.4,7.2,21,13.88l.36.86s12.35,7.81,22.38,13.6,17.34,9.53,17.34,9.53l-.38-1.31c6.33,3.22,15.35,7.67,21.8,10.61Z" style="fill: rgb(186, 104, 200); transform-origin: 199.18px 397.91px;" id="el8uv27uz4wjs" class="animable"></path><path d="M240.86,427.57a804,804,0,0,1-78.45-45.46l-4.52-13.05q8.72,5.94,17.57,11.51l1.2,2.83s12.93,8.19,23.44,14.26S221,409.08,221,409.08l-.93-3.28q8.24,4.15,16.51,7.93Z" style="fill: rgb(38, 50, 56); transform-origin: 199.375px 398.315px;" id="eldsfoq07j0d5" class="animable"></path><path d="M164,382l13.23,8.1c.18.1.24,0,.14-.33l-3.22-8.56a1.37,1.37,0,0,0-.47-.68l-13.78-8.77c-.19-.12-.25.07-.11.4l3.76,9.22A1.39,1.39,0,0,0,164,382Z" style="fill: rgb(224, 224, 224); transform-origin: 168.566px 380.93px;" id="elwzcfbh0lk8o" class="animable"></path><g id="elkirs3q068de"><path d="M166.07,382.45l7.92,4.91a10.59,10.59,0,0,1-3.53-5c-.72-2.06-.29-3.16.94-2.44l-8-5.05c1.26.73,2.87,3,3.6,5.12S167.34,383.18,166.07,382.45Z" style="opacity: 0.2; transform-origin: 168.695px 381.115px;" class="animable"></path></g><path d="M162.47,377.33c.73,2.1,2.34,4.39,3.6,5.12s1.7-.38,1-2.49-2.34-4.39-3.6-5.12S161.75,375.22,162.47,377.33Z" style="fill: rgb(255, 255, 255); transform-origin: 164.766px 378.645px;" id="elpxxmiddyee" class="animable"></path><path d="M163.49,378.42a5.18,5.18,0,0,0,1.72,2.45c.61.35.82-.18.47-1.19a5.22,5.22,0,0,0-1.73-2.46C163.34,376.87,163.14,377.41,163.49,378.42Z" style="fill: rgb(235, 235, 235); transform-origin: 164.584px 379.046px;" id="elpm7sr6j70xm" class="animable"></path><path d="M164.33,376.91a2.3,2.3,0,0,0,.77,1.1c.27.15.36-.08.2-.54a2.22,2.22,0,0,0-.77-1.09C164.26,376.22,164.17,376.46,164.33,376.91Z" style="fill: rgb(235, 235, 235); transform-origin: 164.815px 377.193px;" id="el79unlr1wo6q" class="animable"></path><path d="M170.46,382.33a10.59,10.59,0,0,0,3.53,5c1.24.72,1.66-.38.95-2.45s-2.3-4.31-3.54-5S169.74,380.27,170.46,382.33Z" style="fill: rgb(255, 255, 255); transform-origin: 172.697px 383.611px;" id="el5gayo69yz5" class="animable"></path><path d="M171.52,383.64a5.21,5.21,0,0,0,1.72,2.46c.61.35.82-.18.47-1.19a5.22,5.22,0,0,0-1.73-2.46C171.37,382.1,171.17,382.64,171.52,383.64Z" style="fill: rgb(235, 235, 235); transform-origin: 172.614px 384.276px;" id="eldw055vz7kfp" class="animable"></path><path d="M172.36,382.14a2.22,2.22,0,0,0,.77,1.09c.27.16.36-.08.2-.53a2.3,2.3,0,0,0-.77-1.1C172.29,381.45,172.2,381.69,172.36,382.14Z" style="fill: rgb(235, 235, 235); transform-origin: 172.845px 382.418px;" id="el5bmylk4og5u" class="animable"></path><path d="M238.31,424.88l-12.84-7a1.4,1.4,0,0,1-.49-.69L222.39,409c-.09-.28,0-.43.12-.35l13.08,6.75a1.38,1.38,0,0,1,.52.76l2.34,8.41C238.52,424.84,238.46,425,238.31,424.88Z" style="fill: rgb(224, 224, 224); transform-origin: 230.416px 416.775px;" id="ela5yqyc2rown" class="animable"></path><g id="ele2wajx59xlj"><path d="M235.65,422.61,228,418.55c1.24.72,1.66-.38.95-2.44s-2.3-4.32-3.54-5L233,415c-1.26-.72-1.69.39-1,2.5S234.38,421.89,235.65,422.61Z" style="opacity: 0.2; transform-origin: 230.53px 416.86px;" class="animable"></path></g><path d="M236.61,420.13c.73,2.1.3,3.21-1,2.48s-2.87-3-3.6-5.11-.3-3.22,1-2.5S235.89,418,236.61,420.13Z" style="fill: rgb(255, 255, 255); transform-origin: 234.31px 418.808px;" id="eldcgel2ght6e" class="animable"></path><path d="M236,420.3c.35,1,.14,1.55-.46,1.2a5.15,5.15,0,0,1-1.73-2.46c-.35-1-.14-1.54.46-1.19A5.17,5.17,0,0,1,236,420.3Z" style="fill: rgb(235, 235, 235); transform-origin: 234.905px 419.674px;" id="elyl09mhf98t" class="animable"></path><path d="M233.47,416.83c.16.45.07.69-.2.54a2.3,2.3,0,0,1-.77-1.1c-.16-.45-.07-.69.2-.53A2.22,2.22,0,0,1,233.47,416.83Z" style="fill: rgb(235, 235, 235); transform-origin: 232.985px 416.552px;" id="elbaafojkxjc7" class="animable"></path><path d="M229,416.11c.71,2.06.29,3.16-.95,2.44s-2.82-3-3.53-5-.29-3.16.94-2.44S228.25,414.05,229,416.11Z" style="fill: rgb(255, 255, 255); transform-origin: 226.76px 414.833px;" id="elmn3c1pta64e" class="animable"></path><path d="M228.52,416.56c.35,1,.14,1.54-.46,1.19a5.15,5.15,0,0,1-1.73-2.46c-.35-1-.14-1.54.46-1.19A5.15,5.15,0,0,1,228.52,416.56Z" style="fill: rgb(235, 235, 235); transform-origin: 227.425px 415.925px;" id="el428mqy1g6bh" class="animable"></path><path d="M226,413.08c.15.45.06.69-.21.54a2.37,2.37,0,0,1-.77-1.1c-.16-.45-.06-.69.21-.53A2.28,2.28,0,0,1,226,413.08Z" style="fill: rgb(235, 235, 235); transform-origin: 225.508px 412.802px;" id="el8i4xe1pwcxv" class="animable"></path><path d="M195.71,399.91c-7.17-4.15-17.12-10.82-17-10.58A176.86,176.86,0,0,0,195,400.22a5,5,0,0,1,1.66,2.36l.36,1.05.9.52-.36-1c-.34-1-.14-1.48.44-1.15,6.78,3.9,24.84,13.14,24.72,12.79s-19-10.21-26.09-14.31l-.38-1.1c-.26-.76-.11-1.15.34-.9,6.86,3.94,25.06,13.24,25,12.93-.05-.15-15.62-8.47-26.62-14.81s-17.45-10.72-17.41-10.61A188.51,188.51,0,0,0,194,397a3.82,3.82,0,0,1,1.29,1.83Z" style="fill: rgb(224, 224, 224); transform-origin: 200.14px 400.394px;" id="elb4hnp1b4te4" class="animable"></path><path d="M466.64,290.65c-.78,2.33-1.51,4.26-2,5.41-2.15,5-4.54,7.77-9.14,11s-20,14.94-20,14.94l-1.41.86-2.05-7.9h0l-1.47-5.67c-.74-2.84-3-3.68-5.58-2.1l-20.84,12.6c-2.66,1.61-5.16,5.34-6.23,9.33l-5.17,19.16-95.2,58.54v-.06l-2.42-8.27-1.64-5.59c-.93-3.14-3.61-4-6.73-2.1L264,404.61c-3.19,1.93-6.14,6.21-7.39,10.72l-2.22,8.05-11.28,6.88c-1.51-4.93-3.5-11.38-5.4-17.52a6.43,6.43,0,0,1,.4-4.05c2.51-6.42,6.77-10.28,16.47-18,15.76-12.46,58-43.51,65.38-49,0,0,10.67-26.17,15.35-38.84s5.44-11.33,13-14.64,52.39-20.27,63.23-18.49,19.08,11.06,26.41,8.56,25.78-8.15,31-8.75C473,269.12,469.46,282.34,466.64,290.65Z" style="fill: rgb(186, 104, 200); transform-origin: 354.164px 349.89px;" id="elujvouxhgty" class="animable"></path><g id="elfovf332cfxa"><g style="opacity: 0.1; transform-origin: 240.415px 379.02px;" class="animable"><path d="M215.93,400.82c4.72-11.85,31.13-31.12,42.15-38.95,2.27-1.55,4.53-3.13,6.82-4.65-10.92,8.35-21.92,16.6-32.34,25.56a153.83,153.83,0,0,0-11.9,11.36c-1.76,2.07-3.73,4.11-4.73,6.68Z" id="ela7582ceki2" class="animable" style="transform-origin: 240.415px 379.02px;"></path></g></g><g id="elxjpbhpakjq"><g style="opacity: 0.1; transform-origin: 196.535px 355.405px;" class="animable"><path d="M177.46,378.7c2.26-10.08,9.29-18.17,16.15-25.54,7.06-7.33,14.47-14.28,22-21.05-1.76,1.83-3.57,3.62-5.34,5.43-5.21,5.25-11,10.9-16,16.25-6.91,7.29-13.85,15.11-16.81,24.91Z" id="elfg03svtmm48" class="animable" style="transform-origin: 196.535px 355.405px;"></path></g></g><path d="M229.85,301.49s11.87,7.79,36.34,19.7S320,341.75,320,341.75" style="fill: rgb(186, 104, 200); transform-origin: 274.925px 321.62px;" id="elcy1kduq931" class="animable"></path><path d="M338.53,294.65l-1.42,3.68v0l-1.55,4c-.08.18-.15.38-.22.58l-15,37.95c-.23.58-.36.89-.36.89s-34.8-7.9-59.27-19.81-30.85-20.45-30.85-20.45v0L252,259.4l0,0s12.53,12.47,41.06,23.2S338.53,294.65,338.53,294.65Z" style="fill: rgb(38, 50, 56); transform-origin: 284.195px 300.575px;" id="eltpceo2ndvhe" class="animable"></path><path d="M314.27,337.28c-10.64-2.68-34.56-9.19-51.81-17.58-13.49-6.56-21.79-12.05-26.14-15.42a5.91,5.91,0,0,1-1.33-7.06l15.57-29.6c1.18-2.24,3.57-2.58,5.6-1.07,15.12,11.23,56.2,26.35,74.58,29.27,2.5.4,3.8,2.4,2.87,4.75L320.4,334.11A5.38,5.38,0,0,1,314.27,337.28Z" style="fill: rgb(55, 71, 79); transform-origin: 284.134px 301.519px;" id="el9fe4uxt6m9b" class="animable"></path><path d="M332.32,298.23a2.44,2.44,0,0,0-1.79-1.05c-15.91-2.53-47.84-13.9-66.41-24.06a100.91,100.91,0,0,1,8.93,8.74c7.73,8.51,14.09,18.12,20.5,27.63A131.07,131.07,0,0,1,302.8,325a74.67,74.67,0,0,1,3.44,8.71c3.12.85,6,1.59,8.36,2.2a3.39,3.39,0,0,0,.84.1,4.07,4.07,0,0,0,3.68-2.44l13.22-33.54A2.15,2.15,0,0,0,332.32,298.23Z" style="fill: rgb(69, 90, 100); transform-origin: 298.324px 304.565px;" id="elvpcf83lp919" class="animable"></path><path d="M419.71,272.45a32.35,32.35,0,0,0-8.15-2.68c-10.83-1.76-55.72,15.2-63.23,18.5-6.49,2.85-8,2.28-11.22,10.06l1.42-3.68s-16.94-1.35-45.46-12.1S252,259.35,252,259.35c2.16-4.58,4.21-4.56,9.8-7,7.79-3.39,68.35-22.19,81.25-20.48a57.68,57.68,0,0,1,10.59,2.51h0Z" style="fill: rgb(186, 104, 200); transform-origin: 335.855px 265.045px;" id="elydvsbecpc7f" class="animable"></path><g id="el0vzbrh9t2hbi"><path d="M419.71,272.45a32.35,32.35,0,0,0-8.15-2.68c-10.83-1.76-55.72,15.2-63.23,18.5-6.49,2.85-8,2.28-11.22,10.06l1.42-3.68s-16.94-1.35-45.46-12.1S252,259.35,252,259.35c2.16-4.58,4.21-4.56,9.8-7,7.79-3.39,68.35-22.19,81.25-20.48a57.68,57.68,0,0,1,10.59,2.51h0Z" style="fill: rgb(255, 255, 255); opacity: 0.4; transform-origin: 335.855px 265.045px;" class="animable"></path></g><path d="M466.65,290.65c-.79,2.33-1.52,4.26-2,5.41-2.14,5-4.54,7.77-9.13,11-4.75,3.37-20,14.94-20,14.94l-1.41.87L432.08,315h0l-1.47-5.67c-.74-2.84-3-3.68-5.58-2.11l-20.84,12.61c-2.66,1.61-5.16,5.34-6.24,9.33l-5.17,19.17-95.18,58.52,0-.05-2.42-8.26-1.64-5.6c-.93-3.14-3.61-4-6.73-2.1L264,404.61c-3.18,1.93-6.13,6.21-7.38,10.73l-2.22,8-11.27,6.88c-1.52-4.93-3.51-11.39-5.41-17.53a6.41,6.41,0,0,1,.4-4c2.51-6.42,6.77-10.28,16.47-18,15.76-12.47,58-43.5,65.37-49,0,0,.13-.31.36-.89,1.91-4.67,10.83-26.66,15-37.95.07-.2.14-.4.22-.58.57-1.53,1.07-2.84,1.55-4v0c3.25-7.78,4.73-7.21,11.22-10.06,7.51-3.3,52.4-20.26,63.23-18.5a32.35,32.35,0,0,1,8.15,2.68l1.23.59c6.45,3.16,12,7,17,5.3,7.29-2.48,25.79-8.14,31-8.75C473,269.12,469.46,282.34,466.65,290.65Z" style="fill: rgb(186, 104, 200); transform-origin: 354.168px 349.87px;" id="elqkt395y6c6" class="animable"></path><path d="M466.65,290.65c-.79,2.33-1.52,4.26-2,5.41-2.14,5-4.54,7.77-9.13,11-4.75,3.37-20,14.94-20,14.94l-1.41.87L432.08,315h0l-1.47-5.67c-.74-2.84-3-3.68-5.58-2.11l-20.84,12.61c-2.66,1.61-5.16,5.34-6.24,9.33l-5.17,19.17-95.18,58.52,0-.05-2.42-8.26-1.64-5.6c-.93-3.14-3.61-4-6.73-2.1L264,404.61c-3.18,1.93-6.13,6.21-7.38,10.73l-2.22,8-11.27,6.88c-1.52-4.93-3.51-11.39-5.41-17.53a6.41,6.41,0,0,1,.4-4c2.51-6.42,6.77-10.28,16.47-18,15.76-12.47,58-43.5,65.37-49,0,0,.13-.31.36-.89,1.91-4.67,15.14-38.35,15.22-38.53.57-1.53,1.07-2.84,1.55-4v0c3.25-7.78,4.73-7.21,11.22-10.06,7.51-3.3,52.4-20.26,63.23-18.5a32.35,32.35,0,0,1,8.15,2.68l1.23.59c6.45,3.16,12,7,17,5.3,7.29-2.48,25.79-8.14,31-8.75C473,269.12,469.46,282.34,466.65,290.65Z" style="fill: rgb(186, 104, 200); transform-origin: 354.168px 349.87px;" id="elpk3jcfsw3t" class="animable"></path><g id="elpryp6gsg2ag"><path d="M466.65,290.65c-.79,2.33-1.52,4.26-2,5.41-2.14,5-4.54,7.77-9.13,11-4.75,3.37-20,14.94-20,14.94l-1.41.87L432.08,315h0l-1.47-5.67c-.74-2.84-3-3.68-5.58-2.11l-20.84,12.61c-2.66,1.61-5.16,5.34-6.24,9.33l-5.17,19.17-95.18,58.52,0-.05-2.42-8.26-1.64-5.6c-.93-3.14-3.61-4-6.73-2.1L264,404.61c-3.18,1.93-6.13,6.21-7.38,10.73l-2.22,8-11.27,6.88c-1.52-4.93-3.51-11.39-5.41-17.53a6.41,6.41,0,0,1,.4-4c2.51-6.42,6.77-10.28,16.47-18,15.76-12.47,58-43.5,65.37-49,0,0,.13-.31.36-.89,1.91-4.67,15.14-38.35,15.22-38.53.57-1.53,1.07-2.84,1.55-4v0c3.25-7.78,4.73-7.21,11.22-10.06,7.51-3.3,52.4-20.26,63.23-18.5a32.35,32.35,0,0,1,8.15,2.68l1.23.59c6.45,3.16,12,7,17,5.3,7.29-2.48,25.79-8.14,31-8.75C473,269.12,469.46,282.34,466.65,290.65Z" style="opacity: 0.05; transform-origin: 354.168px 349.87px;" class="animable"></path></g><path d="M469.66,269.67a1.45,1.45,0,0,0-.72-.08c-5.19.61-23.69,6.27-31,8.75-5,1.72-10.57-2.14-17-5.3l-1.23-.59-66-38c6,2,10,3.5,16,1.92,10.47-2.76,20.58-6.22,27.66-7.86a1.46,1.46,0,0,1,.29,0,2,2,0,0,1,1,.25Z" style="fill: rgb(186, 104, 200); transform-origin: 411.685px 253.634px;" id="eldr5f94aa71" class="animable"></path><g id="elpr60xydvfza"><path d="M469.66,269.67a1.45,1.45,0,0,0-.72-.08c-5.19.61-23.69,6.27-31,8.75-5,1.72-10.57-2.14-17-5.3l-1.23-.59-66-38c6,2,10,3.5,16,1.92,10.47-2.76,20.58-6.22,27.66-7.86a1.46,1.46,0,0,1,.29,0,2,2,0,0,1,1,.25Z" style="fill: rgb(255, 255, 255); opacity: 0.15; transform-origin: 411.685px 253.634px;" class="animable"></path></g><path d="M388.92,286.12l-5.87,14.64a13.84,13.84,0,0,1-5.13,6.63l-54.17,32.12c2.93-7.21,10.47-25.89,14.26-36.17,2.74-7.42,3.32-7.76,4.2-8.27a28.67,28.67,0,0,1,2.88-1.3c.81-.32,1.71-.69,2.73-1.15,5.5-2.42,23.32-9.18,38.74-13.82C389.48,277.92,390.69,281.71,388.92,286.12Z" style="fill: rgb(38, 50, 56); transform-origin: 356.748px 309.091px;" id="el4k77epl5ux9" class="animable"></path><path d="M372.19,284.92,335.43,331l-8.88,5.26c3.54-8.75,9.49-23.61,12.74-32.44,2.57-6.95,3.1-7.25,3.61-7.54a22.76,22.76,0,0,1,2.66-1.2c.83-.33,1.76-.72,2.82-1.19C352.17,292.21,361.63,288.55,372.19,284.92Z" style="fill: rgb(69, 90, 100); transform-origin: 349.37px 310.59px;" id="elyji8jnue5me" class="animable"></path><path d="M377.1,307.88l.82-.49.14-.09a151.34,151.34,0,0,0-.25-25.74l-.89.3A151.32,151.32,0,0,1,377.1,307.88Z" id="ela2krawhu5sn" class="animable" style="transform-origin: 377.705px 294.72px;"></path><path d="M341.2,296c1.17,11.25-.35,24.38-2.09,34.42l1-.61c1.72-10.21,3.17-23.39,1.88-34.61A2.63,2.63,0,0,0,341.2,296Z" id="elqdua0m965lf" class="animable" style="transform-origin: 340.797px 312.81px;"></path><g id="elvfhnk4ym2fd"><path d="M402.18,288.53a46.18,46.18,0,0,0-8.85,7c-2.67,2.64-5.07,5.52-8.22,7.58,3.35-1.73,6-4.56,8.7-7.07,9.31-9.1,17.9-10.64,29.89-14l-5.52,1.07C412.66,284.3,407.15,285.73,402.18,288.53ZM432.08,315c11.84-7.58,23.42-15.74,34.56-24.34C454.79,298.25,443.22,306.4,432.08,315ZM382.29,330.1c.28-7.52.47-15.15-.92-22.58a164.46,164.46,0,0,1,0,22.53c-.28,5.45-.61,10.9-1.2,16.32-19.2,11.44-39.1,23.54-58.37,35.48.85-5.35,1.23-10.78,1.56-16.18.26-7.69.44-15.5-1.05-23.08a161.06,161.06,0,0,1,.14,23c-.27,5.52-.6,11.05-1.19,16.55-8.89,5.51-17.64,11-26.13,16.35,8.5-5,17.23-10.19,26-15.48q-.31,2.79-.73,5.56c.49-1.94.88-3.89,1.22-5.85,19.49-11.7,39.42-23.9,58.45-35.78q-.31,2.77-.73,5.53c.49-1.93.89-3.88,1.22-5.84q7.71-4.82,15.19-9.54-7.46,4.38-15.1,8.93C381.56,340.78,382,335.43,382.29,330.1Z" style="opacity: 0.2; transform-origin: 380.885px 340.265px;" class="animable"></path></g><polygon points="377.67 248.24 389.45 255.02 425.61 244.28 413.84 237.49 377.67 248.24" style="fill: rgb(255, 255, 255); transform-origin: 401.64px 246.255px;" id="ell5pwtekb4o" class="animable"></polygon><polygon points="449.72 258.18 438.13 251.49 399.82 261 411.42 267.68 449.72 258.18" style="fill: rgb(255, 255, 255); transform-origin: 424.77px 259.585px;" id="el6xl8xdyea7q" class="animable"></polygon><g id="elfk5lr3uhrde"><path d="M396.47,305.22c-11.6,10.77-9.74,11.14-14.72,14.3s-51.62,30.44-59.1,34.75-32.37,21.12-54.25,36.65-29,19.42-27.54,25.93c.74,3.31,2.28,8.4,3.61,12.6l9.94-6.07,2.22-8.05c1.25-4.51,4.2-8.79,7.39-10.72l22.76-13.77c3.12-1.89,5.8-1,6.73,2.1l1.64,5.59,2.42,8.27v.06l95.2-58.54L398,329.16c1.07-4,3.57-7.72,6.23-9.33L425,307.23c2.61-1.58,4.84-.74,5.58,2.1l1.47,5.67h0l2.05,7.9,1.41-.86s15.23-11.57,20-14.94,7-6.06,9.14-11c.49-1.15,1.22-3.08,2-5.41a105.66,105.66,0,0,0,3.48-12.52C432.06,285.84,408,294.51,396.47,305.22Z" style="opacity: 0.1; transform-origin: 355.404px 353.81px;" class="animable"></path></g><path d="M283.08,331.05C270,339,237.54,367.21,226.73,378.7c-11.13,11.83-15.1,22.15-15.1,22.15v3.22L202.36,399v-3.14s4-10.32,15.11-22.16c10.4-11,40.84-37.62,54.77-46.65C275.82,328.45,279.47,329.79,283.08,331.05Z" style="fill: rgb(250, 250, 250); transform-origin: 242.72px 365.56px;" id="elq2fsitf6t0j" class="animable"></path><path d="M257.37,320.29c-14.69,10.14-42.75,34.71-52.64,45.24-11.13,11.83-15.1,22.83-15.1,22.83v3l-9.27-5.67v-3.07s4-10.32,15.1-22.16c9.9-10.51,38-35.1,52.66-45.23C250.82,316.84,253.89,318.53,257.37,320.29Z" style="fill: rgb(250, 250, 250); transform-origin: 218.865px 353.295px;" id="elgb43bu7p5no" class="animable"></path><path d="M403.16,306.1c-9.11,4.64-11,8.42-12.29,13s.27,17.81.27,17.81,2-15.28,8.68-22.22c7.61-7.86,22.85-15.31,22.85-15.31S410.24,302.5,403.16,306.1Z" style="fill: rgb(186, 104, 200); transform-origin: 406.515px 318.145px;" id="el2g2zxbgl7pr" class="animable"></path></g></g><g id="freepik--speech-bubble--inject-23" class="animable" style="transform-origin: 343.25px 164.31px;"><g id="freepik--speech-bubble--inject-23" class="animable" style="transform-origin: 343.25px 164.31px;"><g id="freepik--speech-bubble--inject-23" class="animable" style="transform-origin: 343.25px 164.31px;"><path d="M342.41,191.64,341,187.2c-.77-3.58,13.87,4.87,14.63,8.45l-4.71,12.7a2,2,0,0,1-.79.92c-1,.64-4.85,2.79-5.18,3a2,2,0,0,1-3-1.12l-6.11-20.95C335.43,188.42,338.8,189.58,342.41,191.64Z" style="fill: rgb(186, 104, 200); transform-origin: 345.718px 199.461px;" id="elkv974ha25t9" class="animable"></path><g id="elo1pfgoqzj0e"><path d="M342.41,191.64,341,187.2c-.77-3.58,13.87,4.87,14.63,8.45l-4.71,12.7a2,2,0,0,1-.79.92c-1,.64-4.85,2.79-5.18,3a2,2,0,0,1-3-1.12l-6.11-20.95C335.43,188.42,338.8,189.58,342.41,191.64Z" style="opacity: 0.15; transform-origin: 345.718px 199.461px;" class="animable"></path></g><path d="M349.64,200.49l-3.91,10.85a2,2,0,0,1-3.81-.2L336.72,193Z" style="fill: rgb(186, 104, 200); transform-origin: 343.18px 202.82px;" id="el6flfjla0r14" class="animable"></path><g id="el96g0krobh65"><path d="M349.64,200.49l-3.91,10.85a2,2,0,0,1-3.81-.2L336.72,193Z" style="fill: rgb(255, 255, 255); opacity: 0.35; transform-origin: 343.18px 202.82px;" class="animable"></path></g><path d="M332.2,121.06c5.5-3.12,13.06-2.65,21.41,2.18C370.4,132.93,384,156.52,384,175.92c0,9.68-3.4,16.49-8.9,19.67l-10.39,6c-5.5,3.16-13.09,2.7-21.48-2.14-16.8-9.7-30.41-33.28-30.41-52.68,0-9.67,3.38-16.47,8.86-19.65C324,125.76,329.88,122.38,332.2,121.06Z" style="fill: rgb(186, 104, 200); transform-origin: 348.41px 161.343px;" id="elal1pf2tg9hv" class="animable"></path><g id="elx57vc5vwdc"><path d="M339.67,197.12a.33.33,0,0,0,.1.06,41.12,41.12,0,0,0,3.48,2.25c8.39,4.84,16,5.3,21.48,2.13,2.3-1.31,8.1-4.65,10.39-6,5.5-3.18,8.9-10,8.9-19.67,0-1.34-.07-2.7-.2-4.07a.76.76,0,0,0,0-.15C369.17,180.12,353.7,189,339.67,197.12Z" style="opacity: 0.15; transform-origin: 361.845px 187.624px;" class="animable"></path></g><g id="elad060hund5"><ellipse cx="343.25" cy="164.31" rx="24.83" ry="43.01" style="fill: rgb(186, 104, 200); transform-origin: 343.25px 164.31px; transform: rotate(-30deg);" class="animable"></ellipse></g><g id="elw2wz884gh7o"><ellipse cx="343.25" cy="164.31" rx="24.83" ry="43.01" style="fill: rgb(255, 255, 255); opacity: 0.35; transform-origin: 343.25px 164.31px; transform: rotate(-30deg);" class="animable"></ellipse></g></g><path id="freepik--Heart--inject-23" d="M359.76,169a25,25,0,0,0-2-9.7h0l0-.07c-1.51-3.5-3.71-6.45-6.17-7.89-4.21-2.48-7.72,2.61-8.28,8.58-.5-6.59-3.94-15.76-8.16-18.22-2.45-1.44-4.67-1.08-6.2.64l0,0h0c-1.31,1.5-2.12,4-2.13,7.25-.05,10.11,6,19.24,11,28.85l5.45,9.29,5.27-3C353.61,181.15,359.71,179.13,359.76,169Z" style="fill: rgb(250, 250, 250); transform-origin: 343.29px 164.268px;" class="animable"></path></g></g><defs>     <filter id="active" height="200%">         <feMorphology in="SourceAlpha" result="DILATED" operator="dilate" radius="2"></feMorphology>                <feFlood flood-color="#32DFEC" flood-opacity="1" result="PINK"></feFlood>        <feComposite in="PINK" in2="DILATED" operator="in" result="OUTLINE"></feComposite>        <feMerge>            <feMergeNode in="OUTLINE"></feMergeNode>            <feMergeNode in="SourceGraphic"></feMergeNode>        </feMerge>    </filter>    <filter id="hover" height="200%">        <feMorphology in="SourceAlpha" result="DILATED" operator="dilate" radius="2"></feMorphology>                <feFlood flood-color="#ff0000" flood-opacity="0.5" result="PINK"></feFlood>        <feComposite in="PINK" in2="DILATED" operator="in" result="OUTLINE"></feComposite>        <feMerge>            <feMergeNode in="OUTLINE"></feMergeNode>            <feMergeNode in="SourceGraphic"></feMergeNode>        </feMerge>            <feColorMatrix type="matrix" values="0   0   0   0   0                0   1   0   0   0                0   0   0   0   0                0   0   0   1   0 "></feColorMatrix>    </filter></defs></svg>