<svg class="animated" id="freepik_stories-film-rolls" xmlns="http://www.w3.org/2000/svg" viewBox="0 0 500 500" version="1.1" xmlns:xlink="http://www.w3.org/1999/xlink" xmlns:svgjs="http://svgjs.com/svgjs"><style>svg#freepik_stories-film-rolls:not(.animated) .animable {opacity: 0;}svg#freepik_stories-film-rolls.animated #freepik--film-roll--inject-11 {animation: 1.5s Infinite  linear heartbeat;animation-delay: 0s;}            @keyframes heartbeat {                0% {                    transform: scale(1);                }                10% {                    transform: scale(1.1);                }                30% {                    transform: scale(1);                }                40% {                    transform: scale(1);                }                50% {                    transform: scale(1.1);                }                60% {                    transform: scale(1);                }                100% {                    transform: scale(1);                }            }        </style><g id="freepik--background-complete--inject-11" class="animable" style="transform-origin: 250px 228.23px;"><rect y="382.4" width="500" height="0.25" style="fill: rgb(235, 235, 235); transform-origin: 250px 382.525px;" id="eljo6etkhl57" class="animable"></rect><rect x="416.78" y="398.49" width="33.12" height="0.25" style="fill: rgb(235, 235, 235); transform-origin: 433.34px 398.615px;" id="elvapdt8ou86" class="animable"></rect><rect x="322.53" y="401.21" width="8.69" height="0.25" style="fill: rgb(235, 235, 235); transform-origin: 326.875px 401.335px;" id="elbrledvbvrvi" class="animable"></rect><rect x="396.59" y="389.21" width="19.19" height="0.25" style="fill: rgb(235, 235, 235); transform-origin: 406.185px 389.335px;" id="eldy8pxec8w7r" class="animable"></rect><rect x="52.46" y="390.89" width="43.19" height="0.25" style="fill: rgb(235, 235, 235); transform-origin: 74.055px 391.015px;" id="elpq5vpcr3trp" class="animable"></rect><rect x="104.56" y="390.89" width="6.33" height="0.25" style="fill: rgb(235, 235, 235); transform-origin: 107.725px 391.015px;" id="elql6lf96zf8c" class="animable"></rect><rect x="131.47" y="395.11" width="93.68" height="0.25" style="fill: rgb(235, 235, 235); transform-origin: 178.31px 395.235px;" id="eljgic97op30p" class="animable"></rect><path d="M237,337.8H43.91a5.71,5.71,0,0,1-5.7-5.71V60.66A5.71,5.71,0,0,1,43.91,55H237a5.71,5.71,0,0,1,5.71,5.71V332.09A5.71,5.71,0,0,1,237,337.8ZM43.91,55.2a5.46,5.46,0,0,0-5.45,5.46V332.09a5.46,5.46,0,0,0,5.45,5.46H237a5.47,5.47,0,0,0,5.46-5.46V60.66A5.47,5.47,0,0,0,237,55.2Z" style="fill: rgb(235, 235, 235); transform-origin: 140.46px 196.4px;" id="elm5tdq2aj7jk" class="animable"></path><path d="M453.31,337.8H260.21a5.72,5.72,0,0,1-5.71-5.71V60.66A5.72,5.72,0,0,1,260.21,55h193.1A5.71,5.71,0,0,1,459,60.66V332.09A5.71,5.71,0,0,1,453.31,337.8ZM260.21,55.2a5.47,5.47,0,0,0-5.46,5.46V332.09a5.47,5.47,0,0,0,5.46,5.46h193.1a5.47,5.47,0,0,0,5.46-5.46V60.66a5.47,5.47,0,0,0-5.46-5.46Z" style="fill: rgb(235, 235, 235); transform-origin: 356.75px 196.4px;" id="elc6ecgxvb5df" class="animable"></path><rect x="318.45" y="123.4" width="96.96" height="121.34" style="fill: rgb(245, 245, 245); transform-origin: 366.93px 184.07px;" id="el1ond7bdqq68" class="animable"></rect><polygon points="351.43 136.3 351.43 189.65 373.85 188.46 376.42 136.3 351.43 136.3" style="fill: rgb(235, 235, 235); transform-origin: 363.925px 162.975px;" id="elmld4469cd0k" class="animable"></polygon><polygon points="369.58 146.63 404.07 146.63 403.77 193.33 385.91 193.59 369.58 146.63" style="fill: rgb(224, 224, 224); transform-origin: 386.825px 170.11px;" id="el6krulpl56wg" class="animable"></polygon><polygon points="336 139.75 345.07 139.75 341.9 181.41 330.55 184.07 336 139.75" style="fill: rgb(230, 230, 230); transform-origin: 337.81px 161.91px;" id="ely6kbndbrrw" class="animable"></polygon><rect x="82.66" y="123.4" width="96.96" height="121.34" style="fill: rgb(245, 245, 245); transform-origin: 131.14px 184.07px;" id="ele9zf8yot77h" class="animable"></rect><polygon points="127.49 138.41 164.3 205.05 98.67 214.69 127.49 138.41" style="fill: rgb(224, 224, 224); transform-origin: 131.485px 176.55px;" id="el4btv34ps8n6" class="animable"></polygon><polygon points="169.97 133.48 97.96 235.73 144.15 235.73 92.64 144.25 92.64 198.37 167.74 175.05 169.97 133.48" style="fill: rgb(235, 235, 235); transform-origin: 131.305px 184.605px;" id="el8nipeuev127" class="animable"></polygon><g id="eljj2l8dostxa"><rect x="200.55" y="123.4" width="96.96" height="121.34" style="fill: rgb(230, 230, 230); transform-origin: 249.03px 184.07px; transform: rotate(180deg);" class="animable"></rect></g><polygon points="222.74 214.68 273.69 163.18 218.57 153.82 222.74 214.68" style="fill: rgb(224, 224, 224); transform-origin: 246.13px 184.25px;" id="elh01f746oyya" class="animable"></polygon><polygon points="272.46 202.47 274.99 162.98 236.62 172.67 233.84 202.89 272.46 202.47" style="fill: rgb(240, 240, 240); transform-origin: 254.415px 182.935px;" id="eliwpqb74dzj" class="animable"></polygon><ellipse cx="222.28" cy="146.9" rx="15.49" ry="15.93" style="fill: rgb(250, 250, 250); transform-origin: 222.28px 146.9px;" id="elhro9j39dhsc" class="animable"></ellipse><path d="M267.45,216.56a7.51,7.51,0,1,1,7.51,7.72A7.63,7.63,0,0,1,267.45,216.56Z" style="fill: rgb(224, 224, 224); transform-origin: 274.958px 216.77px;" id="ellpniuayz1aj" class="animable"></path><polygon points="273.18 230.13 251.49 216.56 269.72 201.11 273.18 230.13" style="fill: rgb(245, 245, 245); transform-origin: 262.335px 215.62px;" id="ellmnwoz84unl" class="animable"></polygon><rect x="243.3" y="138.83" width="4.26" height="96.89" style="fill: rgb(224, 224, 224); transform-origin: 245.43px 187.275px;" id="elrlyzo8lgaos" class="animable"></rect><rect x="282.9" y="138.83" width="5.52" height="92.61" style="fill: rgb(235, 235, 235); transform-origin: 285.66px 185.135px;" id="el5iwafgb5j9d" class="animable"></rect><rect x="210.29" y="202.89" width="28.18" height="28.99" style="fill: rgb(235, 235, 235); transform-origin: 224.38px 217.385px;" id="elc3uh8b5it1v" class="animable"></rect><path d="M82.41,319.37h59.72a3.4,3.4,0,0,1,3.4,3.4v11.69a0,0,0,0,1,0,0H79a0,0,0,0,1,0,0V322.78A3.4,3.4,0,0,1,82.41,319.37Z" style="fill: rgb(235, 235, 235); transform-origin: 112.265px 326.915px;" id="eln2uo8vmiwpk" class="animable"></path><path d="M150.79,319.37h59.72a3.4,3.4,0,0,1,3.4,3.4v11.69a0,0,0,0,1,0,0H147.39a0,0,0,0,1,0,0V322.78A3.4,3.4,0,0,1,150.79,319.37Z" style="fill: rgb(235, 235, 235); transform-origin: 180.65px 326.915px;" id="el8l2q59vam27" class="animable"></path><path d="M219.18,319.37h59.72a3.4,3.4,0,0,1,3.4,3.4v11.69a0,0,0,0,1,0,0H215.78a0,0,0,0,1,0,0V322.78A3.4,3.4,0,0,1,219.18,319.37Z" style="fill: rgb(235, 235, 235); transform-origin: 249.04px 326.915px;" id="el1dp0cpufhja" class="animable"></path><path d="M287.56,319.37h59.72a3.4,3.4,0,0,1,3.4,3.4v11.69a0,0,0,0,1,0,0H284.16a0,0,0,0,1,0,0V322.78A3.4,3.4,0,0,1,287.56,319.37Z" style="fill: rgb(235, 235, 235); transform-origin: 317.42px 326.915px;" id="ellpg87du6a9g" class="animable"></path><path d="M355.95,319.37h59.72a3.4,3.4,0,0,1,3.4,3.4v11.69a0,0,0,0,1,0,0H352.55a0,0,0,0,1,0,0V322.78A3.4,3.4,0,0,1,355.95,319.37Z" style="fill: rgb(235, 235, 235); transform-origin: 385.81px 326.915px;" id="elwwqx9vvlphd" class="animable"></path><rect x="72.01" y="327.61" width="354.04" height="12.35" style="fill: rgb(224, 224, 224); transform-origin: 249.03px 333.785px;" id="elilf3assi1b" class="animable"></rect><path d="M434.55,383.21h-5V345.73a5.69,5.69,0,0,0-5.68-5.68H74.2a5.69,5.69,0,0,0-5.68,5.68v37.48h-5V345.73A10.69,10.69,0,0,1,74.2,335.05H423.87a10.69,10.69,0,0,1,10.68,10.68Z" style="fill: rgb(224, 224, 224); transform-origin: 249.035px 359.13px;" id="ell9rkxqeyzpg" class="animable"></path><rect x="246.54" y="333.79" width="5" height="49.42" style="fill: rgb(224, 224, 224); transform-origin: 249.04px 358.5px;" id="elk9jmarul1c" class="animable"></rect></g><g id="freepik--Shadow--inject-11" class="animable" style="transform-origin: 250px 416.24px;"><ellipse id="freepik--path--inject-11" cx="250" cy="416.24" rx="193.89" ry="11.32" style="fill: rgb(245, 245, 245); transform-origin: 250px 416.24px;" class="animable"></ellipse></g><g id="freepik--film-roll--inject-11" class="animable animator-active" style="transform-origin: 274.588px 222.583px;"><path d="M361.85,249.28c-3.44-48.15-35.43-85.11-71.44-82.53-1.21.08-2.4.22-3.59.39h-.08c-36,2.58-62.41,43.7-59,91.86s35.42,85.11,71.43,82.54c1.21-.09,2.41-.22,3.6-.4h.08C338.89,338.57,365.29,297.44,361.85,249.28Zm-11.41,1.17c.71,10.35-4.39,19.31-11.72,21.31-8-.39-14.75-8.83-15.5-19.62-.72-10.35,4.38-19.31,11.71-21.3C342.88,231.23,349.69,239.66,350.44,250.45Zm-32.9-64.3c7.75,5.29,11.08,17.79,7.43,27.91-2.07,5.75-6,9.49-10.33,10.69a13,13,0,0,1-6.64-2.34c-7.75-5.29-11.07-17.78-7.43-27.9,2.07-5.75,5.95-9.5,10.34-10.69A12.92,12.92,0,0,1,317.54,186.15Zm-28.2,82a4.77,4.77,0,0,1,.1-2.78,3.9,3.9,0,0,1,.4-.79,4.57,4.57,0,0,1,.88,4.56,3.23,3.23,0,0,1-.39.79A4,4,0,0,1,289.34,268.15Zm3-13.9a6.2,6.2,0,0,1,2-5.29,6.1,6.1,0,0,1,2.94,5.07,6.18,6.18,0,0,1-2,5.29A6.09,6.09,0,0,1,292.35,254.25Zm7.92-14.12a4.69,4.69,0,0,1-.1,2.78,3.23,3.23,0,0,1-.39.79,4.57,4.57,0,0,1-.89-4.56,3.9,3.9,0,0,1,.4-.79A4,4,0,0,1,300.27,240.13Zm-61.09,17.7c-.72-10.35,4.38-19.31,11.71-21.31,8,.39,14.76,8.83,15.51,19.62.71,10.35-4.39,19.31-11.71,21.31C246.73,277.05,239.93,268.62,239.18,257.83Zm32.9,64.3c-7.75-5.29-11.08-17.79-7.43-27.91,2.07-5.75,6-9.49,10.33-10.69a13,13,0,0,1,6.63,2.34c7.75,5.29,11.08,17.78,7.43,27.91-2.07,5.75-6,9.49-10.33,10.68A12.92,12.92,0,0,1,272.08,322.13ZM288.7,240a4.65,4.65,0,0,1,.48,2.74,4,4,0,0,1-.62,1.73,3.68,3.68,0,0,1-.63-.85,4.86,4.86,0,0,1-.48-2.75,4,4,0,0,1,.62-1.73A3.3,3.3,0,0,1,288.7,240Zm-4.06,14.92a4.34,4.34,0,0,1-.63,2.65,4.16,4.16,0,0,1-1.14-2.68,4.33,4.33,0,0,1,.63-2.64A4.14,4.14,0,0,1,284.64,254.9ZM280.88,196c5,9.53,3.43,22.36-3.52,28.64a13.1,13.1,0,0,1-5.33,3c-4.83-.25-9.6-3.48-12.65-9.27-5-9.54-3.43-22.36,3.52-28.65a13.08,13.08,0,0,1,5.33-3C273.06,187,277.83,190.2,280.88,196Zm20,72.32a4.62,4.62,0,0,1,.15-4.48,3.51,3.51,0,0,1,.62.86,4.65,4.65,0,0,1,.48,2.74,4,4,0,0,1-.62,1.73A4,4,0,0,1,300.91,268.31ZM305,253.38a4.3,4.3,0,0,1,.64-2.65,4.27,4.27,0,0,1,1.14,2.68,4.31,4.31,0,0,1-.64,2.65A4.27,4.27,0,0,1,305,253.38Zm3.77,58.91c-5-9.53-3.44-22.36,3.51-28.64a13.09,13.09,0,0,1,5.33-3c4.84.24,9.61,3.47,12.65,9.26,5,9.54,3.44,22.36-3.51,28.65a13.14,13.14,0,0,1-5.33,3C316.55,321.31,311.78,318.09,308.74,312.29Z" style="fill: rgb(245, 64, 255); transform-origin: 294.798px 254.145px;" id="elfd7tqih09x5" class="animable"></path><g id="elk81jw2i6qh"><path d="M290.41,166.75c-36,2.57-62.41,43.7-59,91.85s35.43,85.11,71.44,82.54,62.41-43.7,59-91.86S326.42,164.17,290.41,166.75Zm10.16,27.76c3.65-10.12,12.89-14,20.64-8.75s11.08,17.78,7.43,27.9-12.88,14-20.63,8.75S296.93,204.63,300.57,194.51Zm9.85,58.5c.14,2-1,3.72-2.46,3.83h0c-1.5.1-2.84-1.45-3-3.46s1-3.72,2.47-3.83S310.28,251,310.42,253Zm-11.53-13.87a2.71,2.71,0,0,1,2.22-2,2.21,2.21,0,0,1,1.42.42,3.62,3.62,0,0,1,1.41,2.14,4.7,4.7,0,0,1-.09,2.78,2.7,2.7,0,0,1-2.22,1.95,2.19,2.19,0,0,1-1.43-.41A4.41,4.41,0,0,1,298.89,239.14Zm-6.52.44a4.75,4.75,0,0,1,.49,2.74,3.64,3.64,0,0,1-1.11,2.31,2.16,2.16,0,0,1-1.33.6,2.73,2.73,0,0,1-2.49-1.63,4.86,4.86,0,0,1-.48-2.75,3.74,3.74,0,0,1,1.1-2.31,2.27,2.27,0,0,1,1.34-.6A2.7,2.7,0,0,1,292.37,239.58ZM262.9,189.7c7-6.28,16.64-3.65,21.65,5.89S288,218,281,224.24s-16.65,3.64-21.66-5.89S256,196,262.9,189.7Zm25.42,64.81c.14,2-1,3.72-2.47,3.82h0c-1.51.11-2.84-1.45-3-3.46s1-3.72,2.46-3.82S288.18,252.5,288.32,254.51Zm-49.14,3.32c-.79-11.4,5.48-21.12,14-21.7s16.09,8.21,16.88,19.61-5.48,21.12-14,21.7S240,269.24,239.18,257.83Zm53.54,55.55c-3.65,10.12-12.89,14-20.64,8.75s-11.08-17.79-7.43-27.91,12.88-14,20.63-8.75S296.36,303.26,292.72,313.38Zm1.68-44.63a2.72,2.72,0,0,1-2.22,1.95,2.2,2.2,0,0,1-1.42-.41,3.68,3.68,0,0,1-1.42-2.14,4.77,4.77,0,0,1,.1-2.78,2.71,2.71,0,0,1,2.22-2,2.31,2.31,0,0,1,1.43.41A4.42,4.42,0,0,1,294.4,268.75Zm-2-14.5c-.23-3.17,1.51-5.88,3.88-6.05s4.48,2.26,4.71,5.44-1.51,5.88-3.88,6.05S292.57,257.42,292.35,254.25Zm8.56,14.06a4.42,4.42,0,0,1,.62-5.06,2.27,2.27,0,0,1,1.34-.6,2.72,2.72,0,0,1,2.49,1.64,4.82,4.82,0,0,1,.48,2.74,3.69,3.69,0,0,1-1.1,2.31,2.21,2.21,0,0,1-1.34.6A2.73,2.73,0,0,1,300.91,268.31Zm29.48,49.87c-6.95,6.29-16.64,3.65-21.65-5.89s-3.44-22.36,3.51-28.64,16.65-3.65,21.65,5.89S337.34,311.9,330.39,318.18Zm9.71-46.43c-8.53.58-16.09-8.2-16.88-19.61s5.48-21.12,14-21.69,16.09,8.2,16.88,19.6S348.63,271.17,340.1,271.75Z" style="opacity: 0.2; transform-origin: 296.63px 253.945px;" class="animable"></path></g><g id="el9a21ttexiji"><path d="M316.61,153.17c59.79,5.47,64,80.3,60.05,109l-31-9.66s-6-89.91-65.78-95.38c0,0-5.91-.74-17.06,1.17A222.51,222.51,0,0,1,313.39,153" style="fill: rgb(250, 250, 250); opacity: 0.2; transform-origin: 320.278px 207.579px;" class="animable"></path></g><path d="M316.61,153.17c59.79,5.47,64,80.3,60.05,109l-31-9.66s-6-89.91-65.78-95.38c0,0-5.91-.74-17.06,1.17A222.51,222.51,0,0,1,313.39,153" style="fill: rgb(38, 50, 56); transform-origin: 320.278px 207.579px;" id="elwjqossmip7r" class="animable"></path><path d="M313.39,153c-6.43-.14-12.74.11-18.61.57a42.45,42.45,0,0,0-4.81,2c-2.22.13-4.39.28-6.48.45,1.13-.63,2.3-1.2,3.49-1.73a216.18,216.18,0,0,0-24.16,4h.06c-50.4,12.4-55,103.25-84,96.5l.47.15s18,7,37.13,5.14l-.6-.15c30.24,3,34.95-109,97.58-107Zm-57.55,8c1.42-.24,2.92-.49,4.49-.72a54.7,54.7,0,0,0-5.3,3.58h0c-1.64.28-3.19.58-4.6.87A59.88,59.88,0,0,1,255.84,161Zm-7.18,5.14c1.37-.25,2.84-.49,4.39-.73-1.28,1.06-2.54,2.17-3.74,3.33h0c-1.64.29-3.16.57-4.55.85C246,168.41,247.31,167.25,248.66,166.15Zm-5.26,4.78c1.38-.24,2.85-.48,4.41-.71-1,1-2,2.1-3,3.21-1.64.27-3.16.55-4.53.81Q241.79,172.53,243.4,170.93Zm-4.28,4.61h0l4.42-.69c-.86,1-1.71,2-2.54,3.1-1.63.26-3.15.52-4.54.77C237.34,177.64,238.22,176.58,239.12,175.54Zm-3.68,4.51c1.39-.22,2.87-.43,4.45-.65q-1.12,1.48-2.22,3c-1.62.23-3.14.47-4.53.7C233.88,182.08,234.65,181.06,235.44,180.05Zm-3.29,4.46c1.41-.2,2.9-.4,4.47-.58-.67,1-1.33,1.95-2,2.95h0c-1.62.21-3.15.44-4.55.65C230.77,186.5,231.46,185.5,232.15,184.51Zm-3,4.42c1.41-.17,2.91-.34,4.49-.5-.62.95-1.22,1.92-1.81,2.9-1.61.17-3.13.37-4.54.55C227.92,190.89,228.54,189.91,229.17,188.93Zm-2.78,4.45c1.42-.16,2.92-.31,4.5-.44-.57.94-1.11,1.89-1.66,2.84-1.61.16-3.12.32-4.54.49Zm-2.59,4.45c1.42-.14,2.92-.27,4.49-.37-.53.93-1,1.87-1.55,2.81-1.6.12-3.11.27-4.55.41C222.72,199.72,223.25,198.78,223.8,197.83Zm-27.58,55.72-4.48-.44a25.22,25.22,0,0,0,2.53-2.45c1.4.15,2.89.29,4.44.42A28.91,28.91,0,0,1,196.22,253.55Zm4.75-5.2-4.44-.35c.62-.81,1.25-1.66,1.87-2.56l4.42.34C202.21,246.68,201.6,247.54,201,248.35Zm3.66-5.34c-1.56-.09-3-.19-4.46-.26q.79-1.26,1.59-2.61l4.45.27C205.68,241.3,205.15,242.17,204.63,243Zm3.15-5.37-4.47-.19c.48-.85,1-1.73,1.45-2.63l4.45.19C208.74,235.9,208.26,236.78,207.78,237.64Zm2.88-5.38-4.49-.11c.45-.87.91-1.75,1.36-2.66l4.48.12C211.55,230.51,211.11,231.39,210.66,232.26Zm2.71-5.37-4.5,0c.44-.89.89-1.77,1.33-2.68l4.49,0C214.24,225.11,213.8,226,213.37,226.89Zm2.64-5.35c-1.6,0-3.1,0-4.53.05.45-.89.89-1.8,1.34-2.7,1.43,0,2.92,0,4.5-.06Zm2.6-5.34-4.52.14c.44-.91.9-1.82,1.37-2.74l4.49-.13Zm2.63-5.33-4.53.24,1.41-2.77c1.43-.08,2.93-.15,4.51-.21C222.16,209,221.7,210,221.24,210.87Zm-1.85-5q.74-1.41,1.5-2.82c1.43-.1,2.93-.2,4.5-.29-.49.93-1,1.85-1.46,2.78C222.33,205.67,220.82,205.77,219.39,205.9Zm3.36,49.64-4.91-.29a20.23,20.23,0,0,0,3.12-2.5l4.78.26A19.78,19.78,0,0,1,222.75,255.54Zm5.58-5.46-4.71-.26c.64-.8,1.29-1.67,1.92-2.59,1.52.1,3.09.18,4.69.26C229.6,248.41,229,249.27,228.33,250.08Zm3.8-5.57-4.66-.24q.76-1.26,1.53-2.61l4.65.24C233.14,242.8,232.64,243.67,232.13,244.51Zm3.14-5.6-4.65-.23c.46-.86.91-1.73,1.36-2.62l4.63.23C236.17,237.18,235.72,238.06,235.27,238.91Zm2.79-5.61-4.63-.22c.42-.86.84-1.75,1.25-2.64,1.51.08,3.06.14,4.63.23C238.89,231.56,238.48,232.44,238.06,233.3Zm2.61-5.63-4.62-.2,1.2-2.64,4.62.21C241.47,225.93,241.07,226.8,240.67,227.67ZM243.2,222l-4.63-.18,1.17-2.65c1.51.06,3,.12,4.62.2Zm2.48-5.63-4.64-.16c.39-.88.79-1.76,1.18-2.66l4.64.18Zm2.51-5.62c-1.58,0-3.13-.11-4.66-.14.41-.88.81-1.77,1.21-2.65l4.65.15C249,209,248.58,209.91,248.19,210.79Zm2.57-5.61-4.67-.12c.41-.88.83-1.77,1.26-2.66,1.52,0,3.08.07,4.66.13C251.59,203.41,251.17,204.29,250.76,205.18Zm2.67-5.6c-1.59-.05-3.16-.08-4.7-.09.44-.9.88-1.79,1.33-2.68,1.54,0,3.1.06,4.69.11C254.3,197.8,253.86,198.69,253.43,199.58Zm2.47-4.92c-1.61,0-3.19,0-4.74,0,.46-.9.92-1.8,1.4-2.69q2.33,0,4.74,0C256.83,192.88,256.36,193.78,255.9,194.66Zm2.61-4.87c-1.64,0-3.25,0-4.81.06.5-.91,1-1.82,1.53-2.72,1.57,0,3.16,0,4.8,0C259.51,188,259,188.9,258.51,189.79ZM261.3,185c-1.67,0-3.3.07-4.89.13.55-.93,1.1-1.85,1.67-2.75,1.59-.05,3.22-.08,4.89-.1C262.4,183.14,261.84,184,261.3,185Zm3-4.83c-1.7.05-3.36.12-5,.2.6-.94,1.22-1.86,1.85-2.77,1.63-.06,3.29-.12,5-.16C265.56,178.3,264.94,179.21,264.33,180.13Zm3.36-4.8c-1.74.07-3.43.16-5.09.26.69-1,1.4-1.9,2.12-2.81,1.66-.1,3.37-.17,5.11-.22C269.1,173.46,268.39,174.38,267.69,175.33Zm3.82-4.83c-1.79.1-3.53.21-5.23.33.81-1,1.64-1.93,2.48-2.86,1.72-.11,3.48-.2,5.28-.29C273.18,168.6,272.34,169.53,271.51,170.5Zm4.53-4.86c-1.87.11-3.69.24-5.44.38,1-1,2-2,3-2.91,1.79-.14,3.63-.24,5.52-.34C278.09,163.69,277.05,164.65,276,165.64Zm5.7-4.95h0c-2,.11-3.91.26-5.78.43a49.24,49.24,0,0,1,4.08-3h0c1.93-.14,3.91-.25,5.94-.35A46.91,46.91,0,0,0,281.74,160.69Z" style="fill: rgb(38, 50, 56); transform-origin: 246.17px 206.649px;" id="elth0w0tta8nc" class="animable"></path><g id="elbvu89fyo3e"><path d="M311.39,152.94l2,0h0C312.73,153,312.06,152.93,311.39,152.94ZM290,155.56c-2.22.13-4.39.28-6.48.45,1.13-.63,2.31-1.2,3.48-1.73-1.29.14-2.54.3-3.77.45-8,1-14.33,2.26-17.7,3-1.55.33-2.48.55-2.65.59h0c-50.4,12.39-55,103.24-84,96.49l.47.15s18,7,37.13,5.13l-.6-.14c29.91,3,34.83-106.56,95.56-107-5.74-.05-11.36.19-16.61.6A44.36,44.36,0,0,0,290,155.56ZM255.84,161c1.42-.24,2.92-.49,4.49-.72a54.7,54.7,0,0,0-5.3,3.58h0c-1.64.28-3.19.58-4.6.87A59.88,59.88,0,0,1,255.84,161Zm-7.18,5.14c1.37-.25,2.84-.49,4.39-.73-1.28,1.06-2.54,2.17-3.74,3.33h0c-1.64.29-3.16.57-4.55.85C246,168.41,247.31,167.25,248.66,166.15Zm-5.26,4.78c1.38-.24,2.85-.48,4.41-.71-1,1-2,2.1-3,3.21-1.64.27-3.16.55-4.53.81Q241.79,172.53,243.4,170.93Zm-4.28,4.61h0l4.42-.69c-.86,1-1.71,2-2.54,3.1-1.63.26-3.15.52-4.54.77C237.34,177.64,238.22,176.58,239.12,175.54Zm-3.68,4.51c1.39-.22,2.87-.43,4.45-.65q-1.12,1.48-2.22,3c-1.62.23-3.14.47-4.53.7C233.88,182.08,234.65,181.06,235.44,180.05Zm-3.29,4.46c1.41-.2,2.9-.4,4.47-.58-.67,1-1.33,1.95-2,2.95h0c-1.62.21-3.15.44-4.55.65C230.77,186.5,231.46,185.5,232.15,184.51Zm-3,4.42c1.41-.17,2.91-.34,4.49-.5-.62.95-1.22,1.92-1.81,2.9-1.61.17-3.13.37-4.54.55C227.92,190.89,228.54,189.91,229.17,188.93Zm-2.78,4.45c1.42-.16,2.92-.31,4.5-.44-.57.94-1.11,1.89-1.66,2.84-1.61.16-3.12.32-4.54.49Zm-2.59,4.45c1.42-.14,2.92-.27,4.49-.37-.53.93-1,1.87-1.55,2.81-1.6.12-3.11.27-4.55.41C222.72,199.72,223.25,198.78,223.8,197.83Zm-2.91,5.25c1.43-.1,2.93-.2,4.5-.29-.49.93-1,1.85-1.46,2.78-1.6.1-3.11.2-4.54.33Q220.13,204.49,220.89,203.08Zm-2.77,5.26c1.43-.08,2.93-.15,4.51-.21-.47.91-.93,1.83-1.39,2.74l-4.53.24Zm-2.66,5.26,4.49-.13-1.34,2.73-4.52.14C214.53,215.43,215,214.52,215.46,213.6Zm-2.64,5.29c1.43,0,2.92,0,4.5-.06L216,221.54c-1.6,0-3.1,0-4.53.05C211.93,220.7,212.37,219.79,212.82,218.89Zm-2.62,5.29,4.49,0c-.45.9-.89,1.8-1.32,2.68l-4.5,0C209.31,226,209.76,225.09,210.2,224.18Zm-2.67,5.31,4.48.12c-.46.9-.9,1.78-1.35,2.65l-4.49-.11C206.62,231.28,207.08,230.4,207.53,229.49Zm-2.77,5.33,4.45.19c-.47.89-1,1.77-1.43,2.63l-4.47-.19C203.79,236.6,204.27,235.72,204.76,234.82Zm-3,5.32,4.45.27c-.53.89-1.06,1.76-1.58,2.6-1.56-.09-3-.19-4.46-.26Q201,241.49,201.76,240.14Zm-3.36,5.3,4.42.34c-.61.9-1.22,1.76-1.85,2.57l-4.44-.35C197.15,247.19,197.78,246.34,198.4,245.44Zm-4.13,5.22c1.4.15,2.89.29,4.44.42a28.91,28.91,0,0,1-2.49,2.47l-4.48-.44A25.22,25.22,0,0,0,194.27,250.66Zm28.48,4.88-4.91-.29a20.23,20.23,0,0,0,3.12-2.5l4.78.26A19.78,19.78,0,0,1,222.75,255.54Zm5.58-5.46-4.71-.26c.64-.8,1.29-1.67,1.92-2.59,1.52.1,3.09.18,4.69.26C229.6,248.41,229,249.27,228.33,250.08Zm3.8-5.57-4.66-.24q.76-1.26,1.53-2.61l4.65.24C233.14,242.8,232.64,243.67,232.13,244.51Zm3.14-5.6-4.65-.23c.46-.86.91-1.73,1.36-2.62l4.63.23C236.17,237.18,235.72,238.06,235.27,238.91Zm2.79-5.61-4.63-.22c.42-.86.84-1.75,1.25-2.64,1.51.08,3.06.14,4.63.23C238.89,231.56,238.48,232.44,238.06,233.3Zm2.61-5.63-4.62-.2,1.2-2.64,4.62.21C241.47,225.93,241.07,226.8,240.67,227.67ZM243.2,222l-4.63-.18,1.17-2.65c1.51.06,3,.12,4.62.2Zm2.48-5.63-4.64-.16c.39-.88.79-1.76,1.18-2.66l4.64.18Zm2.51-5.62c-1.58,0-3.13-.11-4.66-.14.41-.88.81-1.77,1.21-2.65l4.65.15C249,209,248.58,209.91,248.19,210.79Zm2.57-5.61-4.67-.12c.41-.88.83-1.77,1.26-2.66,1.52,0,3.08.07,4.66.13C251.59,203.41,251.17,204.29,250.76,205.18Zm2.67-5.6c-1.59-.05-3.16-.08-4.7-.09.44-.9.88-1.79,1.33-2.68,1.54,0,3.1.06,4.69.11C254.3,197.8,253.86,198.69,253.43,199.58Zm2.47-4.92c-1.61,0-3.19,0-4.74,0,.46-.9.92-1.8,1.4-2.69q2.33,0,4.74,0C256.83,192.88,256.36,193.78,255.9,194.66Zm2.61-4.87c-1.64,0-3.25,0-4.81.06.5-.91,1-1.82,1.53-2.72,1.57,0,3.16,0,4.8,0C259.51,188,259,188.9,258.51,189.79ZM261.3,185c-1.67,0-3.3.07-4.89.13.55-.93,1.1-1.85,1.67-2.75,1.59-.05,3.22-.08,4.89-.1C262.4,183.14,261.84,184,261.3,185Zm3-4.83c-1.7.05-3.36.12-5,.2.6-.94,1.22-1.86,1.85-2.77,1.63-.06,3.29-.12,5-.16C265.56,178.3,264.94,179.21,264.33,180.13Zm3.36-4.8c-1.74.07-3.43.16-5.09.26.69-1,1.4-1.9,2.12-2.81,1.66-.1,3.37-.17,5.11-.22C269.1,173.46,268.39,174.38,267.69,175.33Zm3.82-4.83c-1.79.1-3.53.21-5.23.33.81-1,1.64-1.93,2.48-2.86,1.72-.11,3.48-.2,5.28-.29C273.18,168.6,272.34,169.53,271.51,170.5Zm4.53-4.86c-1.87.11-3.69.24-5.44.38,1-1,2-2,3-2.91,1.79-.14,3.63-.24,5.52-.34C278.09,163.69,277.05,164.65,276,165.64Zm5.7-4.95h0c-2,.11-3.91.26-5.78.43a49.24,49.24,0,0,1,4.08-3h0c1.93-.14,3.91-.25,5.94-.35A46.91,46.91,0,0,0,281.74,160.69Z" style="fill: rgb(250, 250, 250); opacity: 0.4; transform-origin: 246.135px 206.673px;" class="animable"></path></g><g id="elrdnx89tqnu"><g style="opacity: 0.4; transform-origin: 238.18px 206.65px;" class="animable"><path d="M215.51,225.86c-1.16,2.41-2.29,4.64-3.38,6.71,6.66.4,13.13.61,19.06.71,1-2,2-4,3.05-6.06,1.4-2.79,2.89-6.1,4.51-9.75-6.91-.12-13.38-.16-19.11-.15C218.2,220.26,216.82,223.12,215.51,225.86Z" id="el1s1zco0qxu7" class="animable" style="transform-origin: 225.44px 225.299px;"></path><path d="M231,195.87c5.46-.31,11.49-.5,18-.49,2.48-4.87,5.25-9.83,8.35-14.69-6.09.2-11.88.51-17.16.88C237,186.1,233.91,190.93,231,195.87Z" id="elr0r9x2h89pd" class="animable" style="transform-origin: 244.175px 188.28px;"></path><path d="M198.86,252.42a165.92,165.92,0,0,0,18.44.86c4.73-3.9,8.42-9.68,12-16.45-6-.12-12.47-.36-19.11-.79A88.51,88.51,0,0,1,198.86,252.42Z" id="elhnejirjmwtu" class="animable" style="transform-origin: 214.08px 244.663px;"></path><path d="M221.42,213.74c5.73,0,12.11,0,18.9.17,2.05-4.63,4.32-9.7,6.9-14.95-6.66,0-12.82.27-18.31.62C226.25,204.31,223.75,209.09,221.42,213.74Z" id="elu16ollan53m" class="animable" style="transform-origin: 234.32px 206.435px;"></path><path d="M195.48,255.72a13.29,13.29,0,0,1-2.32,1.67c7.52,1.82,13.38,1.45,18.22-.53C205.43,256.72,200.11,256.29,195.48,255.72Z" id="el5istay6sb3g" class="animable" style="transform-origin: 202.27px 257.145px;"></path><path d="M283.2,154.73a53.89,53.89,0,0,0-9.14,6c-5.55.21-10.65.6-15.31,1.1a46.56,46.56,0,0,1,6.75-4.14C268.87,157,275.2,155.76,283.2,154.73Z" id="elg6pqvf2hqte" class="animable" style="transform-origin: 270.975px 158.28px;"></path><path d="M243,177.8c5.22-.34,10.87-.61,16.76-.77,1.59-2.33,3.25-4.62,5-6.85a61.16,61.16,0,0,1,5-5.63c-6,.36-11.44.93-16.3,1.6A92.94,92.94,0,0,0,243,177.8Z" id="elxp7745vvd7o" class="animable" style="transform-origin: 256.38px 171.175px;"></path></g></g><path d="M216.43,260a14.14,14.14,0,0,1-4.59-1.06c-21.71-8.8-32.66-46.71-18.21-102.92,9.09-35.36,26-47,26-47-21.66-8.07-35.5-4.91-35.5-4.91s-16.93,11.69-26,47.05c-14.44,56.21-3.5,94.12,18.21,102.91l1,.38s3,1.13,7.79,2.4h0c7.57,2,19.6,4.41,31.29,3.28Zm-30.72-34.84c-1.18-.05-2.34-.13-3.49-.21-.2-.9-.38-1.82-.54-2.74l3.5.24C185.34,223.35,185.52,224.27,185.71,225.15Zm-1.44-9c.1.92.22,1.82.34,2.71l-3.52-.29c-.13-.9-.25-1.81-.35-2.73C181.91,216,183.09,216.09,184.27,216.18ZM184,191c-.08.9-.14,1.79-.19,2.68l-3.55-.46c.05-.88.11-1.78.19-2.68Zm-3.23-4.08c.08-.89.17-1.77.28-2.67l3.55.48c-.11.9-.2,1.79-.28,2.67Zm2.87,10.36c0,.91-.06,1.81-.08,2.71-1.14-.14-2.34-.28-3.54-.44,0-.89,0-1.79.07-2.7C181.29,197,182.47,197.15,183.63,197.28Zm-.09,6.3c0,.92,0,1.82.05,2.72-1.17-.12-2.35-.26-3.55-.4h0c0-.89,0-1.79-.05-2.72C181.18,203.32,182.37,203.46,183.54,203.58Zm.2,6.3c0,.92.11,1.83.18,2.72-1.17-.11-2.35-.22-3.54-.35-.07-.9-.13-1.81-.19-2.73Zm27.61-101c1,.28,2,.58,3.07.91-.61.53-1.37,1.24-2.24,2.13-1.08-.32-2.12-.62-3.15-.9C210,110.13,210.76,109.41,211.35,108.92Zm-4.11,4c1,.28,2.11.58,3.19.9-.61.68-1.24,1.43-1.91,2.26-1.1-.32-2.19-.6-3.23-.88C206,114.39,206.63,113.63,207.24,112.94Zm-3.51,4.24c1.08.27,2.17.55,3.28.86-.55.73-1.11,1.51-1.69,2.34q-1.68-.45-3.3-.84C202.61,118.7,203.18,117.92,203.73,117.18Zm-3.06,4.37c1.08.26,2.19.54,3.32.84-.5.76-1,1.55-1.5,2.39-1.14-.29-2.26-.57-3.35-.82C199.65,123.12,200.16,122.31,200.67,121.55ZM197.93,126c1.1.25,2.22.52,3.36.82-.44.78-.89,1.59-1.33,2.44-1.15-.3-2.28-.56-3.38-.82C197,127.63,197.48,126.82,197.93,126Zm-2.44,4.55c1.12.24,2.24.51,3.4.79-.4.81-.79,1.63-1.19,2.49-1.16-.29-2.3-.56-3.41-.81C194.69,132.2,195.09,131.37,195.49,130.58Zm-2.17,4.61c1.12.25,2.26.52,3.41.8-.35.81-.71,1.65-1.06,2.51-1.15-.29-2.3-.56-3.43-.8C192.6,136.84,193,136,193.32,135.19Zm-2.4,5.83c1.16.24,2.31.49,3.47.75-.32.83-.62,1.67-.93,2.55-1.15-.26-2.31-.51-3.46-.74C190.3,142.71,190.62,141.86,190.92,141Zm-2.07,6c1.17.22,2.34.44,3.49.68-.27.84-.53,1.7-.8,2.58-1.15-.24-2.32-.45-3.49-.67C188.31,148.7,188.57,147.84,188.85,147Zm-2.32,8c.17-.67.34-1.32.52-2,1.2.21,2.37.41,3.52.63-.17.61-.34,1.22-.49,1.85-.07.25-.14.51-.2.76-1.15-.21-2.32-.42-3.51-.62C186.41,155.46,186.47,155.24,186.53,155Zm-1,4.19,3.53.57c-.22.88-.42,1.76-.61,2.63l-3.54-.57C185.07,161,185.28,160.1,185.5,159.22Zm-1.4,6.21c1.22.17,2.4.36,3.55.53-.2.89-.37,1.77-.54,2.64l-3.55-.52C183.73,167.19,183.91,166.31,184.1,165.43Zm-1.22,6.25,3.55.52c-.17.89-.32,1.77-.46,2.65l-3.54-.51C182.57,173.45,182.72,172.57,182.88,171.68Zm-1,6.3,3.55.49c-.13.89-.25,1.78-.38,2.66l-3.55-.49C181.59,179.76,181.72,178.87,181.85,178Zm3.78-73.48c.63,0,1.29,0,2,.09a29.81,29.81,0,0,0-3,2.61c-.71,0-1.38,0-2,0A31.29,31.29,0,0,1,185.63,104.5ZM181,108.88l1.95.07c-.73.77-1.51,1.65-2.32,2.65-.71,0-1.36,0-2,0C179.44,110.56,180.23,109.68,181,108.88Zm-3.69,4.39,1.91.08c-.63.82-1.28,1.7-1.94,2.65l-1.93,0C176,115,176.64,114.11,177.27,113.27Zm-3.1,4.39,1.88.09q-.84,1.25-1.68,2.64l-1.88-.06C173.05,119.39,173.62,118.5,174.17,117.66Zm-2.71,4.4c.58,0,1.19.07,1.84.13-.48.83-1,1.69-1.44,2.59l-1.85-.11C170.49,123.77,171,122.9,171.46,122.06Zm-2.37,4.39,1.82.16c-.43.83-.86,1.7-1.27,2.59l-1.83-.15C168.24,128.16,168.66,127.29,169.09,126.45ZM167,130.88l1.81.19c-.37.83-.75,1.69-1.12,2.58-.63-.07-1.23-.12-1.8-.17C166.21,132.59,166.6,131.72,167,130.88ZM164.42,137l1.8.19c-.32.85-.64,1.71-.95,2.6l-1.8-.19C163.78,138.74,164.11,137.87,164.42,137Zm-2.15,6.15,1.79.2q-.42,1.27-.81,2.61l-1.79-.19C161.72,144.89,162,144,162.27,143.17Zm-2.37,8.18c.17-.68.35-1.34.54-2l1.78.21c-.18.67-.37,1.36-.55,2,0,.19-.1.39-.14.58l-1.79-.21C159.8,151.77,159.84,151.56,159.9,151.35Zm-1,4.2,1.77.22c-.21.88-.42,1.77-.61,2.64l-1.78-.22C158.44,157.32,158.64,156.43,158.87,155.55Zm-1.41,6.22,1.79.23c-.2.88-.37,1.76-.55,2.64l-1.78-.22C157.09,163.54,157.28,162.66,157.46,161.77ZM156.24,168l1.78.24c-.16.89-.32,1.77-.46,2.66l-1.77-.25C155.93,169.8,156.09,168.91,156.24,168Zm-1,6.27,1.78.25c-.14.89-.27,1.78-.39,2.66l-1.77-.25C155,176.08,155.08,175.19,155.22,174.29Zm-.81,6.2,1.78.25c-.12.9-.21,1.79-.29,2.68l-1.78-.26C154.21,182.28,154.3,181.38,154.41,180.49Zm-.59,6.21c.56.1,1.16.18,1.77.27-.08.9-.14,1.8-.19,2.69l-1.79-.27C153.67,188.51,153.73,187.61,153.82,186.7Zm-.37,6.25,1.78.28c0,.91-.07,1.82-.09,2.72-.61-.11-1.2-.2-1.77-.28C153.39,194.77,153.41,193.86,153.45,193Zm-.1,6.28,1.77.3c0,.92,0,1.83,0,2.74l-1.78-.3C153.37,201.06,153.35,200.15,153.35,199.23Zm.19,6.34,1.78.31c.05.94.12,1.86.18,2.77l-1.77-.32C153.65,207.42,153.59,206.5,153.54,205.57Zm.54,6.41,1.78.33c.11,1,.23,1.89.36,2.81l-1.79-.34C154.3,213.86,154.18,212.93,154.08,212Zm.95,6.51,1.8.36c.17,1,.37,1.91.57,2.84l-1.8-.34C155.4,220.42,155.21,219.47,155,218.49Zm1,4.7,1.82.42c.24,1,.5,2,.77,2.92l-1.82-.4C156.52,225.16,156.26,224.19,156,223.19Zm1.29,4.68c.56.15,1.18.32,1.84.48.33,1,.68,2.05,1,3l-1.86-.47C158,229.92,157.63,228.91,157.31,227.87ZM159,232.6l1.89.54c.45,1.09.9,2.15,1.4,3.17l-1.91-.53C159.87,234.75,159.41,233.7,159,232.6Zm4.12,8.26c-.67-1.08-1.32-2.21-1.92-3.41l2,.61c.61,1.18,1.27,2.32,2,3.4C164.38,241.25,163.72,241.06,163.09,240.86Zm1.12,1.72c.62.21,1.32.43,2.07.66a37,37,0,0,0,3,3.77l-2.14-.65A39.6,39.6,0,0,1,164.21,242.58ZM176,253.3a29,29,0,0,1-6.93-5c.72.24,1.48.49,2.29.74a28.42,28.42,0,0,0,7.58,5Zm6.82-25.75c1.15.11,2.31.2,3.5.27.23.94.47,1.86.73,2.75-1.18-.07-2.34-.16-3.49-.25C183.31,229.41,183.06,228.49,182.83,227.55Zm1.55,5.37c1.16.12,2.32.23,3.5.32.31.95.64,1.87,1,2.77-1.17-.08-2.33-.18-3.47-.29C185,234.81,184.7,233.88,184.38,232.92Zm2.08,5.4c1.15.13,2.32.25,3.49.36h0c.42,1,.86,1.9,1.31,2.8-1.16-.09-2.31-.19-3.46-.32C187.34,240.25,186.89,239.3,186.46,238.32Zm2.8,5.46c1.15.15,2.32.28,3.49.39.59,1,1.2,2,1.85,2.86-1.15-.08-2.3-.18-3.44-.31C190.5,245.79,189.86,244.8,189.26,243.78Zm6.89,8.65a32.67,32.67,0,0,1-2.93-3.05c1.16.15,2.31.28,3.47.38a31.88,31.88,0,0,0,2.75,2.92C198.35,252.62,197.24,252.54,196.15,252.43Zm9.73,5.87h0a10.27,10.27,0,0,1-1.13-.36,26.71,26.71,0,0,1-5-2.65q1.6.15,3.18.24a27.07,27.07,0,0,0,5,2.74C207.25,258.3,206.57,258.31,205.88,258.3Z" style="fill: rgb(38, 50, 56); transform-origin: 185.606px 181.96px;" id="el08ylf6bg0v2e" class="animable"></path><g id="elxhsxyhrumgl"><path d="M216.43,260a14.14,14.14,0,0,1-4.59-1.06c-21.71-8.8-32.66-46.71-18.21-102.92,9.09-35.36,26-47,26-47-21.66-8.07-35.5-4.91-35.5-4.91s-16.93,11.69-26,47.05c-14.44,56.21-3.5,94.12,18.21,102.91l1,.38s3,1.13,7.79,2.4h0c7.57,2,19.6,4.41,31.29,3.28Zm-30.72-34.84c-1.18-.05-2.34-.13-3.49-.21-.2-.9-.38-1.82-.54-2.74l3.5.24C185.34,223.35,185.52,224.27,185.71,225.15Zm-1.44-9c.1.92.22,1.82.34,2.71l-3.52-.29c-.13-.9-.25-1.81-.35-2.73C181.91,216,183.09,216.09,184.27,216.18ZM184,191c-.08.9-.14,1.79-.19,2.68l-3.55-.46c.05-.88.11-1.78.19-2.68Zm-3.23-4.08c.08-.89.17-1.77.28-2.67l3.55.48c-.11.9-.2,1.79-.28,2.67Zm2.87,10.36c0,.91-.06,1.81-.08,2.71-1.14-.14-2.34-.28-3.54-.44,0-.89,0-1.79.07-2.7C181.29,197,182.47,197.15,183.63,197.28Zm-.09,6.3c0,.92,0,1.82.05,2.72-1.17-.12-2.35-.26-3.55-.4h0c0-.89,0-1.79-.05-2.72C181.18,203.32,182.37,203.46,183.54,203.58Zm.2,6.3c0,.92.11,1.83.18,2.72-1.17-.11-2.35-.22-3.54-.35-.07-.9-.13-1.81-.19-2.73Zm27.61-101c1,.28,2,.58,3.07.91-.61.53-1.37,1.24-2.24,2.13-1.08-.32-2.12-.62-3.15-.9C210,110.13,210.76,109.41,211.35,108.92Zm-4.11,4c1,.28,2.11.58,3.19.9-.61.68-1.24,1.43-1.91,2.26-1.1-.32-2.19-.6-3.23-.88C206,114.39,206.63,113.63,207.24,112.94Zm-3.51,4.24c1.08.27,2.17.55,3.28.86-.55.73-1.11,1.51-1.69,2.34q-1.68-.45-3.3-.84C202.61,118.7,203.18,117.92,203.73,117.18Zm-3.06,4.37c1.08.26,2.19.54,3.32.84-.5.76-1,1.55-1.5,2.39-1.14-.29-2.26-.57-3.35-.82C199.65,123.12,200.16,122.31,200.67,121.55ZM197.93,126c1.1.25,2.22.52,3.36.82-.44.78-.89,1.59-1.33,2.44-1.15-.3-2.28-.56-3.38-.82C197,127.63,197.48,126.82,197.93,126Zm-2.44,4.55c1.12.24,2.24.51,3.4.79-.4.81-.79,1.63-1.19,2.49-1.16-.29-2.3-.56-3.41-.81C194.69,132.2,195.09,131.37,195.49,130.58Zm-2.17,4.61c1.12.25,2.26.52,3.41.8-.35.81-.71,1.65-1.06,2.51-1.15-.29-2.3-.56-3.43-.8C192.6,136.84,193,136,193.32,135.19Zm-2.4,5.83c1.16.24,2.31.49,3.47.75-.32.83-.62,1.67-.93,2.55-1.15-.26-2.31-.51-3.46-.74C190.3,142.71,190.62,141.86,190.92,141Zm-2.07,6c1.17.22,2.34.44,3.49.68-.27.84-.53,1.7-.8,2.58-1.15-.24-2.32-.45-3.49-.67C188.31,148.7,188.57,147.84,188.85,147Zm-2.32,8c.17-.67.34-1.32.52-2,1.2.21,2.37.41,3.52.63-.17.61-.34,1.22-.49,1.85-.07.25-.14.51-.2.76-1.15-.21-2.32-.42-3.51-.62C186.41,155.46,186.47,155.24,186.53,155Zm-1,4.19,3.53.57c-.22.88-.42,1.76-.61,2.63l-3.54-.57C185.07,161,185.28,160.1,185.5,159.22Zm-1.4,6.21c1.22.17,2.4.36,3.55.53-.2.89-.37,1.77-.54,2.64l-3.55-.52C183.73,167.19,183.91,166.31,184.1,165.43Zm-1.22,6.25,3.55.52c-.17.89-.32,1.77-.46,2.65l-3.54-.51C182.57,173.45,182.72,172.57,182.88,171.68Zm-1,6.3,3.55.49c-.13.89-.25,1.78-.38,2.66l-3.55-.49C181.59,179.76,181.72,178.87,181.85,178Zm3.78-73.48c.63,0,1.29,0,2,.09a29.81,29.81,0,0,0-3,2.61c-.71,0-1.38,0-2,0A31.29,31.29,0,0,1,185.63,104.5ZM181,108.88l1.95.07c-.73.77-1.51,1.65-2.32,2.65-.71,0-1.36,0-2,0C179.44,110.56,180.23,109.68,181,108.88Zm-3.69,4.39,1.91.08c-.63.82-1.28,1.7-1.94,2.65l-1.93,0C176,115,176.64,114.11,177.27,113.27Zm-3.1,4.39,1.88.09q-.84,1.25-1.68,2.64l-1.88-.06C173.05,119.39,173.62,118.5,174.17,117.66Zm-2.71,4.4c.58,0,1.19.07,1.84.13-.48.83-1,1.69-1.44,2.59l-1.85-.11C170.49,123.77,171,122.9,171.46,122.06Zm-2.37,4.39,1.82.16c-.43.83-.86,1.7-1.27,2.59l-1.83-.15C168.24,128.16,168.66,127.29,169.09,126.45ZM167,130.88l1.81.19c-.37.83-.75,1.69-1.12,2.58-.63-.07-1.23-.12-1.8-.17C166.21,132.59,166.6,131.72,167,130.88ZM164.42,137l1.8.19c-.32.85-.64,1.71-.95,2.6l-1.8-.19C163.78,138.74,164.11,137.87,164.42,137Zm-2.15,6.15,1.79.2q-.42,1.27-.81,2.61l-1.79-.19C161.72,144.89,162,144,162.27,143.17Zm-2.37,8.18c.17-.68.35-1.34.54-2l1.78.21c-.18.67-.37,1.36-.55,2,0,.19-.1.39-.14.58l-1.79-.21C159.8,151.77,159.84,151.56,159.9,151.35Zm-1,4.2,1.77.22c-.21.88-.42,1.77-.61,2.64l-1.78-.22C158.44,157.32,158.64,156.43,158.87,155.55Zm-1.41,6.22,1.79.23c-.2.88-.37,1.76-.55,2.64l-1.78-.22C157.09,163.54,157.28,162.66,157.46,161.77ZM156.24,168l1.78.24c-.16.89-.32,1.77-.46,2.66l-1.77-.25C155.93,169.8,156.09,168.91,156.24,168Zm-1,6.27,1.78.25c-.14.89-.27,1.78-.39,2.66l-1.77-.25C155,176.08,155.08,175.19,155.22,174.29Zm-.81,6.2,1.78.25c-.12.9-.21,1.79-.29,2.68l-1.78-.26C154.21,182.28,154.3,181.38,154.41,180.49Zm-.59,6.21c.56.1,1.16.18,1.77.27-.08.9-.14,1.8-.19,2.69l-1.79-.27C153.67,188.51,153.73,187.61,153.82,186.7Zm-.37,6.25,1.78.28c0,.91-.07,1.82-.09,2.72-.61-.11-1.2-.2-1.77-.28C153.39,194.77,153.41,193.86,153.45,193Zm-.1,6.28,1.77.3c0,.92,0,1.83,0,2.74l-1.78-.3C153.37,201.06,153.35,200.15,153.35,199.23Zm.19,6.34,1.78.31c.05.94.12,1.86.18,2.77l-1.77-.32C153.65,207.42,153.59,206.5,153.54,205.57Zm.54,6.41,1.78.33c.11,1,.23,1.89.36,2.81l-1.79-.34C154.3,213.86,154.18,212.93,154.08,212Zm.95,6.51,1.8.36c.17,1,.37,1.91.57,2.84l-1.8-.34C155.4,220.42,155.21,219.47,155,218.49Zm1,4.7,1.82.42c.24,1,.5,2,.77,2.92l-1.82-.4C156.52,225.16,156.26,224.19,156,223.19Zm1.29,4.68c.56.15,1.18.32,1.84.48.33,1,.68,2.05,1,3l-1.86-.47C158,229.92,157.63,228.91,157.31,227.87ZM159,232.6l1.89.54c.45,1.09.9,2.15,1.4,3.17l-1.91-.53C159.87,234.75,159.41,233.7,159,232.6Zm4.12,8.26c-.67-1.08-1.32-2.21-1.92-3.41l2,.61c.61,1.18,1.27,2.32,2,3.4C164.38,241.25,163.72,241.06,163.09,240.86Zm1.12,1.72c.62.21,1.32.43,2.07.66a37,37,0,0,0,3,3.77l-2.14-.65A39.6,39.6,0,0,1,164.21,242.58ZM176,253.3a29,29,0,0,1-6.93-5c.72.24,1.48.49,2.29.74a28.42,28.42,0,0,0,7.58,5Zm6.82-25.75c1.15.11,2.31.2,3.5.27.23.94.47,1.86.73,2.75-1.18-.07-2.34-.16-3.49-.25C183.31,229.41,183.06,228.49,182.83,227.55Zm1.55,5.37c1.16.12,2.32.23,3.5.32.31.95.64,1.87,1,2.77-1.17-.08-2.33-.18-3.47-.29C185,234.81,184.7,233.88,184.38,232.92Zm2.08,5.4c1.15.13,2.32.25,3.49.36h0c.42,1,.86,1.9,1.31,2.8-1.16-.09-2.31-.19-3.46-.32C187.34,240.25,186.89,239.3,186.46,238.32Zm2.8,5.46c1.15.15,2.32.28,3.49.39.59,1,1.2,2,1.85,2.86-1.15-.08-2.3-.18-3.44-.31C190.5,245.79,189.86,244.8,189.26,243.78Zm6.89,8.65a32.67,32.67,0,0,1-2.93-3.05c1.16.15,2.31.28,3.47.38a31.88,31.88,0,0,0,2.75,2.92C198.35,252.62,197.24,252.54,196.15,252.43Zm9.73,5.87h0a10.27,10.27,0,0,1-1.13-.36,26.71,26.71,0,0,1-5-2.65q1.6.15,3.18.24a27.07,27.07,0,0,0,5,2.74C207.25,258.3,206.57,258.31,205.88,258.3Z" style="fill: rgb(250, 250, 250); opacity: 0.2; transform-origin: 185.606px 181.96px;" class="animable"></path></g><path d="M187.46,145.41a129.23,129.23,0,0,1,7-16.58,183.37,183.37,0,0,0-20.54-3.21,118,118,0,0,0-7.24,16C172.25,142.35,179.09,143.51,187.46,145.41Z" style="fill: rgb(38, 50, 56); transform-origin: 180.57px 135.515px;" id="ellhtn7nuuh1g" class="animable"></path><path d="M165.47,145.13a157.56,157.56,0,0,0-4.8,17.54c6,.9,13.07,2.15,21.08,3.87a169.8,169.8,0,0,1,4.58-17.7A211.12,211.12,0,0,0,165.47,145.13Z" style="fill: rgb(38, 50, 56); transform-origin: 173.5px 155.835px;" id="elawd9kz3hje6" class="animable"></path><path d="M179.13,182.57q.81-6.57,1.93-12.51c-8-1.71-15.08-3-21.11-3.85-.88,4.49-1.63,9.24-2.25,14.3-.17,1.42-.32,2.8-.45,4.17,7.51,1.57,14.87,2.79,21.26,3.71C178.68,186.49,178.88,184.56,179.13,182.57Z" style="fill: rgb(38, 50, 56); transform-origin: 169.155px 177.3px;" id="elx4wzd9rpalh" class="animable"></path><path d="M196.25,125.52a90.31,90.31,0,0,1,10.93-15.72,188.2,188.2,0,0,0-19.41-3.13,82,82,0,0,0-11.86,15.52A193.42,193.42,0,0,1,196.25,125.52Z" style="fill: rgb(38, 50, 56); transform-origin: 191.545px 116.095px;" id="eln9b1ims1yu" class="animable"></path><path d="M183.67,235c-6.93-1.1-14.62-2.51-22.26-4.29a46.75,46.75,0,0,0,14.2,20.16c7.12,1.44,14,2.57,20.06,3.42A59.83,59.83,0,0,1,183.67,235Z" style="fill: rgb(38, 50, 56); transform-origin: 178.54px 242.5px;" id="elubbzr35n6v" class="animable"></path><path d="M182.3,231.17a87.25,87.25,0,0,1-3.76-18c-6.76-1.06-14.26-2.43-21.73-4.14A82.65,82.65,0,0,0,160,226.72C167.59,228.56,175.28,230,182.3,231.17Z" style="fill: rgb(38, 50, 56); transform-origin: 169.555px 220.1px;" id="eldb12g1yo19" class="animable"></path><path d="M178.22,209.45a127.32,127.32,0,0,1,0-17.48c-6.39-.92-13.76-2.14-21.3-3.7a139.51,139.51,0,0,0-.35,17C164,207,171.45,208.37,178.22,209.45Z" style="fill: rgb(38, 50, 56); transform-origin: 167.338px 198.86px;" id="eldliw4uuc4fj" class="animable"></path><path d="M376.76,248c-2.8-39.16-28.81-69.21-58.09-67.12-5.49.39-22,3.57-25.31,3.8-29.29,2.1-50.76,35.54-48,74.7s28.81,69.22,58.09,67.13c5.49-.39,22-3.57,25.31-3.81C358.09,320.58,379.56,287.14,376.76,248Z" style="fill: rgb(38, 50, 56); transform-origin: 311.063px 253.695px;" id="el238deoj7e02" class="animable"></path><g id="el6dryx9c6c6s"><ellipse cx="323.74" cy="251.76" rx="53.16" ry="71.09" style="fill: rgb(250, 250, 250); opacity: 0.2; transform-origin: 323.74px 251.76px; transform: rotate(-4.09deg);" class="animable"></ellipse></g><path d="M324.55,316h0l-1.42-.17a37.65,37.65,0,0,1-12-3.87.25.25,0,0,1-.11-.35.26.26,0,0,1,.35-.12,36.93,36.93,0,0,0,11.84,3.82c.47.06.93.12,1.4.16a.27.27,0,0,1,.24.29A.26.26,0,0,1,324.55,316Zm20.22-4.3a.26.26,0,0,1-.23-.13.26.26,0,0,1,.1-.36c.61-.33,1.21-.69,1.8-1.06a.26.26,0,0,1,.36.09.26.26,0,0,1-.08.36c-.6.37-1.21.73-1.82,1.07A.31.31,0,0,1,344.77,311.67Zm-38.06-2.39a.25.25,0,0,1-.15,0c-.58-.39-1.16-.8-1.72-1.23a.25.25,0,0,1,0-.36.26.26,0,0,1,.36-.06c.56.42,1.13.83,1.7,1.22a.26.26,0,0,1,.07.36A.25.25,0,0,1,306.71,309.28Zm44.13-1.73a.26.26,0,0,1-.21-.1.27.27,0,0,1,0-.37,49,49,0,0,0,8.54-9.11.27.27,0,0,1,.43.31,50.14,50.14,0,0,1-8.64,9.21A.25.25,0,0,1,350.84,307.55ZM362.33,294a.37.37,0,0,1-.14,0,.26.26,0,0,1-.08-.36A73.74,73.74,0,0,0,371.82,264a.26.26,0,0,1,.29-.23.25.25,0,0,1,.23.29,74.16,74.16,0,0,1-9.78,29.79A.28.28,0,0,1,362.33,294ZM291,292.6a.26.26,0,0,1-.22-.12,80.54,80.54,0,0,1-11.09-29.37.25.25,0,0,1,.21-.3.26.26,0,0,1,.3.21,79.94,79.94,0,0,0,11,29.18.25.25,0,0,1-.08.36A.23.23,0,0,1,291,292.6Zm-11.79-34.47a.27.27,0,0,1-.26-.23c-.12-1.13-.23-2.28-.31-3.42-.15-2.14-.23-4.31-.23-6.44,0-.92,0-1.84,0-2.75a.28.28,0,0,1,.27-.26.27.27,0,0,1,.26.27c0,.91-.05,1.82-.05,2.74,0,2.12.08,4.27.23,6.4.09,1.14.19,2.28.31,3.4a.25.25,0,0,1-.23.29ZM372,243.38a.26.26,0,0,1-.26-.23c-.09-.69-.18-1.38-.29-2.07a.26.26,0,0,1,.52-.08c.1.69.2,1.39.29,2.09a.27.27,0,0,1-.23.29ZM279,240.32h0a.27.27,0,0,1-.24-.28c.07-.71.14-1.41.22-2.1a.27.27,0,0,1,.29-.23.26.26,0,0,1,.23.29c-.08.69-.15,1.39-.21,2.08A.27.27,0,0,1,279,240.32Zm91.73-4.18a.28.28,0,0,1-.26-.21,83.39,83.39,0,0,0-3.51-12,.26.26,0,1,1,.49-.19A84.49,84.49,0,0,1,371,235.82a.26.26,0,0,1-.2.31Zm-5.54-16.93a.25.25,0,0,1-.23-.15c-4.69-10.32-11.26-18.8-19-24.53a.26.26,0,1,1,.31-.42c7.82,5.78,14.45,14.33,19.17,24.73a.27.27,0,0,1-.13.35Zm-80.87-1.28h-.1a.27.27,0,0,1-.15-.35c4.36-10.75,10.88-19.35,18.86-24.86a.26.26,0,0,1,.36.07.27.27,0,0,1-.07.37c-7.89,5.45-14.34,14-18.66,24.62A.26.26,0,0,1,284.32,217.93Zm23.26-27.43a.27.27,0,0,1-.24-.14.26.26,0,0,1,.12-.35,35.16,35.16,0,0,1,12.06-3.67.26.26,0,1,1,.06.52,34.9,34.9,0,0,0-11.88,3.61A.27.27,0,0,1,307.58,190.5Zm19.31-3.69h0c-.69-.07-1.39-.12-2.08-.14a.27.27,0,0,1,0-.53c.7,0,1.42.08,2.11.15a.26.26,0,0,1,.24.29A.27.27,0,0,1,326.89,186.81Z" style="fill: rgb(38, 50, 56); transform-origin: 325.377px 251.072px;" id="elrtxujllc3h" class="animable"></path><path d="M327,309.84h0a28.42,28.42,0,0,1-3.08-.25,32.51,32.51,0,0,1-11.88-4.22.27.27,0,0,1-.1-.36.26.26,0,0,1,.36-.1A31.81,31.81,0,0,0,324,309.07a27.53,27.53,0,0,0,3,.25.26.26,0,0,1,.26.27A.27.27,0,0,1,327,309.84Zm5.23-.35a.26.26,0,0,1,0-.52c9.07-1.47,17.49-7.62,23.71-17.31l.54-.86a.25.25,0,0,1,.36-.09.26.26,0,0,1,.09.36c-.18.3-.37.59-.55.88-6.3,9.81-14.85,16-24.07,17.54Zm-24.4-7a.33.33,0,0,1-.16-.05c-.55-.43-1.1-.88-1.63-1.34a.26.26,0,0,1,.34-.4c.53.46,1.07.9,1.61,1.32a.26.26,0,0,1,.05.37A.25.25,0,0,1,307.87,302.45ZM293.49,284.6a.27.27,0,0,1-.23-.14,78.19,78.19,0,0,1-8.39-30.24.27.27,0,0,1,.24-.28.27.27,0,0,1,.28.24,77.74,77.74,0,0,0,8.34,30,.27.27,0,0,1-.11.35A.28.28,0,0,1,293.49,284.6Zm71-12.8h-.06a.25.25,0,0,1-.19-.32c.15-.67.3-1.36.43-2a.26.26,0,1,1,.52.1c-.14.69-.29,1.38-.44,2.06A.28.28,0,0,1,364.47,271.8Zm1.27-7.24h0a.27.27,0,0,1-.23-.3,80.55,80.55,0,0,0,.62-10c0-.83,0-1.67,0-2.52a.27.27,0,0,1,.26-.27.28.28,0,0,1,.27.26c0,.85,0,1.69,0,2.53a79.88,79.88,0,0,1-.63,10.08A.26.26,0,0,1,365.74,264.56Zm-80.83-15.34a.25.25,0,0,1-.26-.26c0-.33,0-.65,0-1a81.09,81.09,0,0,1,.83-11.62.26.26,0,1,1,.52.08,80,80,0,0,0-.83,11.54c0,.32,0,.65,0,1a.26.26,0,0,1-.26.26ZM366,246.75a.27.27,0,0,1-.26-.24,76.63,76.63,0,0,0-8.93-29.85.26.26,0,0,1,.1-.36.27.27,0,0,1,.36.11,77.27,77.27,0,0,1,9,30.05.27.27,0,0,1-.24.29ZM286.67,231.5h-.06a.28.28,0,0,1-.2-.32c.15-.69.31-1.37.48-2.05a.26.26,0,0,1,.32-.19.27.27,0,0,1,.19.32c-.17.67-.33,1.35-.48,2A.25.25,0,0,1,286.67,231.5Zm8.68-21.26a.33.33,0,0,1-.14,0,.26.26,0,0,1-.08-.37c6.62-10.11,15.62-16.25,25.34-17.29a.27.27,0,0,1,0,.53c-9.56,1-18.42,7.07-24.95,17.05A.25.25,0,0,1,295.35,210.24Zm48.48-9.59a.27.27,0,0,1-.17-.06c-.55-.43-1.1-.86-1.66-1.26a.26.26,0,0,1-.06-.36.26.26,0,0,1,.37-.06c.56.4,1.12.83,1.68,1.27a.27.27,0,0,1,0,.37A.25.25,0,0,1,343.83,200.65Zm-6.12-4a.31.31,0,0,1-.13,0,31.22,31.22,0,0,0-10.34-3.41c-.51-.07-1-.12-1.53-.17a.26.26,0,0,1-.24-.28.27.27,0,0,1,.29-.24c.51,0,1,.1,1.55.17a32,32,0,0,1,10.52,3.46.27.27,0,0,1-.12.5Z" style="fill: rgb(38, 50, 56); transform-origin: 325.675px 251.195px;" id="elvexzdk2e94" class="animable"></path><path d="M325.15,303.42h0l-.3,0a26.72,26.72,0,0,1-11.65-4.77.27.27,0,0,1-.07-.37.25.25,0,0,1,.36-.06,26.23,26.23,0,0,0,11.43,4.68l.29,0a.26.26,0,0,1,.23.3A.27.27,0,0,1,325.15,303.42Zm19.14-6.8a.25.25,0,0,1-.19-.09.26.26,0,0,1,0-.37c.5-.45,1-.94,1.49-1.45a.27.27,0,0,1,.37,0,.28.28,0,0,1,0,.38c-.5.51-1,1-1.52,1.47A.24.24,0,0,1,344.29,296.62Zm-35-1.28a.25.25,0,0,1-.18-.08c-.5-.47-1-1-1.51-1.48a.26.26,0,0,1,.38-.36c.49.51,1,1,1.49,1.46a.27.27,0,0,1,0,.37A.25.25,0,0,1,309.25,295.34Zm39.93-4.19a.33.33,0,0,1-.16,0,.27.27,0,0,1,0-.37c.57-.78,1.14-1.61,1.69-2.45a53.71,53.71,0,0,0,4.39-8.47.26.26,0,0,1,.34-.15.27.27,0,0,1,.14.35,53.88,53.88,0,0,1-4.43,8.55c-.55.86-1.13,1.69-1.71,2.48A.26.26,0,0,1,349.18,291.15Zm-52.6-14.92a.26.26,0,0,1-.25-.16,73.91,73.91,0,0,1-5.22-22.48c-.13-1.87-.2-3.77-.2-5.63,0-.93,0-1.87,0-2.79,0-.15.1-.28.27-.26a.27.27,0,0,1,.26.27c0,.93-.05,1.86-.05,2.78,0,1.85.06,3.73.2,5.59a73.15,73.15,0,0,0,5.18,22.32.26.26,0,0,1-.14.34A.2.2,0,0,1,296.58,276.23Zm60.49-1H357a.26.26,0,0,1-.17-.33,69.38,69.38,0,0,0,3-20.62c0-1.85-.07-3.72-.2-5.58-.12-1.61-.29-3.25-.51-4.85a.26.26,0,0,1,.52-.07c.23,1.61.4,3.26.51,4.88.14,1.87.2,3.76.2,5.62a70.06,70.06,0,0,1-3,20.77A.26.26,0,0,1,357.07,275.23Zm-65.47-35h0a.26.26,0,0,1-.23-.29,67.71,67.71,0,0,1,2.49-12.38.24.24,0,0,1,.32-.17.26.26,0,0,1,.18.32A67.57,67.57,0,0,0,291.86,240,.26.26,0,0,1,291.6,240.2Zm62-16.23a.25.25,0,0,1-.24-.15c-.3-.64-.6-1.27-.91-1.89a.26.26,0,1,1,.47-.23c.31.62.62,1.26.91,1.9a.26.26,0,0,1-.12.35Zm-57.76-1.05-.1,0a.27.27,0,0,1-.15-.34c.27-.66.54-1.31.83-1.95a.25.25,0,0,1,.34-.13.27.27,0,0,1,.13.35q-.42.94-.81,1.92A.27.27,0,0,1,295.82,222.92Zm54.3-5.43a.27.27,0,0,1-.23-.12,48.85,48.85,0,0,0-7.79-9.77.26.26,0,1,1,.36-.38,49.17,49.17,0,0,1,7.88,9.87.26.26,0,0,1-.09.36A.22.22,0,0,1,350.12,217.49Zm-41.05-13.16a.25.25,0,0,1-.21-.1.26.26,0,0,1,.05-.37,24.1,24.1,0,0,1,13-5.15,22.51,22.51,0,0,1,4.56.16,27,27,0,0,1,11.95,5,.27.27,0,0,1,.06.37.28.28,0,0,1-.37.06,26.39,26.39,0,0,0-11.71-4.9,21.45,21.45,0,0,0-4.45-.14,23.54,23.54,0,0,0-12.7,5A.25.25,0,0,1,309.07,204.33Z" style="fill: rgb(38, 50, 56); transform-origin: 325.651px 251.056px;" id="elmkte28j18a" class="animable"></path><path d="M327.55,297.31h0a16.83,16.83,0,0,1-1.87-.15,22.05,22.05,0,0,1-11.29-5.51.26.26,0,0,1,0-.37.27.27,0,0,1,.37,0,21.55,21.55,0,0,0,11,5.39,15.75,15.75,0,0,0,1.81.14.25.25,0,0,1,.25.27A.26.26,0,0,1,327.55,297.31Zm5.16-.81a.27.27,0,0,1-.25-.18.26.26,0,0,1,.17-.33c4.69-1.58,9.1-5.42,12.75-11.1a49.27,49.27,0,0,0,5.72-12.74.26.26,0,0,1,.32-.18.27.27,0,0,1,.18.33,49.6,49.6,0,0,1-5.78,12.87c-3.72,5.79-8.22,9.7-13,11.32ZM310.85,288a.25.25,0,0,1-.19-.09c-.46-.53-.91-1.08-1.34-1.64a.26.26,0,0,1,0-.36.27.27,0,0,1,.37,0c.43.56.88,1.1,1.32,1.61a.26.26,0,0,1,0,.37A.24.24,0,0,1,310.85,288Zm-10.63-20.32a.26.26,0,0,1-.25-.19,67.77,67.77,0,0,1-2.6-14.35c-.12-1.74-.19-3.49-.19-5.2a67.47,67.47,0,0,1,1-11.74.29.29,0,0,1,.31-.21.27.27,0,0,1,.21.31,66.24,66.24,0,0,0-1,11.64c0,1.7.06,3.44.18,5.16a67.59,67.59,0,0,0,2.59,14.25.26.26,0,0,1-.18.32Zm53.55-16a.28.28,0,0,1-.27-.26c0-.69-.06-1.39-.11-2.09a.27.27,0,0,1,.24-.28.26.26,0,0,1,.28.25q.07,1.05.12,2.1a.27.27,0,0,1-.25.28Zm-.68-7.32a.26.26,0,0,1-.26-.22,67.66,67.66,0,0,0-3-12.18.26.26,0,1,1,.49-.17,67,67,0,0,1,3,12.27.27.27,0,0,1-.22.3Zm-53.5-13h-.07a.26.26,0,0,1-.18-.32,51.27,51.27,0,0,1,4.7-11.72.26.26,0,0,1,.35-.11.26.26,0,0,1,.1.36,51.4,51.4,0,0,0-4.65,11.61A.26.26,0,0,1,299.59,231.39Zm48.6-4.08a.26.26,0,0,1-.24-.16c-5.18-11.67-13.15-19.65-21.31-21.36a.26.26,0,1,1,.11-.51c8.32,1.74,16.43,9.83,21.68,21.66a.25.25,0,0,1-.13.34Zm-41.09-12a.3.3,0,0,1-.16-.05.27.27,0,0,1-.06-.37c.43-.58.87-1.14,1.31-1.66a.27.27,0,0,1,.37,0,.26.26,0,0,1,0,.37c-.43.52-.86,1.07-1.28,1.64A.26.26,0,0,1,307.1,215.31Z" style="fill: rgb(38, 50, 56); transform-origin: 325.605px 251.277px;" id="el44lr3glnvq9" class="animable"></path><path d="M326.57,291h0c-3.42-.47-7.19-2.83-10.63-6.64a.26.26,0,1,1,.39-.35c3.36,3.71,7,6,10.31,6.47a.26.26,0,0,1,.22.29A.27.27,0,0,1,326.57,291Zm-13.69-10.69a.26.26,0,0,1-.22-.12c-.38-.57-.77-1.17-1.14-1.78a.26.26,0,1,1,.45-.27c.37.6.74,1.19,1.13,1.76a.26.26,0,0,1-.07.36A.3.3,0,0,1,312.88,280.26Zm28.84-.72-.12,0a.27.27,0,0,1-.11-.36c.33-.6.65-1.22.95-1.85a.27.27,0,0,1,.35-.13.28.28,0,0,1,.13.36c-.31.64-.64,1.27-1,1.87A.27.27,0,0,1,341.72,279.54Zm2.95-6.72h-.09a.26.26,0,0,1-.16-.34A53.83,53.83,0,0,0,347,260.24a.26.26,0,0,1,.28-.24.27.27,0,0,1,.24.29,54.34,54.34,0,0,1-2.61,12.35A.27.27,0,0,1,344.67,272.82ZM304.6,258.88a.27.27,0,0,1-.26-.22c-.33-2-.57-4-.71-6-.12-1.59-.18-3.2-.18-4.77a56.13,56.13,0,0,1,3.64-20.4.27.27,0,0,1,.34-.15.26.26,0,0,1,.15.34,55.56,55.56,0,0,0-3.6,20.21c0,1.56.06,3.15.17,4.74.14,2,.38,4,.71,5.91a.25.25,0,0,1-.21.3Zm42.95-3.59h0a.27.27,0,0,1-.26-.27c0-.24,0-.47,0-.71,0-1.55-.06-3.14-.17-4.73A58,58,0,0,0,339.78,225a.26.26,0,0,1,.1-.36.25.25,0,0,1,.35.1,58.6,58.6,0,0,1,7.41,24.85c.11,1.59.17,3.2.17,4.76V255A.26.26,0,0,1,347.55,255.29Zm-38-32.17-.12,0a.26.26,0,0,1-.11-.35c.35-.64.72-1.27,1.09-1.88a24.74,24.74,0,0,1,7.09-7.71.27.27,0,0,1,.37.08.26.26,0,0,1-.08.36,24,24,0,0,0-6.93,7.55c-.37.59-.73,1.22-1.08,1.85A.25.25,0,0,1,309.55,223.12ZM324.6,211.8h0a8.44,8.44,0,0,0-1.74-.05l-.29,0a.27.27,0,1,1,0-.53l.3,0a8.81,8.81,0,0,1,1.85.05.26.26,0,0,1,0,.52Z" style="fill: rgb(38, 50, 56); transform-origin: 325.63px 251.097px;" id="elvqntj70r4sb" class="animable"></path><path d="M397.29,246c-3.44-48.16-35.42-85.11-71.43-82.53-1.21.08-2.41.22-3.6.39h-.08c-36,2.58-62.41,43.7-59,91.86s35.43,85.11,71.44,82.54c1.21-.09,2.41-.22,3.59-.4h.08C374.33,335.27,400.74,294.14,397.29,246Zm-11.41,1.17c.72,10.35-4.38,19.31-11.71,21.31-7.95-.39-14.76-8.83-15.51-19.62-.71-10.35,4.39-19.31,11.72-21.3C378.33,227.93,385.13,236.36,385.88,247.15ZM353,182.85c7.75,5.29,11.08,17.79,7.44,27.91-2.08,5.75-5.95,9.49-10.34,10.69a13,13,0,0,1-6.63-2.34c-7.75-5.29-11.08-17.78-7.43-27.9,2.07-5.75,6-9.5,10.33-10.69A12.86,12.86,0,0,1,353,182.85Zm-28.19,82a4.69,4.69,0,0,1,.1-2.78,3.63,3.63,0,0,1,.39-.79,4.55,4.55,0,0,1,.89,4.56,4.15,4.15,0,0,1-.39.79A3.92,3.92,0,0,1,324.79,264.85Zm3-13.9a6.18,6.18,0,0,1,2-5.29,6.07,6.07,0,0,1,2.93,5.07,6.2,6.2,0,0,1-2,5.29A6.1,6.1,0,0,1,327.79,251Zm7.93-14.12a4.77,4.77,0,0,1-.1,2.78,4.15,4.15,0,0,1-.39.79,4.55,4.55,0,0,1-.89-4.56,3.87,3.87,0,0,1,.39-.79A4,4,0,0,1,335.72,236.83Zm-61.1,17.7c-.71-10.35,4.39-19.31,11.72-21.31,8,.39,14.75,8.83,15.5,19.62.72,10.35-4.38,19.31-11.71,21.3C282.18,273.75,275.37,265.32,274.62,254.53Zm32.9,64.3c-7.75-5.29-11.08-17.79-7.43-27.91,2.07-5.75,6-9.49,10.34-10.69a13,13,0,0,1,6.63,2.34c7.75,5.29,11.08,17.78,7.43,27.9-2.07,5.76-5.95,9.5-10.34,10.69A12.92,12.92,0,0,1,307.52,318.83Zm16.63-82.15a4.81,4.81,0,0,1,.48,2.74,4,4,0,0,1-.62,1.73,3.3,3.3,0,0,1-.63-.86,4.65,4.65,0,0,1-.48-2.74,4,4,0,0,1,.62-1.73A3.54,3.54,0,0,1,324.15,236.68Zm-4.06,14.92a4.28,4.28,0,0,1-.64,2.65,4.47,4.47,0,0,1-.5-5.32A4.22,4.22,0,0,1,320.09,251.6Zm-3.77-58.91c5,9.53,3.44,22.36-3.51,28.64a13,13,0,0,1-5.33,3c-4.84-.24-9.61-3.47-12.65-9.26-5-9.54-3.44-22.36,3.51-28.65a13.2,13.2,0,0,1,5.33-3C308.51,183.67,313.28,186.89,316.32,192.69Zm20,72.32a4.62,4.62,0,0,1,.14-4.48,3.54,3.54,0,0,1,.63.86,4.65,4.65,0,0,1,.48,2.74,4,4,0,0,1-.62,1.73A3.68,3.68,0,0,1,336.36,265Zm4.06-14.93a4.36,4.36,0,0,1,.63-2.65,4.16,4.16,0,0,1,1.14,2.68,4.38,4.38,0,0,1-.63,2.65A4.16,4.16,0,0,1,340.42,250.08ZM344.18,309c-5-9.53-3.43-22.36,3.52-28.64a13,13,0,0,1,5.33-3c4.83.24,9.6,3.47,12.65,9.26,5,9.54,3.43,22.36-3.52,28.65a13.08,13.08,0,0,1-5.33,3C352,318,347.23,314.79,344.18,309Z" style="fill: rgb(245, 64, 255); transform-origin: 330.238px 250.865px;" id="eleyh8mld5lu7" class="animable"></path><g id="eldm6i3eqsmah"><path d="M325.86,163.45c-36,2.57-62.42,43.7-59,91.85s35.42,85.11,71.43,82.54,62.42-43.7,59-91.86S361.87,160.87,325.86,163.45ZM336,191.21c3.64-10.13,12.88-14,20.64-8.75s11.08,17.78,7.43,27.9-12.89,14-20.64,8.75S332.37,201.33,336,191.21Zm9.85,58.5c.14,2-1,3.72-2.47,3.83h0c-1.5.1-2.83-1.45-3-3.46s1-3.72,2.46-3.83S345.73,247.7,345.87,249.71Zm-11.53-13.87a2.71,2.71,0,0,1,2.22-2,2.28,2.28,0,0,1,1.42.41,3.77,3.77,0,0,1,1.41,2.15,4.7,4.7,0,0,1-.1,2.78,2.7,2.7,0,0,1-2.22,1.95,2.16,2.16,0,0,1-1.42-.41A4.4,4.4,0,0,1,334.34,235.84Zm-6.52.44a4.66,4.66,0,0,1,.48,2.74,3.69,3.69,0,0,1-1.1,2.31,2.19,2.19,0,0,1-1.34.6,2.72,2.72,0,0,1-2.48-1.64,4.65,4.65,0,0,1-.48-2.74,3.69,3.69,0,0,1,1.1-2.31,2.22,2.22,0,0,1,1.33-.6A2.72,2.72,0,0,1,327.82,236.28ZM298.34,186.4c7-6.28,16.65-3.65,21.66,5.89s3.43,22.36-3.52,28.64-16.64,3.65-21.65-5.88S291.39,192.69,298.34,186.4Zm25.42,64.81c.14,2-1,3.72-2.46,3.82h0c-1.5.11-2.84-1.45-3-3.46s1-3.72,2.47-3.82S323.62,249.2,323.76,251.21Zm-49.13,3.32c-.8-11.41,5.48-21.12,14-21.7s16.08,8.2,16.88,19.61-5.49,21.12-14,21.7S275.42,265.94,274.63,254.53Zm53.53,55.55c-3.64,10.12-12.88,14-20.64,8.75s-11.08-17.79-7.43-27.91,12.89-14,20.64-8.75S331.81,300,328.16,310.08Zm1.68-44.63a2.72,2.72,0,0,1-2.22,1.95,2.23,2.23,0,0,1-1.42-.41,3.71,3.71,0,0,1-1.41-2.14,4.69,4.69,0,0,1,.1-2.78,2.71,2.71,0,0,1,2.22-2,2.28,2.28,0,0,1,1.42.41A4.41,4.41,0,0,1,329.84,265.45Zm-2-14.5c-.22-3.17,1.52-5.88,3.89-6s4.48,2.26,4.71,5.44-1.52,5.88-3.89,6S328,254.12,327.79,251ZM336.36,265A4.42,4.42,0,0,1,337,260a2.25,2.25,0,0,1,1.34-.6A2.72,2.72,0,0,1,340.8,261a4.66,4.66,0,0,1,.48,2.74,3.64,3.64,0,0,1-1.1,2.31,2.19,2.19,0,0,1-1.33.6A2.73,2.73,0,0,1,336.36,265Zm29.48,49.87c-6.95,6.29-16.65,3.65-21.66-5.89s-3.43-22.36,3.52-28.64,16.64-3.65,21.65,5.89S372.79,308.6,365.84,314.88Zm9.7-46.43c-8.53.58-16.08-8.2-16.88-19.61s5.49-21.12,14-21.69,16.08,8.2,16.87,19.6S384.07,267.87,375.54,268.45Z" style="fill: rgb(250, 250, 250); opacity: 0.2; transform-origin: 332.075px 250.645px;" class="animable"></path></g></g><g id="freepik--Plant--inject-11" class="animable" style="transform-origin: 411.443px 355.408px;"><path d="M409,389.21s-1.28-14-8.17-18.86c-4.88-3.42-1.7,6-1.7,6S392,366.8,388,369.31,395,381.4,395,381.4s-4.15-3.25-4.35,1S404.26,391.77,409,389.21Z" style="fill: rgb(245, 64, 255); transform-origin: 398.062px 379.393px;" id="elgkdzno95ix7" class="animable"></path><g id="el8az2nl428ts"><path d="M409,389.21s-1.28-14-8.17-18.86c-4.88-3.42-1.7,6-1.7,6S392,366.8,388,369.31,395,381.4,395,381.4s-4.15-3.25-4.35,1S404.26,391.77,409,389.21Z" style="fill: rgb(255, 255, 255); opacity: 0.2; transform-origin: 398.062px 379.393px;" class="animable"></path></g><path d="M408.79,396.52c-.08-.13-8.65-13.37-1.25-31.18s13.61-36.95,8.41-54.76l1-.28c5.28,18.11-.94,37.34-8.45,55.42-7.18,17.3,1.08,30.12,1.17,30.25Z" style="fill: rgb(245, 64, 255); transform-origin: 411.724px 353.41px;" id="elgfd7297b9mb" class="animable"></path><path d="M407.25,389.21s-1.84-7.91,2.31-14,3.17,1.39,3.17,1.39,5.14-8,10.08-9.74-1,7.37-1,7.37a2.32,2.32,0,0,1,3.57,1C426.77,377.75,420,387.42,407.25,389.21Z" style="fill: rgb(245, 64, 255); transform-origin: 416.201px 377.925px;" id="ele5fivtruxio" class="animable"></path><g id="elmhgcppwyyic"><path d="M407.25,389.21s-1.84-7.91,2.31-14,3.17,1.39,3.17,1.39,5.14-8,10.08-9.74-1,7.37-1,7.37a2.32,2.32,0,0,1,3.57,1C426.77,377.75,420,387.42,407.25,389.21Z" style="fill: rgb(255, 255, 255); opacity: 0.4; transform-origin: 416.201px 377.925px;" class="animable"></path></g><path d="M387.16,398.51c0,10.39-4.58,18.82,18.82,18.82,20.8,0,18.82-8.43,18.82-18.82s-8.43-13.33-18.82-13.33S387.16,388.12,387.16,398.51Z" style="fill: rgb(38, 50, 56); transform-origin: 405.824px 401.255px;" id="el6dlad87m8y" class="animable"></path><g id="elkfao8c00fl"><rect x="385.12" y="384.98" width="41.66" height="10.31" style="fill: rgb(38, 50, 56); transform-origin: 405.95px 390.135px; transform: rotate(180deg);" class="animable"></rect></g><g id="eltv59niqs3ic"><rect x="385.12" y="384.98" width="41.66" height="10.31" style="fill: rgb(255, 255, 255); isolation: isolate; opacity: 0.2; transform-origin: 405.95px 390.135px; transform: rotate(180deg);" class="animable"></rect></g><path d="M408.79,363.64l-.2-.48c-2.65-6.39-2.5-14.83-2.49-15.19l1,0c0,.09-.15,8.16,2.22,14.3,2.35-1.1,12.76-6.12,15.62-10l.8.59c-3.37,4.55-15.95,10.27-16.48,10.51Z" style="fill: rgb(245, 64, 255); transform-origin: 415.918px 355.805px;" id="el2glgdaxqr7d" class="animable"></path><path d="M417.11,336.69l-.21-.7a21.54,21.54,0,0,0-7.28-10.27l.59-.82a22.51,22.51,0,0,1,7.43,10.1c2.22-1.79,10.31-8.51,11.84-12.38l.93.37c-1.87,4.72-12.28,12.9-12.72,13.25Z" style="fill: rgb(245, 64, 255); transform-origin: 420.015px 329.655px;" id="elt0dk051xqha" class="animable"></path><path d="M417.93,317.61s.41-3.28-4.36-6.71-5.85-8.29-3-10.34-2.33-6.17,1.18-7,1.83,5.6,4.84,5.26S422.6,306.72,417.93,317.61Z" style="fill: rgb(245, 64, 255); transform-origin: 414.68px 305.548px;" id="eligd8zxqpfza" class="animable"></path><path d="M425.48,328.64a18.16,18.16,0,0,0,.69-8.07c-.68-4.2,3.29-6.89,4.87-3.32s5-1.39,6.53,3.16-6.42,4.95-5.55,7.17S425.48,328.64,425.48,328.64Z" style="fill: rgb(245, 64, 255); transform-origin: 431.623px 322.266px;" id="el2cdzmjzspnn" class="animable"></path><path d="M414,329.36s-2.56-10.14-4-11.28-1.32,1.92-3.71.17-6.31-2.84-5.83.95,7.26,4.85,4.79,6.88S412.47,327.2,414,329.36Z" style="fill: rgb(245, 64, 255); transform-origin: 407.21px 323.004px;" id="elpfgysu6sxzl" class="animable"></path><path d="M407,354.3s6.06-5.7,4-7-2.11,1.49-2.64-1.43.13-6.23-2.8-5.75-.54,7.73-2.36,7.61-4.13-2.32-3.78.61S407,354.3,407,354.3Z" style="fill: rgb(245, 64, 255); transform-origin: 405.406px 347.187px;" id="eltq3cvmwckpd" class="animable"></path><path d="M418.68,358.27s3.28-5.85,3.22-9.24,4.09-4.82,3.77-.62,4.51-4.53,6.49-2.25,1,7.42-2.45,8.39.91,2.35-.59,4.56S418.68,358.27,418.68,358.27Z" style="fill: rgb(245, 64, 255); transform-origin: 425.926px 352.843px;" id="el7p228ullcom" class="animable"></path><g id="ellug3gybl09n"><g style="opacity: 0.2; transform-origin: 418.575px 326.7px;" class="animable"><path d="M417.93,317.61s.41-3.28-4.36-6.71-5.85-8.29-3-10.34-2.33-6.17,1.18-7,1.83,5.6,4.84,5.26S422.6,306.72,417.93,317.61Z" style="fill: rgb(255, 255, 255); transform-origin: 414.68px 305.548px;" id="elj9ar1k2tyko" class="animable"></path><path d="M425.48,328.64a18.16,18.16,0,0,0,.69-8.07c-.68-4.2,3.29-6.89,4.87-3.32s5-1.39,6.53,3.16-6.42,4.95-5.55,7.17S425.48,328.64,425.48,328.64Z" style="fill: rgb(255, 255, 255); transform-origin: 431.623px 322.266px;" id="elgvxcb20oxpc" class="animable"></path><path d="M414,329.36s-2.56-10.14-4-11.28-1.32,1.92-3.71.17-6.31-2.84-5.83.95,7.26,4.85,4.79,6.88S412.47,327.2,414,329.36Z" style="fill: rgb(255, 255, 255); transform-origin: 407.21px 323.004px;" id="elxyp31v0nfhf" class="animable"></path><path d="M407,354.3s6.06-5.7,4-7-2.11,1.49-2.64-1.43.13-6.23-2.8-5.75-.54,7.73-2.36,7.61-4.13-2.32-3.78.61S407,354.3,407,354.3Z" style="fill: rgb(255, 255, 255); transform-origin: 405.406px 347.187px;" id="elhxarufbcgu" class="animable"></path><path d="M418.68,358.27s3.28-5.85,3.22-9.24,4.09-4.82,3.77-.62,4.51-4.53,6.49-2.25,1,7.42-2.45,8.39.91,2.35-.59,4.56S418.68,358.27,418.68,358.27Z" style="fill: rgb(255, 255, 255); transform-origin: 425.926px 352.843px;" id="elovh6sk5bo0i" class="animable"></path></g></g></g><g id="freepik--Character--inject-11" class="animable" style="transform-origin: 134.633px 280.983px;"><path d="M105.22,202.7l-1.91,1.57c-.66.54-1.31,1.1-1.94,1.66-1.26,1.11-2.49,2.25-3.56,3.4a17.89,17.89,0,0,0-2.5,3.21,5.57,5.57,0,0,0-.3.55c-.05.09,0,.12-.08.18v-.06a.43.43,0,0,0,0-.16.65.65,0,0,0,0-.21c-.11-.38,0,.16.22.67a22,22,0,0,0,2.57,3.81c1.06,1.33,2.25,2.65,3.45,4,2.43,2.63,5,5.26,7.6,7.84l-3.15,4.25A80,80,0,0,1,95.94,227a57.25,57.25,0,0,1-4.53-3.84,27.8,27.8,0,0,1-4.31-5,13.44,13.44,0,0,1-1-1.83,9.16,9.16,0,0,1-.74-2.69,8.76,8.76,0,0,1-.05-.91l0-.51,0-.25,0-.15c.06-.4.11-.83.2-1.19a14.63,14.63,0,0,1,.63-2.08,23.88,23.88,0,0,1,3.66-6.06A43.49,43.49,0,0,1,94.16,198c.75-.69,1.51-1.36,2.29-2s1.54-1.23,2.49-1.89Z" style="fill: rgb(255, 195, 189); transform-origin: 97.04px 213.76px;" id="el51015ps6iza" class="animable"></path><path d="M118.57,191.2c.31,6.33-13.48,15.51-13.48,15.51l-12.48-9.37a27.1,27.1,0,0,1,9.94-9.64C109.93,183.41,118.25,184.72,118.57,191.2Z" style="fill: rgb(245, 64, 255); transform-origin: 105.593px 195.96px;" id="elv3ln0hp95n" class="animable"></path><g id="elh4savntani"><path d="M118.57,191.2c.13,2.66-2.23,5.83-5,8.61a62.64,62.64,0,0,1-6.68,5.65c-1.08.78-1.78,1.26-1.78,1.26l-9.39-7.06-3.08-2.32s.09-.17.27-.47a28,28,0,0,1,9.66-9.17C109.94,183.4,118.25,184.73,118.57,191.2Z" style="fill: rgb(250, 250, 250); opacity: 0.6; transform-origin: 105.608px 195.964px;" class="animable"></path></g><polygon points="92.61 195.82 106.78 206.71 104.43 209.25 91.28 198.03 92.61 195.82" style="fill: rgb(245, 64, 255); transform-origin: 99.03px 202.535px;" id="elgw4vi1pruj" class="animable"></polygon><g id="elxv9203vockn"><path d="M113.55,199.81a62.64,62.64,0,0,1-6.68,5.65c-.4-4.45,2.22-9.64,2.22-9.64A19.51,19.51,0,0,1,113.55,199.81Z" style="opacity: 0.2; transform-origin: 110.189px 200.64px;" class="animable"></path></g><path d="M108.74,229.15s3.92,5.56,3.33,7.83a34.89,34.89,0,0,1-2.59,5.93l-6.37.76,2.12-5.56.36-5.44Z" style="fill: rgb(255, 195, 189); transform-origin: 107.62px 236.41px;" id="el7gfx4yvtxom" class="animable"></path><polygon points="78.49 407.55 84.94 408.94 91.41 394.72 84.96 393.33 78.49 407.55" style="fill: rgb(255, 195, 189); transform-origin: 84.95px 401.135px;" id="elza9g108wyns" class="animable"></polygon><polygon points="126.88 410.6 133.47 410.6 134.13 395.33 127.54 395.33 126.88 410.6" style="fill: rgb(255, 195, 189); transform-origin: 130.505px 402.965px;" id="elqv8n4p348gg" class="animable"></polygon><g id="elxdxcf65lz9m"><polygon points="134.13 395.34 133.79 403.2 127.19 403.2 127.53 395.34 134.13 395.34" style="opacity: 0.2; transform-origin: 130.66px 399.27px;" class="animable"></polygon></g><g id="eljq0tmtuay5"><polygon points="84.96 393.33 91.41 394.73 88.07 402.06 81.62 400.66 84.96 393.33" style="opacity: 0.2; transform-origin: 86.515px 397.695px;" class="animable"></polygon></g><path d="M131.6,242.91s0,.29-.12.82-.23,1.48-.39,2.63c-1.26,8.29-4.58,30-7.62,47.54-1.25,7.17-2.45,13.66-3.46,18.26-4.5,20.68-28.62,89-28.62,89l-11.8-2.55S96.46,342.94,100.23,314c2.44-18.65,6.86-56.18,8.21-67.68.13-1.15.23-2,.3-2.63s.1-.82.1-.82Z" style="fill: rgb(38, 50, 56); transform-origin: 105.595px 322.015px;" id="elzi1rvtinqd9" class="animable"></path><g id="el8wm4poy73z5"><path d="M131.6,242.91s0,.29-.12.82-.23,1.48-.39,2.63c-1.26,8.29-4.58,30-7.62,47.54-1.25,7.17-2.45,13.66-3.46,18.26-4.5,20.68-28.62,89-28.62,89l-11.8-2.55S96.46,342.94,100.23,314c2.44-18.65,6.86-56.18,8.21-67.68.13-1.15.23-2,.3-2.63s.1-.82.1-.82Z" style="fill: rgb(250, 250, 250); opacity: 0.2; transform-origin: 105.595px 322.015px;" class="animable"></path></g><g id="el0ffjpgpt1kqd"><path d="M126.87,260.86c-8.65,1.7-7.74,34-6.7,50.55,2.5-11.73,6.15-34.3,8.65-50.32A3,3,0,0,0,126.87,260.86Z" style="opacity: 0.3; transform-origin: 124.17px 286.1px;" class="animable"></path></g><path d="M144.3,312.3c-.75,20.91-8.05,89.38-8.05,89.38H125.08s-.41-67.25-.91-87.79c-.12-5.45-.39-12.48-.7-20v0c-.79-18.29-1.91-39.41-2.36-47.54,0-1.15-.1-2-.13-2.63s0-.82,0-.82h23.18s0,.29,0,.82,0,1.48,0,2.63C144.36,257.88,144.9,295.4,144.3,312.3Z" style="fill: rgb(38, 50, 56); transform-origin: 132.771px 322.29px;" id="ellym6lakvrms" class="animable"></path><g id="elmapiccuij2q"><path d="M144.3,312.3c-.75,20.91-8.05,89.38-8.05,89.38H125.08s-.41-67.25-.91-87.79c-.12-5.45-.39-12.48-.7-20v0c-.79-18.29-1.91-39.41-2.36-47.54,0-1.15-.1-2-.13-2.63s0-.82,0-.82h23.18s0,.29,0,.82,0,1.48,0,2.63C144.36,257.88,144.9,295.4,144.3,312.3Z" style="fill: rgb(250, 250, 250); opacity: 0.2; transform-origin: 132.771px 322.29px;" class="animable"></path></g><path d="M134.91,159.89c.11.52.47.89.81.82s.53-.55.43-1.07-.47-.89-.81-.82S134.81,159.37,134.91,159.89Z" style="fill: rgb(38, 50, 56); transform-origin: 135.53px 159.765px;" id="elxzif14up6as" class="animable"></path><path d="M135.33,160.79a19.22,19.22,0,0,0,3.4,4,3,3,0,0,1-2.39,1Z" style="fill: rgb(237, 132, 126); transform-origin: 137.03px 163.292px;" id="elp49ukq0a2u9" class="animable"></path><path d="M132.42,157.39a.29.29,0,0,1-.21-.09.3.3,0,0,1,0-.44,3.08,3.08,0,0,1,2.66-1,.31.31,0,0,1-.11.61h0a2.49,2.49,0,0,0-2.09.85A.34.34,0,0,1,132.42,157.39Z" style="fill: rgb(38, 50, 56); transform-origin: 133.616px 156.615px;" id="ely7ls7k66ux" class="animable"></path><path d="M120.07,167.22c1,4.82,1.89,13.66-1.48,16.88,0,0,1.31,4.89,10.28,4.89,9.85,0,4.7-4.89,4.7-4.89-5.37-1.28-5.23-5.27-4.3-9Z" style="fill: rgb(255, 195, 189); transform-origin: 126.753px 178.105px;" id="elf979mb0wh36" class="animable"></path><path d="M116.64,185c-.72-1.34-1.51-2.87.13-3.35,1.8-.53,13.4-1.51,16.81-.52-1.05,1.87.72,4.15.72,4.15Z" style="fill: rgb(245, 64, 255); transform-origin: 125.052px 182.993px;" id="elqranawl4gxf" class="animable"></path><path d="M87.45,409.83a2.14,2.14,0,0,0,1.64-.09.63.63,0,0,0,.15-.72.71.71,0,0,0-.4-.46c-.89-.43-2.94.4-3,.44a.15.15,0,0,0-.1.14.16.16,0,0,0,.09.15A8,8,0,0,0,87.45,409.83Zm1.07-1.05a.48.48,0,0,1,.18.06.39.39,0,0,1,.24.26c.08.29,0,.37,0,.4-.36.3-1.67,0-2.6-.34A5,5,0,0,1,88.52,408.78Z" style="fill: rgb(245, 64, 255); transform-origin: 87.517px 409.194px;" id="elhsrwz4lufyd" class="animable"></path><path d="M85.84,409.3h.08c.74-.21,2.34-1.35,2.36-2.09a.53.53,0,0,0-.4-.51.84.84,0,0,0-.69.06c-.88.45-1.44,2.27-1.46,2.35a.14.14,0,0,0,0,.15A.18.18,0,0,0,85.84,409.3ZM87.71,407l.07,0c.19.06.19.16.19.2,0,.44-1.07,1.33-1.84,1.69a3.72,3.72,0,0,1,1.2-1.86A.57.57,0,0,1,87.71,407Z" style="fill: rgb(245, 64, 255); transform-origin: 86.9941px 407.976px;" id="eltfx2mdgvhfc" class="animable"></path><path d="M136.12,410.94c.85,0,1.66-.12,1.94-.5a.59.59,0,0,0,0-.68.78.78,0,0,0-.49-.37c-1.1-.3-3.4,1-3.5,1.07a.16.16,0,0,0-.08.16.16.16,0,0,0,.13.13A10.87,10.87,0,0,0,136.12,410.94Zm1-1.28a1.39,1.39,0,0,1,.3,0,.46.46,0,0,1,.3.22c.11.2.07.29,0,.35-.3.42-2,.43-3.2.26A7.23,7.23,0,0,1,137.17,409.66Z" style="fill: rgb(245, 64, 255); transform-origin: 136.078px 410.143px;" id="eljq6nbp02nh" class="animable"></path><path d="M134.13,410.75h.06c.8-.36,2.37-1.78,2.25-2.53,0-.17-.15-.39-.58-.43a1.09,1.09,0,0,0-.86.26,4.51,4.51,0,0,0-1,2.54.18.18,0,0,0,.07.15Zm1.61-2.67h.09c.28,0,.3.14.31.17.07.45-1,1.57-1.81,2.06a3.55,3.55,0,0,1,.87-2A.8.8,0,0,1,135.74,408.08Z" style="fill: rgb(245, 64, 255); transform-origin: 135.223px 409.265px;" id="elgn63nnbxtvf" class="animable"></path><path d="M85.56,408.29l-7.24-1.56a.57.57,0,0,0-.65.32l-2.51,5.45a1,1,0,0,0,.7,1.35c2.53.5,3.79.62,7,1.31,2,.42,6.38,1.5,9.08,2.09s3.64-2,2.58-2.5c-4.73-2.16-6.7-4.06-8-5.83A1.65,1.65,0,0,0,85.56,408.29Z" style="fill: rgb(38, 50, 56); transform-origin: 85.0163px 412.026px;" id="el080h3y2zj17c" class="animable"></path><path d="M133.43,409.84h-7.2a.57.57,0,0,0-.56.45l-1.3,5.86a1,1,0,0,0,.94,1.17c2.6-.05,6.35-.2,9.62-.2,3.81,0,7.11.21,11.59.21,2.7,0,3.45-2.74,2.32-3-5.16-1.13-9.37-1.25-13.82-4A3.06,3.06,0,0,0,133.43,409.84Z" style="fill: rgb(38, 50, 56); transform-origin: 136.851px 413.585px;" id="eldqkfc9n6mfq" class="animable"></path><path d="M143.71,185.93s7,7.92.4,57H108.84c-.24-5.41,3.16-31.82-2.06-57.32a92.69,92.69,0,0,1,11.81-1.49,129,129,0,0,1,15,0A66.39,66.39,0,0,1,143.71,185.93Z" style="fill: rgb(245, 64, 255); transform-origin: 126.862px 213.416px;" id="el7mkalrwzn3t" class="animable"></path><g id="elso6bhdb6dc"><path d="M146.94,209.25a282.59,282.59,0,0,1-2.83,33.66H108.84c-.24-5.41,3.17-31.81-2.06-57.32a92.39,92.39,0,0,1,11.81-1.49,129.16,129.16,0,0,1,15,0,65.29,65.29,0,0,1,10.14,1.83s1.32,1.49,2.28,7.22A92.94,92.94,0,0,1,146.94,209.25Z" style="fill: rgb(250, 250, 250); opacity: 0.6; transform-origin: 126.88px 213.396px;" class="animable"></path></g><g id="elrw7vxwwkwc"><path d="M146.94,209.25c-2.95-3.1-8.08-9.3-7.64-14.5l6.7-1.6A92.94,92.94,0,0,1,146.94,209.25Z" style="opacity: 0.2; transform-origin: 143.126px 201.2px;" class="animable"></path></g><path d="M117.31,162.32c1.69,6.32,2.36,10.1,6.26,12.73,5.87,4,13.17-.58,13.4-7.28.21-6-2.6-15.35-9.38-16.62A8.92,8.92,0,0,0,117.31,162.32Z" style="fill: rgb(255, 195, 189); transform-origin: 126.979px 163.766px;" id="elazhtrc5gr7" class="animable"></path><path d="M120.21,172.63c2.69,1.53,12.49-3.61,10.47-11.4,0,0,3.74-4.48,3.31-9.44s-3.82-6.84-7.43-5.77c-3.19.93-3.1,2.68-3.1,2.68s-15.06,1.77-11.85,7.9C105.48,163.28,116.86,170.71,120.21,172.63Z" style="fill: rgb(38, 50, 56); transform-origin: 121.926px 159.315px;" id="elfurlwfb5w3p" class="animable"></path><path d="M128.06,162.59a7.43,7.43,0,0,0,2.66,3.93c1.72,1.28,3,0,2.88-1.92-.11-1.75-1.14-4.52-3-5S127.57,160.69,128.06,162.59Z" style="fill: rgb(255, 195, 189); transform-origin: 130.778px 163.274px;" id="elu8y1q4bj1d" class="animable"></path><path d="M94.22,397.28s-2.2,4.26-2.2,4.26l-13.28-2.87,1.12-4Z" style="fill: rgb(245, 64, 255); transform-origin: 86.48px 398.105px;" id="elit24i3yhunm" class="animable"></path><path d="M138.4,397.23s-.63,4.64-.63,4.64H124.18l-.37-4.14Z" style="fill: rgb(245, 64, 255); transform-origin: 131.105px 399.55px;" id="eluw89hg1rex" class="animable"></path><path d="M141.25,189.35c1.87-.59,3.95-1.23,5.9-1.92s4-1.39,5.91-2.13a92.61,92.61,0,0,0,11.19-5,44.62,44.62,0,0,0,9.39-7.11,116.53,116.53,0,0,0,8.58-9.16l4.54,2.71a61.34,61.34,0,0,1-7.06,11.84,49.3,49.3,0,0,1-4.66,5.32c-.85.86-1.77,1.67-2.71,2.47s-2,1.58-3,2.2a59.84,59.84,0,0,1-6.06,3.59c-2.05,1.1-4.14,2.05-6.24,3s-4.22,1.73-6.36,2.48-4.25,1.45-6.59,2Z" style="fill: rgb(255, 195, 189); transform-origin: 164.005px 181.835px;" id="elhleiovjpka" class="animable"></path><path d="M140.81,200.64c6.33,6.51,22.21-2.37,22.21-2.37L158.3,183a85.8,85.8,0,0,0-16.51,2.1C132,187.49,136,195.68,140.81,200.64Z" style="fill: rgb(245, 64, 255); transform-origin: 149.394px 193.013px;" id="elrksra21fl8a" class="animable"></path><g id="elzv1b76a4m1"><path d="M140.81,200.64c6.33,6.51,22.21-2.37,22.21-2.37L158.3,183a85.8,85.8,0,0,0-16.51,2.1C132,187.49,136,195.68,140.81,200.64Z" style="fill: rgb(250, 250, 250); opacity: 0.6; transform-origin: 149.394px 193.013px;" class="animable"></path></g><path d="M181.76,164.82l4.12-7.14,5.59,4.55s-2.18,5.4-7,5.34Z" style="fill: rgb(255, 195, 189); transform-origin: 186.615px 162.625px;" id="elrqtreu0i0op" class="animable"></path><polygon points="188.86 156.12 194.18 158.96 191.42 162.34 185.88 157.68 188.86 156.12" style="fill: rgb(255, 195, 189); transform-origin: 190.03px 159.23px;" id="elxgtca401bcq" class="animable"></polygon><g id="elqiqdvj9hj6"><path d="M94.22,397.28s-2.2,4.26-2.2,4.26l-13.28-2.87,1.12-4Z" style="fill: rgb(250, 250, 250); opacity: 0.6; transform-origin: 86.48px 398.105px;" class="animable"></path></g><g id="elw6pe1yb8t7t"><path d="M138.4,397.23s-.63,4.64-.63,4.64H124.18l-.37-4.14Z" style="fill: rgb(250, 250, 250); opacity: 0.6; transform-origin: 131.105px 399.55px;" class="animable"></path></g><polygon points="156.71 182.6 161.19 201.2 164.19 198.69 158.97 182.05 156.71 182.6" style="fill: rgb(245, 64, 255); transform-origin: 160.45px 191.625px;" id="elsyzwhv7azr" class="animable"></polygon><rect x="113.09" y="243.73" width="12.32" height="2.63" style="fill: rgb(38, 50, 56); transform-origin: 119.25px 245.045px;" id="eloqxz7zl205" class="animable"></rect><rect x="127.03" y="243.73" width="11.44" height="2.63" style="fill: rgb(38, 50, 56); transform-origin: 132.75px 245.045px;" id="el6mp3ddxnjna" class="animable"></rect><path d="M112,243.73v2.63h-3.57c.13-1.15.23-2,.3-2.63Z" style="fill: rgb(38, 50, 56); transform-origin: 110.215px 245.045px;" id="elz2wl4as3l8l" class="animable"></path><path d="M144.17,246.36h-4.59v-2.63h4.54C144.14,244.32,144.15,245.21,144.17,246.36Z" style="fill: rgb(38, 50, 56); transform-origin: 141.875px 245.045px;" id="elms64ygr6b9s" class="animable"></path><path d="M133.61,146.73c-5.66-5.74-11.09,2.1-11.09,2.1l9.59-.93c4.42,2.23,2.36,7.65,2.36,7.65S138.23,151.42,133.61,146.73Z" style="fill: rgb(38, 50, 56); transform-origin: 129.216px 150.089px;" id="el7olbseb5yt6" class="animable"></path></g><defs>     <filter id="active" height="200%">         <feMorphology in="SourceAlpha" result="DILATED" operator="dilate" radius="2"></feMorphology>                <feFlood flood-color="#32DFEC" flood-opacity="1" result="PINK"></feFlood>        <feComposite in="PINK" in2="DILATED" operator="in" result="OUTLINE"></feComposite>        <feMerge>            <feMergeNode in="OUTLINE"></feMergeNode>            <feMergeNode in="SourceGraphic"></feMergeNode>        </feMerge>    </filter>    <filter id="hover" height="200%">        <feMorphology in="SourceAlpha" result="DILATED" operator="dilate" radius="2"></feMorphology>                <feFlood flood-color="#ff0000" flood-opacity="0.5" result="PINK"></feFlood>        <feComposite in="PINK" in2="DILATED" operator="in" result="OUTLINE"></feComposite>        <feMerge>            <feMergeNode in="OUTLINE"></feMergeNode>            <feMergeNode in="SourceGraphic"></feMergeNode>        </feMerge>            <feColorMatrix type="matrix" values="0   0   0   0   0                0   1   0   0   0                0   0   0   0   0                0   0   0   1   0 "></feColorMatrix>    </filter></defs></svg>