<svg class="animated" id="freepik_stories-drive-in-movie-theater" xmlns="http://www.w3.org/2000/svg" viewBox="0 0 500 500" version="1.1" xmlns:xlink="http://www.w3.org/1999/xlink" xmlns:svgjs="http://svgjs.com/svgjs"><style>svg#freepik_stories-drive-in-movie-theater:not(.animated) .animable {opacity: 0;}svg#freepik_stories-drive-in-movie-theater.animated #freepik--Character--inject-111 {animation: 1s 1 forwards cubic-bezier(.36,-0.01,.5,1.38) slideLeft;animation-delay: 0s;}            @keyframes slideLeft {                0% {                    opacity: 0;                    transform: translateX(-30px);                }                100% {                    opacity: 1;                    transform: translateX(0);                }            }        </style><g id="freepik--background-complete--inject-111" class="animable" style="transform-origin: 250px 226.5px;"><rect y="382.4" width="500" height="0.25" style="fill: rgb(235, 235, 235); transform-origin: 250px 382.525px;" id="el51hrlq5maxh" class="animable"></rect><rect x="53.79" y="391.21" width="41.21" height="0.25" style="fill: rgb(235, 235, 235); transform-origin: 74.395px 391.335px;" id="el1bbu2lye4mj" class="animable"></rect><rect x="137.67" y="389.21" width="41.33" height="0.25" style="fill: rgb(235, 235, 235); transform-origin: 158.335px 389.335px;" id="el9ubaspwm96" class="animable"></rect><rect x="222.78" y="389.21" width="10" height="0.25" style="fill: rgb(235, 235, 235); transform-origin: 227.78px 389.335px;" id="eldtl2yzbilc" class="animable"></rect><rect x="86.58" y="397.75" width="46.25" height="0.25" style="fill: rgb(235, 235, 235); transform-origin: 109.705px 397.875px;" id="el9fmuj5tdzbq" class="animable"></rect><rect x="271.2" y="391.08" width="21.6" height="0.25" style="fill: rgb(235, 235, 235); transform-origin: 282px 391.205px;" id="elc3x1ab655qr" class="animable"></rect><rect x="301.7" y="391.08" width="27.93" height="0.25" style="fill: rgb(235, 235, 235); transform-origin: 315.665px 391.205px;" id="elfswint339ri" class="animable"></rect><rect x="401.89" y="395.31" width="62.44" height="0.25" style="fill: rgb(235, 235, 235); transform-origin: 433.11px 395.435px;" id="elnrosp2yo1w9" class="animable"></rect><path d="M237,337.8H43.91a5.71,5.71,0,0,1-5.7-5.71V60.66A5.71,5.71,0,0,1,43.91,55H237a5.71,5.71,0,0,1,5.71,5.71V332.09A5.71,5.71,0,0,1,237,337.8ZM43.91,55.2a5.46,5.46,0,0,0-5.45,5.46V332.09a5.46,5.46,0,0,0,5.45,5.46H237a5.47,5.47,0,0,0,5.46-5.46V60.66A5.47,5.47,0,0,0,237,55.2Z" style="fill: rgb(235, 235, 235); transform-origin: 140.46px 196.4px;" id="eltr4hp9ukwia" class="animable"></path><path d="M453.31,337.8H260.21a5.72,5.72,0,0,1-5.71-5.71V60.66A5.72,5.72,0,0,1,260.21,55h193.1A5.71,5.71,0,0,1,459,60.66V332.09A5.71,5.71,0,0,1,453.31,337.8ZM260.21,55.2a5.47,5.47,0,0,0-5.46,5.46V332.09a5.47,5.47,0,0,0,5.46,5.46h193.1a5.47,5.47,0,0,0,5.46-5.46V60.66a5.47,5.47,0,0,0-5.46-5.46Z" style="fill: rgb(235, 235, 235); transform-origin: 356.75px 196.4px;" id="elp88ijwkvdpa" class="animable"></path><path d="M32,338a56,56,0,0,1,16.84,9.64A59.19,59.19,0,0,1,54.32,314s11,11.75,16.79,27.6a36.72,36.72,0,0,1,5.76-6.37,75.19,75.19,0,0,1-1.5-9.5A71.48,71.48,0,0,1,96.88,338a75.62,75.62,0,0,1,7-43s14.09,15,21.44,35.25a43.62,43.62,0,0,1,9.53-9.88s7.43,14.86,8.14,31a42.84,42.84,0,0,1,15-1.22s-.29,19.16-11,29.61a24.33,24.33,0,0,1-3.23,2.67h-98a56,56,0,0,1-12.55-14.13,27.77,27.77,0,0,1,8.64-1.57C33.05,353.55,32,338,32,338Z" style="fill: rgb(230, 230, 230); transform-origin: 94.995px 338.715px;" id="elecem1tkt4y" class="animable"></path><path d="M183.53,316.82a82.93,82.93,0,0,1,24.87,14.24,87.41,87.41,0,0,1,8.13-49.73s16.29,17.34,24.78,40.76a54.67,54.67,0,0,1,8.52-9.41,109.28,109.28,0,0,1-2.21-14,105.83,105.83,0,0,1,31.76,18.19c-5-35.52,10.38-63.51,10.38-63.51s20.81,22.14,31.66,52.05a64.74,64.74,0,0,1,14.07-14.59s11,21.94,12,45.75a63.11,63.11,0,0,1,22.15-1.81s-.43,28.31-16.27,43.74a37.27,37.27,0,0,1-4.78,3.94H203.84c-11.35-8.7-18.54-20.87-18.54-20.87a41.06,41.06,0,0,1,12.76-2.31C185.12,339.8,183.53,316.82,183.53,316.82Z" style="fill: rgb(245, 245, 245); transform-origin: 276.585px 317.9px;" id="elrs2hn4yy0am" class="animable"></path><path d="M431.39,382.4H354.06a1,1,0,0,1-1-1V201a1,1,0,0,1,1-1h77.33a1,1,0,0,1,1,1V381.4A1,1,0,0,1,431.39,382.4Zm-76.33-2h75.33V202H355.06Z" style="fill: rgb(224, 224, 224); transform-origin: 392.725px 291.2px;" id="elad7g3ymp544" class="animable"></path><path d="M431.39,382.4a1,1,0,0,1-.66-.25L405,359.59a1,1,0,0,1,0-1.5l24.91-21.8L405,314.48a1,1,0,0,1,0-1.5l24.91-21.8L405,269.37a1,1,0,0,1,0-1.5l24.91-21.81L405,224.26a1,1,0,0,1,0-1.5l25.77-22.56a1,1,0,0,1,1.32,1.51l-24.92,21.8,24.92,21.8a1,1,0,0,1,0,1.51l-24.92,21.8,24.92,21.8a1,1,0,0,1,0,1.51l-24.92,21.8,24.92,21.8a1,1,0,0,1,.34.76,1,1,0,0,1-.34.75l-24.92,21.8,24.92,21.81a1,1,0,0,1-.66,1.75Z" style="fill: rgb(224, 224, 224); transform-origin: 418.548px 291.176px;" id="eloiwyly257q" class="animable"></path><path d="M405.61,382.4a1,1,0,0,1-.75-.34,1,1,0,0,1,.1-1.41l24.91-21.81L405,337a1,1,0,0,1-.35-.75,1,1,0,0,1,.35-.76l24.91-21.8L405,291.93a1,1,0,0,1,0-1.51l24.91-21.8L405,246.82a1,1,0,0,1,0-1.51l24.91-21.8L405,201.71a1,1,0,1,1,1.31-1.51l25.78,22.56a1,1,0,0,1,0,1.5l-24.92,21.8,24.92,21.81a1,1,0,0,1,0,1.5l-24.92,21.81L432.05,313a1,1,0,0,1,0,1.5l-24.92,21.81,24.92,21.8a1,1,0,0,1,0,1.5l-25.78,22.56A1,1,0,0,1,405.61,382.4Z" style="fill: rgb(224, 224, 224); transform-origin: 418.522px 291.167px;" id="elj7new3x59ih" class="animable"></path><path d="M405.61,382.4a1,1,0,0,1-1-1V201a1,1,0,1,1,2,0V381.4A1,1,0,0,1,405.61,382.4Z" style="fill: rgb(224, 224, 224); transform-origin: 405.61px 291.2px;" id="el7ncmi166w14" class="animable"></path><path d="M379.84,382.4a1,1,0,0,1-1-1V201a1,1,0,0,1,2,0V381.4A1,1,0,0,1,379.84,382.4Z" style="fill: rgb(224, 224, 224); transform-origin: 379.84px 291.2px;" id="els017rls9cf" class="animable"></path><path d="M354.06,382.4a1,1,0,0,1-.92-.6,1,1,0,0,1,.52-1.32l49.46-21.64L353.66,337.2a1,1,0,0,1,0-1.83l49.46-21.64-49.46-21.64a1,1,0,0,1,0-1.83l49.46-21.64L353.66,247a1,1,0,0,1,0-1.83l49.46-21.64-49.46-21.64a1,1,0,1,1,.8-1.83L406,222.59a1,1,0,0,1,.6.92,1,1,0,0,1-.6.91l-49.46,21.64L406,267.7a1,1,0,0,1,0,1.84l-49.46,21.64L406,312.81a1,1,0,0,1,0,1.84l-49.46,21.64L406,357.93a1,1,0,0,1,.6.91,1,1,0,0,1-.6.92l-51.55,22.55A1,1,0,0,1,354.06,382.4Z" style="fill: rgb(224, 224, 224); transform-origin: 379.81px 291.177px;" id="el914edmzq5ss" class="animable"></path><path d="M405.61,382.4a1,1,0,0,1-.4-.09l-51.55-22.55a1,1,0,0,1-.6-.92,1,1,0,0,1,.6-.91l49.46-21.64-49.46-21.64a1,1,0,0,1,0-1.84l49.46-21.63-49.46-21.64a1,1,0,0,1,0-1.84l49.46-21.64-49.46-21.64a1,1,0,0,1-.6-.91,1,1,0,0,1,.6-.92L405.21,200a1,1,0,1,1,.8,1.83l-49.46,21.64L406,245.15a1,1,0,0,1,0,1.83l-49.46,21.64L406,290.26a1,1,0,0,1,0,1.83l-49.46,21.64L406,335.37a1,1,0,0,1,0,1.83l-49.46,21.64L406,380.48a1,1,0,0,1-.4,1.92Z" style="fill: rgb(224, 224, 224); transform-origin: 379.855px 291.147px;" id="el47kdgw3to2t" class="animable"></path><path d="M128,91.33A24.62,24.62,0,0,1,80,98.86,24.32,24.32,0,0,0,87.48,100,24.62,24.62,0,0,0,112.1,75.42a24.31,24.31,0,0,0-1.18-7.52A24.61,24.61,0,0,1,128,91.33Z" style="fill: rgb(245, 245, 245); transform-origin: 104px 91.8336px;" id="elhx8lzp3eq8u" class="animable"></path><path d="M93.12,141.76a36,36,0,0,0-19.48-6.11c-8.84,0-13.61,4.17-11.62,9.65a20.41,20.41,0,0,0-5.16-.7c-6,0-9,3.17-6.55,7.08a9.57,9.57,0,0,0,.79,1.08h59.33a6.6,6.6,0,0,0-1-2.56C106.82,145.94,99.82,142.4,93.12,141.76Z" style="fill: rgb(250, 250, 250); transform-origin: 79.9419px 144.205px;" id="elh9doia1hw7n" class="animable"></path><path d="M105.25,188.2c1.35-6.5,9.19-10.92,21.36-10.92,15.79,0,33.52,7.46,42.05,17.26a21.23,21.23,0,0,1,7.69-1.25c10.77,0,23,5.67,27.3,12.65a11.54,11.54,0,0,1,1,1.93h-106a21.39,21.39,0,0,1-3.88-4.57C90,195.67,94.7,189.35,105.25,188.2Z" style="fill: rgb(245, 245, 245); transform-origin: 148.778px 192.575px;" id="elzdohz1yfam" class="animable"></path><path d="M479.22,353.45a46.55,46.55,0,0,0-13,6.29,33.54,33.54,0,0,0-4.27-22s-8.55,7.66-13,18a26.22,26.22,0,0,0-4.47-4.16,40.33,40.33,0,0,0,1.16-6.2,59.53,59.53,0,0,0-16.67,8c2.62-15.68-5.44-28-5.44-28s-10.92,9.78-16.61,23a31.93,31.93,0,0,0-7.39-6.44s-5.76,9.69-6.31,20.2a39.19,39.19,0,0,0-11.62-.8s.23,12.5,8.54,19.31a19.39,19.39,0,0,0,2.51,1.74h76a39.32,39.32,0,0,0,9.73-9.21,25.33,25.33,0,0,0-6.7-1A38.53,38.53,0,0,0,479.22,353.45Z" style="fill: rgb(240, 240, 240); transform-origin: 430.41px 353.885px;" id="elxvankgul8em" class="animable"></path><path d="M232.3,382.4H155a1,1,0,0,1-1-1V201a1,1,0,0,1,1-1H232.3a1,1,0,0,1,1,1V381.4A1,1,0,0,1,232.3,382.4Zm-76.33-2H231.3V202H156Z" style="fill: rgb(224, 224, 224); transform-origin: 193.65px 291.2px;" id="elgslc8wnm4df" class="animable"></path><path d="M232.3,382.4a1,1,0,0,1-.65-.25l-25.78-22.56a1,1,0,0,1,0-1.5l24.92-21.8-24.92-21.81a1,1,0,0,1,0-1.5l24.92-21.8-24.92-21.81a1,1,0,0,1,0-1.5l24.92-21.81-24.92-21.8a1,1,0,0,1,0-1.5l25.78-22.56a1,1,0,1,1,1.31,1.51L208,223.51,233,245.31a1,1,0,0,1,0,1.51L208,268.62,233,290.42a1,1,0,0,1,0,1.51L208,313.73,233,335.53a1,1,0,0,1,.34.76,1,1,0,0,1-.34.75L208,358.84,233,380.65a1,1,0,0,1,.1,1.41A1,1,0,0,1,232.3,382.4Z" style="fill: rgb(224, 224, 224); transform-origin: 219.438px 291.168px;" id="elsuvalpf7ljq" class="animable"></path><path d="M206.53,382.4a1,1,0,0,1-.76-.34,1,1,0,0,1,.1-1.41l24.92-21.81L205.87,337a1,1,0,0,1-.34-.75,1,1,0,0,1,.34-.76l24.92-21.8-24.92-21.8a1,1,0,0,1,0-1.51l24.92-21.8-24.92-21.8a1,1,0,0,1,0-1.51l24.92-21.8-24.92-21.8a1,1,0,1,1,1.31-1.51L233,222.76a1,1,0,0,1,0,1.5L208,246.06,233,267.87a1,1,0,0,1,0,1.5L208,291.18,233,313a1,1,0,0,1,0,1.5L208,336.29,233,358.09a1,1,0,0,1,0,1.5l-25.78,22.56A1,1,0,0,1,206.53,382.4Z" style="fill: rgb(224, 224, 224); transform-origin: 219.42px 291.148px;" id="elsrkb08266i" class="animable"></path><path d="M206.53,382.4a1,1,0,0,1-1-1V201a1,1,0,0,1,2,0V381.4A1,1,0,0,1,206.53,382.4Z" style="fill: rgb(224, 224, 224); transform-origin: 206.53px 291.2px;" id="el6e3akdup3sg" class="animable"></path><path d="M180.75,382.4a1,1,0,0,1-1-1V201a1,1,0,0,1,2,0V381.4A1,1,0,0,1,180.75,382.4Z" style="fill: rgb(224, 224, 224); transform-origin: 180.75px 291.2px;" id="eloucyrwnackm" class="animable"></path><path d="M155,382.4a1,1,0,0,1-.92-.6,1,1,0,0,1,.52-1.32L204,358.84,154.57,337.2a1,1,0,0,1,0-1.83L204,313.73l-49.46-21.64a1,1,0,0,1,0-1.83L204,268.62,154.57,247a1,1,0,0,1,0-1.83L204,223.51l-49.46-21.64a1,1,0,0,1-.52-1.32,1,1,0,0,1,1.32-.51l51.56,22.55a1,1,0,0,1,.6.92,1,1,0,0,1-.6.91l-49.46,21.64,49.46,21.64a1,1,0,0,1,0,1.84l-49.46,21.64,49.46,21.63a1,1,0,0,1,0,1.84l-49.46,21.64,49.46,21.64a1,1,0,0,1,.6.91,1,1,0,0,1-.6.92l-51.56,22.55A.93.93,0,0,1,155,382.4Z" style="fill: rgb(224, 224, 224); transform-origin: 180.722px 291.177px;" id="elgslcxn836il" class="animable"></path><path d="M206.53,382.4a.93.93,0,0,1-.4-.09l-51.56-22.55a1,1,0,0,1-.6-.92,1,1,0,0,1,.6-.91L204,336.29l-49.46-21.64a1,1,0,0,1,0-1.84L204,291.18l-49.46-21.64a1,1,0,0,1,0-1.84L204,246.06l-49.46-21.64a1,1,0,0,1-.6-.91,1,1,0,0,1,.6-.92L206.13,200a1,1,0,0,1,.8,1.83l-49.46,21.64,49.46,21.64a1,1,0,0,1,0,1.83l-49.46,21.64,49.46,21.64a1,1,0,0,1,0,1.83l-49.46,21.64,49.46,21.64a1,1,0,0,1,0,1.83l-49.46,21.64,49.46,21.64a1,1,0,0,1-.4,1.92Z" style="fill: rgb(224, 224, 224); transform-origin: 180.735px 291.168px;" id="el79cglvyc1rn" class="animable"></path></g><g id="freepik--Shadow--inject-111" class="animable" style="transform-origin: 250px 416.24px;"><ellipse id="freepik--path--inject-111" cx="250" cy="416.24" rx="193.89" ry="11.32" style="fill: rgb(245, 245, 245); transform-origin: 250px 416.24px;" class="animable"></ellipse></g><g id="freepik--Screen--inject-111" class="animable" style="transform-origin: 295.465px 152.185px;"><rect x="119.72" y="88.56" width="1" height="24.33" style="fill: rgb(186, 104, 200); transform-origin: 120.22px 100.725px;" id="elpvfr3ju6f5" class="animable"></rect><rect x="119.72" y="120.89" width="1" height="7.78" style="fill: rgb(186, 104, 200); transform-origin: 120.22px 124.78px;" id="elsqkcwrn2ak" class="animable"></rect><rect x="123.22" y="51.06" width="344.51" height="194.37" style="fill: rgb(186, 104, 200); transform-origin: 295.475px 148.245px;" id="elklsb9t58avs" class="animable"></rect><g id="elvqvzcauhwve"><rect x="201.46" y="-20.83" width="188.02" height="338.16" style="fill: rgb(255, 255, 255); opacity: 0.5; transform-origin: 295.47px 148.25px; transform: rotate(90deg);" class="animable"></rect></g><g id="elha0xfulkxhp"><rect x="204.64" y="-17.66" width="181.67" height="331.8" style="fill: rgb(255, 255, 255); opacity: 0.5; transform-origin: 295.475px 148.24px; transform: rotate(90deg);" class="animable"></rect></g><g id="elvr8ut75br5b"><rect x="207.81" y="-14.48" width="175.31" height="325.45" style="fill: rgb(255, 255, 255); transform-origin: 295.465px 148.245px; transform: rotate(90deg);" class="animable"></rect></g><g id="eldpw24nv40nl"><polygon points="295.47 148.25 295.47 60.59 458.19 60.59 458.19 220.14 295.47 148.25" style="fill: rgb(186, 104, 200); opacity: 0.1; transform-origin: 376.83px 140.365px;" class="animable"></polygon></g><rect x="118.27" y="245.43" width="354.39" height="7.88" rx="3.08" style="fill: rgb(38, 50, 56); transform-origin: 295.465px 249.37px;" id="eliqetlzvqefd" class="animable"></rect><g id="eltatfapybsfi"><g style="opacity: 0.4; transform-origin: 295.475px 148.245px;" class="animable"><rect x="294.94" y="60.59" width="1.06" height="175.31" style="fill: rgb(186, 104, 200); transform-origin: 295.47px 148.245px;" id="el1xax6731ddz" class="animable"></rect><rect x="132.75" y="147.72" width="325.45" height="1.06" style="fill: rgb(186, 104, 200); transform-origin: 295.475px 148.25px;" id="elolrdfikwple" class="animable"></rect></g></g><path d="M298.16,165H269.89V152.27l28.27-33.61h13.53V153h7v12h-7v10.44H298.16Zm0-12V135.41L283.22,153Z" style="fill: rgb(186, 104, 200); transform-origin: 294.29px 147.05px;" id="elbvt8xt6l274" class="animable"></path><path d="M295.47,202.9a54.42,54.42,0,1,1,54.42-54.42A54.48,54.48,0,0,1,295.47,202.9Zm0-107.78a53.36,53.36,0,1,0,53.36,53.36A53.42,53.42,0,0,0,295.47,95.12Z" style="fill: rgb(186, 104, 200); transform-origin: 295.47px 148.48px;" id="elccpre08sph7" class="animable"></path><path d="M295.47,198.55a50.07,50.07,0,1,1,50.06-50.07A50.12,50.12,0,0,1,295.47,198.55Zm0-99.07a49,49,0,1,0,49,49A49.05,49.05,0,0,0,295.47,99.48Z" style="fill: rgb(186, 104, 200); transform-origin: 295.46px 148.48px;" id="elt3ndxu47xy" class="animable"></path></g><g id="freepik--Character--inject-111" class="animable animator-active" style="transform-origin: 241.385px 312.744px;"><path d="M196.35,248.55,192.46,259c-1.29,3.45-2.61,6.92-3.72,10.3-.29.85-.55,1.67-.81,2.5l-.33,1.19-.08.3a.44.44,0,0,0,0-.12l0,.09,0,.2c-.06.62-.11,1.5-.11,2.36v2.69c0,3.66.11,7.45,0,11.22v0a2.73,2.73,0,0,1-5.29.86,81.48,81.48,0,0,1-3.28-11.11c-.21-1-.4-1.92-.56-2.92a25.82,25.82,0,0,1-.39-3.26v-.51l0-.61c0-.23,0-.55.09-.82L178,271l.29-1.57c.21-1,.42-2,.67-2.94,1-3.85,2.09-7.5,3.31-11.14s2.55-7.17,4-10.74a5.41,5.41,0,0,1,10.08,4Z" style="fill: rgb(255, 181, 115); transform-origin: 187.311px 266.781px;" id="elnf093hrlwz" class="animable"></path><path d="M192.05,239.87c5.88-.23,8.89,4,4.61,12.15-3.67,7-4.23,7.22-4.23,7.22l-11-4.46C184.45,247.7,186,240.11,192.05,239.87Z" style="fill: rgb(186, 104, 200); transform-origin: 190.052px 249.551px;" id="eln1m8fncbmzl" class="animable"></path><path d="M187.72,289.08l-.86-.22c-2.48-.41-3,.2-4.78,1.37h0a3.33,3.33,0,0,0,3.68,4.41,3.78,3.78,0,0,0,1.43-.57l1.24.2a1.65,1.65,0,0,0,1.86-2l-.2-.78A3.27,3.27,0,0,0,187.72,289.08Z" style="fill: rgb(255, 181, 115); transform-origin: 186.108px 291.709px;" id="elllf2ap7mtip" class="animable"></path><polygon points="245.54 331.53 250.12 328.09 243.3 316.4 238.72 319.84 245.54 331.53" style="fill: rgb(255, 181, 115); transform-origin: 244.42px 323.965px;" id="elcd99xj00wat" class="animable"></polygon><path d="M249.5,326.43l-5.58,3.29a.41.41,0,0,0-.17.56l2.33,4.57a1,1,0,0,0,1.39.37c1.92-1.17,2.57-1.92,5-3.37,1.51-.89,4.35-2.35,6.83-3.91s.21-3-1.24-2.31c-2.26,1-5.5.88-7.56.61A1.64,1.64,0,0,0,249.5,326.43Z" style="fill: rgb(38, 50, 56); transform-origin: 252.052px 330.408px;" id="el1cgree1rpit" class="animable"></path><path d="M251.77,326.26a6.74,6.74,0,0,1-1.43.6.13.13,0,0,1-.16-.18c.09-.2.93-2,1.68-2.11a.49.49,0,0,1,.46.17.74.74,0,0,1,.23.71A1.59,1.59,0,0,1,251.77,326.26Zm-1.21.25c1-.35,1.63-.76,1.73-1.13a.5.5,0,0,0-.16-.46.26.26,0,0,0-.23-.09C251.5,324.9,250.92,325.8,250.56,326.51Z" style="fill: rgb(186, 104, 200); transform-origin: 251.367px 325.715px;" id="eldnyeyeb0wt" class="animable"></path><path d="M250.37,326.85l-.06,0a.14.14,0,0,1-.12-.06c0-.05-1-1.42-.78-2.2a.69.69,0,0,1,.4-.45.52.52,0,0,1,.63.11,3,3,0,0,1,0,2.53Zm-.51-2.41a.37.37,0,0,0-.19.25,3,3,0,0,0,.61,1.77,2.78,2.78,0,0,0,0-2,.24.24,0,0,0-.32,0Z" style="fill: rgb(186, 104, 200); transform-origin: 250.049px 325.465px;" id="el5kp3855ytt6" class="animable"></path><g id="elkw5jlxb0o1l"><polygon points="238.72 319.84 243.3 316.4 247.2 323.09 242.48 326.29 238.72 319.84" style="opacity: 0.2; transform-origin: 242.96px 321.345px;" class="animable"></polygon></g><path d="M207.05,281.45s27.4,4.3,28.9,9.8a141.4,141.4,0,0,0,11.2,29l-7.84,3.48s-12.24-10.25-16.7-22.58c-20.66,1.21-28.32.73-32.45-4.78-4.56-6.09.13-15.65.13-15.65Z" style="fill: rgb(38, 50, 56); transform-origin: 217.658px 302.225px;" id="elh7xqjbwdtmm" class="animable"></path><polygon points="240.06 325.85 248.11 320.99 246.72 317.73 238.04 323.18 240.06 325.85" style="fill: rgb(186, 104, 200); transform-origin: 243.075px 321.79px;" id="el2v4249u95hi" class="animable"></polygon><path d="M192.92,229.31l4-2.3,5.86,3.61a41.7,41.7,0,0,0,.58,6.06,3.5,3.5,0,0,0,2.7,3c.76.25,1.48.57,1.64,1.24s-.31,1.86-3.61,2.59a17.66,17.66,0,0,1-9.51-.61c-1.46-.46-1.25-1.11-1-2.47C194.19,237,194.26,232.67,192.92,229.31Z" style="fill: rgb(255, 181, 115); transform-origin: 200.324px 235.452px;" id="elw3zznyw126k" class="animable"></path><path d="M191.49,242.2a40,40,0,0,0,1.28-5.62s9.08-1.35,12.18-.39,5.37,6,5.37,6Z" style="fill: rgb(38, 50, 56); transform-origin: 200.905px 239.023px;" id="el828vma8jn0d" class="animable"></path><path d="M188.46,224.24c1.73,5.3,2.47,8.5,5.9,10.51,5.17,3,11.15-1.28,11-7-.11-5.17-2.92-13-8.74-13.66A7.74,7.74,0,0,0,188.46,224.24Z" style="fill: rgb(255, 181, 115); transform-origin: 196.712px 224.891px;" id="el110221lcr07" class="animable"></path><path d="M202.22,223.9a5.15,5.15,0,0,0,.5,3.59c.8,1.4,2.55.72,3.19-.72s.54-3.48-.68-4.37S202.57,222.39,202.22,223.9Z" style="fill: rgb(255, 181, 115); transform-origin: 204.197px 225.151px;" id="elyjetotdmsfb" class="animable"></path><path d="M191.08,224.24a5.09,5.09,0,0,1,2.09,3c.37,1.56-1.37,2.27-2.82,1.65s-2.77-2.17-2.5-3.65S189.79,223.37,191.08,224.24Z" style="fill: rgb(255, 181, 115); transform-origin: 190.518px 226.448px;" id="elp8e9a2flo1c" class="animable"></path><path d="M201.21,230.33a8,8,0,0,1-8,1.3c-1.6-.85-3.81-5.55-6.24-8.88s-1.63-4.25-.21-4.87c-3.34-1.59,1.07-4.62,3.27-3.87-.35-3.37,6.27-4.88,8.14-2,2.79-2.25,8.6-1.35,9.31,3.85.6,4.37-3.73,5.61-3.55,7.53A8.83,8.83,0,0,1,201.21,230.33Z" style="fill: rgb(38, 50, 56); transform-origin: 196.475px 221.33px;" id="el1p7ibu69q43" class="animable"></path><polygon points="260.76 334.2 265.59 331.04 259.41 319.16 254.58 322.32 260.76 334.2" style="fill: rgb(255, 181, 115); transform-origin: 260.085px 326.68px;" id="els5hwr1mtufr" class="animable"></polygon><g id="elg1v3ucz5rlm"><polygon points="257.58 328.08 262.5 325.09 259.41 319.16 254.58 322.32 257.58 328.08" style="opacity: 0.2; transform-origin: 258.54px 323.62px;" class="animable"></polygon></g><path d="M264.77,328.51l-6.42.9a.41.41,0,0,0-.37.45l.4,5.12a1,1,0,0,0,1.14.87c2.23-.35,3.1-1,5.88-1.56a74.81,74.81,0,0,0,8.14-1.69c2.24-.78,1.77-2.92-.14-2.71-2.46.27-5.81-.12-7.6-1.16A1.66,1.66,0,0,0,264.77,328.51Z" style="fill: rgb(38, 50, 56); transform-origin: 266.506px 332.18px;" id="el2rnsvlqj353" class="animable"></path><path d="M221.33,279.42s25.63.26,28,8.25C256.28,310.41,262,321,262,321l-7.49,4.54s-12.88-12.44-17.92-28.46c-12.11-.57-29.82,6.77-34.84-2.22-4.42-7.95-.54-13.65-.54-13.65Z" style="fill: rgb(38, 50, 56); transform-origin: 230.818px 302.48px;" id="elzzwnl60in3" class="animable"></path><polygon points="254.85 327.6 263.6 322.59 262.33 318.96 252.7 324.3 254.85 327.6" style="fill: rgb(186, 104, 200); transform-origin: 258.15px 323.28px;" id="elskcllkl7v7t" class="animable"></polygon><path d="M266.93,329.23a7.28,7.28,0,0,1-1.55,0,.14.14,0,0,1-.12-.09.15.15,0,0,1,0-.14c.16-.15,1.63-1.48,2.36-1.3a.48.48,0,0,1,.36.33.74.74,0,0,1-.06.74A1.6,1.6,0,0,1,266.93,329.23Zm-1.21-.24c1,.06,1.8-.08,2-.38a.49.49,0,0,0,0-.49.23.23,0,0,0-.17-.16C267.2,327.86,266.32,328.48,265.72,329Z" style="fill: rgb(186, 104, 200); transform-origin: 266.647px 328.477px;" id="elk1aohhdgjs" class="animable"></path><path d="M265.41,329.23h-.06a.15.15,0,0,1-.09-.1c0-.07-.37-1.69.13-2.33a.64.64,0,0,1,.53-.26.51.51,0,0,1,.54.33,2.92,2.92,0,0,1-1,2.33A.07.07,0,0,1,265.41,329.23Zm.46-2.42a.38.38,0,0,0-.27.16,2.9,2.9,0,0,0-.12,1.86,2.76,2.76,0,0,0,.73-1.87c0-.07-.08-.16-.28-.16Z" style="fill: rgb(186, 104, 200); transform-origin: 265.796px 327.883px;" id="elxbar6jf1b88" class="animable"></path><path d="M211.44,238.8c-3.54-.41-19.31,1-19.31,1a6.32,6.32,0,0,0-6,6.06c-.18,4.91,1.17,14.73,1.7,20.27a134.55,134.55,0,0,0,2.47,14.58l33.06,1.73a3.74,3.74,0,0,0,4-3.68c.06-13.82-6.21-19.62-10.34-34.66C216.28,241.6,215,239.22,211.44,238.8Z" style="fill: rgb(186, 104, 200); transform-origin: 206.737px 260.587px;" id="eln9ajnftefz" class="animable"></path><path d="M216.32,243.84c1.82,2.74,3.71,5.61,5.59,8.36s3.81,5.5,5.79,7.94c.48.6,1,1.19,1.46,1.72l.36.39.18.19.09.1s.06.06,0,0l-.19-.15a2.21,2.21,0,0,0-.84-.41c-.1,0-.11,0-.05,0a6.22,6.22,0,0,0,1.63.29c.71.06,1.5.1,2.3.12,3.21.08,6.68-.05,10.1,0h.09a2.73,2.73,0,0,1,1,5.24A52,52,0,0,1,233.46,271a27.75,27.75,0,0,1-2.89.45,15.92,15.92,0,0,1-3.55,0,7.82,7.82,0,0,1-1.32-.29,6.44,6.44,0,0,1-2-1l-.32-.25-.1-.09-.15-.12-.29-.26-.58-.5c-.76-.68-1.45-1.36-2.12-2a87.56,87.56,0,0,1-7-8.44c-2.13-2.9-4.11-5.79-6-8.92a5.41,5.41,0,0,1,9.14-5.79Z" style="fill: rgb(255, 181, 115); transform-origin: 225.907px 256.432px;" id="eljpf0j27tsz" class="animable"></path><path d="M206.32,242.68c2.79-5.19,7.92-5.65,12.81,2.18,4.2,6.74,4.07,7.32,4.07,7.32l-9.43,7.24C209.22,253.2,203.47,248,206.32,242.68Z" style="fill: rgb(186, 104, 200); transform-origin: 214.38px 249.143px;" id="elsxkcv4oivf" class="animable"></path><path d="M246.93,262.92l-.84-.29c-2.44-.59-3,0-4.87,1l-1.31,2.94c3.46,3,6.11,1.29,6.11,1.29l1.22.29a1.65,1.65,0,0,0,2-1.88l-.14-.79A3.28,3.28,0,0,0,246.93,262.92Z" style="fill: rgb(255, 181, 115); transform-origin: 244.586px 265.37px;" id="elwasj0jgysrt" class="animable"></path><path d="M254.08,326.42l-1.38-2.12.43-.24a84.92,84.92,0,0,1-11.19-15.12c1.28,3.16,2.45,5.73,3.35,7.62-1.28-1.83-2.58-3.84-3.83-6,1.69,4.15,3.18,7.3,4.14,9.2l.64-.41.95,2.2-.66.4.57,1-1,.63,2.71,4.65.26-.15a1.18,1.18,0,0,1,.37-.14,2.71,2.71,0,0,1-.46-1.68s0-.05,0-.08l.21.36a3.41,3.41,0,0,0,.49,1.35h.19a2.53,2.53,0,0,0-.11-1.79l0,0a2.92,2.92,0,0,1-.14-.31.46.46,0,0,1,.35.14l.18.34a2.92,2.92,0,0,1,.09,1.13c.32-.53.76-1.1,1.17-1.16a.44.44,0,0,1,.35.1l-.14.07h.26a.73.73,0,0,1,.21.7,1.53,1.53,0,0,1-.77.81l-.17.09a20,20,0,0,0,2.48.07l-1.06-1.63C253.05,326.43,253.56,326.44,254.08,326.42Zm-1.76-1.68a.74.74,0,0,1,.23.71l0,.07-.23-.25a.49.49,0,0,0-.15-.35.26.26,0,0,0-.23-.09h0l-.18-.21.15-.06A.49.49,0,0,1,252.32,324.74Zm-5.6-7,.79,1.84-1.2-1.59Zm5.51,8.18h0l0,0Z" style="fill: none; transform-origin: 247.77px 318.585px;" id="elio4elflqlv" class="animable"></path><path d="M251.81,327a.48.48,0,0,0-.16-.46.26.26,0,0,0-.22-.09c-.36.06-.85.77-1.21,1.43l.39,0C251.3,327.61,251.74,327.29,251.81,327Z" style="fill: none; transform-origin: 251.02px 327.165px;" id="elwjgza0fuh8" class="animable"></path><path d="M187.93,271.75l-.33,1.19-.08.3a.44.44,0,0,0,0-.12l0,.09,0,.2c0,.2,0,.45-.06.7l0,0a3.88,3.88,0,0,0-.35.78,9.67,9.67,0,0,0-.15,2.46v2.7c.05,3.43-.17,7.34,0,10.52l.93-.28c.14-.34.18-.64.37-1.08a23.68,23.68,0,0,1,2.1-8.55c-.53-2.95-1.31-5.94-1.94-10.23Z" style="fill: none; transform-origin: 188.627px 280.5px;" id="elihd1cr9gj" class="animable"></path><path d="M267.27,330.22a.46.46,0,0,0,0-.49.23.23,0,0,0-.17-.16c-.35-.08-1.07.38-1.65.84l.4.2C266.59,330.59,267.09,330.46,267.27,330.22Z" style="fill: none; transform-origin: 266.395px 330.085px;" id="eljt6cg9ocfn" class="animable"></path><g id="el5jjubkp8y9e"><path d="M251.89,324.84h0a.26.26,0,0,1,.23.09.49.49,0,0,1,.15.35l.23.25,0-.07a.74.74,0,0,0-.23-.71.49.49,0,0,0-.46-.17l-.15.06Z" style="opacity: 0.3; transform-origin: 252.089px 325.051px;" class="animable"></path></g><g id="elj6mzr5g5dqf"><path d="M246.72,317.73l-.41.25,1.2,1.59Z" style="opacity: 0.3; transform-origin: 246.91px 318.65px;" class="animable"></path></g><g id="el6dkroiicr8g"><path d="M265.4,334.29a74.81,74.81,0,0,0,8.14-1.69,2.87,2.87,0,0,0,.89-.49,1.45,1.45,0,0,0-1.5-.61,16.15,16.15,0,0,1-6.47-.66,1.65,1.65,0,0,0,1-.45.76.76,0,0,0,.06-.75.48.48,0,0,0-.36-.33c-.4-.1-1,.26-1.53.62a2.85,2.85,0,0,0,.36-1.09l-.07,0,.08-.06a1.09,1.09,0,0,0,0-.26.47.47,0,0,0-.15-.19l-.14.22,0,.06a2.51,2.51,0,0,1-.61,1.69l-.16-.06a2.57,2.57,0,0,1,.16-1.62.4.4,0,0,1,.27-.16h0l0-.26a.77.77,0,0,0-.26.07,2.83,2.83,0,0,0,0,.3,1.51,1.51,0,0,0-.3,0,2.92,2.92,0,0,0-.17,1.62,1.79,1.79,0,0,0-.4,0l-.45.07-2.56-4.93,1-.58-.54-1,1-.56-.88-2.52-1,.57c-1.76-3.59-6.47-13.94-11.91-31.86-1.68-5.54-14.52-7.36-22.23-8a3.85,3.85,0,0,0,.15-1,39.37,39.37,0,0,0-.64-7.35l.35.06.39,0q-.12-.87-.27-1.71l.36.07a15.92,15.92,0,0,0,3.55,0,27.75,27.75,0,0,0,2.89-.45,52.2,52.2,0,0,0,9.27-2.83,4.3,4.3,0,0,0,3.29-.3l1.22.3a1.65,1.65,0,0,0,1.52-.4l-.12-.66a3.28,3.28,0,0,0-2.18-2.56l-.84-.29a4.94,4.94,0,0,0-2.67-.1,2.8,2.8,0,0,0-.58-.08h-.09c-3.42-.06-6.89.07-10.11,0-.79,0-1.58-.06-2.29-.12-.3,0-.59-.06-.86-.1l-.33-.36c-.48-.52-1-1.12-1.46-1.72-1.83-2.26-3.61-4.76-5.35-7.31l.85-.65a2.79,2.79,0,0,0-.36-.92l0,0h0c-.45-.94-1.45-2.77-3.69-6.36-2.47-4-5-5.79-7.27-6-.14,0-.26-.07-.42-.09a27.69,27.69,0,0,0-3.24-.06,7.35,7.35,0,0,0-3.25-2.55,8.33,8.33,0,0,0-1.73-.28c-.08-.6-.19-1.44-.28-2.27.19-.18.39-.36.6-.53,0-.35-.09-.72-.13-1.08a8,8,0,0,0,2.46-5.91c0-.07,0-.13,0-.2a2.92,2.92,0,0,0,.52-.76,4.13,4.13,0,0,0,.25-.84,6.67,6.67,0,0,0-1-1.38,2.74,2.74,0,0,1-.79-1.32c.27-.27.56-.53.85-.81l0,0a1.69,1.69,0,0,0-.75-.32,15.43,15.43,0,0,0,2.58-3.22,6.36,6.36,0,0,0,0-1.36c-.71-5.19-6.52-6.1-9.31-3.85-1.52-2.36-6.16-1.81-7.67.28a.22.22,0,0,0,0,.08h0a2.44,2.44,0,0,0-.43,1.63,6.65,6.65,0,0,0-4,.62c-.1.58.2,1.16,1.18,1.63-1.42.62-2.21,1.54.21,4.87.4.55.8,1.14,1.18,1.74a1.92,1.92,0,0,0-.31.71c-.24,1.31.88,2.73,2.05,3.42.95,2.63,2,4.51,4.06,5.87,0,.64,0,1.29,0,1.93l-.49.06c0,.52,0,1,0,1.55l-1,.13c-.09.47-.2,1-.35,1.62h0a6.24,6.24,0,0,0-3,.91,1.64,1.64,0,0,0-.22.14l-.29.2c-3.39,2.41-4.88,8.23-7.26,13.75l.93.37-.06.16c-1.22,3.64-2.35,7.29-3.31,11.14-.25.95-.46,1.95-.67,2.94L178,271l-.07.39c0,.27-.08.59-.09.82l0,.61v.51a25.82,25.82,0,0,0,.39,3.26c.16,1,.35,2,.56,2.92a81.41,81.41,0,0,0,3.24,11,3.32,3.32,0,0,0,3.74,4.19,3.78,3.78,0,0,0,1.43-.57l1.24.2a1.55,1.55,0,0,0,.57,0,9.55,9.55,0,0,0,1.16,2.09c4.13,5.51,11.79,6,32.45,4.78,3.74,10.34,12.95,19.21,15.82,21.81l-.39.25,2,2.67,1.6-1,.82,1.4h0l1.86,3.18-.42.25a.41.41,0,0,0-.17.56l2.33,4.57a1,1,0,0,0,1.39.37c1.92-1.17,2.57-1.92,5-3.37,1.23-.72,3.35-1.83,5.44-3.07l.34.65a.41.41,0,0,0-.3.43l.4,5.12a1,1,0,0,0,1.14.87C261.75,335.5,262.62,334.88,265.4,334.29Zm1.73-4.72a.23.23,0,0,1,.17.16.46.46,0,0,1,0,.49c-.18.24-.68.37-1.39.39l-.4-.2C266.06,330,266.78,329.49,267.13,329.57Zm-78.94-40.33c-.19.44-.23.74-.37,1.08l-.93.28c-.17-3.18.05-7.09,0-10.52v-2.7a9.67,9.67,0,0,1,.15-2.46,3.88,3.88,0,0,1,.35-.78l0,0c0-.25,0-.5.06-.7l0-.2,0-.09a.44.44,0,0,1,0,.12l.08-.3.33-1.19.42-1.29c.63,4.29,1.41,7.28,1.94,10.23A23.68,23.68,0,0,0,188.19,289.24Zm62,38.63c.36-.66.85-1.37,1.21-1.43a.26.26,0,0,1,.22.09.48.48,0,0,1,.16.46c-.07.3-.51.62-1.2.92Zm3.39.16a20,20,0,0,1-2.48-.07l.17-.09a1.53,1.53,0,0,0,.77-.81.73.73,0,0,0-.21-.7h-.26l.14-.07a.44.44,0,0,0-.35-.1c-.41.06-.85.63-1.17,1.16a2.92,2.92,0,0,0-.09-1.13l-.18-.34a.46.46,0,0,0-.35-.14,2.92,2.92,0,0,0,.14.31l0,0a2.53,2.53,0,0,1,.11,1.79h-.19a3.41,3.41,0,0,1-.49-1.35l-.21-.36s0,.05,0,.08a2.71,2.71,0,0,0,.46,1.68,1.18,1.18,0,0,0-.37.14l-.26.15-2.71-4.65,1-.63-.57-1,.66-.4-.95-2.2-.64.41c-1-1.9-2.45-5.05-4.14-9.2,1.25,2.17,2.55,4.18,3.83,6-.9-1.89-2.07-4.46-3.35-7.62a84.92,84.92,0,0,0,11.19,15.12l-.43.24,1.38,2.12c-.52,0-1,0-1.53,0Z" style="opacity: 0.3; transform-origin: 226.135px 274.034px;" class="animable"></path></g><g id="elta4dj3zgpnm"><path d="M252.23,325.91h0l0,0Z" style="opacity: 0.3; transform-origin: 252.23px 325.91px;" class="animable"></path></g><path d="M141.2,357H129.58c-11.32,0-20.49,13-20.49,29s9.17,29,20.49,29H141.2c11.32,0,20.49-13,20.49-29S152.52,357,141.2,357Z" id="elnse9vuwrqtg" class="animable" style="transform-origin: 135.39px 386px;"></path><path d="M267.76,357H256.13c-11.31,0-20.49,13-20.49,29s9.18,29,20.49,29h11.63c11.32,0,20.49-13,20.49-29S279.08,357,267.76,357Z" id="eljtmhbf63vr" class="animable" style="transform-origin: 261.945px 386px;"></path><path d="M205.13,349.31,69.54,371.61V379l4.56,11.91,2.74,1.24a103.83,103.83,0,0,0,42.61,9.15H383.12a32.85,32.85,0,0,0,23.25-9.63h0l-13.68-42.32Z" id="elkaf0m2wq51i" class="animable" style="transform-origin: 237.955px 375.305px;"></path><path d="M408.66,381.88h0a7.75,7.75,0,0,1-7.73-7.73v-3.93a7.75,7.75,0,0,1,7.73-7.73h0a7.75,7.75,0,0,1,7.73,7.73v3.93A7.75,7.75,0,0,1,408.66,381.88Z" style="fill: rgb(255, 255, 255); transform-origin: 408.66px 372.185px;" id="elij6gykdy8vq" class="animable"></path><path d="M412.74,360.86l-2.89,27.53A10,10,0,0,1,400,397.3h-7.11A42.36,42.36,0,0,0,394.37,386c0-17.67-10.57-32.06-23.54-32.06H359.21c-13,0-23.54,14.39-23.54,32.06a42,42,0,0,0,1.52,11.33H266.28A42.36,42.36,0,0,0,267.8,386c0-17.67-10.56-32.06-23.53-32.06H232.65c-13,0-23.54,14.39-23.54,32.06a43.77,43.77,0,0,0,.31,5.17L196.35,389H176l-18.76-5.71H75.37l-1.65,4.92H68.61c-6.76-37.52,4-68.62,4-68.62a359.36,359.36,0,0,1,70-26.69H289.39a27,27,0,0,1,16.93,6l36.74,29.58a61.77,61.77,0,0,0,23.39,11.74l38.9,10.05A10,10,0,0,1,412.74,360.86Z" style="fill: rgb(186, 104, 200); transform-origin: 239.581px 345.115px;" id="el14np1weecjg" class="animable"></path><path d="M83.49,322.46a302.5,302.5,0,0,1,54.1-24.39,16.5,16.5,0,0,1,5.14-.81h70.54a1.42,1.42,0,0,1,.79,2.45A183,183,0,0,0,190.13,320a16.59,16.59,0,0,1-11.86,5H84.2A1.42,1.42,0,0,1,83.49,322.46Z" style="fill: rgb(38, 50, 56); transform-origin: 148.723px 311.13px;" id="elqc06ypp4lum" class="animable"></path><path d="M175.73,341H67.93a153.33,153.33,0,0,0-1,34.22h111.7Z" style="fill: rgb(38, 50, 56); transform-origin: 122.518px 358.11px;" id="el5p85i94xdqx" class="animable"></path><g id="el633b73hkzba"><polygon points="192.12 341.03 175.73 341.03 178.61 375.25 196.52 375.25 192.12 341.03" style="fill: rgb(38, 50, 56); opacity: 0.4; transform-origin: 186.125px 358.14px;" class="animable"></polygon></g><path d="M244,301l4.39,25.85a4.47,4.47,0,0,1-4.41,5.22H216.78a6.9,6.9,0,0,1-6.06-10.21l11.55-21a6.86,6.86,0,0,1,6-3.59l11.26,0A4.47,4.47,0,0,1,244,301Z" style="fill: rgb(38, 50, 56); transform-origin: 229.164px 314.67px;" id="elgbflk7q6rbk" class="animable"></path><path d="M311.68,332.08H258a4.48,4.48,0,0,1-4.41-3.73l-4.38-25.81a4.47,4.47,0,0,1,4.42-5.21l38.61.09a7,7,0,0,1,5,2.19l19.5,20.88A6.89,6.89,0,0,1,311.68,332.08Z" style="fill: rgb(38, 50, 56); transform-origin: 283.87px 314.705px;" id="eltijs9qeikr" class="animable"></path><ellipse cx="160.88" cy="359.36" rx="8.77" ry="10.05" style="fill: rgb(255, 255, 255); transform-origin: 160.88px 359.36px;" id="el3nmh596iden" class="animable"></ellipse><ellipse cx="79.95" cy="359.36" rx="8.77" ry="10.05" style="fill: rgb(255, 255, 255); transform-origin: 79.95px 359.36px;" id="elixhpm8b3u6" class="animable"></ellipse><path d="M232.65,357h11.62v58H232.65c-11.32,0-20.49-13-20.49-29S221.33,357,232.65,357Z" id="elmsybnpuy89j" class="animable" style="transform-origin: 228.215px 386px;"></path><ellipse cx="244.27" cy="385.97" rx="20.49" ry="29.02" style="fill: rgb(38, 50, 56); transform-origin: 244.27px 385.97px;" id="ely7zfe7pn9oj" class="animable"></ellipse><ellipse cx="244.27" cy="385.97" rx="12.77" ry="18.09" style="fill: rgb(224, 224, 224); transform-origin: 244.27px 385.97px;" id="elzdybwoc0ed" class="animable"></ellipse><path d="M234.48,386c0,6.51,2.28,11.78,6.87,11.78s8.32-5.27,8.32-11.78S246,374.2,241.35,374.2,234.48,379.47,234.48,386Z" style="fill: rgb(38, 50, 56); transform-origin: 242.075px 385.99px;" id="el7azcnk2dkqj" class="animable"></path><path d="M359.2,357h11.63v58H359.2c-11.31,0-20.48-13-20.48-29S347.89,357,359.2,357Z" id="elkro2rdmc1fp" class="animable" style="transform-origin: 354.775px 386px;"></path><ellipse cx="370.83" cy="385.97" rx="20.49" ry="29.02" style="fill: rgb(38, 50, 56); transform-origin: 370.83px 385.97px;" id="elbrukqr7uea" class="animable"></ellipse><ellipse cx="370.83" cy="385.97" rx="12.77" ry="18.09" style="fill: rgb(224, 224, 224); transform-origin: 370.83px 385.97px;" id="ellii4dsh0yjr" class="animable"></ellipse><path d="M361,386c0,6.51,2.28,11.78,6.87,11.78s8.32-5.27,8.32-11.78-3.73-11.77-8.32-11.77S361,379.47,361,386Z" style="fill: rgb(38, 50, 56); transform-origin: 368.595px 386.005px;" id="elmktiltkxcxe" class="animable"></path><g id="elj1qlih1jc5p"><polygon points="343.67 335.59 208.78 335.28 214.53 349.31 354.18 349.31 343.67 335.59" style="fill: rgb(255, 255, 255); opacity: 0.1; transform-origin: 281.48px 342.295px;" class="animable"></polygon></g><g id="elsaedeqwuj1f"><rect x="320.69" y="326.2" width="18.76" height="12.42" rx="5.67" style="fill: rgb(38, 50, 56); transform-origin: 330.07px 332.41px; transform: rotate(-16.13deg);" class="animable"></rect></g><path d="M331.12,329.33H313.93a2.64,2.64,0,0,0-2.64,2.64h0a2.65,2.65,0,0,0,2.64,2.64h17.19a2.65,2.65,0,0,0,2.64-2.64h0A2.64,2.64,0,0,0,331.12,329.33Z" style="fill: rgb(38, 50, 56); transform-origin: 322.525px 331.97px;" id="elvzzpu2qqljg" class="animable"></path><path d="M331.31,369.41h-7.14a2.45,2.45,0,0,1-2.45-2.45h0a2.46,2.46,0,0,1,2.45-2.45h7.14a2.46,2.46,0,0,1,2.45,2.45h0A2.45,2.45,0,0,1,331.31,369.41Z" style="fill: rgb(255, 255, 255); transform-origin: 327.74px 366.96px;" id="elx34p26oi039" class="animable"></path><g id="elg30i21qb8jr"><polygon points="284.61 332.08 271.12 332.08 258.4 297.35 271.9 297.35 284.61 332.08" style="fill: rgb(255, 255, 255); opacity: 0.1; transform-origin: 271.505px 314.715px;" class="animable"></polygon></g><g id="el39kzl2tk00c"><polygon points="296.24 332.08 289.5 332.08 276.78 297.35 283.52 297.35 296.24 332.08" style="fill: rgb(255, 255, 255); opacity: 0.1; transform-origin: 286.51px 314.715px;" class="animable"></polygon></g><g id="eloimvqd271ug"><path d="M416.39,370.22v3.92a7.75,7.75,0,0,1-4.46,7,2.64,2.64,0,0,0-1.54,2.07l-.55,5.19A9.92,9.92,0,0,1,400,397.3h-.56a2.58,2.58,0,0,0-1.19.29,32.84,32.84,0,0,1-8.43,3,2.7,2.7,0,0,0-1.91,1.5,25.93,25.93,0,0,1-6.78,9A16,16,0,0,1,370.83,415H359.21c-6.93,0-13-4.86-16.76-12.3a2.57,2.57,0,0,0-2.32-1.42H286.84a2.59,2.59,0,0,0-2.33,1.42c-3.72,7.44-9.83,12.3-16.74,12.3H256.13a14.7,14.7,0,0,1-5-.87,2.85,2.85,0,0,0-1.89,0,14.8,14.8,0,0,1-5,.87H232.65c-6.92,0-13-4.86-16.75-12.3a2.57,2.57,0,0,0-2.32-1.42h-53.3a2.6,2.6,0,0,0-2.33,1.42c-3.71,7.44-9.82,12.3-16.74,12.3H129.57c-7,0-13.24-5-16.93-12.69a2.61,2.61,0,0,0-2.12-1.43,103.43,103.43,0,0,1-33.67-8.76l-1.77-.79a2.65,2.65,0,0,1-1.37-1.46h0a2.62,2.62,0,0,0-2.45-1.69h-.44A2.61,2.61,0,0,1,68.24,386c-.6-3.65-1-7.24-1.32-10.74h0c0-.1,0-.19,0-.29-.11-1.44-.22-2.87-.29-4.28,0-.3,0-.58,0-.87-.06-1.19-.1-2.37-.12-3.52,0-.32,0-.62,0-.94,0-1.37,0-2.73,0-4.06,0-.18,0-.36,0-.53,0-1.22,0-2.43.09-3.61,0-.23,0-.47,0-.7q.18-4.11.53-7.89c0-.05,0-.1,0-.14a141.93,141.93,0,0,1,5.24-27.8,2.56,2.56,0,0,1,1.33-1.55C85,313.4,95.81,308.75,105.4,305a39.74,39.74,0,0,1,14.37-2.7H288.49a33,33,0,0,1,19.18,6l41.63,29.76a74,74,0,0,0,26.5,11.81l34.92,8a2.62,2.62,0,0,1,2,2.73l0,.23-.12,1.2a2.55,2.55,0,0,0,.95,2.2A7.7,7.7,0,0,1,416.39,370.22Z" style="opacity: 0.3; transform-origin: 241.45px 358.65px;" class="animable"></path></g><path d="M259.4,272.33a.83.83,0,0,0-.41.13,2.3,2.3,0,0,0-1.19-.88.49.49,0,0,0,0-.12,1.41,1.41,0,0,0-1.23-1.4.8.8,0,0,0-.79-.68.81.81,0,0,0-.81.81,1.42,1.42,0,0,0,0,.2,2.08,2.08,0,0,0-1-.26,1,1,0,0,0,0-.17.81.81,0,0,0-1.56-.31,1.44,1.44,0,0,0-.46-.08,1.42,1.42,0,0,0-1.42,1.41h0a.85.85,0,0,0-.23,0,1.39,1.39,0,0,0-.79-.75.79.79,0,0,0,.1-.37.81.81,0,0,0-.81-.81.79.79,0,0,0-.78.63,2.51,2.51,0,0,0-.62-.09,2.31,2.31,0,0,0-2.27,1.92.8.8,0,0,0-.21-.05.82.82,0,0,0-.81.82.78.78,0,0,0,.27.59,2.24,2.24,0,0,0-.44,1.34,2.31,2.31,0,0,0,4.5.71,2.29,2.29,0,0,0,3.75-.85,2.3,2.3,0,0,0,2.6.48,2.3,2.3,0,0,0,4.47-.58h0a.82.82,0,0,0,0-1.63Z" style="fill: rgb(186, 104, 200); transform-origin: 251.965px 272.773px;" id="elxmjwd7ihv4f" class="animable"></path><g id="el6512ywfmggf"><path d="M259.4,272.33a.83.83,0,0,0-.41.13,2.3,2.3,0,0,0-1.19-.88.49.49,0,0,0,0-.12,1.41,1.41,0,0,0-1.23-1.4.8.8,0,0,0-.79-.68.81.81,0,0,0-.81.81,1.42,1.42,0,0,0,0,.2,2.08,2.08,0,0,0-1-.26,1,1,0,0,0,0-.17.81.81,0,0,0-1.56-.31,1.44,1.44,0,0,0-.46-.08,1.42,1.42,0,0,0-1.42,1.41h0a.85.85,0,0,0-.23,0,1.39,1.39,0,0,0-.79-.75.79.79,0,0,0,.1-.37.81.81,0,0,0-.81-.81.79.79,0,0,0-.78.63,2.51,2.51,0,0,0-.62-.09,2.31,2.31,0,0,0-2.27,1.92.8.8,0,0,0-.21-.05.82.82,0,0,0-.81.82.78.78,0,0,0,.27.59,2.24,2.24,0,0,0-.44,1.34,2.31,2.31,0,0,0,4.5.71,2.29,2.29,0,0,0,3.75-.85,2.3,2.3,0,0,0,2.6.48,2.3,2.3,0,0,0,4.47-.58h0a.82.82,0,0,0,0-1.63Z" style="fill: rgb(255, 255, 255); opacity: 0.8; transform-origin: 251.965px 272.773px;" class="animable"></path></g><polygon points="260.94 273.56 243.2 273.56 245.5 292.87 258.63 292.87 260.94 273.56" style="fill: rgb(186, 104, 200); transform-origin: 252.07px 283.215px;" id="el9vf8u1lbdkr" class="animable"></polygon><polygon points="245.64 273.56 248.21 273.56 249.22 292.87 247.31 292.87 245.64 273.56" style="fill: rgb(255, 255, 255); transform-origin: 247.43px 283.215px;" id="elhtj9kcdz3z" class="animable"></polygon><polygon points="250.78 273.56 253.35 273.56 253.02 292.87 251.12 292.87 250.78 273.56" style="fill: rgb(255, 255, 255); transform-origin: 252.065px 283.215px;" id="elq2060c6b6nc" class="animable"></polygon><polygon points="255.92 273.56 258.5 273.56 256.82 292.87 254.92 292.87 255.92 273.56" style="fill: rgb(255, 255, 255); transform-origin: 256.71px 283.215px;" id="eloggphd183u" class="animable"></polygon><path d="M260.86,274H243.27a.42.42,0,0,1-.42-.42h0a.42.42,0,0,1,.42-.42h17.59a.42.42,0,0,1,.42.42h0A.42.42,0,0,1,260.86,274Z" style="fill: rgb(186, 104, 200); transform-origin: 252.065px 273.58px;" id="elrqoydrb9tnp" class="animable"></path><g id="elu5cju0uem5"><path d="M247.31,292.87h10.63c.45-3.78,1.82-15.21,1.82-15.21a6.4,6.4,0,0,0-1.66-5.21,7.94,7.94,0,0,0-2.76-1.69,9.74,9.74,0,0,0-2.17-.55h0a15.23,15.23,0,0,0-2.13-.13,1.4,1.4,0,0,0-.34.91h0a.85.85,0,0,0-.23,0,1.39,1.39,0,0,0-.79-.75l0-.1c-.59,0-1.19.08-1.77.14-.75.07-1.51.16-2.25.29a2.44,2.44,0,0,0-.4.95.8.8,0,0,0-.21-.05.82.82,0,0,0-.81.82.78.78,0,0,0,.27.59,1.75,1.75,0,0,0-.18.29h-1a.42.42,0,0,0-.42.42.42.42,0,0,0,.4.41l2.26,18.9Z" style="opacity: 0.3; transform-origin: 251.363px 281.49px;" class="animable"></path></g></g><defs>     <filter id="active" height="200%">         <feMorphology in="SourceAlpha" result="DILATED" operator="dilate" radius="2"></feMorphology>                <feFlood flood-color="#32DFEC" flood-opacity="1" result="PINK"></feFlood>        <feComposite in="PINK" in2="DILATED" operator="in" result="OUTLINE"></feComposite>        <feMerge>            <feMergeNode in="OUTLINE"></feMergeNode>            <feMergeNode in="SourceGraphic"></feMergeNode>        </feMerge>    </filter>    <filter id="hover" height="200%">        <feMorphology in="SourceAlpha" result="DILATED" operator="dilate" radius="2"></feMorphology>                <feFlood flood-color="#ff0000" flood-opacity="0.5" result="PINK"></feFlood>        <feComposite in="PINK" in2="DILATED" operator="in" result="OUTLINE"></feComposite>        <feMerge>            <feMergeNode in="OUTLINE"></feMergeNode>            <feMergeNode in="SourceGraphic"></feMergeNode>        </feMerge>            <feColorMatrix type="matrix" values="0   0   0   0   0                0   1   0   0   0                0   0   0   0   0                0   0   0   1   0 "></feColorMatrix>    </filter></defs></svg>