<svg class="animated" id="freepik_stories-movie-night" xmlns="http://www.w3.org/2000/svg" viewBox="0 0 750 500" version="1.1" xmlns:xlink="http://www.w3.org/1999/xlink" xmlns:svgjs="http://svgjs.com/svgjs"><style>svg#freepik_stories-movie-night:not(.animated) .animable {opacity: 0;}svg#freepik_stories-movie-night.animated #freepik--TV--inject-40 {animation: 1.5s Infinite  linear shake;animation-delay: 0s;}            @keyframes shake {                10%, 90% {                    transform: translate3d(-1px, 0, 0);                  }                  20%, 80% {                    transform: translate3d(2px, 0, 0);                  }                  30%, 50%, 70% {                    transform: translate3d(-4px, 0, 0);                  }                  40%, 60% {                    transform: translate3d(4px, 0, 0);                  }            }        </style><g id="freepik--background-complete--inject-40" class="animable" style="transform-origin: 403.745px 178.955px;"><rect x="135.95" y="128.56" width="23.55" height="50.4" style="fill: rgb(245, 245, 245); transform-origin: 147.725px 153.76px;" id="eldx2at6py2" class="animable"></rect><rect x="160.48" y="182.48" width="28.93" height="48.7" style="fill: rgb(245, 245, 245); transform-origin: 174.945px 206.83px;" id="el5hsuzxdftuj" class="animable"></rect><polygon points="192.93 127.69 220.41 127.69 220.41 82.98 221.38 82.98 221.38 127.69 246.81 127.69 246.81 81.98 192.93 81.98 192.93 127.69" style="fill: rgb(245, 245, 245); transform-origin: 219.87px 104.835px;" id="elckwwuyij7t" class="animable"></polygon><rect x="135.95" y="182.48" width="23.55" height="48.7" style="fill: rgb(245, 245, 245); transform-origin: 147.725px 206.83px;" id="elxpsryikex2" class="animable"></rect><rect x="221.38" y="182.48" width="25.43" height="48.7" style="fill: rgb(245, 245, 245); transform-origin: 234.095px 206.83px;" id="elztozu7vsej" class="animable"></rect><rect x="160.48" y="128.56" width="28.93" height="50.4" style="fill: rgb(245, 245, 245); transform-origin: 174.945px 153.76px;" id="el4z5vizemjo6" class="animable"></rect><rect x="221.38" y="128.56" width="25.43" height="50.4" style="fill: rgb(245, 245, 245); transform-origin: 234.095px 153.76px;" id="el7vrg5vdtx54" class="animable"></rect><rect x="135.95" y="232.05" width="23.55" height="43.88" style="fill: rgb(245, 245, 245); transform-origin: 147.725px 253.99px;" id="eltmxtxm38qns" class="animable"></rect><polygon points="159.5 127.69 159.5 82.98 160.48 82.98 160.48 127.69 189.41 127.69 189.41 81.98 135.96 81.98 135.96 127.69 159.5 127.69" style="fill: rgb(245, 245, 245); transform-origin: 162.685px 104.835px;" id="elf97ep0m4a66" class="animable"></polygon><rect x="160.48" y="232.05" width="28.93" height="43.88" style="fill: rgb(245, 245, 245); transform-origin: 174.945px 253.99px;" id="el28uk48cvk2r" class="animable"></rect><rect x="221.38" y="232.05" width="25.43" height="43.88" style="fill: rgb(245, 245, 245); transform-origin: 234.095px 253.99px;" id="ellsyrlmqwypn" class="animable"></rect><rect x="192.93" y="128.56" width="27.47" height="50.4" style="fill: rgb(245, 245, 245); transform-origin: 206.665px 153.76px;" id="elbvig99vyriu" class="animable"></rect><rect x="192.93" y="232.05" width="27.47" height="43.88" style="fill: rgb(245, 245, 245); transform-origin: 206.665px 253.99px;" id="elbp5ciyvhmy" class="animable"></rect><rect x="192.93" y="182.48" width="27.47" height="48.7" style="fill: rgb(245, 245, 245); transform-origin: 206.665px 206.83px;" id="el912u16airh8" class="animable"></rect><polygon points="342.19 85.44 341.89 115.82 381.48 114.97 381.59 84.6 342.19 85.44" style="fill: rgb(224, 224, 224); transform-origin: 361.74px 100.21px;" id="eluc0f6exy02" class="animable"></polygon><polygon points="343.95 87.4 343.26 113.99 379.17 113.22 379.49 86.64 343.95 87.4" style="fill: rgb(250, 250, 250); transform-origin: 361.375px 100.315px;" id="elagq6n9rv1nm" class="animable"></polygon><polygon points="349.32 91.94 349.02 109.58 374.12 109.05 373.74 91.42 349.32 91.94" style="fill: rgb(224, 224, 224); transform-origin: 361.57px 100.5px;" id="elm68tf18f4ze" class="animable"></polygon><polygon points="374.12 109.05 360.85 91.69 349.02 109.58 374.12 109.05" style="fill: rgb(235, 235, 235); transform-origin: 361.57px 100.635px;" id="elzc5lzbjwq7n" class="animable"></polygon><polygon points="364.09 183.18 364.54 137.13 304.52 138.41 304.35 184.46 364.09 183.18" style="fill: rgb(224, 224, 224); transform-origin: 334.445px 160.795px;" id="el0wgxjdjhihm" class="animable"></polygon><polygon points="361.41 180.21 362.46 139.89 308.03 141.06 307.53 181.36 361.41 180.21" style="fill: rgb(250, 250, 250); transform-origin: 334.995px 160.625px;" id="el9isqfd0lm1s" class="animable"></polygon><polygon points="353.28 173.32 353.73 146.58 315.68 147.39 316.25 174.12 353.28 173.32" style="fill: rgb(224, 224, 224); transform-origin: 334.705px 160.35px;" id="eljs48ha25di" class="animable"></polygon><polygon points="315.68 147.39 335.8 173.7 353.73 146.58 315.68 147.39" style="fill: rgb(235, 235, 235); transform-origin: 334.705px 160.14px;" id="elbsj62nfr0v" class="animable"></polygon><polygon points="396.67 119.14 393.14 205.03 505.19 206.14 508.2 120.24 396.67 119.14" style="fill: rgb(224, 224, 224); transform-origin: 450.67px 162.64px;" id="elkgiz9hru0a" class="animable"></polygon><polygon points="401.49 124.83 397.18 199.99 498.8 201 502.09 125.83 401.49 124.83" style="fill: rgb(250, 250, 250); transform-origin: 449.635px 162.915px;" id="el8h4f7es9f17" class="animable"></polygon><polygon points="416.26 138.15 413.87 188.03 484.89 188.73 485.39 138.84 416.26 138.15" style="fill: rgb(224, 224, 224); transform-origin: 449.63px 163.44px;" id="elxyln6ln1jnr" class="animable"></polygon><polygon points="484.89 188.73 448.9 138.47 413.87 188.03 484.89 188.73" style="fill: rgb(235, 235, 235); transform-origin: 449.38px 163.6px;" id="elgh0gd8qgszr" class="animable"></polygon><rect x="560.68" y="128.56" width="23.55" height="50.4" style="fill: rgb(245, 245, 245); transform-origin: 572.455px 153.76px;" id="elf31id7yzxbq" class="animable"></rect><rect x="585.21" y="182.48" width="28.93" height="48.7" style="fill: rgb(245, 245, 245); transform-origin: 599.675px 206.83px;" id="elp6q6bo9ydwc" class="animable"></rect><polygon points="617.66 127.69 645.13 127.69 645.13 82.98 646.11 82.98 646.11 127.69 671.54 127.69 671.54 81.98 617.66 81.98 617.66 127.69" style="fill: rgb(245, 245, 245); transform-origin: 644.6px 104.835px;" id="elivt9di7ujho" class="animable"></polygon><rect x="560.68" y="182.48" width="23.55" height="48.7" style="fill: rgb(245, 245, 245); transform-origin: 572.455px 206.83px;" id="elfbqnkbtwcm4" class="animable"></rect><rect x="646.11" y="182.48" width="25.43" height="48.7" style="fill: rgb(245, 245, 245); transform-origin: 658.825px 206.83px;" id="eltylza9z1vac" class="animable"></rect><rect x="585.21" y="128.56" width="28.93" height="50.4" style="fill: rgb(245, 245, 245); transform-origin: 599.675px 153.76px;" id="elybjv3o8u4y" class="animable"></rect><rect x="646.11" y="128.56" width="25.43" height="50.4" style="fill: rgb(245, 245, 245); transform-origin: 658.825px 153.76px;" id="elroiieutwjb" class="animable"></rect><rect x="560.68" y="232.05" width="23.55" height="43.88" style="fill: rgb(245, 245, 245); transform-origin: 572.455px 253.99px;" id="eljwd2ociewdm" class="animable"></rect><polygon points="584.23 127.69 584.23 82.98 585.21 82.98 585.21 127.69 614.14 127.69 614.14 81.98 560.68 81.98 560.68 127.69 584.23 127.69" style="fill: rgb(245, 245, 245); transform-origin: 587.41px 104.835px;" id="el5qqkgyf9vpi" class="animable"></polygon><rect x="585.21" y="232.05" width="28.93" height="43.88" style="fill: rgb(245, 245, 245); transform-origin: 599.675px 253.99px;" id="elm3k6xrqpf2n" class="animable"></rect><rect x="646.11" y="232.05" width="25.43" height="43.88" style="fill: rgb(245, 245, 245); transform-origin: 658.825px 253.99px;" id="ele428m241y2e" class="animable"></rect><rect x="617.66" y="128.56" width="27.47" height="50.4" style="fill: rgb(245, 245, 245); transform-origin: 631.395px 153.76px;" id="elmcbbkj2kfk" class="animable"></rect><rect x="617.66" y="232.05" width="27.47" height="43.88" style="fill: rgb(245, 245, 245); transform-origin: 631.395px 253.99px;" id="elqhmqc6vkw7d" class="animable"></rect><rect x="617.66" y="182.48" width="27.47" height="48.7" style="fill: rgb(245, 245, 245); transform-origin: 631.395px 206.83px;" id="elxcwvistdvbl" class="animable"></rect></g><g id="freepik--Floor--inject-40" class="animable" style="transform-origin: 375px 455.745px;"><path d="M710.67,455.74c0,.15-150.3.27-335.65.27s-335.69-.12-335.69-.27,150.26-.26,335.69-.26S710.67,455.6,710.67,455.74Z" style="fill: rgb(38, 50, 56); transform-origin: 375px 455.745px;" id="elhy09q2jw759" class="animable"></path></g><g id="freepik--floor-lamp--inject-40" class="animable" style="transform-origin: 87.48px 296.33px;"><polygon points="89.15 453.68 89.15 153.12 85.81 153.12 85.81 453.74 58.17 456.06 85.81 456.06 89.15 456.06 116.79 456.06 89.15 453.68" style="fill: rgb(38, 50, 56); transform-origin: 87.48px 304.59px;" id="elk4rimqq1czn" class="animable"></polygon><polygon points="68.39 136.6 55.98 188.67 118.98 188.67 104.81 136.79 68.39 136.6" style="fill: rgb(186, 104, 200); transform-origin: 87.48px 162.635px;" id="elhvzzv54hwgk" class="animable"></polygon><path d="M82.94,218.26c-.14,0-.25-6.81-.23-15.21s.15-15.21.3-15.21.24,6.81.22,15.21S83.08,218.26,82.94,218.26Z" style="fill: rgb(38, 50, 56); transform-origin: 82.9702px 203.05px;" id="elrlehxbpr2ee" class="animable"></path><path d="M82.91,218.16c0-.07.45,0,.65.56a1.12,1.12,0,0,1-.16,1,1.11,1.11,0,1,1-1.46-1.61c.53-.32.91-.06.86,0s-.33,0-.64.3a.8.8,0,0,0-.27.59.63.63,0,0,0,.45.54.62.62,0,0,0,.69-.12.75.75,0,0,0,.17-.62C83.15,218.39,82.87,218.23,82.91,218.16Z" style="fill: rgb(38, 50, 56); transform-origin: 82.503px 219.065px;" id="eldooq57ufb3f" class="animable"></path></g><g id="freepik--TV--inject-40" class="animable animator-active" style="transform-origin: 574.231px 339.04px;"><rect x="539.72" y="323.83" width="49.4" height="16.12" style="fill: rgb(38, 50, 56); transform-origin: 564.42px 331.89px;" id="el5c974izqf7q" class="animable"></rect><rect x="483.33" y="221.84" width="170.85" height="103.09" style="fill: rgb(38, 50, 56); transform-origin: 568.755px 273.385px;" id="elr9zhat996om" class="animable"></rect><rect x="485.29" y="224.3" width="156.87" height="98.15" style="fill: rgb(245, 245, 245); transform-origin: 563.725px 273.375px;" id="elenf1unkqjk" class="animable"></rect><path d="M550.4,233c-4.37,5.42-2.33,13.41.28,19.87s5.59,13.81,2.57,20.08c-1.81,3.74-5.52,6.36-7.1,10.21s-.78,8.14.67,12,3.56,7.41,4.73,11.34a25.41,25.41,0,0,1-.54,16l87.14-.06s2-17.86-3.18-26-6.85-12.22-3-23.5,4-11.75.77-22.7.45-18.2.45-18.2Z" style="fill: rgb(186, 104, 200); transform-origin: 591.907px 277.27px;" id="el3t08em3k8ez" class="animable"></path><g id="el91m6lp0pr7"><path d="M550.4,233c-4.37,5.42-2.33,13.41.28,19.87s5.59,13.81,2.57,20.08c-1.81,3.74-5.52,6.36-7.1,10.21s-.78,8.14.67,12,3.56,7.41,4.73,11.34a25.41,25.41,0,0,1-.54,16l87.14-.06s2-17.86-3.18-26-6.85-12.22-3-23.5,4-11.75.77-22.7.45-18.2.45-18.2Z" style="opacity: 0.3; transform-origin: 591.907px 277.27px;" class="animable"></path></g><path d="M496.71,276.87s4.56-4.39,3.75-6-7.17-11.72-5.7-13a2.74,2.74,0,0,0,.65-3.09l-6-3.69s1.15-5.84,3.75-5.36,7.4,7.1,7.4,7.1,6.09-5.86,8.05-4.23a8.85,8.85,0,0,1,2.6,4.07s2.44-2.28,3.26-.33,1.3,3.58,1.3,3.58,3.58-1.79,3.58,0v3.42s1.46-3.42,2.77-1.79,0,5.37,0,5.37l45.09,26.37s-8.14,1.95-21.65-3.42a225,225,0,0,1-25.89-12.53l.82-3.09-2.28-.82s-2.28,6.4-4.56,9.15a30.56,30.56,0,0,0-3.91,6.64s3.59,4.4,2.45,6.35-4.24,2-5.21,4.72a38.26,38.26,0,0,0-1.47,5.86l-5.21,6.19-15,11.94v-36Z" style="fill: rgb(186, 104, 200); transform-origin: 526.255px 282.991px;" id="eltzgdzc8sxbo" class="animable"></path><polygon points="537.58 229.01 537.58 233.36 642.16 233.36 642.16 229.43 537.58 229.01" style="fill: rgb(38, 50, 56); transform-origin: 589.87px 231.185px;" id="eli24kiwyvg5s" class="animable"></polygon><path d="M579.71,302.32a3.28,3.28,0,0,1,0-.71c0-.51,0-1.18,0-2,0-1.81.07-4.33.12-7.41.1-6.26.15-14.9,0-24.45s-.47-18.18-.75-24.43c-.15-3.08-.26-5.6-.35-7.41,0-.83-.06-1.5-.08-2a3.4,3.4,0,0,1,0-.7,3.88,3.88,0,0,1,.09.69q.07.76.18,2c.15,1.75.33,4.27.52,7.4.38,6.25.75,14.89.9,24.45s0,18.2-.16,24.46c-.09,3.12-.19,5.66-.29,7.4,0,.84-.09,1.5-.12,2A3.51,3.51,0,0,1,579.71,302.32Z" style="fill: rgb(38, 50, 56); transform-origin: 579.517px 267.765px;" id="elo8or868xxo" class="animable"></path><path d="M588.85,312.49a4.67,4.67,0,0,1-.13-.8c-.07-.57-.16-1.34-.28-2.3-.23-2-.53-4.89-.86-8.46-.67-7.16-1.42-17.06-1.92-28s-.63-20.89-.61-28.08c0-3.59.05-6.5.1-8.51,0-1,.05-1.74.07-2.31a4.29,4.29,0,0,1,.06-.81,4.63,4.63,0,0,1,0,.81q0,.87,0,2.31c0,2.06,0,5,.07,8.51.07,7.18.27,17.1.76,28.06s1.19,20.84,1.76,28c.3,3.54.53,6.43.7,8.48.08,1,.14,1.73.18,2.31A4.13,4.13,0,0,1,588.85,312.49Z" style="fill: rgb(38, 50, 56); transform-origin: 586.949px 272.855px;" id="elfnku92gedht" class="animable"></path><path d="M606.16,299.22c-.15,0-.72-14.65-1.28-32.73s-.89-32.74-.75-32.74.71,14.64,1.27,32.73S606.3,299.21,606.16,299.22Z" style="fill: rgb(38, 50, 56); transform-origin: 605.145px 266.485px;" id="elwj5aizcjb2b" class="animable"></path><path d="M613.92,316.7a4.84,4.84,0,0,1-.12-.85c-.06-.61-.13-1.43-.23-2.46-.19-2.13-.43-5.22-.7-9.05-.53-7.64-1.09-18.21-1.39-29.9s-.27-22.29-.13-29.95c.07-3.83.16-6.93.24-9.07,0-1,.08-1.85.11-2.46a5.18,5.18,0,0,1,.07-.86,4.78,4.78,0,0,1,0,.86c0,.61,0,1.43,0,2.47,0,2.19,0,5.28-.07,9.07,0,7.66,0,18.24.28,29.92s.81,22.25,1.24,29.9c.22,3.79.4,6.87.53,9.06.06,1,.1,1.85.14,2.46A5.61,5.61,0,0,1,613.92,316.7Z" style="fill: rgb(38, 50, 56); transform-origin: 612.586px 274.4px;" id="ellbbq8vlfow8" class="animable"></path><path d="M637.3,441.52l.56.19,1.62.57a56.9,56.9,0,0,0,6.33,1.79,34.27,34.27,0,0,0,10.33.78,24.49,24.49,0,0,0,6.3-1.38,21.1,21.1,0,0,0,6.18-3.7,18.64,18.64,0,0,0,4.79-6.28,16,16,0,0,0,1.19-4,13.85,13.85,0,0,0-.13-4.35,18.65,18.65,0,0,0-4-8.22,81.94,81.94,0,0,0-6.74-7.2,51.13,51.13,0,0,1-6.84-7.87,21.42,21.42,0,0,1-1.35-2.33l-.6-1.23-.49-1.28a18.83,18.83,0,0,1-.94-5.45,20.14,20.14,0,0,1,2.85-10.86,18.62,18.62,0,0,1,3.73-4.44,42.13,42.13,0,0,1,4.78-3.39,41.09,41.09,0,0,0,4.72-3.32,14.17,14.17,0,0,0,3.55-4.32c1.77-3.32,2.13-7.14,2-10.77a32.87,32.87,0,0,0-1.89-10.52,17.72,17.72,0,0,0-2.44-4.54,10.49,10.49,0,0,0-3.82-3.17,10.22,10.22,0,0,0-2.32-.78,11.64,11.64,0,0,0-2.43-.16,33.37,33.37,0,0,0-4.79.61,25.42,25.42,0,0,1-4.74.49,9.43,9.43,0,0,1-4.5-1.14,5.71,5.71,0,0,1-2.83-3.47,4.73,4.73,0,0,1,.94-4.19,3.22,3.22,0,0,1,1.88-1.08,3.31,3.31,0,0,1,2.08.41,3.6,3.6,0,0,1,1.47,1.45,2.53,2.53,0,0,1,.16,2l0,0,0,0a18.11,18.11,0,0,1-13,4.33,17.32,17.32,0,0,1-9.69-3.79,17.85,17.85,0,0,1-4.34-5,13.24,13.24,0,0,1-1-2.09s.1.17.27.52.44.86.82,1.51a18.25,18.25,0,0,0,4.38,4.9,17.23,17.23,0,0,0,9.58,3.66,17.89,17.89,0,0,0,12.72-4.31l-.06.07a2.12,2.12,0,0,0-.14-1.72,3.22,3.22,0,0,0-1.32-1.29,2.9,2.9,0,0,0-1.84-.36,2.85,2.85,0,0,0-1.64.95,4.31,4.31,0,0,0-.83,3.83,5.28,5.28,0,0,0,2.63,3.19,8.87,8.87,0,0,0,4.3,1.07,24,24,0,0,0,4.65-.49,33.27,33.27,0,0,1,4.86-.63,11.92,11.92,0,0,1,2.52.17,10.65,10.65,0,0,1,2.45.8,11.12,11.12,0,0,1,4,3.31,18.62,18.62,0,0,1,2.52,4.67,33.38,33.38,0,0,1,1.93,10.68,22.1,22.1,0,0,1-2.09,11,14.81,14.81,0,0,1-3.67,4.48,42.79,42.79,0,0,1-4.78,3.36,42.13,42.13,0,0,0-4.72,3.34,18.29,18.29,0,0,0-3.63,4.32,19.66,19.66,0,0,0-2.78,10.58,18.19,18.19,0,0,0,.91,5.3l.47,1.25.59,1.19a18.61,18.61,0,0,0,1.32,2.29,51.32,51.32,0,0,0,6.76,7.8,81.71,81.71,0,0,1,6.76,7.26,19,19,0,0,1,4,8.43,13.79,13.79,0,0,1,.12,4.48,16.26,16.26,0,0,1-1.23,4.14,18.87,18.87,0,0,1-4.92,6.38,21.28,21.28,0,0,1-6.3,3.74,24.48,24.48,0,0,1-6.4,1.36,34.38,34.38,0,0,1-10.4-.87,51.09,51.09,0,0,1-6.32-1.89c-.71-.26-1.24-.48-1.6-.63S637.3,441.52,637.3,441.52Z" style="fill: rgb(38, 50, 56); transform-origin: 649.806px 384.476px;" id="elphv10oscdvc" class="animable"></path><rect x="489.17" y="347.02" width="106.1" height="108.69" style="fill: rgb(69, 90, 100); transform-origin: 542.22px 401.365px;" id="elk98fa56yesa" class="animable"></rect><rect x="472.73" y="339.6" width="138.95" height="7.42" style="fill: rgb(69, 90, 100); transform-origin: 542.205px 343.31px;" id="eld3aal3isqrr" class="animable"></rect><rect x="595.27" y="347.02" width="58.91" height="109.22" style="fill: rgb(38, 50, 56); transform-origin: 624.725px 401.63px;" id="elasqtc9q4vrv" class="animable"></rect><rect x="611.68" y="339.6" width="48.23" height="7.42" style="fill: rgb(38, 50, 56); transform-origin: 635.795px 343.31px;" id="el7kvxwycgha" class="animable"></rect><path d="M600.42,347.42c0,.15-25.08.26-56,.26s-56-.11-56-.26,25.08-.26,56-.26S600.42,347.28,600.42,347.42Z" style="fill: rgb(38, 50, 56); transform-origin: 544.42px 347.42px;" id="elbqssngwcs5n" class="animable"></path><path d="M586.78,393.84s0-.21,0-.58,0-.95,0-1.67c0-1.48,0-3.64,0-6.42,0-5.58-.05-13.66-.1-23.74l.18.18-90,.08h0l.26-.26c0,11.3,0,22.23,0,32.41l-.25-.25,64.41.11,18.78.07,5,0h1.31l.46,0h-.42l-1.28,0-5,0-18.73.07-64.58.12h-.25v-.25c0-10.18,0-21.11,0-32.41v-.26h.27l90,.08H587v.18c0,10.13-.08,18.24-.1,23.85,0,2.76,0,4.9,0,6.37,0,.71,0,1.26,0,1.64S586.78,393.84,586.78,393.84Z" style="fill: rgb(38, 50, 56); transform-origin: 541.785px 377.5px;" id="el709asv0289c" class="animable"></path><path d="M544.85,377.63c-.05,0-.06-.27-.2-.72a3.13,3.13,0,0,0-1.13-1.57,2.91,2.91,0,0,0-2.7-.36,2.84,2.84,0,1,0,2.7,4.94,3.07,3.07,0,0,0,1.13-1.56c.14-.45.15-.73.2-.73a1.59,1.59,0,0,1,0,.78,3.13,3.13,0,0,1-1.1,1.81,3.25,3.25,0,0,1-3.09.52,3.29,3.29,0,0,1,0-6.21,3.26,3.26,0,0,1,3.09.52,3.1,3.1,0,0,1,1.1,1.81A1.52,1.52,0,0,1,544.85,377.63Z" style="fill: rgb(38, 50, 56); transform-origin: 541.679px 377.636px;" id="elj4hvrvzc5z" class="animable"></path><path d="M586.78,440.52s0-.2,0-.58,0-.94,0-1.67c0-1.48,0-3.63,0-6.41,0-5.58-.05-13.66-.1-23.74l.18.17-90,.09h0l.26-.26c0,11.29,0,22.23,0,32.4l-.25-.25,64.41.12,18.78.07,5,0,1.31,0h.46l-.42,0-1.28,0-5,0-18.73.07-64.58.11h-.25v-.26c0-10.17,0-21.11,0-32.4v-.26h.27l90,.08H587v.18c0,10.13-.08,18.24-.1,23.84,0,2.77,0,4.91,0,6.38,0,.71,0,1.25,0,1.64S586.78,440.52,586.78,440.52Z" style="fill: rgb(38, 50, 56); transform-origin: 541.785px 424.18px;" id="el0247mxds1koh" class="animable"></path><path d="M544.85,424.32c-.05,0-.06-.27-.2-.72a3.05,3.05,0,0,0-1.13-1.57,2.91,2.91,0,0,0-2.7-.36,2.83,2.83,0,0,0,0,5.3,2.87,2.87,0,0,0,2.7-.36,3.05,3.05,0,0,0,1.13-1.57c.14-.45.15-.72.2-.72a1.54,1.54,0,0,1,0,.77,3.08,3.08,0,0,1-1.1,1.81,3.2,3.2,0,0,1-3.09.52,3.28,3.28,0,0,1,0-6.2,3.23,3.23,0,0,1,3.09.52,3.08,3.08,0,0,1,1.1,1.81A1.54,1.54,0,0,1,544.85,424.32Z" style="fill: rgb(38, 50, 56); transform-origin: 541.675px 424.322px;" id="elrc9n6qc813b" class="animable"></path></g><g id="freepik--Couch--inject-40" class="animable" style="transform-origin: 301.914px 359.255px;"><path d="M179.42,365c-.48,2.17-22.71,90.93-22.71,90.93H161L186.51,365Z" style="fill: rgb(38, 50, 56); transform-origin: 171.61px 410.465px;" id="elihuyra6x8tj" class="animable"></path><path d="M216.79,365c-.48,2.17-22.71,90.93-22.71,90.93h4.26L223.88,365Z" style="fill: rgb(38, 50, 56); transform-origin: 208.98px 410.465px;" id="el5n57faokrm7" class="animable"></path><path d="M414.94,365c.47,2.17,22.71,90.93,22.71,90.93h-4.26L407.84,365Z" style="fill: rgb(38, 50, 56); transform-origin: 422.745px 410.465px;" id="elw19mf4hn0bj" class="animable"></path><path d="M377.57,365c.47,2.17,22.71,90.93,22.71,90.93H396L370.47,365Z" style="fill: rgb(38, 50, 56); transform-origin: 385.375px 410.465px;" id="ely3xxyp2olug" class="animable"></path><path d="M188.61,262.58H175.7a15.54,15.54,0,0,0-15.34,13l-10.42,63.95A21.9,21.9,0,0,0,171.55,365h270.1a12.55,12.55,0,0,0,12.13-15.7h0a12.54,12.54,0,0,0-12.13-9.37h0a18.86,18.86,0,0,1-17.87-12.83l-16.67-49.38A19.37,19.37,0,0,0,389,264.55Z" style="fill: rgb(186, 104, 200); transform-origin: 301.914px 313.79px;" id="elfntqnqba615" class="animable"></path><g id="elo9nla9pbfqh"><g style="opacity: 0.3; transform-origin: 355.83px 357.706px;" class="animable"><path d="M309.46,354.43c9.59,3.85,20.37,2.72,30.64,1.53q.54,4.41,1.1,8.84s61,.19,61-.23l-28.37-14Z" id="elvpm6cxpl5wp" class="animable" style="transform-origin: 355.83px 357.706px;"></path></g></g><g id="elgvdg9epl72"><g style="opacity: 0.3; transform-origin: 245.28px 355.605px;" class="animable"><path d="M202.26,346.22c5.32,9.57,10.38,14,21.16,12.09l.75,6.68H288.3v-17.2Z" id="el888q5srmph8" class="animable" style="transform-origin: 245.28px 355.605px;"></path></g></g><g id="elxbays7w7zz9"><g style="opacity: 0.3; transform-origin: 196.865px 305.889px;" class="animable"><path d="M211.11,346.07c-7.32.24-14.66.2-22-.14-2.94-.13-6.37-.6-7.81-3.17s.51-5.33,1-8.12c2-11.78,4.38-20.72,5.67-32,.9-7.82,6.4-20.74,9.41-28s7.72-9.58,15.57-9Z" id="el3n81rwwljo2" class="animable" style="transform-origin: 196.865px 305.889px;"></path></g></g></g><g id="freepik--Characters--inject-40" class="animable" style="transform-origin: 314.4px 323.13px;"><path d="M367.38,286.58s-28.63,3.44-32,1.68-10.78-18.64-10.78-18.64l-17.56,8.57,1.14.1s12.94,25.75,22.05,25.88,39.05-4.85,39.05-4.85l15.88-2C383.2,284.2,367.38,286.58,367.38,286.58Z" style="fill: rgb(183, 136, 118); transform-origin: 346.1px 286.896px;" id="elch6uj2n961n" class="animable"></path><polygon points="369.98 294.18 362.22 295.52 363.84 302.74 390.35 298.48 388.65 291.23 369.98 294.18" style="fill: rgb(38, 50, 56); transform-origin: 376.285px 296.985px;" id="elcay7w2chp07" class="animable"></polygon><path d="M368.93,291.79a5.21,5.21,0,0,0,6.2,2.72,1.42,1.42,0,0,1,1.06-.11,1.3,1.3,0,0,1,.45.48c.71,1.13,1.43,2.25,2.15,3.38a1.18,1.18,0,0,0,1.19-1,3.41,3.41,0,0,0-.22-1.69c-.6-2-1.21-3.93-1.81-5.9" style="fill: rgb(183, 136, 118); transform-origin: 374.468px 293.965px;" id="elml0g51y9axa" class="animable"></path><path d="M378,289.88a16.7,16.7,0,0,1,1,2.59l.95,2.89a5.43,5.43,0,0,1,.39,1.86,1.62,1.62,0,0,1-.4,1,1.21,1.21,0,0,1-1.11.47h-.12l-.06-.1c-.31-.48-.63-1-.95-1.5l-1.23-1.93c-.2-.31-.34-.42-.64-.38s-.63.19-1,.27a5.3,5.3,0,0,1-3.64-.56,5.06,5.06,0,0,1-1.83-1.68,2,2,0,0,1-.36-.83,6.25,6.25,0,0,0,2.36,2.18,5,5,0,0,0,3.37.42c.31-.07.6-.21,1-.29a1,1,0,0,1,.69.11,1.68,1.68,0,0,1,.45.48l1.24,1.94.94,1.49-.17-.12c.47.08.94-.5.94-1a5.28,5.28,0,0,0-.33-1.69c-.31-1.08-.59-2.06-.85-2.93A14.71,14.71,0,0,1,378,289.88Z" style="fill: rgb(163, 105, 87); transform-origin: 374.67px 294.289px;" id="el3jmrr0us09p" class="animable"></path><path d="M429.64,353.19l-9.15-4.64-8.79,17.08L425,372.55l.62-1c2.68-4.58,13.34-23.47,14-27.11C440.38,340.36,429.64,353.19,429.64,353.19Z" style="fill: rgb(38, 50, 56); transform-origin: 425.679px 358.094px;" id="el7a3v8kgqu8" class="animable"></path><path d="M428.07,366.29a6.66,6.66,0,0,0-4.77.31A6.44,6.44,0,0,0,420,370l4.77,2.46Z" style="fill: rgb(69, 90, 100); transform-origin: 424.035px 369.224px;" id="elt57ju7ijk6" class="animable"></path><path d="M435.14,347.05s4.09-4.33,4.6-3.27S430.2,364.34,425,372.55l-.36-.22,11.91-22.64S434.67,348.07,435.14,347.05Z" style="fill: rgb(69, 90, 100); transform-origin: 432.199px 358.081px;" id="elicqmx59jos" class="animable"></path><path d="M424.5,372.59a1.75,1.75,0,0,0,.18-.28l.49-.81,1.73-3c1.44-2.57,3.39-6.15,5.46-10.15s3.86-7.66,5.12-10.33l1.47-3.17.38-.87a1.15,1.15,0,0,0,.12-.31l-.16.29-.42.85-1.54,3.14c-1.3,2.65-3.11,6.3-5.18,10.29s-4,7.59-5.39,10.18l-1.67,3.07-.45.84A1.43,1.43,0,0,0,424.5,372.59Z" style="fill: rgb(69, 90, 100); transform-origin: 431.975px 358.13px;" id="elplqh4g6ypw" class="animable"></path><path d="M436.82,349.83a8.18,8.18,0,0,1-1.18-1.34,7.75,7.75,0,0,1-.64-1.67,3.09,3.09,0,0,0,1.82,3Z" style="fill: rgb(38, 50, 56); transform-origin: 435.907px 348.325px;" id="elkj2suyx1t7o" class="animable"></path><path d="M431.67,353.55c.06,0-.11-.42-.38-.87s-.52-.79-.57-.76.11.42.37.88S431.62,353.59,431.67,353.55Z" style="fill: rgb(69, 90, 100); transform-origin: 431.196px 352.736px;" id="elju9x7kuqub" class="animable"></path><path d="M430.23,354.56c.06,0,0-.38-.09-.81s-.26-.77-.32-.75,0,.38.09.81S430.17,354.58,430.23,354.56Z" style="fill: rgb(69, 90, 100); transform-origin: 430.025px 353.78px;" id="elmls29s8dl7f" class="animable"></path><path d="M428.17,354.6c.05,0,.31-.34.57-.83a2.41,2.41,0,0,0,.37-.94c-.06,0-.32.34-.58.83S428.11,354.57,428.17,354.6Z" style="fill: rgb(69, 90, 100); transform-origin: 428.634px 353.715px;" id="el4endcb1oaue" class="animable"></path><path d="M426.87,354.32c.05,0,.47-.29.81-.85a2,2,0,0,0,.39-1.1c-.07,0-.27.45-.59,1A7.54,7.54,0,0,0,426.87,354.32Z" style="fill: rgb(69, 90, 100); transform-origin: 427.47px 353.345px;" id="el4l2aswvmmg7" class="animable"></path><path d="M430.48,352.21a3.71,3.71,0,0,0,.56-1.1,7.16,7.16,0,0,0,.34-1.3,3.06,3.06,0,0,0,.07-.82.61.61,0,0,0-.2-.44.47.47,0,0,0-.52-.06,2.26,2.26,0,0,0-.7,2.79,2.21,2.21,0,0,0,.55.73,1,1,0,0,0,.28.19,4,4,0,0,1-.68-1,2.29,2.29,0,0,1-.12-1.25,1.93,1.93,0,0,1,.76-1.26c.22-.11.39.07.41.32a3.8,3.8,0,0,1-.06.75,8.18,8.18,0,0,1-.29,1.28C430.66,351.77,430.45,352.19,430.48,352.21Z" style="fill: rgb(69, 90, 100); transform-origin: 430.632px 350.324px;" id="elip0xq6vslc" class="animable"></path><path d="M430.68,352a1.21,1.21,0,0,0-.7-.52,1.89,1.89,0,0,0-1-.11,1.24,1.24,0,0,0-1,.62.49.49,0,0,0,.33.6,1.37,1.37,0,0,0,.59.07,3.41,3.41,0,0,0,.93-.18,1.76,1.76,0,0,0,.77-.4s-.31.12-.82.24a4.36,4.36,0,0,1-.89.12c-.31,0-.78-.08-.69-.38s.53-.43.84-.48a2,2,0,0,1,.87.06A4.07,4.07,0,0,1,430.68,352Z" style="fill: rgb(69, 90, 100); transform-origin: 429.321px 352.006px;" id="el775aiqxu6en" class="animable"></path><path d="M420,369.84a14,14,0,0,1,.69-1.24,6,6,0,0,1,5.87-2.64c.87.12,1.37.35,1.39.31a1,1,0,0,0-.35-.18,4.64,4.64,0,0,0-1-.29,5.86,5.86,0,0,0-3.43.42,6,6,0,0,0-2.6,2.29,4.94,4.94,0,0,0-.46.95C420,369.7,420,369.83,420,369.84Z" style="fill: rgb(38, 50, 56); transform-origin: 423.975px 367.774px;" id="ely2mj8xu3ccr" class="animable"></path><path d="M413.81,364.4a32.28,32.28,0,0,0,3.43,2,34.16,34.16,0,0,0,3.54,1.75,33.12,33.12,0,0,0-3.43-2A35.52,35.52,0,0,0,413.81,364.4Z" style="fill: rgb(38, 50, 56); transform-origin: 417.295px 366.275px;" id="eljkghl1ct2d" class="animable"></path><path d="M427.51,363.29a16,16,0,0,0,2.62-5c-.06,0-.57,1.13-1.29,2.49S427.45,363.25,427.51,363.29Z" style="fill: rgb(69, 90, 100); transform-origin: 428.818px 360.79px;" id="elf7l5uacltkh" class="animable"></path><path d="M425.78,366.63c0,.06.28,0,.6.05s.57.07.6,0-.23-.23-.59-.25S425.76,366.57,425.78,366.63Z" style="fill: rgb(38, 50, 56); transform-origin: 426.381px 366.577px;" id="elgq92n59k7qf" class="animable"></path><path d="M423.56,367.08c0,.06.25,0,.52,0s.48-.2.46-.26-.25,0-.53,0S423.54,367,423.56,367.08Z" style="fill: rgb(38, 50, 56); transform-origin: 424.05px 366.95px;" id="eltfzgkhvx08" class="animable"></path><path d="M421.91,368.52c.07,0,.18-.21.4-.42s.44-.32.43-.38-.33,0-.59.21S421.85,368.51,421.91,368.52Z" style="fill: rgb(38, 50, 56); transform-origin: 422.313px 368.109px;" id="elwpjewk1vwfq" class="animable"></path><path d="M420.91,369.63s.18,0,.31-.12.2-.25.16-.29-.18,0-.31.11S420.87,369.58,420.91,369.63Z" style="fill: rgb(38, 50, 56); transform-origin: 421.145px 369.417px;" id="el5yxdzb5x8ai" class="animable"></path><path d="M374.49,450.93l-.27-10.25-19.21.37.24,15,1.19.06c5.3.19,27,.59,30.51-.55C390.88,454.28,374.49,450.93,374.49,450.93Z" style="fill: rgb(38, 50, 56); transform-origin: 371.284px 448.508px;" id="elgd4mhl57xoc" class="animable"></path><path d="M362.21,455.77a6.7,6.7,0,0,0-2.53-4,6.52,6.52,0,0,0-4.52-1.31l.1,5.37Z" style="fill: rgb(69, 90, 100); transform-origin: 358.685px 453.133px;" id="elb4n18mz0f2" class="animable"></path><path d="M382.5,452.85s5.75,1.54,5.06,2.49-22.63,1.38-32.31.71l0-.43,25.58-.27S381.38,452.92,382.5,452.85Z" style="fill: rgb(69, 90, 100); transform-origin: 371.434px 454.612px;" id="el6erdxdyaeo6" class="animable"></path><path d="M355,455.62l.33,0,.95,0,3.49.08c2.95.05,7,.07,11.53,0s8.58-.24,11.52-.4l3.49-.21,1-.08.33,0h-.34l-.94,0-3.5.13c-2.94.12-7,.26-11.51.34s-8.58.09-11.53.09H355.3Z" style="fill: rgb(69, 90, 100); transform-origin: 371.32px 455.378px;" id="elpzftb5ozofl" class="animable"></path><path d="M380.85,455.65a5,5,0,0,1,1.78-3,2.57,2.57,0,0,0-1.36,1.24A2.52,2.52,0,0,0,380.85,455.65Z" style="fill: rgb(38, 50, 56); transform-origin: 381.729px 454.15px;" id="elemsv6wwvwui" class="animable"></path><path d="M375.13,452.89c.05,0,.32-.31.59-.75s.45-.84.39-.87-.32.3-.59.75S375.07,452.85,375.13,452.89Z" style="fill: rgb(69, 90, 100); transform-origin: 375.62px 452.079px;" id="elgkrefjipg2b" class="animable"></path><path d="M373.56,452.09c0,.05.34-.16.67-.46s.55-.59.51-.64-.35.17-.67.47S373.51,452.05,373.56,452.09Z" style="fill: rgb(69, 90, 100); transform-origin: 374.149px 451.54px;" id="el817gdcr60nm" class="animable"></path><path d="M372.54,450.3a2.39,2.39,0,0,0,1,.11,2.24,2.24,0,0,0,1-.13,2.33,2.33,0,0,0-1-.1A2.3,2.3,0,0,0,372.54,450.3Z" style="fill: rgb(69, 90, 100); transform-origin: 373.54px 450.293px;" id="elecvc5og04fb" class="animable"></path><path d="M372.18,449a1.89,1.89,0,0,0,1.12.3,1.94,1.94,0,0,0,1.15-.17,5.76,5.76,0,0,0-1.13-.06A5.83,5.83,0,0,0,372.18,449Z" style="fill: rgb(69, 90, 100); transform-origin: 373.315px 449.16px;" id="elxzqkb459s6b" class="animable"></path><path d="M375.75,451.2a3.93,3.93,0,0,0,1.23,0,7.27,7.27,0,0,0,1.31-.32,3.92,3.92,0,0,0,.75-.32.66.66,0,0,0,.29-.39.48.48,0,0,0-.19-.49,2.27,2.27,0,0,0-2.79.72,2.1,2.1,0,0,0-.38.83.7.7,0,0,0,0,.33,3.28,3.28,0,0,1,.54-1.06,2.19,2.19,0,0,1,1-.71,2,2,0,0,1,1.48.07c.19.15.12.38-.09.51a3.3,3.3,0,0,1-.69.31A9.76,9.76,0,0,1,377,451C376.22,451.15,375.75,451.16,375.75,451.2Z" style="fill: rgb(69, 90, 100); transform-origin: 377.545px 450.514px;" id="el8hptlycksvy" class="animable"></path><path d="M376.07,451.25a1.19,1.19,0,0,0,.12-.86,2,2,0,0,0-.35-.89,1.24,1.24,0,0,0-1-.61.5.5,0,0,0-.37.58,1.39,1.39,0,0,0,.22.54,3.63,3.63,0,0,0,.6.74,1.88,1.88,0,0,0,.71.49s-.25-.22-.59-.6a4.16,4.16,0,0,1-.53-.74c-.18-.25-.3-.72,0-.78s.63.26.82.51a2,2,0,0,1,.36.79A4,4,0,0,1,376.07,451.25Z" style="fill: rgb(69, 90, 100); transform-origin: 375.342px 450.07px;" id="elnrfi33rupld" class="animable"></path><path d="M355.26,450.36a14.06,14.06,0,0,1,1.42,0,6,6,0,0,1,5.1,3.91c.31.82.35,1.37.4,1.37a1.66,1.66,0,0,0,0-.39,5.2,5.2,0,0,0-.23-1,6,6,0,0,0-2-2.83,5.87,5.87,0,0,0-3.25-1.19,4.63,4.63,0,0,0-1.05,0C355.39,450.3,355.26,450.34,355.26,450.36Z" style="fill: rgb(38, 50, 56); transform-origin: 358.726px 452.92px;" id="elpbe6foqmyja" class="animable"></path><path d="M357.1,442.33a30.83,30.83,0,0,0-.09,3.94,31.52,31.52,0,0,0,.14,4,36.09,36.09,0,0,0,.09-4A33.73,33.73,0,0,0,357.1,442.33Z" style="fill: rgb(38, 50, 56); transform-origin: 357.122px 446.3px;" id="elyoqhp1pt6zq" class="animable"></path><path d="M364.59,453.85a10.89,10.89,0,0,0,2.81.22,10.66,10.66,0,0,0,2.8-.28c0-.06-1.26,0-2.81,0S364.59,453.78,364.59,453.85Z" style="fill: rgb(69, 90, 100); transform-origin: 367.395px 453.924px;" id="elpl81yzw354" class="animable"></path><path d="M360.82,453.91s.11.27.25.55.2.54.27.54.09-.31-.06-.64S360.86,453.87,360.82,453.91Z" style="fill: rgb(38, 50, 56); transform-origin: 361.107px 454.452px;" id="elzccxzk9mrnf" class="animable"></path><path d="M359.37,452.18s.08.24.29.44.4.32.45.27-.09-.24-.29-.44S359.42,452.13,359.37,452.18Z" style="fill: rgb(38, 50, 56); transform-origin: 359.745px 452.535px;" id="elatm0b2wzp9d" class="animable"></path><path d="M357.33,451.41c0,.06.27.06.55.15s.49.24.54.2-.12-.31-.47-.42S357.31,451.35,357.33,451.41Z" style="fill: rgb(38, 50, 56); transform-origin: 357.879px 451.531px;" id="eltl1ivr934vd" class="animable"></path><path d="M355.87,451.06c0,.06.09.15.26.21s.3.06.33,0-.09-.16-.25-.22S355.9,451,355.87,451.06Z" style="fill: rgb(38, 50, 56); transform-origin: 356.167px 451.162px;" id="elxj7d3czdw" class="animable"></path><path d="M358.46,323.14l-65.86.68,14.47,30.65,42.12-.8,6.24,94.75,25.73-.59L376.28,342.1a20,20,0,0,0-17.82-19Z" style="fill: rgb(69, 90, 100); transform-origin: 336.88px 385.76px;" id="el00i6s9x2fvraj" class="animable"></path><path d="M354.41,441.13c0-.14,6-.39,13.32-.56s13.34-.19,13.34-.05-6,.4-13.32.57S354.41,441.28,354.41,441.13Z" style="fill: rgb(69, 90, 100); transform-origin: 367.74px 440.829px;" id="elmfg35mnmitk" class="animable"></path><path d="M281.42,330.68s53.52-30.88,67-26,82.25,43.05,82.25,43.05l-15.1,27.88-38.69-19.9-1.1-12.42c0-12.81-8.23-19.74-19.74-19.74h-10s-23.72,28.14-39,30.9C281.42,359.1,281.42,330.68,281.42,330.68Z" style="fill: rgb(69, 90, 100); transform-origin: 356.045px 339.884px;" id="el2562ifyj61s" class="animable"></path><path d="M377,355.06a.82.82,0,0,1,0-.27c0-.21,0-.47.07-.79.06-.69.14-1.71.2-3a37.84,37.84,0,0,0-1.07-11,26.2,26.2,0,0,0-3-7,24,24,0,0,0-5.6-6.68,16.38,16.38,0,0,0-8.95-3.18c-.84-.08-1.69-.1-2.54-.11s-1.73,0-2.61,0l-5.33,0h-.44l.18-.08c-5,5.08-10.16,9.59-14.9,13.57s-9.15,7.39-12.9,10.18-6.88,4.93-9.07,6.35c-1.1.71-2,1.24-2.56,1.59l-.68.39-.24.12a1,1,0,0,1,.22-.17l.64-.43c.58-.38,1.43-.94,2.5-1.67,2.16-1.47,5.24-3.65,9-6.47s8.09-6.27,12.81-10.26,9.81-8.5,14.84-13.57l.08-.07h.55l5.33,0c.87,0,1.74,0,2.61,0s1.73,0,2.58.11a16.93,16.93,0,0,1,9.21,3.31,24.39,24.39,0,0,1,5.67,6.83,26,26,0,0,1,2.94,7.17,36.57,36.57,0,0,1,.92,11.13c-.09,1.32-.2,2.34-.3,3l-.12.78A1,1,0,0,1,377,355.06Z" style="fill: rgb(38, 50, 56); transform-origin: 342.556px 338.83px;" id="elwf5myijxbf" class="animable"></path><path d="M277.89,300.59c.69-2.11-3.08-20.33-3.08-20.33l-1.33,7.52-20.54-3.64s3.86-21.56,7.36-25.47c7.92-8.82,19.32-10.13,19.32-10.13l17-2.27A40.1,40.1,0,0,1,309.79,248l.44.06v.09c5.18,1.79,10.93,4.93,12.74,11.4l4,12.53-11.74,2.33h0c1.85,4.12,3.26,4.47,2.51,8.92l-3.38,8.14c.89,6,4,6.46,7.8,19.1l-24,13.16s-21.9.9-23.6.2C274,323.78,274,312.39,277.89,300.59Z" style="fill: rgb(38, 50, 56); transform-origin: 289.955px 285.22px;" id="eluf1fw1o7c6b" class="animable"></path><path d="M311.14,268.46c.08,0,.54,1.27,1.76,3.11.6.92,1.39,2,2.21,3.2a16.93,16.93,0,0,1,2.24,4.28,9,9,0,0,1,.2,4.85,15.27,15.27,0,0,1-1.43,3.67,26.27,26.27,0,0,1-1.36,2.27,3.11,3.11,0,0,1-.58.77c-.08,0,.64-1.22,1.61-3.2a16.52,16.52,0,0,0,1.29-3.62,8.68,8.68,0,0,0-.22-4.58,17.42,17.42,0,0,0-2.15-4.17c-.79-1.22-1.55-2.31-2.12-3.28a16.47,16.47,0,0,1-1.18-2.37A3.5,3.5,0,0,1,311.14,268.46Z" style="fill: rgb(69, 90, 100); transform-origin: 314.465px 279.535px;" id="elxh32vco3zwa" class="animable"></path><path d="M286.23,271.23a28.56,28.56,0,0,1-4.89-2.27,29.15,29.15,0,0,1-4.66-2.73,55.63,55.63,0,0,1,9.55,5Z" style="fill: rgb(69, 90, 100); transform-origin: 281.455px 268.73px;" id="eltl09xhgmgk" class="animable"></path><path d="M298,259.7a10.84,10.84,0,0,1,1.76-4.45,6,6,0,0,1-.64,2.32A5.89,5.89,0,0,1,298,259.7Z" style="fill: rgb(69, 90, 100); transform-origin: 298.88px 257.475px;" id="elfruwwxtxe7w" class="animable"></path><path d="M302.27,274.63a7.32,7.32,0,0,1,0-2.73,7.11,7.11,0,0,1,.5-2.68,7.32,7.32,0,0,1,0,2.73A7.21,7.21,0,0,1,302.27,274.63Z" style="fill: rgb(69, 90, 100); transform-origin: 302.52px 271.925px;" id="elgmju31ynb7v" class="animable"></path><path d="M291.22,283.49a17.29,17.29,0,0,1-5.9-.67,17.29,17.29,0,0,1,5.9.67Z" style="fill: rgb(69, 90, 100); transform-origin: 288.27px 283.155px;" id="elajlzy53io0p" class="animable"></path><path d="M303.09,284.66a20.6,20.6,0,0,1-.9,3.86,20,20,0,0,1-1.14,3.8,12.15,12.15,0,0,1,.64-3.93A12.48,12.48,0,0,1,303.09,284.66Z" style="fill: rgb(69, 90, 100); transform-origin: 302.07px 288.49px;" id="el27sh2m1cb82" class="animable"></path><path d="M292.84,299.12a7.24,7.24,0,0,1-2.37-1.34c-1.23-.86-2.15-1.65-2.07-1.77a7.72,7.72,0,0,1,2.37,1.34C292,298.21,292.92,299,292.84,299.12Z" style="fill: rgb(69, 90, 100); transform-origin: 290.62px 297.565px;" id="el35oefirdrgw" class="animable"></path><path d="M311.59,298.76a22.22,22.22,0,0,1-2.82,6.22,11.6,11.6,0,0,1,1.18-3.22A11.37,11.37,0,0,1,311.59,298.76Z" style="fill: rgb(69, 90, 100); transform-origin: 310.18px 301.87px;" id="el11wsftgn9c7g" class="animable"></path><path d="M297.62,309.61a13.68,13.68,0,0,1-3.75-.46,14.09,14.09,0,0,1-3.65-1,13.89,13.89,0,0,1,3.75.45A14.17,14.17,0,0,1,297.62,309.61Z" style="fill: rgb(69, 90, 100); transform-origin: 293.92px 308.88px;" id="elij2ozw0tlo" class="animable"></path><path d="M322.24,266.92a6.95,6.95,0,0,1-5.09,2.13,19.29,19.29,0,0,1,2.57-1A17.66,17.66,0,0,1,322.24,266.92Z" style="fill: rgb(69, 90, 100); transform-origin: 319.695px 267.985px;" id="el1m0epj3gmaf" class="animable"></path><path d="M313.83,262a9.61,9.61,0,0,1-.41-3.53,9.14,9.14,0,0,1,.46-3.53,19,19,0,0,1,.06,3.53A17.43,17.43,0,0,1,313.83,262Z" style="fill: rgb(69, 90, 100); transform-origin: 313.696px 258.47px;" id="el5lhpnw64sr" class="animable"></path><path d="M284.17,255.94a25.62,25.62,0,0,1-6.89,2.47,13.1,13.1,0,0,1,3.36-1.48A12.6,12.6,0,0,1,284.17,255.94Z" style="fill: rgb(69, 90, 100); transform-origin: 280.725px 257.175px;" id="elf1fyapu8bic" class="animable"></path><path d="M265.84,266.9a9.38,9.38,0,0,1-1.09-3.43,9.75,9.75,0,0,1-.25-3.6,17.75,17.75,0,0,1,.77,3.5A18.52,18.52,0,0,1,265.84,266.9Z" style="fill: rgb(69, 90, 100); transform-origin: 265.137px 263.385px;" id="elk5htff9h3xh" class="animable"></path><path d="M269.07,274.88a22.55,22.55,0,0,1-4.74.47,21.37,21.37,0,0,1-4.78-.05,22.71,22.71,0,0,1,4.75-.47A21.22,21.22,0,0,1,269.07,274.88Z" style="fill: rgb(69, 90, 100); transform-origin: 264.31px 275.09px;" id="elj0dkg7dwjkh" class="animable"></path><path d="M287.12,255.73h0a8.77,8.77,0,0,0,7.53-9.34l-.41-5.39s7-1.74,6.51-8.89-3.21-23.44-3.21-23.44h0A24.9,24.9,0,0,0,272.87,214l-1,.91,5.36,33.54A8.78,8.78,0,0,0,287.12,255.73Z" style="fill: rgb(183, 136, 118); transform-origin: 286.322px 231.616px;" id="ela5vfuvetfe" class="animable"></path><path d="M297,221.57a1,1,0,0,1-.2-1.46,1,1,0,1,1,1.66,1.26A1,1,0,0,1,297,221.57Z" style="fill: rgb(38, 50, 56); transform-origin: 297.622px 220.747px;" id="el4mf18t25jv" class="animable"></path><path d="M298.61,220c-.1.13-.85-.35-1.83-.26s-1.66.65-1.78.53,0-.28.33-.55a2.42,2.42,0,0,1,1.4-.58,2.35,2.35,0,0,1,1.48.37C298.53,219.73,298.66,220,298.61,220Z" style="fill: rgb(38, 50, 56); transform-origin: 296.787px 219.709px;" id="elfiytnwct2t" class="animable"></path><path d="M287.5,221.64a1,1,0,1,1-1.4.47A1,1,0,0,1,287.5,221.64Z" style="fill: rgb(38, 50, 56); transform-origin: 287.015px 222.514px;" id="el7y0mdekpj2i" class="animable"></path><path d="M288,221.82c-.1.14-.85-.34-1.84-.26s-1.65.65-1.77.53,0-.28.32-.55a2.45,2.45,0,0,1,1.41-.58,2.41,2.41,0,0,1,1.47.37C287.93,221.55,288.06,221.76,288,221.82Z" style="fill: rgb(38, 50, 56); transform-origin: 286.179px 221.53px;" id="el3mo129c067t" class="animable"></path><path d="M292.6,228.88a4.63,4.63,0,0,1,1.56-.48c.26-.05.45-.13.46-.27a1.42,1.42,0,0,0-.25-.72l-.95-1.93a27.38,27.38,0,0,1-2.14-5.11,28.19,28.19,0,0,1,2.65,4.87l.91,1.95a1.63,1.63,0,0,1,.23,1.06.7.7,0,0,1-.4.45,2.29,2.29,0,0,1-.44.09A5.23,5.23,0,0,1,292.6,228.88Z" style="fill: rgb(38, 50, 56); transform-origin: 293.181px 224.638px;" id="el87hwcwk2d7f" class="animable"></path><path d="M294.24,240.89a16.63,16.63,0,0,1-9.55-1.83s2.66,4.95,9.73,3.68Z" style="fill: rgb(163, 105, 87); transform-origin: 289.555px 241.004px;" id="elf0zamgbo45q" class="animable"></path><path d="M274.55,229.38c2.87,1.68,5.16-4.12,6-7.67a33.24,33.24,0,0,0,.39-11,5.33,5.33,0,0,0-1.14-3.36c-.88-.88-1,.31-2-.43-1.74-1.26-.3-1.48-1.78-1.07-2.54.7-7.49,6-7.56,8.79a26.76,26.76,0,0,0,1.52,8.17c.36,1.22.72,2.43,1.09,3.65a6.05,6.05,0,0,0,1.11,2.41,1.82,1.82,0,0,0,2.29.51" style="fill: rgb(38, 50, 56); transform-origin: 274.842px 217.67px;" id="elmmgc3j175yp" class="animable"></path><path d="M273.58,223.58a1.08,1.08,0,0,0-1.18-.92c-1.32.16-3.41,1-3.06,4.68.49,5.25,5.3,3.2,5.3,3S273.9,225.6,273.58,223.58Z" style="fill: rgb(183, 136, 118); transform-origin: 271.971px 226.777px;" id="elhnarz7v1dxp" class="animable"></path><path d="M273.18,228.52s-.08.07-.23.16a.92.92,0,0,1-.68.07,2.25,2.25,0,0,1-1.24-1.93,3,3,0,0,1,.13-1.33,1.08,1.08,0,0,1,.63-.77.47.47,0,0,1,.56.2c.08.14.06.25.09.26s.1-.1,0-.32a.56.56,0,0,0-.24-.31.69.69,0,0,0-.52-.08,1.29,1.29,0,0,0-.88.9,3.32,3.32,0,0,0-.18,1.49,2.4,2.4,0,0,0,1.55,2.15,1,1,0,0,0,.82-.22C273.18,228.65,273.2,228.53,273.18,228.52Z" style="fill: rgb(163, 105, 87); transform-origin: 271.893px 226.738px;" id="el2v64d487rr4" class="animable"></path><path d="M279.88,207.41a16.87,16.87,0,0,0,11.5,9.1,1.32,1.32,0,0,0,1.23-.17c.38-.41.11-1.1-.32-1.46a7.78,7.78,0,0,1-1.31-1l2.87,1.1a4.36,4.36,0,0,0,1.46.37,1.45,1.45,0,0,0,1.29-.63.9.9,0,0,0-.38-1.27,2.12,2.12,0,0,0,3.07-.11,3.15,3.15,0,0,0,.35-3.28,6.48,6.48,0,0,0-2.28-2.57c-4.2-3-9.72-3.51-14.87-3.1a16.88,16.88,0,0,0-4.69.91,7.25,7.25,0,0,0-3.67,2.93" style="fill: rgb(38, 50, 56); transform-origin: 287.038px 210.429px;" id="elloncaahsy3s" class="animable"></path><path d="M268.51,213.74a6.44,6.44,0,0,0-5.58-3.43,17,17,0,0,0-6.7,1.35c-1,.37-2.17.91-2.4,2a2.24,2.24,0,0,0,1.19,2.27,6.45,6.45,0,0,0,2.64.68,6.75,6.75,0,0,0-2,1,2.26,2.26,0,0,0-.88,1.93,1.39,1.39,0,0,0,1.53,1.23c.84-.18,1.51-1.29,2.28-.92a1.14,1.14,0,0,1,.47,1.26,8.55,8.55,0,0,0-.27,1.41,2,2,0,0,0,1.9,1.77,3.52,3.52,0,0,0,2.56-1.07,19.36,19.36,0,0,0,1.85-2.18,28,28,0,0,1,5.42-4.69" style="fill: rgb(38, 50, 56); transform-origin: 262.166px 217.3px;" id="elnq4ij2k343" class="animable"></path><path d="M294.3,232.39c0,.14-.43.33-1,.43s-1.07.06-1.09-.08.43-.34,1-.43S294.27,232.24,294.3,232.39Z" style="fill: rgb(38, 50, 56); transform-origin: 293.255px 232.566px;" id="el8i74znmum8s" class="animable"></path><path d="M286.74,218a11.06,11.06,0,0,1-2.05.29c-1.11.17-2,.52-2,.38s.75-.7,2-.89A2.88,2.88,0,0,1,286.74,218Z" style="fill: rgb(38, 50, 56); transform-origin: 284.715px 218.193px;" id="elpgux0weknu" class="animable"></path><path d="M296.74,216.42c0,.15-.76.14-1.64.24s-1.59.28-1.64.14.62-.55,1.58-.65S296.77,216.29,296.74,216.42Z" style="fill: rgb(38, 50, 56); transform-origin: 295.099px 216.489px;" id="elvbzuox0xsn" class="animable"></path><path d="M254.9,284.47s-5.46,30.24,1.52,34.34,47.43,8.49,47.43,8.49.71-11.21-12.48-13.52a174.78,174.78,0,0,1-20.68-4.69l1.86-21.48Z" style="fill: rgb(183, 136, 118); transform-origin: 278.362px 305.885px;" id="el0pehm9258y6" class="animable"></path><path d="M251.6,450.65l.73-10.22-19.15-1.49L232,453.89l1.18.17c5.26.7,26.8,3.21,30.42,2.41C267.59,455.58,251.6,450.65,251.6,450.65Z" style="fill: rgb(186, 104, 200); transform-origin: 248.12px 447.783px;" id="el4v8gxvqu1u8" class="animable"></path><g id="eli9ixnk57ugs"><g style="opacity: 0.3; transform-origin: 235.455px 451.275px;" class="animable"><path d="M238.91,454.28a6.66,6.66,0,0,0-2.12-4.27,6.44,6.44,0,0,0-4.37-1.74l-.42,5.35Z" style="fill: rgb(255, 255, 255); transform-origin: 235.455px 451.275px;" id="elj7yjw3efnb" class="animable"></path></g></g><g id="el6v92uzanqky"><g style="opacity: 0.3; transform-origin: 248.108px 454.965px;" class="animable"><path d="M259.39,453.34s5.58,2.09,4.79,3-22.64-.83-32.22-2.43l.06-.42,25.49,2.21S258.27,453.3,259.39,453.34Z" style="fill: rgb(255, 255, 255); transform-origin: 248.108px 454.965px;" id="el36s7pw4kc6y" class="animable"></path></g></g><path d="M231.72,453.43l.33.06.94.13,3.47.43c2.93.33,7,.74,11.47,1.1s8.56.58,11.51.71l3.49.13.95,0h.34l-.33,0-.95-.06-3.49-.2c-2.94-.17-7-.43-11.5-.79s-8.54-.73-11.47-1l-3.48-.35-.95-.08Z" style="fill: rgb(38, 50, 56); transform-origin: 247.97px 454.71px;" id="elcfbnd3xe8id" class="animable"></path><path d="M257.48,456a7.77,7.77,0,0,1,.78-1.62,8.26,8.26,0,0,1,1.29-1.23,2.53,2.53,0,0,0-1.48,1.1A2.57,2.57,0,0,0,257.48,456Z" style="fill: rgb(38, 50, 56); transform-origin: 258.514px 454.575px;" id="elfgmknxquci" class="animable"></path><path d="M252.05,452.67s.35-.27.66-.69.53-.79.48-.83-.35.27-.66.69S252,452.63,252.05,452.67Z" style="fill: rgb(38, 50, 56); transform-origin: 252.62px 451.908px;" id="elj5c0ytkjw4h" class="animable"></path><path d="M250.57,451.73s.35-.13.71-.4.6-.53.57-.58-.36.12-.71.39S250.53,451.67,250.57,451.73Z" style="fill: rgb(38, 50, 56); transform-origin: 251.209px 451.236px;" id="elhf2645dhy1f" class="animable"></path><path d="M249.73,449.84c0,.07.43.16,1,.21a2.31,2.31,0,0,0,1,0,2.26,2.26,0,0,0-1-.2A2.38,2.38,0,0,0,249.73,449.84Z" style="fill: rgb(38, 50, 56); transform-origin: 250.73px 449.948px;" id="elh64u1vo88dd" class="animable"></path><path d="M249.49,448.54a1.9,1.9,0,0,0,1.09.41,2,2,0,0,0,1.16-.06,5.81,5.81,0,0,0-1.12-.17A6.66,6.66,0,0,0,249.49,448.54Z" style="fill: rgb(38, 50, 56); transform-origin: 250.615px 448.774px;" id="el4ridq67hyb8" class="animable"></path><path d="M252.83,451.05a3.83,3.83,0,0,0,1.23.09,8.26,8.26,0,0,0,1.34-.19,3.81,3.81,0,0,0,.77-.25.71.71,0,0,0,.34-.36.5.5,0,0,0-.15-.51,2.25,2.25,0,0,0-2.84.45,2.13,2.13,0,0,0-.47.79.68.68,0,0,0-.06.33,3.31,3.31,0,0,1,.64-1,2.24,2.24,0,0,1,1.11-.6,1.92,1.92,0,0,1,1.46.21c.18.16.09.39-.14.5a4.23,4.23,0,0,1-.71.24,9.44,9.44,0,0,1-1.3.23C253.31,451,252.84,451,252.83,451.05Z" style="fill: rgb(38, 50, 56); transform-origin: 254.679px 450.457px;" id="el2ckja02fnik" class="animable"></path><path d="M253.15,451.13a1.24,1.24,0,0,0,.21-.84,2.15,2.15,0,0,0-.27-.93,1.25,1.25,0,0,0-1-.7.49.49,0,0,0-.42.54,1.37,1.37,0,0,0,.17.56,3.6,3.6,0,0,0,.52.79c.36.41.65.58.67.55s-.23-.24-.54-.65a4.59,4.59,0,0,1-.46-.78c-.15-.27-.23-.75.09-.78s.6.32.77.58a2.15,2.15,0,0,1,.28.83A4.18,4.18,0,0,1,253.15,451.13Z" style="fill: rgb(38, 50, 56); transform-origin: 252.517px 449.895px;" id="eljw2311rsw4a" class="animable"></path><path d="M232.52,448.22s.56,0,1.41.16a6.06,6.06,0,0,1,4.71,4.39c.22.85.21,1.4.25,1.4s0-.14,0-.39a5.39,5.39,0,0,0-.12-1,5.86,5.86,0,0,0-4.84-4.51,4.5,4.5,0,0,0-1.05-.05A1.27,1.27,0,0,0,232.52,448.22Z" style="fill: rgb(38, 50, 56); transform-origin: 235.714px 451.189px;" id="elr24dz3d7p3" class="animable"></path><path d="M235.13,440.41a33,33,0,0,0-.47,3.92,31.22,31.22,0,0,0-.24,3.94,35.74,35.74,0,0,0,.47-3.92A33.75,33.75,0,0,0,235.13,440.41Z" style="fill: rgb(38, 50, 56); transform-origin: 234.775px 444.34px;" id="elebf1ac1v0fa" class="animable"></path><path d="M241.47,452.6a11.1,11.1,0,0,0,2.77.5,10.73,10.73,0,0,0,2.82,0c0-.07-1.26-.09-2.8-.22S241.48,452.54,241.47,452.6Z" style="fill: rgb(38, 50, 56); transform-origin: 244.265px 452.891px;" id="el0dog7mi780f9" class="animable"></path><path d="M237.72,452.3c-.05.05.08.28.18.57s.16.56.22.56.13-.29,0-.64S237.76,452.26,237.72,452.3Z" style="fill: rgb(38, 50, 56); transform-origin: 237.951px 452.862px;" id="el1hz2zcjk9av" class="animable"></path><path d="M236.44,450.43c-.05,0,.06.25.24.47s.37.36.42.32-.06-.25-.24-.47S236.49,450.39,236.44,450.43Z" style="fill: rgb(38, 50, 56); transform-origin: 236.77px 450.825px;" id="el283a2sh8w59" class="animable"></path><path d="M234.48,449.47c0,.07.26.08.53.2s.47.29.52.25-.08-.32-.42-.46S234.46,449.41,234.48,449.47Z" style="fill: rgb(38, 50, 56); transform-origin: 235.01px 449.656px;" id="elfhhmzdpgg6" class="animable"></path><path d="M233.07,449c0,.06.07.16.23.24s.3.08.33,0-.08-.17-.23-.24S233.09,448.92,233.07,449Z" style="fill: rgb(38, 50, 56); transform-origin: 233.352px 449.122px;" id="elbimnb9c7fmb" class="animable"></path><path d="M310.46,451.14l-.25-10.25-19.21.36.22,15,1.19.06c5.31.19,27,.61,30.51-.53C326.85,454.51,310.46,451.14,310.46,451.14Z" style="fill: rgb(186, 104, 200); transform-origin: 307.264px 448.717px;" id="elwqkdwtvhv1h" class="animable"></path><g id="ellp0bumsr0jq"><g style="opacity: 0.3; transform-origin: 294.66px 453.312px;" class="animable"><path d="M298.18,456a6.64,6.64,0,0,0-2.53-4.05,6.48,6.48,0,0,0-4.51-1.31l.09,5.37Z" style="fill: rgb(255, 255, 255); transform-origin: 294.66px 453.312px;" id="elh2syopuiro" class="animable"></path></g></g><g id="elggv3bmlvs74"><g style="opacity: 0.3; transform-origin: 307.359px 454.828px;" class="animable"><path d="M318.48,453.07s5.75,1.54,5,2.5-22.62,1.35-32.31.68l0-.43,25.58-.25S317.36,453.14,318.48,453.07Z" style="fill: rgb(255, 255, 255); transform-origin: 307.359px 454.828px;" id="el7at0stx6cgm" class="animable"></path></g></g><path d="M290.94,455.82l.33,0,1,0,3.49.08c3,0,7,.07,11.53,0s8.58-.24,11.53-.4l3.48-.21.95-.07.33,0h-.33l-.95,0-3.49.14c-2.95.11-7,.24-11.52.32s-8.57.09-11.52.08h-4.45A1.25,1.25,0,0,0,290.94,455.82Z" style="fill: rgb(38, 50, 56); transform-origin: 307.26px 455.576px;" id="elo5wlr1f89lc" class="animable"></path><path d="M316.82,455.87a7.76,7.76,0,0,1,.63-1.68,7.45,7.45,0,0,1,1.16-1.35,2.61,2.61,0,0,0-1.37,1.24A2.65,2.65,0,0,0,316.82,455.87Z" style="fill: rgb(38, 50, 56); transform-origin: 317.705px 454.355px;" id="elz5rc2mpb42k" class="animable"></path><path d="M311.1,453.1c.06,0,.32-.3.6-.75a2,2,0,0,0,.39-.87s-.32.31-.59.75A2.25,2.25,0,0,0,311.1,453.1Z" style="fill: rgb(38, 50, 56); transform-origin: 311.595px 452.29px;" id="eldijkmt6twrw" class="animable"></path><path d="M309.53,452.31c.05,0,.35-.16.67-.47s.56-.58.51-.63-.34.16-.67.46S309.49,452.26,309.53,452.31Z" style="fill: rgb(38, 50, 56); transform-origin: 310.121px 451.756px;" id="elz0dz0t1al7n" class="animable"></path><path d="M308.52,450.51a2.06,2.06,0,0,0,1,.11,2.33,2.33,0,0,0,1-.12c0-.07-.45-.11-1-.11A2.3,2.3,0,0,0,308.52,450.51Z" style="fill: rgb(38, 50, 56); transform-origin: 309.52px 450.509px;" id="elmu60mpj4v7" class="animable"></path><path d="M308.16,449.24a1.94,1.94,0,0,0,1.12.31,2,2,0,0,0,1.15-.18,5.84,5.84,0,0,0-1.13-.06A6.92,6.92,0,0,0,308.16,449.24Z" style="fill: rgb(38, 50, 56); transform-origin: 309.295px 449.404px;" id="el1u27fk0knas" class="animable"></path><path d="M311.73,451.41a3.27,3.27,0,0,0,1.23,0,7.17,7.17,0,0,0,1.31-.31,3.6,3.6,0,0,0,.74-.32.63.63,0,0,0,.3-.39.48.48,0,0,0-.19-.49,2.27,2.27,0,0,0-2.79.71,2.22,2.22,0,0,0-.39.83c0,.21,0,.33,0,.34a3.26,3.26,0,0,1,.54-1.07,2.18,2.18,0,0,1,1-.7,1.92,1.92,0,0,1,1.47.07c.2.14.13.38-.08.51a4.71,4.71,0,0,1-.69.31,8.26,8.26,0,0,1-1.27.35C312.2,451.37,311.72,451.38,311.73,451.41Z" style="fill: rgb(38, 50, 56); transform-origin: 313.525px 450.733px;" id="el7c6tw7u6625" class="animable"></path><path d="M312.05,451.47a1.3,1.3,0,0,0,.12-.86,2,2,0,0,0-.35-.9,1.24,1.24,0,0,0-1-.61.5.5,0,0,0-.37.58,1.44,1.44,0,0,0,.22.55,3.55,3.55,0,0,0,.6.73,1.74,1.74,0,0,0,.71.49s-.25-.22-.59-.6a4.07,4.07,0,0,1-.54-.73c-.17-.26-.29-.73,0-.79s.63.27.83.51a2,2,0,0,1,.36.8A5.09,5.09,0,0,1,312.05,451.47Z" style="fill: rgb(38, 50, 56); transform-origin: 311.319px 450.285px;" id="elv7udqegsuy" class="animable"></path><path d="M291.24,450.55c0,.05.55-.06,1.42,0a6,6,0,0,1,5.1,3.92c.31.81.35,1.37.39,1.36a1.17,1.17,0,0,0,0-.39,4.81,4.81,0,0,0-.23-1,5.87,5.87,0,0,0-2-2.83,6,6,0,0,0-3.25-1.2,5.32,5.32,0,0,0-1.06,0A1.37,1.37,0,0,0,291.24,450.55Z" style="fill: rgb(38, 50, 56); transform-origin: 294.703px 453.107px;" id="elhqvm6nwit2e" class="animable"></path><path d="M293.08,442.53a35.83,35.83,0,0,0-.09,3.94,31.52,31.52,0,0,0,.14,3.95,36.09,36.09,0,0,0,.09-3.95A31.29,31.29,0,0,0,293.08,442.53Z" style="fill: rgb(38, 50, 56); transform-origin: 293.105px 446.475px;" id="eljc1gnlsojn8" class="animable"></path><path d="M300.56,454.05a10.68,10.68,0,0,0,2.81.23,10.36,10.36,0,0,0,2.81-.28c0-.06-1.26,0-2.81.05S300.57,454,300.56,454.05Z" style="fill: rgb(38, 50, 56); transform-origin: 303.37px 454.134px;" id="ela9xxaxyf54n" class="animable"></path><path d="M296.8,454.12c-.05,0,.11.26.24.55s.21.54.27.53.1-.31-.06-.63S296.84,454.07,296.8,454.12Z" style="fill: rgb(38, 50, 56); transform-origin: 297.077px 454.656px;" id="elwgkar46sel" class="animable"></path><path d="M295.35,452.38c-.05,0,.08.24.28.44s.41.32.45.27-.08-.24-.28-.44S295.39,452.33,295.35,452.38Z" style="fill: rgb(38, 50, 56); transform-origin: 295.713px 452.735px;" id="ellxn9otcsmpn" class="animable"></path><path d="M293.3,451.61c0,.06.27.06.56.15s.49.24.54.2-.12-.31-.47-.42S293.28,451.55,293.3,451.61Z" style="fill: rgb(38, 50, 56); transform-origin: 293.854px 451.731px;" id="el3y6mwsh4t9x" class="animable"></path><path d="M291.85,451.25c0,.06.09.16.25.22s.31.06.33,0-.09-.16-.25-.22S291.87,451.19,291.85,451.25Z" style="fill: rgb(38, 50, 56); transform-origin: 292.141px 451.36px;" id="elh6yiy4w8ljk" class="animable"></path><path d="M293.56,322.31l-65.86-.83,13.77,31,42.12.17,4.07,94.87h25.73l-2.45-105.82a20,20,0,0,0-17.38-19.36Z" style="fill: rgb(38, 50, 56); transform-origin: 270.545px 384.5px;" id="eluhaphzo0gbq" class="animable"></path><path d="M286.81,440.18c0-.14,6-.26,13.33-.26s13.34.12,13.34.26-6,.26-13.34.26S286.81,440.33,286.81,440.18Z" style="fill: rgb(69, 90, 100); transform-origin: 300.145px 440.18px;" id="elzw609q8l41" class="animable"></path><path d="M231,355l-1.86,91.1,29.77,1.46s4.74-89.26,2.37-114.59c-1.61-17.34-67.77-9.88-67.77-9.88C192.53,357.59,231,355,231,355" style="fill: rgb(38, 50, 56); transform-origin: 227.718px 384.527px;" id="el9bf568ps8kk" class="animable"></path><path d="M229.12,438.9a4.73,4.73,0,0,1,1.15,0l3.12.08c2.63.08,6.26.24,10.28.44s7.65.41,10.27.59l3.11.24a5.39,5.39,0,0,1,1.14.16,4.73,4.73,0,0,1-1.15.05l-3.12-.08c-2.63-.08-6.27-.24-10.28-.44s-7.65-.42-10.28-.6l-3.11-.24A4.92,4.92,0,0,1,229.12,438.9Z" style="fill: rgb(69, 90, 100); transform-origin: 243.655px 439.67px;" id="elotdsoz81mzn" class="animable"></path><path d="M230.6,347.33a37.55,37.55,0,0,1,.5,8.82,18.78,18.78,0,0,1-.51-4.4A18.4,18.4,0,0,1,230.6,347.33Z" style="fill: rgb(69, 90, 100); transform-origin: 230.816px 351.74px;" id="elhmh4xz0vi1o" class="animable"></path><path d="M229.45,321.66a2.39,2.39,0,0,1,.56,0l1.61,0c1.4,0,3.42.11,5.92.25s5.48.36,8.77.85a25.64,25.64,0,0,1,10.15,3.65,11.62,11.62,0,0,1,2.18,1.89,7.61,7.61,0,0,1,1.42,2.44,25.16,25.16,0,0,1,1.05,5.13,86.8,86.8,0,0,1,.36,8.8c0,2.44,0,4.45,0,5.92,0,.65,0,1.18,0,1.61a2,2,0,0,1,0,.56,3.28,3.28,0,0,1-.08-.55c0-.37-.07-.91-.11-1.61-.07-1.4-.12-3.43-.17-5.93s-.09-5.48-.47-8.75a24.74,24.74,0,0,0-1.05-5,8.34,8.34,0,0,0-3.41-4.07,25.56,25.56,0,0,0-9.94-3.6c-3.25-.52-6.22-.77-8.71-1l-5.91-.42-1.61-.13A1.8,1.8,0,0,1,229.45,321.66Z" style="fill: rgb(69, 90, 100); transform-origin: 245.47px 337.202px;" id="elcidvuwsfstt" class="animable"></path><path d="M193.3,322.73l4.07-32.11-4.2-32.87c2.76-15.38,24.31-16.44,24.31-16.44L234.4,241s11-.37,19.74,4.38l15,6.56c-5.51,2.74-9.82,6.8-11.08,11.36l-7.65.68-.17,23.66h-.11l-1.78,33.79Z" style="fill: rgb(69, 90, 100); transform-origin: 231.155px 281.862px;" id="eluhyxbyapqgb" class="animable"></path><path d="M217.31,240.85a17.52,17.52,0,0,0,1.49,3.35,9,9,0,0,0,7.42,3.9,8.84,8.84,0,0,0,7.43-3.85,9.56,9.56,0,0,0,1.07-2.44,5,5,0,0,1,.28-1,2.82,2.82,0,0,1-.09,1,7.77,7.77,0,0,1-.94,2.59,8.08,8.08,0,0,1-2.91,2.87,9.42,9.42,0,0,1-4.84,1.31,9.22,9.22,0,0,1-4.83-1.35,8.46,8.46,0,0,1-2.9-2.87,8.85,8.85,0,0,1-1-2.55A3.12,3.12,0,0,1,217.31,240.85Z" style="fill: rgb(38, 50, 56); transform-origin: 226.161px 244.695px;" id="el64d1ue3l2p4" class="animable"></path><path d="M270.73,293.61a2.54,2.54,0,0,0,.28-4.84,4.23,4.23,0,0,0-6.34-4.63,7.34,7.34,0,0,0-14.29.64,4,4,0,0,0-5.3,4.2Z" style="fill: rgb(224, 224, 224); transform-origin: 258.855px 286.189px;" id="elszfnv79gcrr" class="animable"></path><polygon points="243.15 288.01 244.69 321.58 263.48 325.27 274.57 293.24 243.15 288.01" style="fill: rgb(186, 104, 200); transform-origin: 258.86px 306.64px;" id="el8n2899qrnbe" class="animable"></polygon><g id="elvpm9ju0etql"><polygon points="243.15 288.01 244.69 321.58 248.66 322.36 248.66 288.92 243.15 288.01" style="fill: rgb(255, 255, 255); opacity: 0.2; transform-origin: 245.905px 305.185px;" class="animable"></polygon></g><g id="elnz8u4fcd3bo"><polygon points="248.66 288.92 248.66 322.36 252.66 323.15 254.73 289.94 248.66 288.92" style="opacity: 0.3; transform-origin: 251.695px 306.035px;" class="animable"></polygon></g><g id="elb2w4odfetpj"><polygon points="252.66 323.15 254.73 289.94 261.55 291.07 256 323.8 252.66 323.15" style="fill: rgb(255, 255, 255); opacity: 0.2; transform-origin: 257.105px 306.87px;" class="animable"></polygon></g><g id="el95kn2qdlw37"><polygon points="261.55 291.07 256 323.8 260.19 324.63 268.23 292.19 261.55 291.07" style="opacity: 0.3; transform-origin: 262.115px 307.85px;" class="animable"></polygon></g><g id="elhxv8kjwb0x"><polygon points="268.23 292.19 260.19 324.63 263.48 325.27 274.57 293.24 268.23 292.19" style="fill: rgb(255, 255, 255); opacity: 0.2; transform-origin: 267.38px 308.73px;" class="animable"></polygon></g><path d="M204.39,254.69A23.37,23.37,0,0,1,213.17,272c.43,10.5,1.08,25.09,1.47,25.82,1.2,2.25,33,.33,36.38.09.56-.17,1.73-.52,4-1.24,0,0,7.44-6.44,8.79-4.51s-3.9,3.18-4.92,7,9.55.83,10.23.37l2.73-.78s-1.62,5.19-3,6.83c-4.42,5.26-14.5,7.91-14.5,7.91s-41.22,13.39-57.88,2.33c-5.43-3.61-6.36-39.05-4.3-52.75a10.94,10.94,0,0,1,11-9.32Z" style="fill: rgb(255, 190, 157); transform-origin: 231.505px 286.973px;" id="el25yjztq6uew" class="animable"></path><path d="M265.54,304.59a20.74,20.74,0,0,1,2.51-1.31,21.9,21.9,0,0,1,2.53-1.25,9.23,9.23,0,0,1-2.39,1.53A9.5,9.5,0,0,1,265.54,304.59Z" style="fill: rgb(235, 153, 110); transform-origin: 268.06px 303.31px;" id="el3u5b0nhugz4" class="animable"></path><path d="M206.89,245s-20.93,1.77-17.46,38.87L216,278Z" style="fill: rgb(69, 90, 100); transform-origin: 202.521px 264.435px;" id="eliflapin7i8" class="animable"></path><path d="M206.33,245.42a7.13,7.13,0,0,1,2.33,1,12.21,12.21,0,0,1,4.39,5.26c2.59,5.32,3.44,13.45,4.11,22.24.1,1.32.2,2.63.29,3.86l0,.23-.23,0c-7.81,1.46-14.69,3-19.6,4.16-2.45.59-4.42,1.1-5.77,1.45l-1.56.4a2.12,2.12,0,0,1-.55.11,1.74,1.74,0,0,1,.52-.2c.35-.12.87-.29,1.54-.49,1.33-.41,3.29-1,5.74-1.61,4.89-1.29,11.77-2.85,19.59-4.32l-.21.27c-.1-1.23-.2-2.53-.3-3.86-.66-8.78-1.47-16.86-3.93-22.12a12.26,12.26,0,0,0-4.16-5.25A16.13,16.13,0,0,0,206.33,245.42Z" style="fill: rgb(38, 50, 56); transform-origin: 203.595px 264.775px;" id="eln2k63mfqou" class="animable"></path><path d="M226.2,248.19h0a9,9,0,0,0,9-9.05c0-3.11-.09-5.8-.09-5.8s7.19-.66,7.72-7.78.3-23.53.3-23.53h0A24.79,24.79,0,0,0,218,203.62l-1.11.74.34,35A9,9,0,0,0,226.2,248.19Z" style="fill: rgb(255, 190, 157); transform-origin: 230.035px 223.769px;" id="el45ax34451ja" class="animable"></path><path d="M235.44,224c0,.14-.56.3-1.27.36s-1.31,0-1.32-.16.56-.31,1.28-.36S235.43,223.8,235.44,224Z" style="fill: rgb(38, 50, 56); transform-origin: 234.145px 224.099px;" id="ele6uhhq7j025" class="animable"></path><path d="M231.18,207.43a20.73,20.73,0,0,1-2.18,0,18,18,0,0,1-2.17.26,3,3,0,0,1,2.13-.78A2.9,2.9,0,0,1,231.18,207.43Z" style="fill: rgb(38, 50, 56); transform-origin: 229.005px 207.278px;" id="elj5jtq34akck" class="animable"></path><path d="M242.05,207.68c-.06.13-.83-.14-1.8-.22s-1.77.06-1.82-.08.77-.53,1.86-.44S242.13,207.56,242.05,207.68Z" style="fill: rgb(38, 50, 56); transform-origin: 240.242px 207.321px;" id="elmcbne3wmvlh" class="animable"></path><path d="M235.24,221.18a5,5,0,0,0,1.62.15,1.8,1.8,0,0,0,.44,0,.64.64,0,0,0,.46-.38,1.66,1.66,0,0,0-.07-1.07l-.61-2a27.19,27.19,0,0,0-1.89-5.18,28.1,28.1,0,0,0,1.36,5.34c.23.7.44,1.38.65,2a1.37,1.37,0,0,1,.14.75c0,.14-.23.18-.49.19A4.79,4.79,0,0,0,235.24,221.18Z" style="fill: rgb(38, 50, 56); transform-origin: 236.504px 217.022px;" id="el7v8gfs69mgk" class="animable"></path><path d="M235.08,233.24A16.58,16.58,0,0,1,226,230s1.88,5.26,9,5.06Z" style="fill: rgb(235, 153, 110); transform-origin: 230.54px 232.533px;" id="el3r8e7q1jlj4" class="animable"></path><path d="M218.76,212.23c-.13,0-4.51-.62-4.09,4.55s5.49,3,5.48,2.88S218.76,212.23,218.76,212.23Z" style="fill: rgb(255, 190, 157); transform-origin: 217.396px 216.21px;" id="el5lhrxqvv26e" class="animable"></path><path d="M218.43,218s-.09.07-.23.15a.92.92,0,0,1-.68.07,2.24,2.24,0,0,1-1.18-1.92,2.92,2.92,0,0,1,.14-1.3,1,1,0,0,1,.63-.75.47.47,0,0,1,.55.21c.08.14.05.24.08.25s.1-.1,0-.31a.53.53,0,0,0-.23-.3.68.68,0,0,0-.51-.1,1.28,1.28,0,0,0-.88.88,3,3,0,0,0-.19,1.46,2.33,2.33,0,0,0,1.49,2.13,1,1,0,0,0,.81-.2C218.43,218.11,218.45,218,218.43,218Z" style="fill: rgb(235, 153, 110); transform-origin: 217.173px 216.237px;" id="ell2gm72rxxji" class="animable"></path><path d="M242.52,202.45a4.09,4.09,0,0,0,2.93-4.07,5,5,0,0,0-3-4.23,6.5,6.5,0,0,0-5.27.09,5.7,5.7,0,0,0-11.24.31c-.17-1.37-1.72-2.14-3.1-2.22a4.55,4.55,0,0,0-3.76,1.37,2.8,2.8,0,0,0,0,3.75,6.34,6.34,0,0,0-4.41,1.06,4.66,4.66,0,0,0-2,4,3.72,3.72,0,0,0,2.78,3.33c.52.11.65-.24.93.21a4.34,4.34,0,0,1,.21,1.49,19.91,19.91,0,0,0,.29,4.87,2,2,0,0,1,2.48,1.11,5.66,5.66,0,0,1,.28,3c.44.66,1.55.46,2-.17a3.75,3.75,0,0,0,.52-2.27l.11-8.24a2.73,2.73,0,0,0,4.05-2.25,5.43,5.43,0,0,0,8.37-1,12.71,12.71,0,0,0,2.7,1.8,4.42,4.42,0,0,0,3.17.27,2.66,2.66,0,0,0,1.85-2.41l-.36-.31" style="fill: rgb(186, 104, 200); transform-origin: 229.06px 203.281px;" id="el4gcvqgwyjpy" class="animable"></path><path d="M242.18,212.17a.93.93,0,0,1-.9,1,.93.93,0,1,1,.9-1Z" style="fill: rgb(38, 50, 56); transform-origin: 241.253px 212.24px;" id="elzfk6etkuo2" class="animable"></path><path d="M242.15,211.8c-.12.12-.8-.45-1.78-.49s-1.7.46-1.8.33.06-.29.38-.52a2.38,2.38,0,0,1,1.45-.42,2.35,2.35,0,0,1,1.41.55C242.11,211.51,242.21,211.74,242.15,211.8Z" style="fill: rgb(38, 50, 56); transform-origin: 240.354px 211.257px;" id="elkjk9bynx82" class="animable"></path><path d="M231.34,212.17a.91.91,0,1,1-.93-.91A.92.92,0,0,1,231.34,212.17Z" style="fill: rgb(38, 50, 56); transform-origin: 230.43px 212.17px;" id="el12xa6lidn0ia" class="animable"></path><path d="M231.31,212c-.11.13-.79-.45-1.77-.48s-1.71.46-1.81.32.07-.28.38-.51a2.32,2.32,0,0,1,1.45-.42,2.35,2.35,0,0,1,1.41.55C231.27,211.7,231.37,211.93,231.31,212Z" style="fill: rgb(38, 50, 56); transform-origin: 229.514px 211.463px;" id="elb93bhlys95s" class="animable"></path></g><defs>     <filter id="active" height="200%">         <feMorphology in="SourceAlpha" result="DILATED" operator="dilate" radius="2"></feMorphology>                <feFlood flood-color="#32DFEC" flood-opacity="1" result="PINK"></feFlood>        <feComposite in="PINK" in2="DILATED" operator="in" result="OUTLINE"></feComposite>        <feMerge>            <feMergeNode in="OUTLINE"></feMergeNode>            <feMergeNode in="SourceGraphic"></feMergeNode>        </feMerge>    </filter>    <filter id="hover" height="200%">        <feMorphology in="SourceAlpha" result="DILATED" operator="dilate" radius="2"></feMorphology>                <feFlood flood-color="#ff0000" flood-opacity="0.5" result="PINK"></feFlood>        <feComposite in="PINK" in2="DILATED" operator="in" result="OUTLINE"></feComposite>        <feMerge>            <feMergeNode in="OUTLINE"></feMergeNode>            <feMergeNode in="SourceGraphic"></feMergeNode>        </feMerge>            <feColorMatrix type="matrix" values="0   0   0   0   0                0   1   0   0   0                0   0   0   0   0                0   0   0   1   0 "></feColorMatrix>    </filter></defs></svg>